# Blender 5.0.0
# www.blender.org
o Grass_Patch_Medium
v 0.011367 -0.045402 -0.022266
v -0.005187 -0.045402 -0.013775
v 0.012650 0.097364 0.000615
v 0.016250 0.077575 -0.009660
v 0.002203 0.077575 -0.002455
v 0.029818 -0.048409 0.041422
v 0.050441 -0.048409 0.038661
v 0.037020 0.111256 0.016825
v 0.030319 0.089124 0.026184
v 0.045949 0.089124 0.024091
v -0.045004 -0.048409 0.020412
v -0.044919 -0.048409 -0.000394
v -0.068385 0.111256 0.009914
v -0.060031 0.089124 0.017979
v -0.059965 0.089124 0.001916
v -0.015573 -0.049368 -0.074540
v 0.005736 -0.049368 -0.071618
v -0.001628 0.115684 -0.097068
v -0.011069 0.092805 -0.089612
v 0.005456 0.092805 -0.087346
v 0.069734 -0.057759 -0.054619
v 0.042559 -0.057759 -0.049495
v 0.061915 0.154449 -0.021463
v 0.069815 0.125033 -0.034296
v 0.049884 0.125033 -0.030539
v -0.066139 -0.053376 -0.065226
v -0.063826 -0.053376 -0.040891
v -0.037587 0.134203 -0.055662
v -0.048305 0.108201 -0.064296
v -0.046487 0.108201 -0.045164
v -0.009305 -0.053340 0.068691
v -0.000532 -0.053340 0.091477
v 0.020735 0.134033 0.070207
v 0.008038 0.108060 0.064624
v 0.015060 0.108060 0.082862
v 0.070052 -0.051065 0.078339
v 0.060261 -0.051065 0.057802
v 0.042036 0.123524 0.079094
v 0.054481 0.099323 0.083885
v 0.046148 0.099323 0.066408
v -0.072458 -0.044341 0.057111
v -0.085537 -0.044341 0.044996
v -0.092637 0.092463 0.065777
v -0.082595 0.073500 0.065283
v -0.092911 0.073500 0.055727
v 0.080167 -0.045992 -0.023398
v 0.092190 -0.045992 -0.008639
v 0.102795 0.100091 -0.029554
v 0.092422 0.079841 -0.030138
v 0.101268 0.079841 -0.019278
vn -0.4537 0.1087 -0.8845
vn -0.4268 0.3544 -0.8320
vn -0.4507 0.1573 -0.8787
vn 0.1320 0.1087 0.9853
vn 0.1241 0.3544 0.9268
vn 0.1313 0.1476 0.9803
vn 0.1304 0.1871 0.9736
vn 0.9941 0.1087 0.0040
vn 0.9351 0.3544 0.0038
vn 0.9641 0.2654 0.0039
vn 0.9898 0.1424 0.0040
vn -0.1351 0.1087 0.9849
vn -0.1271 0.3544 0.9264
vn -0.1345 0.1427 0.9806
vn -0.1325 0.2217 0.9661
vn -0.1842 0.1087 -0.9769
vn -0.1733 0.3544 -0.9189
vn -0.1832 0.1496 -0.9716
vn -0.1821 0.1831 -0.9661
vn -0.9896 0.1087 0.0941
vn -0.9309 0.3544 0.0885
vn -0.9603 0.2637 0.0913
vn -0.9852 0.1438 0.0936
vn -0.9277 0.1087 0.3572
vn -0.8727 0.3544 0.3360
vn -0.9098 0.2225 0.3503
vn -0.9212 0.1601 0.3547
vn 0.8973 0.1087 -0.4278
vn 0.8441 0.3544 -0.4024
vn 0.8852 0.1956 -0.4220
vn 0.8885 0.1766 -0.4236
vn 0.6755 0.1087 -0.7293
vn 0.6355 0.3544 -0.6860
vn 0.6724 0.1444 -0.7259
vn 0.6558 0.2623 -0.7079
vn -0.7707 0.1087 0.6278
vn -0.7250 0.3544 0.5906
vn -0.7665 0.1503 0.6244
vn -0.7512 0.2475 0.6119
vt 0.766388 0.861086
vt 0.766388 0.861086
vt 0.766388 0.879437
vt 0.766388 0.747049
vt 0.766388 0.747049
vt 0.766388 0.871796
vt 0.766387 0.871796
vt 0.766387 0.892319
vt 0.766387 0.744261
vt 0.766388 0.744261
vt 0.766389 0.871796
vt 0.766389 0.892319
vt 0.766389 0.744261
vt 0.766388 0.875209
vt 0.766388 0.875209
vt 0.766388 0.896425
vt 0.766388 0.743372
vt 0.766388 0.743372
vt 0.766387 0.905095
vt 0.766387 0.905095
vt 0.766387 0.932372
vt 0.766387 0.735590
vt 0.766387 0.735590
vt 0.766389 0.889486
vt 0.766389 0.889486
vt 0.766389 0.913598
vt 0.766389 0.739655
vt 0.766389 0.739655
vt 0.766388 0.889355
vt 0.766388 0.889355
vt 0.766388 0.913440
vt 0.766388 0.739689
vt 0.766388 0.739689
vt 0.766387 0.881253
vt 0.766387 0.881253
vt 0.766387 0.903695
vt 0.766387 0.741798
vt 0.766387 0.741798
vt 0.766389 0.857307
vt 0.766390 0.857307
vt 0.766390 0.874892
vt 0.766389 0.748033
vt 0.766389 0.748033
vt 0.766386 0.863188
vt 0.766386 0.863188
vt 0.766386 0.881965
vt 0.766386 0.746502
vt 0.766387 0.746502
s 1
f 4/1/3 5/2/3 3/3/2
f 2/4/1 5/2/3 4/1/3 1/5/1
f 9/6/6 10/7/7 8/8/5
f 7/9/4 10/7/7 9/6/6 6/10/4
f 14/11/10 15/11/11 13/12/9
f 12/13/8 15/11/11 14/11/10 11/13/8
f 19/14/14 20/15/15 18/16/13
f 17/17/12 20/15/15 19/14/14 16/18/12
f 24/19/18 25/20/19 23/21/17
f 22/22/16 25/20/19 24/19/18 21/23/16
f 29/24/22 30/25/23 28/26/21
f 27/27/20 30/25/23 29/24/22 26/28/20
f 34/29/26 35/30/27 33/31/25
f 32/32/24 35/30/27 34/29/26 31/33/24
f 39/34/30 40/35/31 38/36/29
f 37/37/28 40/35/31 39/34/30 36/38/28
f 44/39/34 45/40/35 43/41/33
f 42/42/32 45/40/35 44/39/34 41/43/32
f 49/44/38 50/45/39 48/46/37
f 47/47/36 50/45/39 49/44/38 46/48/36
