# Blender 5.0.0
# www.blender.org
o Grass_Patch_Small
v 0.011367 -0.045402 -0.022266
v -0.005187 -0.045402 -0.013775
v 0.012650 0.097364 0.000615
v 0.016250 0.077575 -0.009660
v 0.002203 0.077575 -0.002455
v 0.021315 -0.048409 0.036969
v 0.041938 -0.048409 0.034207
v 0.028517 0.111256 0.012371
v 0.021815 0.089124 0.021731
v 0.037445 0.089124 0.019638
v -0.020623 -0.048409 0.020412
v -0.020538 -0.048409 -0.000394
v -0.044004 0.127945 0.009914
v -0.035650 0.105813 0.017979
v -0.035584 0.105813 0.001916
vn -0.4537 0.1087 -0.8845
vn -0.4268 0.3544 -0.8320
vn -0.4507 0.1573 -0.8787
vn 0.1320 0.1087 0.9853
vn 0.1241 0.3544 0.9268
vn 0.1313 0.1476 0.9803
vn 0.1304 0.1871 0.9736
vn 0.9953 0.0970 0.0041
vn 0.9351 0.3544 0.0038
vn 0.9659 0.2587 0.0039
vn 0.9911 0.1330 0.0040
vt 0.766388 0.861086
vt 0.766388 0.861086
vt 0.766388 0.879437
vt 0.766388 0.747049
vt 0.766388 0.747049
vt 0.766388 0.871796
vt 0.766387 0.871796
vt 0.766387 0.892319
vt 0.766387 0.744261
vt 0.766388 0.744261
vt 0.766389 0.889296
vt 0.766389 0.909819
vt 0.766389 0.744261
s 1
f 4/1/3 5/2/3 3/3/2
f 2/4/1 5/2/3 4/1/3 1/5/1
f 9/6/6 10/7/7 8/8/5
f 7/9/4 10/7/7 9/6/6 6/10/4
f 14/11/10 15/11/11 13/12/9
f 12/13/8 15/11/11 14/11/10 11/13/8
