# Blender 4.5.3 LTS
# www.blender.org
mtllib DiamondSign.mtl
o DiamondSign
v 0.000000 0.000000 -0.050000
v 0.000000 3.000000 -0.050000
v 0.019134 0.000000 -0.046194
v 0.019134 3.000000 -0.046194
v 0.035355 0.000000 -0.035355
v 0.035355 3.000000 -0.035355
v 0.046194 0.000000 -0.019134
v 0.046194 3.000000 -0.019134
v 0.050000 0.000000 0.000000
v 0.050000 3.000000 0.000000
v 0.046194 0.000000 0.019134
v 0.046194 3.000000 0.019134
v 0.035355 0.000000 0.035355
v 0.035355 3.000000 0.035355
v 0.019134 0.000000 0.046194
v 0.019134 3.000000 0.046194
v 0.000000 0.000000 0.050000
v 0.000000 3.000000 0.050000
v -0.019134 0.000000 0.046194
v -0.019134 3.000000 0.046194
v -0.035355 0.000000 0.035355
v -0.035355 3.000000 0.035355
v -0.046194 0.000000 0.019134
v -0.046194 3.000000 0.019134
v -0.050000 0.000000 0.000000
v -0.050000 3.000000 0.000000
v -0.046194 0.000000 -0.019134
v -0.046194 3.000000 -0.019134
v -0.035355 0.000000 -0.035355
v -0.035355 3.000000 -0.035355
v -0.019134 0.000000 -0.046194
v -0.019134 3.000000 -0.046194
v 0.000000 0.042218 -0.050000
v 0.019134 0.042218 -0.046194
v 0.035355 0.042218 -0.035355
v 0.046194 0.042218 -0.019134
v 0.050000 0.042218 0.000000
v 0.046194 0.042218 0.019134
v 0.035355 0.042218 0.035355
v 0.019134 0.042218 0.046194
v 0.000000 0.042218 0.050000
v -0.019134 0.042218 0.046194
v -0.035355 0.042218 0.035355
v -0.046194 0.042218 0.019134
v -0.050000 0.042218 0.000000
v -0.046194 0.042218 -0.019134
v -0.035355 0.042218 -0.035355
v -0.019134 0.042218 -0.046194
v 0.000000 -0.001188 -0.083798
v 0.032068 -0.001188 -0.077419
v 0.032068 0.025320 -0.077419
v 0.059254 -0.001188 -0.059254
v 0.059254 0.025320 -0.059254
v 0.077419 -0.001188 -0.032068
v 0.077419 0.025320 -0.032068
v 0.083798 -0.001188 0.000000
v 0.083798 0.025320 0.000000
v 0.077419 -0.001188 0.032068
v 0.077419 0.025320 0.032068
v 0.059254 -0.001188 0.059254
v 0.059254 0.025320 0.059254
v 0.032068 -0.001188 0.077419
v 0.032068 0.025320 0.077419
v 0.000000 -0.001188 0.083798
v 0.000000 0.025320 0.083798
v -0.032068 -0.001188 0.077419
v -0.032068 0.025320 0.077419
v -0.059254 -0.001188 0.059254
v -0.059254 0.025320 0.059254
v -0.077419 -0.001188 0.032068
v -0.077419 0.025320 0.032068
v -0.083798 -0.001188 0.000000
v -0.083798 0.025320 0.000000
v -0.077419 -0.001188 -0.032068
v -0.077419 0.025320 -0.032068
v -0.059254 -0.001188 -0.059254
v -0.059254 0.025320 -0.059254
v -0.032068 -0.001188 -0.077419
v -0.032068 0.025320 -0.077419
v 0.000000 0.025320 -0.083798
v 0.000000 0.884324 -0.050000
v 0.019134 0.884324 -0.046194
v 0.035355 0.884324 -0.035355
v 0.046194 0.884324 -0.019134
v 0.050000 0.884324 0.000000
v 0.046194 0.884324 0.019134
v 0.035355 0.884324 0.035355
v 0.019134 0.884324 0.046194
v 0.000000 0.884324 0.050000
v -0.019134 0.884324 0.046194
v -0.035355 0.884324 0.035355
v -0.046194 0.884324 0.019134
v -0.050000 0.884324 0.000000
v -0.046194 0.884324 -0.019134
v -0.035355 0.884324 -0.035355
v -0.019134 0.884324 -0.046194
v 0.019134 0.825996 -0.046194
v 0.035355 0.825996 -0.035355
v 0.046194 0.825996 -0.019134
v 0.050000 0.825996 0.000000
v 0.046194 0.825996 0.019134
v 0.035355 0.825996 0.035355
v 0.019134 0.825996 0.046194
v 0.000000 0.825996 0.050000
v -0.019134 0.825996 0.046194
v -0.035355 0.825996 0.035355
v -0.046194 0.825996 0.019134
v -0.050000 0.825996 0.000000
v -0.046194 0.825996 -0.019134
v -0.035355 0.825996 -0.035355
v -0.019134 0.825996 -0.046194
v 0.000000 0.825996 -0.050000
v 0.000000 0.825996 -0.061861
v 0.000000 0.884324 -0.061861
v -0.023673 0.884324 -0.057152
v -0.043742 0.884324 -0.043742
v -0.057152 0.884324 -0.023673
v -0.061861 0.884324 0.000000
v -0.057152 0.884324 0.023673
v -0.043742 0.884324 0.043742
v -0.023673 0.884324 0.057152
v 0.000000 0.884324 0.061861
v 0.023673 0.884324 0.057152
v 0.043742 0.884324 0.043742
v 0.057152 0.884324 0.023673
v 0.061861 0.884324 0.000000
v 0.057152 0.884324 -0.023673
v 0.043742 0.884324 -0.043742
v 0.023673 0.884324 -0.057152
v 0.023673 0.825996 -0.057152
v 0.043742 0.825996 -0.043742
v 0.057152 0.825996 -0.023673
v 0.061861 0.825996 0.000000
v 0.057152 0.825996 0.023673
v 0.043742 0.825996 0.043742
v 0.023673 0.825996 0.057152
v 0.000000 0.825996 0.061861
v -0.023673 0.825996 0.057152
v -0.043742 0.825996 0.043742
v -0.057152 0.825996 0.023673
v -0.061861 0.825996 0.000000
v -0.057152 0.825996 -0.023673
v -0.043742 0.825996 -0.043742
v -0.023673 0.825996 -0.057152
v -0.712277 2.572064 -0.053559
v -0.005171 3.279171 -0.053559
v -0.667417 2.572064 -0.153559
v -0.005171 3.234311 -0.153559
v -0.005171 1.864957 -0.053559
v 0.701936 2.572064 -0.053559
v -0.005171 1.909818 -0.153559
v 0.657076 2.572064 -0.153559
v -0.005171 3.279171 -0.153559
v -0.712277 2.572064 -0.153559
v -0.005171 1.864957 -0.153559
v 0.701936 2.572064 -0.153559
vn -0.0000 -0.0000 -1.0000
vn 0.3827 -0.0000 -0.9239
vn 0.7071 -0.0000 -0.7071
vn 0.9239 -0.0000 -0.3827
vn 1.0000 -0.0000 -0.0000
vn 0.9239 -0.0000 0.3827
vn 0.7071 -0.0000 0.7071
vn 0.3827 -0.0000 0.9239
vn -0.0000 -0.0000 1.0000
vn -0.3827 -0.0000 0.9239
vn -0.7071 -0.0000 0.7071
vn -0.9239 -0.0000 0.3827
vn -1.0000 -0.0000 -0.0000
vn -0.9239 -0.0000 -0.3827
vn -0.7071 -0.0000 -0.7071
vn -0.0000 1.0000 -0.0000
vn -0.3827 -0.0000 -0.9239
vn 0.0248 -0.9994 -0.0248
vn 0.0134 -0.9994 -0.0324
vn -0.4132 0.8944 0.1711
vn -0.4472 0.8944 -0.0000
vn -0.0134 -0.9994 0.0324
vn -0.0000 -0.9994 0.0351
vn -0.4132 0.8944 -0.1711
vn 0.0248 -0.9994 0.0248
vn 0.0324 -0.9994 0.0134
vn -0.0324 -0.9994 -0.0134
vn -0.0351 -0.9994 -0.0000
vn -0.3162 0.8944 -0.3162
vn -0.0000 0.8944 -0.4472
vn 0.1711 0.8944 -0.4132
vn -0.0000 -0.9994 -0.0351
vn -0.1711 0.8944 -0.4132
vn 0.3162 0.8944 -0.3162
vn 0.0351 -0.9994 -0.0000
vn -0.0324 -0.9994 0.0134
vn 0.4132 0.8944 -0.1711
vn 0.4472 0.8944 -0.0000
vn -0.3162 0.8944 0.3162
vn -0.0248 -0.9994 -0.0248
vn 0.0134 -0.9994 0.0324
vn -0.1711 0.8944 0.4132
vn -0.0000 0.8944 0.4472
vn -0.0248 -0.9994 0.0248
vn 0.0324 -0.9994 -0.0134
vn 0.1711 0.8944 0.4132
vn -0.0134 -0.9994 -0.0324
vn 0.3162 0.8944 0.3162
vn 0.4132 0.8944 0.1711
vn -0.0000 -1.0000 -0.0000
vn -0.7071 0.7071 -0.0000
vn 0.7071 -0.7071 -0.0000
vn -0.7071 -0.7071 -0.0000
vn 0.7071 0.7071 -0.0000
vt 0.018162 0.604121
vt 0.018162 0.701235
vt 0.018162 0.701258
vt 0.018162 0.604208
vt 0.018162 0.701321
vt 0.018162 0.604450
vt 0.018162 0.701415
vt 0.018162 0.604809
vt 0.018162 0.701524
vt 0.018162 0.605227
vt 0.018162 0.701633
vt 0.018162 0.605642
vt 0.018162 0.701724
vt 0.018162 0.605991
vt 0.018162 0.701784
vt 0.018162 0.606221
vt 0.018162 0.701805
vt 0.018162 0.606300
vt 0.018162 0.701783
vt 0.018162 0.606215
vt 0.018162 0.701721
vt 0.018162 0.605980
vt 0.018162 0.701629
vt 0.018162 0.605628
vt 0.018162 0.701521
vt 0.018162 0.605212
vt 0.018162 0.701411
vt 0.018162 0.604795
vt 0.018162 0.701318
vt 0.018162 0.604439
vt 0.018162 0.701256
vt 0.018162 0.604203
vt 0.018162 0.569606
vt 0.018162 0.569900
vt 0.018162 0.570685
vt 0.018162 0.570196
vt 0.018162 0.570861
vt 0.018162 0.570345
vt 0.018162 0.569657
vt 0.018162 0.570524
vt 0.018162 0.567387
vt 0.018162 0.567278
vt 0.018162 0.566287
vt 0.018162 0.566472
vt 0.018162 0.569827
vt 0.018162 0.568784
vt 0.018162 0.567677
vt 0.018162 0.568121
vt 0.018162 0.567711
vt 0.018162 0.566961
vt 0.018162 0.569183
vt 0.018162 0.568663
vt 0.018162 0.568622
vt 0.018162 0.569491
vt 0.018162 0.569386
vt 0.018162 0.568038
vt 0.018162 0.568991
vt 0.018162 0.569100
vt 0.018162 0.567551
vt 0.018162 0.567368
vt 0.018162 0.570006
vt 0.018162 0.570861
vt 0.018162 0.569092
vt 0.018162 0.567539
vt 0.018162 0.569400
vt 0.018162 0.568061
vt 0.018162 0.568644
vt 0.018162 0.568590
vt 0.018162 0.568139
vt 0.018162 0.567741
vt 0.018162 0.569844
vt 0.018162 0.568813
vt 0.018162 0.570364
vt 0.018162 0.569689
vt 0.018162 0.566460
vt 0.018162 0.569461
vt 0.018162 0.571254
vt 0.018162 0.571741
vt 0.018162 0.571915
vt 0.018162 0.570697
vt 0.018162 0.571753
vt 0.018162 0.570218
vt 0.018162 0.571276
vt 0.018162 0.570553
vt 0.018162 0.566984
vt 0.018162 0.571298
vt 0.018162 0.569619
vt 0.018162 0.567380
vt 0.018162 0.571590
vt 0.018162 0.571695
vt 0.018162 0.567690
vt 0.018162 0.569165
vt 0.018162 0.571597
vt 0.018162 0.569908
vt 0.018162 0.571311
vt 0.018162 0.570878
vt 0.018162 0.604711
vt 0.018162 0.604267
vt 0.018162 0.603844
vt 0.018162 0.603764
vt 0.018162 0.604004
vt 0.018162 0.604102
vt 0.018162 0.605229
vt 0.018162 0.603530
vt 0.018162 0.603715
vt 0.018162 0.605742
vt 0.018162 0.603175
vt 0.018162 0.603277
vt 0.018162 0.606172
vt 0.018162 0.602753
vt 0.018162 0.602755
vt 0.018162 0.606456
vt 0.018162 0.602327
vt 0.018162 0.602228
vt 0.018162 0.606553
vt 0.018162 0.601963
vt 0.018162 0.601776
vt 0.018162 0.606449
vt 0.018162 0.601628
vt 0.018162 0.601710
vt 0.018162 0.601463
vt 0.018162 0.601360
vt 0.018162 0.601717
vt 0.018162 0.601470
vt 0.018162 0.606159
vt 0.018162 0.603759
vt 0.018162 0.603519
vt 0.018162 0.603161
vt 0.018162 0.602738
vt 0.018162 0.602313
vt 0.018162 0.601952
vt 0.018162 0.603959
vt 0.018162 0.603858
vt 0.018162 0.601762
vt 0.018162 0.604253
vt 0.018162 0.602210
vt 0.018162 0.604693
vt 0.018162 0.602736
vt 0.018162 0.605210
vt 0.018162 0.603259
vt 0.018162 0.605725
vt 0.018162 0.603701
vt 0.018162 0.603997
vt 0.018162 0.603966
vt 0.856951 0.903920
vt 0.856935 0.931002
vt 0.856935 0.932174
vt 0.856951 0.903820
vt 0.856950 0.903822
vt 0.856935 0.930295
vt 0.856920 0.903878
vt 0.856935 0.879633
vt 0.856935 0.878067
vt 0.856919 0.903880
vt 0.856920 0.903976
vt 0.856935 0.879221
vt 0.017029 0.499277
vt 0.016727 0.523725
vt 0.017036 0.550380
vt 0.017332 0.524304
vt 0.015636 0.152574
vt 0.015687 0.116361
vt 0.015691 0.116361
vt 0.015636 0.155196
vt 0.015638 0.084256
vt 0.015638 0.082213
vt 0.015587 0.116361
vt 0.015583 0.116361
s 1
usemtl Material
f 81/1/1 2/2/1 4/3/2 82/4/2
f 82/4/2 4/3/2 6/5/3 83/6/3
f 83/6/3 6/5/3 8/7/4 84/8/4
f 84/8/4 8/7/4 10/9/5 85/10/5
f 85/10/5 10/9/5 12/11/6 86/12/6
f 86/12/6 12/11/6 14/13/7 87/14/7
f 87/14/7 14/13/7 16/15/8 88/16/8
f 88/16/8 16/15/8 18/17/9 89/18/9
f 89/18/9 18/17/9 20/19/10 90/20/10
f 90/20/10 20/19/10 22/21/11 91/22/11
f 91/22/11 22/21/11 24/23/12 92/24/12
f 92/24/12 24/23/12 26/25/13 93/26/13
f 93/26/13 26/25/13 28/27/14 94/28/14
f 94/28/14 28/27/14 30/29/15 95/30/15
f 4/3/16 2/2/16 32/31/16 30/29/16 28/27/16 26/25/16 24/23/16 22/21/16 20/19/16 18/17/16 16/15/16 14/13/16 12/11/16 10/9/16 8/7/16 6/5/16
f 95/30/15 30/29/15 32/31/17 96/32/17
f 96/32/17 32/31/17 2/2/1 81/1/1
f 21/33/18 19/34/19 66/35/19 68/36/18
f 44/37/20 45/38/21 73/39/21 71/40/20
f 3/41/22 1/42/23 49/43/23 50/44/22
f 45/38/21 46/45/24 75/46/24 73/39/21
f 29/47/25 27/48/26 74/49/26 76/50/25
f 11/51/27 9/52/28 56/53/28 58/54/27
f 46/45/24 47/55/29 77/56/29 75/46/24
f 33/57/30 34/58/31 51/59/31 80/60/30
f 19/34/19 17/61/32 64/62/32 66/35/19
f 47/55/29 48/63/33 79/64/33 77/56/29
f 34/58/31 35/65/34 53/66/34 51/59/31
f 48/63/33 33/57/30 80/60/30 79/64/33
f 27/48/26 25/67/35 72/68/35 74/49/26
f 9/52/28 7/69/36 54/70/36 56/53/28
f 35/65/34 36/71/37 55/72/37 53/66/34
f 36/71/37 37/73/38 57/74/38 55/72/37
f 78/75/17 79/64/17 80/60/1 49/43/1
f 76/50/15 77/56/15 79/64/17 78/75/17
f 74/49/14 75/46/14 77/56/15 76/50/15
f 72/68/13 73/39/13 75/46/14 74/49/14
f 70/76/12 71/40/12 73/39/13 72/68/13
f 68/36/11 69/77/11 71/40/12 70/76/12
f 66/35/10 67/78/10 69/77/11 68/36/11
f 64/62/9 65/79/9 67/78/10 66/35/10
f 62/80/8 63/81/8 65/79/9 64/62/9
f 60/82/7 61/83/7 63/81/8 62/80/8
f 58/54/6 59/84/6 61/83/7 60/82/7
f 56/53/5 57/74/5 59/84/6 58/54/6
f 54/70/4 55/72/4 57/74/5 56/53/5
f 52/85/3 53/66/3 55/72/4 54/70/4
f 50/44/2 51/59/2 53/66/3 52/85/3
f 49/43/1 80/60/1 51/59/2 50/44/2
f 43/86/39 44/37/20 71/40/20 69/77/39
f 13/87/40 11/51/27 58/54/27 60/82/40
f 31/88/41 29/47/25 76/50/25 78/75/41
f 42/89/42 43/86/39 69/77/39 67/78/42
f 41/90/43 42/89/42 67/78/42 65/79/43
f 5/91/44 3/41/22 50/44/22 52/85/44
f 23/92/45 21/33/18 68/36/18 70/76/45
f 40/93/46 41/90/43 65/79/43 63/81/46
f 15/94/47 13/87/40 60/82/40 62/80/47
f 1/42/23 31/88/41 78/75/41 49/43/23
f 39/95/48 40/93/46 63/81/46 61/83/48
f 38/96/49 39/95/48 61/83/48 59/84/49
f 7/69/36 5/91/44 52/85/44 54/70/36
f 25/67/35 23/92/45 70/76/45 72/68/35
f 37/73/38 38/96/49 59/84/49 57/74/38
f 17/61/32 15/94/47 62/80/47 64/62/32
f 83/6/16 84/8/16 127/97/16 128/98/16
f 104/99/50 103/100/50 136/101/50 137/102/50
f 84/8/16 85/10/16 126/103/16 127/97/16
f 103/100/50 102/104/50 135/105/50 136/101/50
f 85/10/16 86/12/16 125/106/16 126/103/16
f 102/104/50 101/107/50 134/108/50 135/105/50
f 86/12/16 87/14/16 124/109/16 125/106/16
f 101/107/50 100/110/50 133/111/50 134/108/50
f 87/14/16 88/16/16 123/112/16 124/109/16
f 100/110/50 99/113/50 132/114/50 133/111/50
f 88/16/16 89/18/16 122/115/16 123/112/16
f 99/113/50 98/116/50 131/117/50 132/114/50
f 89/18/16 90/20/16 121/118/16 122/115/16
f 112/119/50 111/120/50 144/121/50 113/122/50
f 98/116/50 97/123/50 130/124/50 131/117/50
f 90/20/16 91/22/16 120/125/16 121/118/16
f 33/57/1 112/119/1 97/123/2 34/58/2
f 34/58/2 97/123/2 98/116/3 35/65/3
f 35/65/3 98/116/3 99/113/4 36/71/4
f 36/71/4 99/113/4 100/110/5 37/73/5
f 37/73/5 100/110/5 101/107/6 38/96/6
f 38/96/6 101/107/6 102/104/7 39/95/7
f 39/95/7 102/104/7 103/100/8 40/93/8
f 40/93/8 103/100/8 104/99/9 41/90/9
f 41/90/9 104/99/9 105/126/10 42/89/10
f 42/89/10 105/126/10 106/127/11 43/86/11
f 43/86/11 106/127/11 107/128/12 44/37/12
f 44/37/12 107/128/12 108/129/13 45/38/13
f 45/38/13 108/129/13 109/130/14 46/45/14
f 46/45/14 109/130/14 110/131/15 47/55/15
f 47/55/15 110/131/15 111/120/17 48/63/17
f 48/63/17 111/120/17 112/119/1 33/57/1
f 144/121/17 115/132/17 114/133/1 113/122/1
f 143/134/15 116/135/15 115/132/17 144/121/17
f 142/136/14 117/137/14 116/135/15 143/134/15
f 141/138/13 118/139/13 117/137/14 142/136/14
f 140/140/12 119/141/12 118/139/13 141/138/13
f 139/142/11 120/125/11 119/141/12 140/140/12
f 138/143/10 121/118/10 120/125/11 139/142/11
f 137/102/9 122/115/9 121/118/10 138/143/10
f 136/101/8 123/112/8 122/115/9 137/102/9
f 135/105/7 124/109/7 123/112/8 136/101/8
f 134/108/6 125/106/6 124/109/7 135/105/7
f 133/111/5 126/103/5 125/106/6 134/108/6
f 132/114/4 127/97/4 126/103/5 133/111/5
f 131/117/3 128/98/3 127/97/4 132/114/4
f 130/124/2 129/144/2 128/98/3 131/117/3
f 113/122/1 114/133/1 129/144/2 130/124/2
f 105/126/50 104/99/50 137/102/50 138/143/50
f 96/32/16 81/1/16 114/133/16 115/132/16
f 82/4/16 83/6/16 128/98/16 129/144/16
f 106/127/50 105/126/50 138/143/50 139/142/50
f 95/30/16 96/32/16 115/132/16 116/135/16
f 81/1/16 82/4/16 129/144/16 114/133/16
f 107/128/50 106/127/50 139/142/50 140/140/50
f 94/28/16 95/30/16 116/135/16 117/137/16
f 108/129/50 107/128/50 140/140/50 141/138/50
f 93/26/16 94/28/16 117/137/16 118/139/16
f 109/130/50 108/129/50 141/138/50 142/136/50
f 92/24/16 93/26/16 118/139/16 119/141/16
f 110/131/50 109/130/50 142/136/50 143/134/50
f 91/22/16 92/24/16 119/141/16 120/125/16
f 97/123/50 112/119/50 113/122/50 130/124/50
f 111/120/50 110/131/50 143/134/50 144/121/50
f 145/145/51 146/146/16 153/147/16 154/148/51
f 147/149/1 148/150/1 152/151/1 151/152/1
f 155/153/50 156/154/52 150/155/52 149/156/50
f 149/157/9 150/158/9 146/159/9 145/160/9
f 154/148/53 155/153/50 149/156/50 145/145/53
f 156/154/54 153/147/16 146/146/16 150/155/54
f 148/161/1 147/162/1 154/163/1 153/164/1
f 147/162/1 151/165/1 155/166/1 154/163/1
f 152/167/1 148/161/1 153/164/1 156/168/1
f 151/165/1 152/167/1 156/168/1 155/166/1
