# Blender 4.5.3 LTS
# www.blender.org
mtllib Sidewalk_Alternating_8.mtl
o Cube.015
v -71.978165 0.024657 -6.081763
v -71.978165 0.025657 -6.041763
v -72.018166 0.025657 -6.081763
v -71.978165 0.123657 -6.041763
v -71.978165 0.124657 -6.081763
v -72.018166 0.123657 -6.081763
v -71.978165 0.024657 -10.001763
v -72.018166 0.025657 -10.001763
v -71.978165 0.025657 -10.041763
v -71.978165 0.124657 -10.001763
v -71.978165 0.123657 -10.041763
v -72.018166 0.123657 -10.001763
v -68.058167 0.024657 -6.081763
v -68.018166 0.025657 -6.081763
v -68.058167 0.025657 -6.041763
v -68.058167 0.124657 -6.081763
v -68.058167 0.123657 -6.041763
v -68.018166 0.123657 -6.081763
v -68.058167 0.024657 -10.001763
v -68.058167 0.025657 -10.041763
v -68.018166 0.025657 -10.001763
v -68.058167 0.124657 -10.001763
v -68.018166 0.123657 -10.001763
v -68.058167 0.123657 -10.041763
v -76.016647 0.023940 -6.081502
v -76.016647 0.024940 -6.041502
v -76.056648 0.024940 -6.081502
v -76.016647 0.122940 -6.041502
v -76.016647 0.123940 -6.081502
v -76.056648 0.122940 -6.081502
v -76.016647 0.023940 -10.001501
v -76.056648 0.024940 -10.001501
v -76.016647 0.024940 -10.041501
v -76.016647 0.123940 -10.001501
v -76.016647 0.122940 -10.041501
v -76.056648 0.122940 -10.001501
v -72.096649 0.023940 -6.081502
v -72.056648 0.024940 -6.081502
v -72.096649 0.024940 -6.041502
v -72.096649 0.123940 -6.081502
v -72.096649 0.122940 -6.041502
v -72.056648 0.122940 -6.081502
v -72.096649 0.023940 -10.001501
v -72.096649 0.024940 -10.041501
v -72.056648 0.024940 -10.001501
v -72.096649 0.123940 -10.001501
v -72.056648 0.122940 -10.001501
v -72.096649 0.122940 -10.041501
v -63.899490 0.024657 -6.081763
v -63.899490 0.025657 -6.041763
v -63.939487 0.025657 -6.081763
v -63.899490 0.123657 -6.041763
v -63.899490 0.124657 -6.081763
v -63.939487 0.123657 -6.081763
v -63.899490 0.024657 -10.001763
v -63.939487 0.025657 -10.001763
v -63.899490 0.025657 -10.041763
v -63.899490 0.124657 -10.001763
v -63.899490 0.123657 -10.041763
v -63.939487 0.123657 -10.001763
v -59.979488 0.024657 -6.081763
v -59.939487 0.025657 -6.081763
v -59.979488 0.025657 -6.041763
v -59.979488 0.124657 -6.081763
v -59.979488 0.123657 -6.041763
v -59.939487 0.123657 -6.081763
v -59.979488 0.024657 -10.001763
v -59.979488 0.025657 -10.041763
v -59.939487 0.025657 -10.001763
v -59.979488 0.124657 -10.001763
v -59.939487 0.123657 -10.001763
v -59.979488 0.123657 -10.041763
v -67.937973 0.023940 -6.081502
v -67.937973 0.024940 -6.041502
v -67.977974 0.024940 -6.081502
v -67.937973 0.122940 -6.041502
v -67.937973 0.123940 -6.081502
v -67.977974 0.122940 -6.081502
v -67.937973 0.023940 -10.001501
v -67.977974 0.024940 -10.001501
v -67.937973 0.024940 -10.041501
v -67.937973 0.123940 -10.001501
v -67.937973 0.122940 -10.041501
v -67.977974 0.122940 -10.001501
v -64.017975 0.023940 -6.081502
v -63.977974 0.024940 -6.081502
v -64.017975 0.024940 -6.041502
v -64.017975 0.123940 -6.081502
v -64.017975 0.122940 -6.041502
v -63.977974 0.122940 -6.081502
v -64.017975 0.023940 -10.001501
v -64.017975 0.024940 -10.041501
v -63.977974 0.024940 -10.001501
v -64.017975 0.123940 -10.001501
v -63.977974 0.122940 -10.001501
v -64.017975 0.122940 -10.041501
v -55.820812 0.024657 -6.081763
v -55.820812 0.025657 -6.041763
v -55.860809 0.025657 -6.081763
v -55.820812 0.123657 -6.041763
v -55.820812 0.124657 -6.081763
v -55.860809 0.123657 -6.081763
v -55.820812 0.024657 -10.001763
v -55.860809 0.025657 -10.001763
v -55.820812 0.025657 -10.041763
v -55.820812 0.124657 -10.001763
v -55.820812 0.123657 -10.041763
v -55.860809 0.123657 -10.001763
v -51.900810 0.024657 -6.081763
v -51.860809 0.025657 -6.081763
v -51.900810 0.025657 -6.041763
v -51.900810 0.124657 -6.081763
v -51.900810 0.123657 -6.041763
v -51.860809 0.123657 -6.081763
v -51.900810 0.024657 -10.001763
v -51.900810 0.025657 -10.041763
v -51.860809 0.025657 -10.001763
v -51.900810 0.124657 -10.001763
v -51.860809 0.123657 -10.001763
v -51.900810 0.123657 -10.041763
v -59.859295 0.023940 -6.081502
v -59.859295 0.024940 -6.041502
v -59.899296 0.024940 -6.081502
v -59.859295 0.122940 -6.041502
v -59.859295 0.123940 -6.081502
v -59.899296 0.122940 -6.081502
v -59.859295 0.023940 -10.001501
v -59.899296 0.024940 -10.001501
v -59.859295 0.024940 -10.041501
v -59.859295 0.123940 -10.001501
v -59.859295 0.122940 -10.041501
v -59.899296 0.122940 -10.001501
v -55.939297 0.023940 -6.081502
v -55.899296 0.024940 -6.081502
v -55.939297 0.024940 -6.041502
v -55.939297 0.123940 -6.081502
v -55.939297 0.122940 -6.041502
v -55.899296 0.122940 -6.081502
v -55.939297 0.023940 -10.001501
v -55.939297 0.024940 -10.041501
v -55.899296 0.024940 -10.001501
v -55.939297 0.123940 -10.001501
v -55.899296 0.122940 -10.001501
v -55.939297 0.122940 -10.041501
v -47.742134 0.024657 -6.081763
v -47.742134 0.025657 -6.041763
v -47.782135 0.025657 -6.081763
v -47.742134 0.123657 -6.041763
v -47.742134 0.124657 -6.081763
v -47.782135 0.123657 -6.081763
v -47.742134 0.024657 -10.001763
v -47.782135 0.025657 -10.001763
v -47.742134 0.025657 -10.041763
v -47.742134 0.124657 -10.001763
v -47.742134 0.123657 -10.041763
v -47.782135 0.123657 -10.001763
v -43.822136 0.024657 -6.081763
v -43.782135 0.025657 -6.081763
v -43.822136 0.025657 -6.041763
v -43.822136 0.124657 -6.081763
v -43.822136 0.123657 -6.041763
v -43.782135 0.123657 -6.081763
v -43.822136 0.024657 -10.001763
v -43.822136 0.025657 -10.041763
v -43.782135 0.025657 -10.001763
v -43.822136 0.124657 -10.001763
v -43.782135 0.123657 -10.001763
v -43.822136 0.123657 -10.041763
v -51.780617 0.023940 -6.081502
v -51.780617 0.024940 -6.041502
v -51.820618 0.024940 -6.081502
v -51.780617 0.122940 -6.041502
v -51.780617 0.123940 -6.081502
v -51.820618 0.122940 -6.081502
v -51.780617 0.023940 -10.001501
v -51.820618 0.024940 -10.001501
v -51.780617 0.024940 -10.041501
v -51.780617 0.123940 -10.001501
v -51.780617 0.122940 -10.041501
v -51.820618 0.122940 -10.001501
v -47.860619 0.023940 -6.081502
v -47.820618 0.024940 -6.081502
v -47.860619 0.024940 -6.041502
v -47.860619 0.123940 -6.081502
v -47.860619 0.122940 -6.041502
v -47.820618 0.122940 -6.081502
v -47.860619 0.023940 -10.001501
v -47.860619 0.024940 -10.041501
v -47.820618 0.024940 -10.001501
v -47.860619 0.123940 -10.001501
v -47.820618 0.122940 -10.001501
v -47.860619 0.122940 -10.041501
vn -0.0250 -0.9994 0.0250
vn -0.0250 0.9994 0.0250
vn -0.0250 -0.9994 -0.0250
vn -0.0250 0.9994 -0.0250
vn 0.0250 -0.9994 0.0250
vn 0.0250 0.9994 0.0250
vn 0.0250 -0.9994 -0.0250
vn 0.0250 0.9994 -0.0250
vn -0.0250 -0.9997 -0.0000
vn -0.7071 -0.0000 0.7071
vn -0.0250 0.9997 -0.0000
vn -0.7071 -0.0000 -0.7071
vn -0.0000 -0.9997 -0.0250
vn -0.0000 0.9997 -0.0250
vn 0.7071 -0.0000 -0.7071
vn 0.0250 -0.9997 -0.0000
vn 0.0250 0.9997 -0.0000
vn 0.7071 -0.0000 0.7071
vn -0.0000 -0.9997 0.0250
vn -0.0000 0.9997 0.0250
vn -0.0000 -1.0000 -0.0000
vn -1.0000 -0.0000 -0.0000
vn -0.0000 -0.0000 1.0000
vn -0.0000 1.0000 -0.0000
vn -0.0000 -0.0000 -1.0000
vn 1.0000 -0.0000 -0.0000
vt 0.015920 0.517556
vt 0.015920 0.517735
vt 0.015920 0.517735
vt 0.015920 0.535272
vt 0.015920 0.535451
vt 0.015920 0.535273
vt 0.015920 0.517556
vt 0.015920 0.517735
vt 0.015920 0.517735
vt 0.015920 0.535451
vt 0.015920 0.535273
vt 0.015920 0.535272
vt 0.015889 0.517556
vt 0.015889 0.517735
vt 0.015889 0.517735
vt 0.015889 0.535451
vt 0.015889 0.535273
vt 0.015889 0.535273
vt 0.015889 0.517556
vt 0.015889 0.517735
vt 0.015889 0.517735
vt 0.015889 0.535451
vt 0.015889 0.535272
vt 0.020288 0.390824
vt 0.020286 0.391420
vt 0.020294 0.390928
vt 0.020288 0.392576
vt 0.020290 0.392002
vt 0.020296 0.392084
vt 0.020470 0.333941
vt 0.020476 0.334061
vt 0.020471 0.333368
vt 0.020472 0.335067
vt 0.020474 0.334471
vt 0.020479 0.335165
vt 0.019731 0.382124
vt 0.019726 0.382042
vt 0.019730 0.382736
vt 0.019731 0.383297
vt 0.019730 0.383887
vt 0.019726 0.383193
vt 0.019845 0.322849
vt 0.019846 0.322260
vt 0.019838 0.322751
vt 0.019845 0.323960
vt 0.019839 0.323840
vt 0.019846 0.323348
vt 0.015920 0.517735
vt 0.015920 0.535272
vt 0.015920 0.535272
vt 0.015920 0.517735
vt 0.015920 0.517735
vt 0.015889 0.517735
vt 0.015889 0.517735
vt 0.015889 0.535272
vt 0.015889 0.535272
vt 0.015889 0.517735
vt 0.020288 0.390824
vt 0.020286 0.391420
vt 0.020288 0.392576
vt 0.020296 0.392084
vt 0.020476 0.334061
vt 0.020471 0.333368
vt 0.020474 0.334471
vt 0.020479 0.335165
vt 0.019730 0.382736
vt 0.019731 0.383297
vt 0.019730 0.383887
vt 0.019846 0.322260
vt 0.019838 0.322751
vt 0.019846 0.323348
vt 0.015920 0.517735
vt 0.015889 0.517556
vt 0.015889 0.517735
vt 0.015889 0.535451
vt 0.015889 0.535272
vt 0.015889 0.517556
vt 0.015889 0.535272
vt 0.020288 0.390824
vt 0.020286 0.391420
vt 0.020288 0.392576
vt 0.020290 0.392002
vt 0.020470 0.333941
vt 0.020471 0.333368
vt 0.019731 0.382124
vt 0.019730 0.383887
vt 0.019726 0.383193
vt 0.019846 0.322260
vt 0.019845 0.323960
vt 0.019846 0.323348
vt 0.015920 0.517556
vt 0.015920 0.517735
vt 0.015920 0.517735
vt 0.015920 0.535451
vt 0.015920 0.535272
vt 0.015920 0.517556
vt 0.015920 0.517735
vt 0.015920 0.517735
vt 0.015920 0.535451
vt 0.015920 0.535272
vt 0.015889 0.517735
vt 0.015889 0.517735
vt 0.020286 0.391420
vt 0.020294 0.390928
vt 0.020288 0.392576
vt 0.020290 0.392002
vt 0.020296 0.392084
vt 0.020470 0.333941
vt 0.020476 0.334061
vt 0.020471 0.333368
vt 0.020472 0.335067
vt 0.020474 0.334471
vt 0.020479 0.335165
vt 0.019726 0.382042
vt 0.019730 0.382736
vt 0.019731 0.383297
vt 0.019730 0.383887
vt 0.019845 0.322849
vt 0.019846 0.322260
vt 0.019845 0.323960
s 0
usemtl Material.024
f 1/1/1 2/2/1 3/3/1
f 4/4/2 5/5/2 6/6/2
f 7/7/3 8/8/3 9/9/3
f 10/10/4 11/11/4 12/12/4
f 13/13/5 14/14/5 15/15/5
f 16/16/6 17/17/6 18/18/6
f 19/19/7 20/20/7 21/21/7
f 22/22/8 23/23/8 24/17/8
f 25/24/1 26/25/1 27/26/1
f 28/27/2 29/28/2 30/29/2
f 31/30/3 32/31/3 33/32/3
f 34/33/4 35/34/4 36/35/4
f 37/36/5 38/37/5 39/38/5
f 40/39/6 41/40/6 42/41/6
f 43/42/7 44/43/7 45/44/7
f 46/45/8 47/46/8 48/47/8
f 49/1/1 50/48/1 51/3/1
f 52/49/2 53/5/2 54/50/2
f 55/7/3 56/51/3 57/52/3
f 58/10/4 59/49/4 60/12/4
f 61/13/5 62/53/5 63/54/5
f 64/16/6 65/55/6 66/56/6
f 67/19/7 68/57/7 69/21/7
f 70/22/8 71/23/8 72/55/8
f 73/58/1 74/59/1 75/26/1
f 76/60/2 77/28/2 78/61/2
f 79/30/3 80/62/3 81/63/3
f 82/33/4 83/64/4 84/65/4
f 85/36/5 86/37/5 87/66/5
f 88/67/6 89/68/6 90/41/6
f 91/42/7 92/69/7 93/70/7
f 94/45/8 95/46/8 96/71/8
f 97/1/1 98/72/1 99/3/1
f 100/49/2 101/5/2 102/12/2
f 103/7/3 104/51/3 105/52/3
f 106/10/4 107/49/4 108/50/4
f 109/73/5 110/14/5 111/74/5
f 112/75/6 113/76/6 114/23/6
f 115/77/7 116/20/7 117/21/7
f 118/75/8 119/23/8 120/78/8
f 121/79/1 122/80/1 123/26/1
f 124/81/2 125/82/2 126/29/2
f 127/83/3 128/62/3 129/84/3
f 130/33/4 131/34/4 132/35/4
f 133/85/5 134/37/5 135/66/5
f 136/39/6 137/86/6 138/87/6
f 139/42/7 140/88/7 141/70/7
f 142/89/8 143/46/8 144/90/8
f 145/91/1 146/92/1 147/93/1
f 148/4/2 149/94/2 150/95/2
f 151/96/3 152/97/3 153/98/3
f 154/99/4 155/4/4 156/100/4
f 157/73/5 158/101/5 159/15/5
f 160/75/6 161/76/6 162/23/6
f 163/77/7 164/20/7 165/102/7
f 166/16/8 167/23/8 168/76/8
f 169/58/1 170/103/1 171/104/1
f 172/105/2 173/106/2 174/107/2
f 175/108/3 176/109/3 177/110/3
f 178/111/4 179/112/4 180/113/4
f 181/85/5 182/114/5 183/115/5
f 184/116/6 185/117/6 186/87/6
f 187/118/7 188/119/7 189/44/7
f 190/120/8 191/46/8 192/47/8
f 7/7/9 1/1/9 3/3/9 8/8/9
f 2/2/10 4/4/10 6/6/10 3/3/10
f 5/5/11 10/10/11 12/12/11 6/6/11
f 11/11/12 9/9/12 8/8/12 12/12/12
f 19/19/13 7/7/13 9/9/13 20/20/13
f 10/10/14 22/22/14 24/17/14 11/11/14
f 23/23/15 21/21/15 20/20/15 24/17/15
f 13/13/16 19/19/16 21/21/16 14/14/16
f 22/22/17 16/16/17 18/18/17 23/23/17
f 17/17/18 15/15/18 14/14/18 18/18/18
f 1/1/19 13/13/19 15/15/19 2/2/19
f 16/16/20 5/5/20 4/4/20 17/17/20
f 31/30/9 25/24/9 27/26/9 32/31/9
f 26/25/10 28/27/10 30/29/10 27/26/10
f 29/28/11 34/33/11 36/35/11 30/29/11
f 35/34/12 33/32/12 32/31/12 36/35/12
f 43/42/13 31/30/13 33/32/13 44/43/13
f 34/33/14 46/45/14 48/47/14 35/34/14
f 47/46/15 45/44/15 44/43/15 48/47/15
f 37/36/16 43/42/16 45/44/16 38/37/16
f 46/45/17 40/39/17 42/41/17 47/46/17
f 41/40/18 39/38/18 38/37/18 42/41/18
f 25/24/19 37/36/19 39/38/19 26/25/19
f 40/39/20 29/28/20 28/27/20 41/40/20
f 55/7/9 49/1/9 51/3/9 56/51/9
f 50/48/10 52/49/10 54/50/10 51/3/10
f 53/5/11 58/10/11 60/12/11 54/50/11
f 59/49/12 57/52/12 56/51/12 60/12/12
f 67/19/13 55/7/13 57/52/13 68/57/13
f 58/10/14 70/22/14 72/55/14 59/49/14
f 71/23/15 69/21/15 68/57/15 72/55/15
f 61/13/16 67/19/16 69/21/16 62/53/16
f 70/22/17 64/16/17 66/56/17 71/23/17
f 65/55/18 63/54/18 62/53/18 66/56/18
f 49/1/19 61/13/19 63/54/19 50/48/19
f 64/16/20 53/5/20 52/49/20 65/55/20
f 79/30/9 73/58/9 75/26/9 80/62/9
f 74/59/10 76/60/10 78/61/10 75/26/10
f 77/28/11 82/33/11 84/65/11 78/61/11
f 83/64/12 81/63/12 80/62/12 84/65/12
f 91/42/13 79/30/13 81/63/13 92/69/13
f 82/33/14 94/45/14 96/71/14 83/64/14
f 95/46/15 93/70/15 92/69/15 96/71/15
f 85/36/16 91/42/16 93/70/16 86/37/16
f 94/45/17 88/67/17 90/41/17 95/46/17
f 89/68/18 87/66/18 86/37/18 90/41/18
f 73/58/19 85/36/19 87/66/19 74/59/19
f 88/67/20 77/28/20 76/60/20 89/68/20
f 103/7/9 97/1/9 99/3/9 104/51/9
f 98/72/10 100/49/10 102/12/10 99/3/10
f 101/5/11 106/10/11 108/50/11 102/12/11
f 107/49/12 105/52/12 104/51/12 108/50/12
f 115/77/13 103/7/13 105/52/13 116/20/13
f 106/10/14 118/75/14 120/78/14 107/49/14
f 119/23/15 117/21/15 116/20/15 120/78/15
f 109/73/16 115/77/16 117/21/16 110/14/16
f 118/75/17 112/75/17 114/23/17 119/23/17
f 113/76/18 111/74/18 110/14/18 114/23/18
f 97/1/19 109/73/19 111/74/19 98/72/19
f 112/75/20 101/5/20 100/49/20 113/76/20
f 127/83/9 121/79/9 123/26/9 128/62/9
f 122/80/10 124/81/10 126/29/10 123/26/10
f 125/82/11 130/33/11 132/35/11 126/29/11
f 131/34/12 129/84/12 128/62/12 132/35/12
f 139/42/13 127/83/13 129/84/13 140/88/13
f 130/33/14 142/89/14 144/90/14 131/34/14
f 143/46/15 141/70/15 140/88/15 144/90/15
f 133/85/16 139/42/16 141/70/16 134/37/16
f 142/89/17 136/39/17 138/87/17 143/46/17
f 137/86/18 135/66/18 134/37/18 138/87/18
f 121/79/19 133/85/19 135/66/19 122/80/19
f 136/39/20 125/82/20 124/81/20 137/86/20
f 151/96/9 145/91/9 147/93/9 152/97/9
f 146/92/10 148/4/10 150/95/10 147/93/10
f 149/94/11 154/99/11 156/100/11 150/95/11
f 155/4/12 153/98/12 152/97/12 156/100/12
f 163/77/13 151/96/13 153/98/13 164/20/13
f 154/99/14 166/16/14 168/76/14 155/4/14
f 167/23/15 165/102/15 164/20/15 168/76/15
f 157/73/16 163/77/16 165/102/16 158/101/16
f 166/16/17 160/75/17 162/23/17 167/23/17
f 161/76/18 159/15/18 158/101/18 162/23/18
f 145/91/19 157/73/19 159/15/19 146/92/19
f 160/75/20 149/94/20 148/4/20 161/76/20
f 175/108/9 169/58/9 171/104/9 176/109/9
f 170/103/10 172/105/10 174/107/10 171/104/10
f 173/106/11 178/111/11 180/113/11 174/107/11
f 179/112/12 177/110/12 176/109/12 180/113/12
f 187/118/13 175/108/13 177/110/13 188/119/13
f 178/111/14 190/120/14 192/47/14 179/112/14
f 191/46/15 189/44/15 188/119/15 192/47/15
f 181/85/16 187/118/16 189/44/16 182/114/16
f 190/120/17 184/116/17 186/87/17 191/46/17
f 185/117/18 183/115/18 182/114/18 186/87/18
f 169/58/19 181/85/19 183/115/19 170/103/19
f 184/116/20 173/106/20 172/105/20 185/117/20
f 7/7/21 19/19/21 13/13/21 1/1/21
f 3/3/22 6/6/22 12/12/22 8/8/22
f 15/15/23 17/17/23 4/4/23 2/2/23
f 22/22/24 10/10/24 5/5/24 16/16/24
f 9/9/25 11/11/25 24/17/25 20/20/25
f 21/21/26 23/23/26 18/18/26 14/14/26
f 31/30/21 43/42/21 37/36/21 25/24/21
f 27/26/22 30/29/22 36/35/22 32/31/22
f 39/38/23 41/40/23 28/27/23 26/25/23
f 46/45/24 34/33/24 29/28/24 40/39/24
f 33/32/25 35/34/25 48/47/25 44/43/25
f 45/44/26 47/46/26 42/41/26 38/37/26
f 55/7/21 67/19/21 61/13/21 49/1/21
f 51/3/22 54/50/22 60/12/22 56/51/22
f 63/54/23 65/55/23 52/49/23 50/48/23
f 70/22/24 58/10/24 53/5/24 64/16/24
f 57/52/25 59/49/25 72/55/25 68/57/25
f 69/21/26 71/23/26 66/56/26 62/53/26
f 79/30/21 91/42/21 85/36/21 73/58/21
f 75/26/22 78/61/22 84/65/22 80/62/22
f 87/66/23 89/68/23 76/60/23 74/59/23
f 94/45/24 82/33/24 77/28/24 88/67/24
f 81/63/25 83/64/25 96/71/25 92/69/25
f 93/70/26 95/46/26 90/41/26 86/37/26
f 103/7/21 115/77/21 109/73/21 97/1/21
f 99/3/22 102/12/22 108/50/22 104/51/22
f 111/74/23 113/76/23 100/49/23 98/72/23
f 118/75/24 106/10/24 101/5/24 112/75/24
f 105/52/25 107/49/25 120/78/25 116/20/25
f 117/21/26 119/23/26 114/23/26 110/14/26
f 127/83/21 139/42/21 133/85/21 121/79/21
f 123/26/22 126/29/22 132/35/22 128/62/22
f 135/66/23 137/86/23 124/81/23 122/80/23
f 142/89/24 130/33/24 125/82/24 136/39/24
f 129/84/25 131/34/25 144/90/25 140/88/25
f 141/70/26 143/46/26 138/87/26 134/37/26
f 151/96/21 163/77/21 157/73/21 145/91/21
f 147/93/22 150/95/22 156/100/22 152/97/22
f 159/15/23 161/76/23 148/4/23 146/92/23
f 166/16/24 154/99/24 149/94/24 160/75/24
f 153/98/25 155/4/25 168/76/25 164/20/25
f 165/102/26 167/23/26 162/23/26 158/101/26
f 175/108/21 187/118/21 181/85/21 169/58/21
f 171/104/22 174/107/22 180/113/22 176/109/22
f 183/115/23 185/117/23 172/105/23 170/103/23
f 190/120/24 178/111/24 173/106/24 184/116/24
f 177/110/25 179/112/25 192/47/25 188/119/25
f 189/44/26 191/46/26 186/87/26 182/114/26
