# Blender 4.5.3 LTS
# www.blender.org
mtllib Sidewalk_(4Count).mtl
o Cube.015
v -74.179329 0.024657 -5.690093
v -74.179329 0.025657 -5.650093
v -74.219330 0.025657 -5.690093
v -74.179329 0.123657 -5.650093
v -74.179329 0.124657 -5.690093
v -74.219330 0.123657 -5.690093
v -74.179329 0.024657 -9.610093
v -74.219330 0.025657 -9.610093
v -74.179329 0.025657 -9.650093
v -74.179329 0.124657 -9.610093
v -74.179329 0.123657 -9.650093
v -74.219330 0.123657 -9.610093
v -70.259331 0.024657 -5.690093
v -70.219330 0.025657 -5.690093
v -70.259331 0.025657 -5.650093
v -70.259331 0.124657 -5.690093
v -70.259331 0.123657 -5.650093
v -70.219330 0.123657 -5.690093
v -70.259331 0.024657 -9.610093
v -70.259331 0.025657 -9.650093
v -70.219330 0.025657 -9.610093
v -70.259331 0.124657 -9.610093
v -70.219330 0.123657 -9.610093
v -70.259331 0.123657 -9.650093
v -70.159332 0.024657 -5.690093
v -70.159332 0.025657 -5.650093
v -70.199333 0.025657 -5.690093
v -70.159332 0.123657 -5.650093
v -70.159332 0.124657 -5.690093
v -70.199333 0.123657 -5.690093
v -70.159332 0.024657 -9.610093
v -70.199333 0.025657 -9.610093
v -70.159332 0.025657 -9.650093
v -70.159332 0.124657 -9.610093
v -70.159332 0.123657 -9.650093
v -70.199333 0.123657 -9.610093
v -66.239326 0.024657 -5.690093
v -66.199333 0.025657 -5.690093
v -66.239326 0.025657 -5.650093
v -66.239326 0.124657 -5.690093
v -66.239326 0.123657 -5.650093
v -66.199333 0.123657 -5.690093
v -66.239326 0.024657 -9.610093
v -66.239326 0.025657 -9.650093
v -66.199333 0.025657 -9.610093
v -66.239326 0.124657 -9.610093
v -66.199333 0.123657 -9.610093
v -66.239326 0.123657 -9.650093
v -66.139328 0.024657 -5.690093
v -66.139328 0.025657 -5.650093
v -66.179329 0.025657 -5.690093
v -66.139328 0.123657 -5.650093
v -66.139328 0.124657 -5.690093
v -66.179329 0.123657 -5.690093
v -66.139328 0.024657 -9.610093
v -66.179329 0.025657 -9.610093
v -66.139328 0.025657 -9.650093
v -66.139328 0.124657 -9.610093
v -66.139328 0.123657 -9.650093
v -66.179329 0.123657 -9.610093
v -62.219330 0.024657 -5.690093
v -62.179329 0.025657 -5.690093
v -62.219330 0.025657 -5.650093
v -62.219330 0.124657 -5.690093
v -62.219330 0.123657 -5.650093
v -62.179329 0.123657 -5.690093
v -62.219330 0.024657 -9.610093
v -62.219330 0.025657 -9.650093
v -62.179329 0.025657 -9.610093
v -62.219330 0.124657 -9.610093
v -62.179329 0.123657 -9.610093
v -62.219330 0.123657 -9.650093
v -62.119331 0.024657 -5.690093
v -62.119331 0.025657 -5.650093
v -62.159332 0.025657 -5.690093
v -62.119331 0.123657 -5.650093
v -62.119331 0.124657 -5.690093
v -62.159332 0.123657 -5.690093
v -62.119331 0.024657 -9.610093
v -62.159332 0.025657 -9.610093
v -62.119331 0.025657 -9.650093
v -62.119331 0.124657 -9.610093
v -62.119331 0.123657 -9.650093
v -62.159332 0.123657 -9.610093
v -58.199329 0.024657 -5.690093
v -58.159332 0.025657 -5.690093
v -58.199329 0.025657 -5.650093
v -58.199329 0.124657 -5.690093
v -58.199329 0.123657 -5.650093
v -58.159332 0.123657 -5.690093
v -58.199329 0.024657 -9.610093
v -58.199329 0.025657 -9.650093
v -58.159332 0.025657 -9.610093
v -58.199329 0.124657 -9.610093
v -58.159332 0.123657 -9.610093
v -58.199329 0.123657 -9.650093
vn -0.0250 -0.9994 0.0250
vn -0.0250 0.9994 0.0250
vn -0.0250 -0.9994 -0.0250
vn -0.0250 0.9994 -0.0250
vn 0.0250 -0.9994 0.0250
vn 0.0250 0.9994 0.0250
vn 0.0250 -0.9994 -0.0250
vn 0.0250 0.9994 -0.0250
vn -0.0250 -0.9997 -0.0000
vn -0.7071 -0.0000 0.7071
vn -0.0250 0.9997 -0.0000
vn -0.7071 -0.0000 -0.7071
vn -0.0000 -0.9997 -0.0250
vn -0.0000 0.9997 -0.0250
vn 0.7071 -0.0000 -0.7071
vn 0.0250 -0.9997 -0.0000
vn 0.0250 0.9997 -0.0000
vn 0.7071 -0.0000 0.7071
vn -0.0000 -0.9997 0.0250
vn -0.0000 0.9997 0.0250
vn -0.0000 -1.0000 -0.0000
vn -1.0000 -0.0000 -0.0000
vn -0.0000 -0.0000 1.0000
vn -0.0000 1.0000 -0.0000
vn -0.0000 -0.0000 -1.0000
vn 1.0000 -0.0000 -0.0000
vt 0.015920 0.517556
vt 0.015920 0.517735
vt 0.015920 0.517735
vt 0.015920 0.535273
vt 0.015920 0.535451
vt 0.015920 0.535273
vt 0.015920 0.517556
vt 0.015920 0.517735
vt 0.015920 0.517735
vt 0.015920 0.535451
vt 0.015889 0.517556
vt 0.015889 0.517735
vt 0.015889 0.517735
vt 0.015889 0.535451
vt 0.015889 0.535273
vt 0.015889 0.535272
vt 0.015889 0.517556
vt 0.015889 0.517735
vt 0.015889 0.517735
vt 0.015889 0.535451
vt 0.015889 0.535272
vt 0.015920 0.535272
vt 0.015920 0.535272
vt 0.015889 0.517735
vt 0.015889 0.517735
vt 0.015889 0.517735
vt 0.015889 0.535272
vt 0.015920 0.517735
vt 0.015920 0.535272
vt 0.015920 0.517735
vt 0.015920 0.517735
vt 0.015920 0.535272
vt 0.015889 0.517735
vt 0.015889 0.535272
vt 0.015920 0.517735
vt 0.015920 0.535272
vt 0.015920 0.517735
vt 0.015920 0.517735
vt 0.015920 0.535272
vt 0.015889 0.517735
vt 0.015889 0.517735
s 0
usemtl Material.001
f 1/1/1 2/2/1 3/3/1
f 4/4/2 5/5/2 6/6/2
f 7/7/3 8/8/3 9/9/3
f 10/10/4 11/4/4 12/6/4
f 13/11/5 14/12/5 15/13/5
f 16/14/6 17/15/6 18/16/6
f 19/17/7 20/18/7 21/19/7
f 22/20/8 23/16/8 24/21/8
f 25/1/1 26/2/1 27/3/1
f 28/22/2 29/5/2 30/23/2
f 31/7/3 32/8/3 33/9/3
f 34/10/4 35/4/4 36/6/4
f 37/11/5 38/24/5 39/13/5
f 40/14/6 41/21/6 42/16/6
f 43/17/7 44/25/7 45/26/7
f 46/20/8 47/27/8 48/21/8
f 49/1/1 50/2/1 51/28/1
f 52/4/2 53/5/2 54/29/2
f 55/7/3 56/30/3 57/31/3
f 58/10/4 59/4/4 60/32/4
f 61/11/5 62/12/5 63/33/5
f 64/14/6 65/34/6 66/16/6
f 67/17/7 68/18/7 69/26/7
f 70/20/8 71/16/8 72/34/8
f 73/1/1 74/35/1 75/3/1
f 76/36/2 77/5/2 78/23/2
f 79/7/3 80/37/3 81/38/3
f 82/10/4 83/36/4 84/39/4
f 85/11/5 86/40/5 87/33/5
f 88/14/6 89/21/6 90/16/6
f 91/17/7 92/41/7 93/26/7
f 94/20/8 95/27/8 96/34/8
f 7/7/9 1/1/9 3/3/9 8/8/9
f 2/2/10 4/4/10 6/6/10 3/3/10
f 5/5/11 10/10/11 12/6/11 6/6/11
f 11/4/12 9/9/12 8/8/12 12/6/12
f 19/17/13 7/7/13 9/9/13 20/18/13
f 10/10/14 22/20/14 24/21/14 11/4/14
f 23/16/15 21/19/15 20/18/15 24/21/15
f 13/11/16 19/17/16 21/19/16 14/12/16
f 22/20/17 16/14/17 18/16/17 23/16/17
f 17/15/18 15/13/18 14/12/18 18/16/18
f 1/1/19 13/11/19 15/13/19 2/2/19
f 16/14/20 5/5/20 4/4/20 17/15/20
f 31/7/9 25/1/9 27/3/9 32/8/9
f 26/2/10 28/22/10 30/23/10 27/3/10
f 29/5/11 34/10/11 36/6/11 30/23/11
f 35/4/12 33/9/12 32/8/12 36/6/12
f 43/17/13 31/7/13 33/9/13 44/25/13
f 34/10/14 46/20/14 48/21/14 35/4/14
f 47/27/15 45/26/15 44/25/15 48/21/15
f 37/11/16 43/17/16 45/26/16 38/24/16
f 46/20/17 40/14/17 42/16/17 47/27/17
f 41/21/18 39/13/18 38/24/18 42/16/18
f 25/1/19 37/11/19 39/13/19 26/2/19
f 40/14/20 29/5/20 28/22/20 41/21/20
f 55/7/9 49/1/9 51/28/9 56/30/9
f 50/2/10 52/4/10 54/29/10 51/28/10
f 53/5/11 58/10/11 60/32/11 54/29/11
f 59/4/12 57/31/12 56/30/12 60/32/12
f 67/17/13 55/7/13 57/31/13 68/18/13
f 58/10/14 70/20/14 72/34/14 59/4/14
f 71/16/15 69/26/15 68/18/15 72/34/15
f 61/11/16 67/17/16 69/26/16 62/12/16
f 70/20/17 64/14/17 66/16/17 71/16/17
f 65/34/18 63/33/18 62/12/18 66/16/18
f 49/1/19 61/11/19 63/33/19 50/2/19
f 64/14/20 53/5/20 52/4/20 65/34/20
f 79/7/9 73/1/9 75/3/9 80/37/9
f 74/35/10 76/36/10 78/23/10 75/3/10
f 77/5/11 82/10/11 84/39/11 78/23/11
f 83/36/12 81/38/12 80/37/12 84/39/12
f 91/17/13 79/7/13 81/38/13 92/41/13
f 82/10/14 94/20/14 96/34/14 83/36/14
f 95/27/15 93/26/15 92/41/15 96/34/15
f 85/11/16 91/17/16 93/26/16 86/40/16
f 94/20/17 88/14/17 90/16/17 95/27/17
f 89/21/18 87/33/18 86/40/18 90/16/18
f 73/1/19 85/11/19 87/33/19 74/35/19
f 88/14/20 77/5/20 76/36/20 89/21/20
f 7/7/21 19/17/21 13/11/21 1/1/21
f 3/3/22 6/6/22 12/6/22 8/8/22
f 15/13/23 17/15/23 4/4/23 2/2/23
f 22/20/24 10/10/24 5/5/24 16/14/24
f 9/9/25 11/4/25 24/21/25 20/18/25
f 21/19/26 23/16/26 18/16/26 14/12/26
f 31/7/21 43/17/21 37/11/21 25/1/21
f 27/3/22 30/23/22 36/6/22 32/8/22
f 39/13/23 41/21/23 28/22/23 26/2/23
f 46/20/24 34/10/24 29/5/24 40/14/24
f 33/9/25 35/4/25 48/21/25 44/25/25
f 45/26/26 47/27/26 42/16/26 38/24/26
f 55/7/21 67/17/21 61/11/21 49/1/21
f 51/28/22 54/29/22 60/32/22 56/30/22
f 63/33/23 65/34/23 52/4/23 50/2/23
f 70/20/24 58/10/24 53/5/24 64/14/24
f 57/31/25 59/4/25 72/34/25 68/18/25
f 69/26/26 71/16/26 66/16/26 62/12/26
f 79/7/21 91/17/21 85/11/21 73/1/21
f 75/3/22 78/23/22 84/39/22 80/37/22
f 87/33/23 89/21/23 76/36/23 74/35/23
f 94/20/24 82/10/24 77/5/24 88/14/24
f 81/38/25 83/36/25 96/34/25 92/41/25
f 93/26/26 95/27/26 90/16/26 86/40/26
