# Blender 4.5.3 LTS
# www.blender.org
mtllib SquareSign.mtl
o SquareSign
v -0.500000 1.929346 -0.018790
v -0.500000 2.929347 -0.018790
v -0.462181 1.967165 -0.118790
v -0.462181 2.891527 -0.118790
v 0.500000 1.929346 -0.018790
v 0.500000 2.929347 -0.018790
v 0.462181 1.967165 -0.118790
v 0.462181 2.891527 -0.118790
v 0.007526 0.000594 -0.015008
v 0.007526 3.000594 -0.015008
v 0.026660 0.000594 -0.011202
v 0.026660 3.000594 -0.011202
v 0.042881 0.000594 -0.000364
v 0.042881 3.000594 -0.000364
v 0.053720 0.000594 0.015857
v 0.053720 3.000594 0.015857
v 0.057526 0.000594 0.034992
v 0.057526 3.000594 0.034992
v 0.053720 0.000594 0.054126
v 0.053720 3.000594 0.054126
v 0.042881 0.000594 0.070347
v 0.042881 3.000594 0.070347
v 0.026660 0.000594 0.081186
v 0.026660 3.000594 0.081186
v 0.007526 0.000594 0.084992
v 0.007526 3.000594 0.084992
v -0.011608 0.000594 0.081186
v -0.011608 3.000594 0.081186
v -0.027830 0.000594 0.070347
v -0.027830 3.000594 0.070347
v -0.038668 0.000594 0.054126
v -0.038668 3.000594 0.054126
v -0.042474 0.000594 0.034992
v -0.042474 3.000594 0.034992
v -0.038668 0.000594 0.015857
v -0.038668 3.000594 0.015857
v -0.027830 0.000594 -0.000364
v -0.027830 3.000594 -0.000364
v -0.011608 0.000594 -0.011202
v -0.011608 3.000594 -0.011202
v 0.007526 0.042812 -0.015008
v 0.026660 0.042812 -0.011202
v 0.042881 0.042812 -0.000364
v 0.053720 0.042812 0.015857
v 0.057526 0.042812 0.034992
v 0.053720 0.042812 0.054126
v 0.042881 0.042812 0.070347
v 0.026660 0.042812 0.081186
v 0.007526 0.042812 0.084992
v -0.011608 0.042812 0.081186
v -0.027830 0.042812 0.070347
v -0.038668 0.042812 0.054126
v -0.042474 0.042812 0.034992
v -0.038668 0.042812 0.015857
v -0.027830 0.042812 -0.000364
v -0.011608 0.042812 -0.011202
v 0.007526 -0.000594 -0.048807
v 0.039594 -0.000594 -0.042428
v 0.039594 0.025914 -0.042428
v 0.066780 -0.000594 -0.024263
v 0.066780 0.025914 -0.024263
v 0.084945 -0.000594 0.002923
v 0.084945 0.025914 0.002923
v 0.091324 -0.000594 0.034992
v 0.091324 0.025914 0.034992
v 0.084945 -0.000594 0.067060
v 0.084945 0.025914 0.067060
v 0.066780 -0.000594 0.094246
v 0.066780 0.025914 0.094246
v 0.039594 -0.000594 0.112411
v 0.039594 0.025914 0.112411
v 0.007526 -0.000594 0.118790
v 0.007526 0.025914 0.118790
v -0.024542 -0.000594 0.112411
v -0.024542 0.025914 0.112411
v -0.051729 -0.000594 0.094246
v -0.051729 0.025914 0.094246
v -0.069894 -0.000594 0.067060
v -0.069894 0.025914 0.067060
v -0.076272 -0.000594 0.034992
v -0.076272 0.025914 0.034992
v -0.069894 -0.000594 0.002923
v -0.069894 0.025914 0.002923
v -0.051729 -0.000594 -0.024263
v -0.051729 0.025914 -0.024263
v -0.024542 -0.000594 -0.042428
v -0.024542 0.025914 -0.042428
v 0.007526 0.025914 -0.048807
v 0.007526 0.884918 -0.015008
v 0.026660 0.884918 -0.011202
v 0.042881 0.884918 -0.000364
v 0.053720 0.884918 0.015857
v 0.057526 0.884918 0.034992
v 0.053720 0.884918 0.054126
v 0.042881 0.884918 0.070347
v 0.026660 0.884918 0.081186
v 0.007526 0.884918 0.084992
v -0.011608 0.884918 0.081186
v -0.027830 0.884918 0.070347
v -0.038668 0.884918 0.054126
v -0.042474 0.884918 0.034992
v -0.038668 0.884918 0.015857
v -0.027830 0.884918 -0.000364
v -0.011608 0.884918 -0.011202
v 0.026660 0.826590 -0.011202
v 0.042881 0.826590 -0.000364
v 0.053720 0.826590 0.015857
v 0.057526 0.826590 0.034992
v 0.053720 0.826590 0.054126
v 0.042881 0.826590 0.070347
v 0.026660 0.826590 0.081186
v 0.007526 0.826590 0.084992
v -0.011608 0.826590 0.081186
v -0.027830 0.826590 0.070347
v -0.038668 0.826590 0.054126
v -0.042474 0.826590 0.034992
v -0.038668 0.826590 0.015857
v -0.027830 0.826590 -0.000364
v -0.011608 0.826590 -0.011202
v 0.007526 0.826590 -0.015008
v 0.007526 0.826590 -0.026870
v 0.007526 0.884918 -0.026870
v -0.016148 0.884918 -0.022161
v -0.036217 0.884918 -0.008751
v -0.049627 0.884918 0.011318
v -0.054335 0.884918 0.034992
v -0.049627 0.884918 0.058665
v -0.036217 0.884918 0.078734
v -0.016148 0.884918 0.092144
v 0.007526 0.884918 0.096853
v 0.031199 0.884918 0.092144
v 0.051268 0.884918 0.078734
v 0.064678 0.884918 0.058665
v 0.069387 0.884918 0.034992
v 0.064678 0.884918 0.011318
v 0.051268 0.884918 -0.008751
v 0.031199 0.884918 -0.022161
v 0.031199 0.826590 -0.022161
v 0.051268 0.826590 -0.008751
v 0.064678 0.826590 0.011318
v 0.069387 0.826590 0.034992
v 0.064678 0.826590 0.058665
v 0.051268 0.826590 0.078734
v 0.031199 0.826590 0.092144
v 0.007526 0.826590 0.096853
v -0.016148 0.826590 0.092144
v -0.036217 0.826590 0.078734
v -0.049627 0.826590 0.058665
v -0.054335 0.826590 0.034992
v -0.049627 0.826590 0.011318
v -0.036217 0.826590 -0.008751
v -0.016148 0.826590 -0.022161
v -0.500000 2.929347 -0.118790
v -0.500000 1.929346 -0.118790
v 0.500000 1.929346 -0.118790
v 0.500000 2.929347 -0.118790
vn -1.0000 -0.0000 -0.0000
vn -0.0000 -0.0000 -1.0000
vn 1.0000 -0.0000 -0.0000
vn -0.0000 -0.0000 1.0000
vn -0.0000 -1.0000 -0.0000
vn -0.0000 1.0000 -0.0000
vn 0.1951 -0.0000 -0.9808
vn 0.3006 -0.0000 -0.9537
vn 0.6792 -0.0000 -0.7339
vn 0.9176 -0.0000 -0.3976
vn 0.9176 -0.0000 0.3976
vn 0.6792 -0.0000 0.7339
vn 0.3006 -0.0000 0.9537
vn 0.1951 -0.0000 0.9808
vn -0.1951 -0.0000 0.9808
vn -0.3006 -0.0000 0.9537
vn -0.6792 -0.0000 0.7339
vn -0.9176 -0.0000 0.3976
vn -0.9176 -0.0000 -0.3976
vn -0.6792 -0.0000 -0.7339
vn -0.3006 -0.0000 -0.9537
vn -0.1951 -0.0000 -0.9808
vn 0.0290 -0.9994 -0.0207
vn 0.0180 -0.9994 -0.0306
vn 0.0079 -0.9994 -0.0348
vn 0.0204 -0.9994 -0.0292
vn -0.4389 0.8922 0.1061
vn -0.4472 0.8944 -0.0000
vn -0.3842 0.8921 0.2379
vn -0.0180 -0.9994 0.0306
vn -0.0000 -0.9994 0.0351
vn -0.0079 -0.9994 0.0348
vn -0.4389 0.8922 -0.1061
vn -0.3842 0.8921 -0.2379
vn 0.0290 -0.9994 0.0207
vn 0.0346 -0.9994 0.0082
vn 0.0302 -0.9994 0.0188
vn 0.0204 -0.9994 0.0292
vn -0.0346 -0.9994 -0.0082
vn -0.0351 -0.9994 -0.0000
vn -0.0302 -0.9994 -0.0188
vn -0.3676 0.8920 -0.2631
vn -0.2596 0.8917 -0.3709
vn -0.0000 0.8944 -0.4472
vn 0.2279 0.8927 -0.3887
vn 0.0998 0.8918 -0.4413
vn -0.0000 -0.9994 -0.0351
vn -0.2279 0.8927 -0.3887
vn -0.0998 0.8918 -0.4413
vn 0.3676 0.8920 -0.2631
vn 0.2596 0.8917 -0.3709
vn 0.0351 -0.9994 -0.0000
vn -0.0346 -0.9994 0.0082
vn -0.0302 -0.9994 0.0188
vn 0.4389 0.8922 -0.1061
vn 0.3842 0.8921 -0.2379
vn 0.4472 0.8944 -0.0000
vn -0.3676 0.8920 0.2631
vn -0.2596 0.8917 0.3709
vn -0.0290 -0.9994 -0.0207
vn -0.0204 -0.9994 -0.0292
vn 0.0180 -0.9994 0.0306
vn 0.0079 -0.9994 0.0348
vn -0.2279 0.8927 0.3887
vn -0.0998 0.8918 0.4413
vn -0.0000 0.8944 0.4472
vn -0.0290 -0.9994 0.0207
vn -0.0204 -0.9994 0.0292
vn 0.0346 -0.9994 -0.0082
vn 0.0302 -0.9994 -0.0188
vn 0.2279 0.8927 0.3887
vn 0.0998 0.8918 0.4413
vn -0.0180 -0.9994 -0.0306
vn -0.0079 -0.9994 -0.0348
vn 0.3676 0.8920 0.2631
vn 0.2596 0.8917 0.3709
vn 0.4389 0.8922 0.1061
vn 0.3842 0.8921 0.2379
vt 0.015622 0.062625
vt 0.015622 0.114587
vt 0.015623 0.114457
vt 0.015623 0.060796
vt 0.045243 0.911069
vt 0.045237 0.944182
vt 0.045514 0.944245
vt 0.045506 0.910938
vt 0.015550 0.059993
vt 0.015549 0.114401
vt 0.015550 0.114534
vt 0.015552 0.061872
vt 0.015728 0.515788
vt 0.015750 0.551084
vt 0.014751 0.551084
vt 0.014769 0.515788
vt 0.016320 0.608839
vt 0.016320 0.715692
vt 0.016320 0.715682
vt 0.016320 0.608896
vt 0.016320 0.715648
vt 0.016320 0.609101
vt 0.016321 0.715594
vt 0.016321 0.609421
vt 0.016321 0.715529
vt 0.016321 0.609807
vt 0.016321 0.715463
vt 0.016321 0.610198
vt 0.016321 0.715406
vt 0.016320 0.610535
vt 0.016320 0.715367
vt 0.016320 0.610769
vt 0.016320 0.715351
vt 0.016320 0.610866
vt 0.016319 0.715360
vt 0.016319 0.610812
vt 0.016319 0.715393
vt 0.016319 0.610614
vt 0.016319 0.715445
vt 0.016319 0.610302
vt 0.016319 0.715510
vt 0.016318 0.609920
vt 0.016319 0.715576
vt 0.016319 0.609527
vt 0.016319 0.715634
vt 0.016319 0.609182
vt 0.016319 0.715675
vt 0.016319 0.608940
vt 0.016319 0.569417
vt 0.016319 0.569700
vt 0.016319 0.570547
vt 0.016318 0.570079
vt 0.016319 0.570910
vt 0.016318 0.570372
vt 0.016318 0.569646
vt 0.016318 0.570550
vt 0.016320 0.566959
vt 0.016319 0.566878
vt 0.016319 0.565813
vt 0.016320 0.565951
vt 0.016319 0.569817
vt 0.016318 0.568709
vt 0.016319 0.567368
vt 0.016319 0.567862
vt 0.016318 0.567479
vt 0.016318 0.566646
vt 0.016321 0.568821
vt 0.016321 0.568262
vt 0.016321 0.568152
vt 0.016321 0.569088
vt 0.016319 0.569331
vt 0.016318 0.567883
vt 0.016319 0.568847
vt 0.016320 0.568927
vt 0.016320 0.567194
vt 0.016319 0.567057
vt 0.016320 0.569777
vt 0.016320 0.570675
vt 0.016319 0.568989
vt 0.016319 0.567301
vt 0.016320 0.569216
vt 0.016321 0.567688
vt 0.016318 0.568424
vt 0.016318 0.568424
vt 0.016321 0.567711
vt 0.016321 0.567224
vt 0.016321 0.569668
vt 0.016321 0.568457
vt 0.016321 0.570212
vt 0.016321 0.569377
vt 0.016319 0.566058
vt 0.016318 0.569336
vt 0.016318 0.571286
vt 0.016319 0.571750
vt 0.016320 0.571878
vt 0.016320 0.570446
vt 0.016320 0.571651
vt 0.016321 0.569891
vt 0.016321 0.571101
vt 0.016321 0.570304
vt 0.016321 0.566449
vt 0.016319 0.571351
vt 0.016320 0.569304
vt 0.016319 0.567022
vt 0.016319 0.571630
vt 0.016320 0.571706
vt 0.016320 0.567252
vt 0.016319 0.568970
vt 0.016320 0.571570
vt 0.016320 0.569639
vt 0.016320 0.571239
vt 0.016321 0.570764
vt 0.016321 0.609316
vt 0.016321 0.608918
vt 0.016320 0.608111
vt 0.016320 0.608011
vt 0.016320 0.608230
vt 0.016320 0.608352
vt 0.016321 0.609794
vt 0.016320 0.607770
vt 0.016321 0.607933
vt 0.016321 0.610277
vt 0.016321 0.607423
vt 0.016321 0.607504
vt 0.016321 0.610693
vt 0.016321 0.607021
vt 0.016321 0.607007
vt 0.016320 0.610981
vt 0.016321 0.606624
vt 0.016321 0.606515
vt 0.016320 0.611100
vt 0.016320 0.606294
vt 0.016321 0.606106
vt 0.016319 0.611033
vt 0.016320 0.606025
vt 0.016319 0.606128
vt 0.016319 0.605900
vt 0.016320 0.605771
vt 0.016320 0.606083
vt 0.016320 0.605843
vt 0.016319 0.610790
vt 0.016319 0.608055
vt 0.016319 0.607852
vt 0.016319 0.607530
vt 0.016318 0.607138
vt 0.016319 0.606733
vt 0.016319 0.606378
vt 0.016319 0.608718
vt 0.016320 0.608593
vt 0.016319 0.606210
vt 0.016319 0.609019
vt 0.016318 0.606650
vt 0.016318 0.609447
vt 0.016318 0.607151
vt 0.016318 0.609934
vt 0.016318 0.607636
vt 0.016318 0.610405
vt 0.016319 0.608033
vt 0.016319 0.608283
vt 0.016320 0.608663
vt 0.015620 0.112379
vt 0.015620 0.062751
vt 0.015553 0.062034
vt 0.015552 0.112299
s 1
usemtl Material
f 1/1/1 2/2/1 153/3/1 154/4/1
f 3/5/2 4/6/2 8/7/2 7/8/2
f 155/9/3 156/10/3 6/11/3 5/12/3
f 5/13/4 6/14/4 2/15/4 1/16/4
f 154/4/5 155/9/5 5/12/5 1/1/5
f 156/10/6 153/3/6 2/2/6 6/11/6
f 89/17/7 10/18/7 12/19/8 90/20/8
f 90/20/8 12/19/8 14/21/9 91/22/9
f 91/22/9 14/21/9 16/23/10 92/24/10
f 92/24/10 16/23/10 18/25/3 93/26/3
f 93/26/3 18/25/3 20/27/11 94/28/11
f 94/28/11 20/27/11 22/29/12 95/30/12
f 95/30/12 22/29/12 24/31/13 96/32/13
f 96/32/13 24/31/13 26/33/14 97/34/14
f 97/34/15 26/33/15 28/35/16 98/36/16
f 98/36/16 28/35/16 30/37/17 99/38/17
f 99/38/17 30/37/17 32/39/18 100/40/18
f 100/40/18 32/39/18 34/41/1 101/42/1
f 101/42/1 34/41/1 36/43/19 102/44/19
f 102/44/19 36/43/19 38/45/20 103/46/20
f 12/19/6 10/18/6 40/47/6 38/45/6 36/43/6 34/41/6 32/39/6 30/37/6 28/35/6 26/33/6 24/31/6 22/29/6 20/27/6 18/25/6 16/23/6 14/21/6
f 103/46/20 38/45/20 40/47/21 104/48/21
f 104/48/21 40/47/21 10/18/22 89/17/22
f 29/49/23 27/50/24 74/51/25 76/52/26
f 52/53/27 53/54/28 81/55/28 79/56/29
f 11/57/30 9/58/31 57/59/31 58/60/32
f 53/54/28 54/61/33 83/62/34 81/55/28
f 37/63/35 35/64/36 82/65/37 84/66/38
f 19/67/39 17/68/40 64/69/40 66/70/41
f 54/61/33 55/71/42 85/72/43 83/62/34
f 41/73/44 42/74/45 59/75/46 88/76/44
f 27/50/24 25/77/47 72/78/47 74/51/25
f 55/71/42 56/79/48 87/80/49 85/72/43
f 42/74/45 43/81/50 61/82/51 59/75/46
f 56/79/48 41/73/44 88/76/44 87/80/49
f 35/64/36 33/83/52 80/84/52 82/65/37
f 17/68/40 15/85/53 62/86/54 64/69/40
f 43/81/50 44/87/55 63/88/56 61/82/51
f 44/87/55 45/89/57 65/90/57 63/88/56
f 86/91/21 87/80/21 88/76/22 57/59/22
f 84/66/20 85/72/20 87/80/21 86/91/21
f 82/65/19 83/62/19 85/72/20 84/66/20
f 80/84/1 81/55/1 83/62/19 82/65/19
f 78/92/18 79/56/18 81/55/1 80/84/1
f 76/52/17 77/93/17 79/56/18 78/92/18
f 74/51/16 75/94/16 77/93/17 76/52/17
f 72/78/15 73/95/15 75/94/16 74/51/16
f 70/96/13 71/97/13 73/95/14 72/78/14
f 68/98/12 69/99/12 71/97/13 70/96/13
f 66/70/11 67/100/11 69/99/12 68/98/12
f 64/69/3 65/90/3 67/100/11 66/70/11
f 62/86/10 63/88/10 65/90/3 64/69/3
f 60/101/9 61/82/9 63/88/10 62/86/10
f 58/60/8 59/75/8 61/82/9 60/101/9
f 57/59/7 88/76/7 59/75/8 58/60/8
f 51/102/58 52/53/27 79/56/29 77/93/59
f 21/103/60 19/67/39 66/70/41 68/98/61
f 39/104/62 37/63/35 84/66/38 86/91/63
f 50/105/64 51/102/58 77/93/59 75/94/65
f 49/106/66 50/105/64 75/94/65 73/95/66
f 13/107/67 11/57/30 58/60/32 60/101/68
f 31/108/69 29/49/23 76/52/26 78/92/70
f 48/109/71 49/106/66 73/95/66 71/97/72
f 23/110/73 21/103/60 68/98/61 70/96/74
f 9/58/31 39/104/62 86/91/63 57/59/31
f 47/111/75 48/109/71 71/97/72 69/99/76
f 46/112/77 47/111/75 69/99/76 67/100/78
f 15/85/53 13/107/67 60/101/68 62/86/54
f 33/83/52 31/108/69 78/92/70 80/84/52
f 45/89/57 46/112/77 67/100/78 65/90/57
f 25/77/47 23/110/73 70/96/74 72/78/47
f 91/22/6 92/24/6 135/113/6 136/114/6
f 112/115/5 111/116/5 144/117/5 145/118/5
f 92/24/6 93/26/6 134/119/6 135/113/6
f 111/116/5 110/120/5 143/121/5 144/117/5
f 93/26/6 94/28/6 133/122/6 134/119/6
f 110/120/5 109/123/5 142/124/5 143/121/5
f 94/28/6 95/30/6 132/125/6 133/122/6
f 109/123/5 108/126/5 141/127/5 142/124/5
f 95/30/6 96/32/6 131/128/6 132/125/6
f 108/126/5 107/129/5 140/130/5 141/127/5
f 96/32/6 97/34/6 130/131/6 131/128/6
f 107/129/5 106/132/5 139/133/5 140/130/5
f 97/34/6 98/36/6 129/134/6 130/131/6
f 120/135/5 119/136/5 152/137/5 121/138/5
f 106/132/5 105/139/5 138/140/5 139/133/5
f 98/36/6 99/38/6 128/141/6 129/134/6
f 41/73/7 120/135/7 105/139/8 42/74/8
f 42/74/8 105/139/8 106/132/9 43/81/9
f 43/81/9 106/132/9 107/129/10 44/87/10
f 44/87/10 107/129/10 108/126/3 45/89/3
f 45/89/3 108/126/3 109/123/11 46/112/11
f 46/112/11 109/123/11 110/120/12 47/111/12
f 47/111/12 110/120/12 111/116/13 48/109/13
f 48/109/13 111/116/13 112/115/14 49/106/14
f 49/106/15 112/115/15 113/142/16 50/105/16
f 50/105/16 113/142/16 114/143/17 51/102/17
f 51/102/17 114/143/17 115/144/18 52/53/18
f 52/53/18 115/144/18 116/145/1 53/54/1
f 53/54/1 116/145/1 117/146/19 54/61/19
f 54/61/19 117/146/19 118/147/20 55/71/20
f 55/71/20 118/147/20 119/136/21 56/79/21
f 56/79/21 119/136/21 120/135/22 41/73/22
f 152/137/21 123/148/21 122/149/22 121/138/22
f 151/150/20 124/151/20 123/148/21 152/137/21
f 150/152/19 125/153/19 124/151/20 151/150/20
f 149/154/1 126/155/1 125/153/19 150/152/19
f 148/156/18 127/157/18 126/155/1 149/154/1
f 147/158/17 128/141/17 127/157/18 148/156/18
f 146/159/16 129/134/16 128/141/17 147/158/17
f 145/118/15 130/131/15 129/134/16 146/159/16
f 144/117/13 131/128/13 130/131/14 145/118/14
f 143/121/12 132/125/12 131/128/13 144/117/13
f 142/124/11 133/122/11 132/125/12 143/121/12
f 141/127/3 134/119/3 133/122/11 142/124/11
f 140/130/10 135/113/10 134/119/3 141/127/3
f 139/133/9 136/114/9 135/113/10 140/130/10
f 138/140/8 137/160/8 136/114/9 139/133/9
f 121/138/7 122/149/7 137/160/8 138/140/8
f 113/142/5 112/115/5 145/118/5 146/159/5
f 104/48/6 89/17/6 122/149/6 123/148/6
f 90/20/6 91/22/6 136/114/6 137/160/6
f 114/143/5 113/142/5 146/159/5 147/158/5
f 103/46/6 104/48/6 123/148/6 124/151/6
f 89/17/6 90/20/6 137/160/6 122/149/6
f 115/144/5 114/143/5 147/158/5 148/156/5
f 102/44/6 103/46/6 124/151/6 125/153/6
f 116/145/5 115/144/5 148/156/5 149/154/5
f 101/42/6 102/44/6 125/153/6 126/155/6
f 117/146/5 116/145/5 149/154/5 150/152/5
f 100/40/6 101/42/6 126/155/6 127/157/6
f 118/147/5 117/146/5 150/152/5 151/150/5
f 99/38/6 100/40/6 127/157/6 128/141/6
f 105/139/5 120/135/5 121/138/5 138/140/5
f 119/136/5 118/147/5 151/150/5 152/137/5
f 4/161/2 3/162/2 154/4/2 153/3/2
f 3/162/2 7/163/2 155/9/2 154/4/2
f 8/164/2 4/161/2 153/3/2 156/10/2
f 7/163/2 8/164/2 156/10/2 155/9/2
