# Blender 4.5.3 LTS
# www.blender.org
mtllib YieldSign.mtl
o YieldSign
v 0.000000 0.000000 -0.050000
v 0.000000 3.000000 -0.050000
v 0.019134 0.000000 -0.046194
v 0.019134 3.000000 -0.046194
v 0.035355 0.000000 -0.035355
v 0.035355 3.000000 -0.035355
v 0.046194 0.000000 -0.019134
v 0.046194 3.000000 -0.019134
v 0.050000 0.000000 0.000000
v 0.050000 3.000000 0.000000
v 0.046194 0.000000 0.019134
v 0.046194 3.000000 0.019134
v 0.035355 0.000000 0.035355
v 0.035355 3.000000 0.035355
v 0.019134 0.000000 0.046194
v 0.019134 3.000000 0.046194
v 0.000000 0.000000 0.050000
v 0.000000 3.000000 0.050000
v -0.019134 0.000000 0.046194
v -0.019134 3.000000 0.046194
v -0.035355 0.000000 0.035355
v -0.035355 3.000000 0.035355
v -0.046194 0.000000 0.019134
v -0.046194 3.000000 0.019134
v -0.050000 0.000000 0.000000
v -0.050000 3.000000 0.000000
v -0.046194 0.000000 -0.019134
v -0.046194 3.000000 -0.019134
v -0.035355 0.000000 -0.035355
v -0.035355 3.000000 -0.035355
v -0.019134 0.000000 -0.046194
v -0.019134 3.000000 -0.046194
v 0.000000 0.042218 -0.050000
v 0.019134 0.042218 -0.046194
v 0.035355 0.042218 -0.035355
v 0.046194 0.042218 -0.019134
v 0.050000 0.042218 0.000000
v 0.046194 0.042218 0.019134
v 0.035355 0.042218 0.035355
v 0.019134 0.042218 0.046194
v 0.000000 0.042218 0.050000
v -0.019134 0.042218 0.046194
v -0.035355 0.042218 0.035355
v -0.046194 0.042218 0.019134
v -0.050000 0.042218 0.000000
v -0.046194 0.042218 -0.019134
v -0.035355 0.042218 -0.035355
v -0.019134 0.042218 -0.046194
v 0.000000 -0.001188 -0.083798
v 0.032068 -0.001188 -0.077419
v 0.032068 0.025320 -0.077419
v 0.059254 -0.001188 -0.059254
v 0.059254 0.025320 -0.059254
v 0.077419 -0.001188 -0.032068
v 0.077419 0.025320 -0.032068
v 0.083798 -0.001188 0.000000
v 0.083798 0.025320 0.000000
v 0.077419 -0.001188 0.032068
v 0.077419 0.025320 0.032068
v 0.059254 -0.001188 0.059254
v 0.059254 0.025320 0.059254
v 0.032068 -0.001188 0.077419
v 0.032068 0.025320 0.077419
v 0.000000 -0.001188 0.083798
v 0.000000 0.025320 0.083798
v -0.032068 -0.001188 0.077419
v -0.032068 0.025320 0.077419
v -0.059254 -0.001188 0.059254
v -0.059254 0.025320 0.059254
v -0.077419 -0.001188 0.032068
v -0.077419 0.025320 0.032068
v -0.083798 -0.001188 0.000000
v -0.083798 0.025320 0.000000
v -0.077419 -0.001188 -0.032068
v -0.077419 0.025320 -0.032068
v -0.059254 -0.001188 -0.059254
v -0.059254 0.025320 -0.059254
v -0.032068 -0.001188 -0.077419
v -0.032068 0.025320 -0.077419
v 0.000000 0.025320 -0.083798
v 0.000000 0.884324 -0.050000
v 0.019134 0.884324 -0.046194
v 0.035355 0.884324 -0.035355
v 0.046194 0.884324 -0.019134
v 0.050000 0.884324 0.000000
v 0.046194 0.884324 0.019134
v 0.035355 0.884324 0.035355
v 0.019134 0.884324 0.046194
v 0.000000 0.884324 0.050000
v -0.019134 0.884324 0.046194
v -0.035355 0.884324 0.035355
v -0.046194 0.884324 0.019134
v -0.050000 0.884324 0.000000
v -0.046194 0.884324 -0.019134
v -0.035355 0.884324 -0.035355
v -0.019134 0.884324 -0.046194
v 0.019134 0.825996 -0.046194
v 0.035355 0.825996 -0.035355
v 0.046194 0.825996 -0.019134
v 0.050000 0.825996 0.000000
v 0.046194 0.825996 0.019134
v 0.035355 0.825996 0.035355
v 0.019134 0.825996 0.046194
v 0.000000 0.825996 0.050000
v -0.019134 0.825996 0.046194
v -0.035355 0.825996 0.035355
v -0.046194 0.825996 0.019134
v -0.050000 0.825996 0.000000
v -0.046194 0.825996 -0.019134
v -0.035355 0.825996 -0.035355
v -0.019134 0.825996 -0.046194
v 0.000000 0.825996 -0.050000
v 0.000000 0.825996 -0.061861
v 0.000000 0.884324 -0.061861
v -0.023673 0.884324 -0.057152
v -0.043742 0.884324 -0.043742
v -0.057152 0.884324 -0.023673
v -0.061861 0.884324 0.000000
v -0.057152 0.884324 0.023673
v -0.043742 0.884324 0.043742
v -0.023673 0.884324 0.057152
v 0.000000 0.884324 0.061861
v 0.023673 0.884324 0.057152
v 0.043742 0.884324 0.043742
v 0.057152 0.884324 0.023673
v 0.061861 0.884324 0.000000
v 0.057152 0.884324 -0.023673
v 0.043742 0.884324 -0.043742
v 0.023673 0.884324 -0.057152
v 0.023673 0.825996 -0.057152
v 0.043742 0.825996 -0.043742
v 0.057152 0.825996 -0.023673
v 0.061861 0.825996 0.000000
v 0.057152 0.825996 0.023673
v 0.043742 0.825996 0.043742
v 0.023673 0.825996 0.057152
v 0.000000 0.825996 0.061861
v -0.023673 0.825996 0.057152
v -0.043742 0.825996 0.043742
v -0.057152 0.825996 0.023673
v -0.061861 0.825996 0.000000
v -0.057152 0.825996 -0.023673
v -0.043742 0.825996 -0.043742
v -0.023673 0.825996 -0.057152
v -0.005672 1.768547 -0.060998
v -0.005672 1.768547 -0.160998
v 0.643847 2.893547 -0.060998
v 0.643847 2.893547 -0.160998
v -0.655191 2.893547 -0.060998
v -0.655191 2.893547 -0.160998
v 0.447380 2.788790 -0.157326
v -0.005672 2.004082 -0.157326
v -0.458723 2.788790 -0.157326
v -0.586663 2.857242 -0.159162
v -0.005672 1.850935 -0.159162
v 0.575320 2.857242 -0.159162
vn -0.0000 -0.0000 -1.0000
vn 0.3827 -0.0000 -0.9239
vn 0.7071 -0.0000 -0.7071
vn 0.9239 -0.0000 -0.3827
vn 1.0000 -0.0000 -0.0000
vn 0.9239 -0.0000 0.3827
vn 0.7071 -0.0000 0.7071
vn 0.3827 -0.0000 0.9239
vn -0.0000 -0.0000 1.0000
vn -0.3827 -0.0000 0.9239
vn -0.7071 -0.0000 0.7071
vn -0.9239 -0.0000 0.3827
vn -1.0000 -0.0000 -0.0000
vn -0.9239 -0.0000 -0.3827
vn -0.7071 -0.0000 -0.7071
vn -0.0000 1.0000 -0.0000
vn -0.3827 -0.0000 -0.9239
vn 0.0248 -0.9994 -0.0248
vn 0.0134 -0.9994 -0.0324
vn -0.4132 0.8944 0.1711
vn -0.4472 0.8944 -0.0000
vn -0.0134 -0.9994 0.0324
vn -0.0000 -0.9994 0.0351
vn -0.4132 0.8944 -0.1711
vn 0.0248 -0.9994 0.0248
vn 0.0324 -0.9994 0.0134
vn -0.0324 -0.9994 -0.0134
vn -0.0351 -0.9994 -0.0000
vn -0.3162 0.8944 -0.3162
vn -0.0000 0.8944 -0.4472
vn 0.1711 0.8944 -0.4132
vn -0.0000 -0.9994 -0.0351
vn -0.1711 0.8944 -0.4132
vn 0.3162 0.8944 -0.3162
vn 0.0351 -0.9994 -0.0000
vn -0.0324 -0.9994 0.0134
vn 0.4132 0.8944 -0.1711
vn 0.4472 0.8944 -0.0000
vn -0.3162 0.8944 0.3162
vn -0.0248 -0.9994 -0.0248
vn 0.0134 -0.9994 0.0324
vn -0.1711 0.8944 0.4132
vn -0.0000 0.8944 0.4472
vn -0.0248 -0.9994 0.0248
vn 0.0324 -0.9994 -0.0134
vn 0.1711 0.8944 0.4132
vn -0.0134 -0.9994 -0.0324
vn 0.3162 0.8944 0.3162
vn 0.4132 0.8944 0.1711
vn -0.0000 -1.0000 -0.0000
vn 0.8660 -0.5000 -0.0000
vn -0.0000 0.0170 -0.9999
vn 0.0231 -0.0067 -0.9997
vn 0.0112 -0.0056 -0.9999
vn -0.0000 0.0060 -1.0000
vn -0.8660 -0.5000 -0.0000
vn -0.0112 -0.0056 -0.9999
vn -0.0231 -0.0067 -0.9997
vn -0.0386 0.0223 -0.9990
vn -0.0000 0.0223 -0.9998
vn -0.0000 -0.0505 -0.9987
vn 0.0386 0.0223 -0.9990
vt 0.015733 0.606586
vt 0.015731 0.714118
vt 0.015720 0.714089
vt 0.015723 0.606683
vt 0.015711 0.714010
vt 0.015714 0.606946
vt 0.015705 0.713894
vt 0.015709 0.607332
vt 0.015703 0.713760
vt 0.015707 0.607780
vt 0.015706 0.713629
vt 0.015710 0.608221
vt 0.015712 0.713519
vt 0.015716 0.608588
vt 0.015722 0.713448
vt 0.015724 0.608829
vt 0.015733 0.713424
vt 0.015734 0.608909
vt 0.015743 0.713451
vt 0.015744 0.608817
vt 0.015752 0.713526
vt 0.015752 0.608566
vt 0.015758 0.713638
vt 0.015758 0.608191
vt 0.015760 0.713770
vt 0.015760 0.607748
vt 0.015758 0.713903
vt 0.015758 0.607302
vt 0.015752 0.714017
vt 0.015752 0.606923
vt 0.015742 0.714092
vt 0.015743 0.606671
vt 0.015752 0.569638
vt 0.015744 0.569996
vt 0.015751 0.570938
vt 0.015765 0.570347
vt 0.015758 0.570911
vt 0.015760 0.570289
vt 0.015777 0.569546
vt 0.015774 0.570592
vt 0.015724 0.566960
vt 0.015734 0.566822
vt 0.015733 0.565612
vt 0.015717 0.565848
vt 0.015758 0.569663
vt 0.015774 0.568488
vt 0.015752 0.567301
vt 0.015758 0.567840
vt 0.015773 0.567340
vt 0.015764 0.566427
vt 0.015711 0.569147
vt 0.015709 0.568520
vt 0.015692 0.568485
vt 0.015696 0.569532
vt 0.015752 0.569131
vt 0.015764 0.567583
vt 0.015734 0.568659
vt 0.015724 0.568795
vt 0.015717 0.567008
vt 0.015733 0.566774
vt 0.015735 0.570127
vt 0.015735 0.571155
vt 0.015744 0.568778
vt 0.015750 0.566977
vt 0.015716 0.569164
vt 0.015703 0.567639
vt 0.015760 0.568474
vt 0.015777 0.568407
vt 0.015711 0.567883
vt 0.015694 0.567413
vt 0.015711 0.569706
vt 0.015694 0.568560
vt 0.015709 0.570334
vt 0.015692 0.569623
vt 0.015750 0.565817
vt 0.015774 0.569462
vt 0.015765 0.571470
vt 0.015751 0.572056
vt 0.015735 0.572271
vt 0.015719 0.570967
vt 0.015719 0.572085
vt 0.015706 0.570400
vt 0.015705 0.571523
vt 0.015696 0.570662
vt 0.015703 0.566484
vt 0.015752 0.571438
vt 0.015717 0.569670
vt 0.015744 0.566942
vt 0.015744 0.571791
vt 0.015735 0.571920
vt 0.015716 0.567334
vt 0.015758 0.569105
vt 0.015725 0.571808
vt 0.015725 0.570013
vt 0.015717 0.571469
vt 0.015711 0.570953
vt 0.015703 0.607229
vt 0.015710 0.606750
vt 0.015734 0.606270
vt 0.015724 0.606187
vt 0.015722 0.606443
vt 0.015734 0.606545
vt 0.015701 0.607784
vt 0.015716 0.605939
vt 0.015712 0.606138
vt 0.015704 0.608328
vt 0.015710 0.605561
vt 0.015704 0.605672
vt 0.015712 0.608782
vt 0.015708 0.605107
vt 0.015701 0.605111
vt 0.015722 0.609078
vt 0.015709 0.604646
vt 0.015703 0.604540
vt 0.015734 0.609176
vt 0.015715 0.604248
vt 0.015710 0.604046
vt 0.015747 0.609063
vt 0.015733 0.603877
vt 0.015743 0.603964
vt 0.015746 0.603693
vt 0.015733 0.603585
vt 0.015723 0.603977
vt 0.015720 0.603709
vt 0.015757 0.608754
vt 0.015744 0.606175
vt 0.015752 0.605916
vt 0.015758 0.605530
vt 0.015760 0.605074
vt 0.015758 0.604614
vt 0.015752 0.604224
vt 0.015746 0.606407
vt 0.015733 0.606302
vt 0.015756 0.604016
vt 0.015756 0.606721
vt 0.015763 0.604501
vt 0.015763 0.607192
vt 0.015766 0.605070
vt 0.015766 0.607744
vt 0.015764 0.605634
vt 0.015764 0.608292
vt 0.015757 0.606110
vt 0.015747 0.606428
vt 0.015720 0.606423
vt 0.049102 0.854073
vt 0.049102 0.848796
vt 0.048919 0.943165
vt 0.048931 0.942127
vt 0.049304 0.944717
vt 0.049290 0.943475
vt 0.857675 0.947541
vt 0.857282 0.982454
vt 0.857367 0.980129
vt 0.857675 0.952891
vt 0.015331 0.505703
vt 0.016143 0.557046
vt 0.014636 0.557093
vt 0.048973 0.934695
vt 0.049102 0.868684
vt 0.049241 0.935193
vt 0.858088 0.982519
vt 0.857995 0.980090
vt 0.049102 0.855782
vt 0.048938 0.940244
vt 0.049282 0.941370
s 1
usemtl Material
f 81/1/1 2/2/1 4/3/2 82/4/2
f 82/4/2 4/3/2 6/5/3 83/6/3
f 83/6/3 6/5/3 8/7/4 84/8/4
f 84/8/4 8/7/4 10/9/5 85/10/5
f 85/10/5 10/9/5 12/11/6 86/12/6
f 86/12/6 12/11/6 14/13/7 87/14/7
f 87/14/7 14/13/7 16/15/8 88/16/8
f 88/16/8 16/15/8 18/17/9 89/18/9
f 89/18/9 18/17/9 20/19/10 90/20/10
f 90/20/10 20/19/10 22/21/11 91/22/11
f 91/22/11 22/21/11 24/23/12 92/24/12
f 92/24/12 24/23/12 26/25/13 93/26/13
f 93/26/13 26/25/13 28/27/14 94/28/14
f 94/28/14 28/27/14 30/29/15 95/30/15
f 4/3/16 2/2/16 32/31/16 30/29/16 28/27/16 26/25/16 24/23/16 22/21/16 20/19/16 18/17/16 16/15/16 14/13/16 12/11/16 10/9/16 8/7/16 6/5/16
f 95/30/15 30/29/15 32/31/17 96/32/17
f 96/32/17 32/31/17 2/2/1 81/1/1
f 21/33/18 19/34/19 66/35/19 68/36/18
f 44/37/20 45/38/21 73/39/21 71/40/20
f 3/41/22 1/42/23 49/43/23 50/44/22
f 45/38/21 46/45/24 75/46/24 73/39/21
f 29/47/25 27/48/26 74/49/26 76/50/25
f 11/51/27 9/52/28 56/53/28 58/54/27
f 46/45/24 47/55/29 77/56/29 75/46/24
f 33/57/30 34/58/31 51/59/31 80/60/30
f 19/34/19 17/61/32 64/62/32 66/35/19
f 47/55/29 48/63/33 79/64/33 77/56/29
f 34/58/31 35/65/34 53/66/34 51/59/31
f 48/63/33 33/57/30 80/60/30 79/64/33
f 27/48/26 25/67/35 72/68/35 74/49/26
f 9/52/28 7/69/36 54/70/36 56/53/28
f 35/65/34 36/71/37 55/72/37 53/66/34
f 36/71/37 37/73/38 57/74/38 55/72/37
f 78/75/17 79/64/17 80/60/1 49/43/1
f 76/50/15 77/56/15 79/64/17 78/75/17
f 74/49/14 75/46/14 77/56/15 76/50/15
f 72/68/13 73/39/13 75/46/14 74/49/14
f 70/76/12 71/40/12 73/39/13 72/68/13
f 68/36/11 69/77/11 71/40/12 70/76/12
f 66/35/10 67/78/10 69/77/11 68/36/11
f 64/62/9 65/79/9 67/78/10 66/35/10
f 62/80/8 63/81/8 65/79/9 64/62/9
f 60/82/7 61/83/7 63/81/8 62/80/8
f 58/54/6 59/84/6 61/83/7 60/82/7
f 56/53/5 57/74/5 59/84/6 58/54/6
f 54/70/4 55/72/4 57/74/5 56/53/5
f 52/85/3 53/66/3 55/72/4 54/70/4
f 50/44/2 51/59/2 53/66/3 52/85/3
f 49/43/1 80/60/1 51/59/2 50/44/2
f 43/86/39 44/37/20 71/40/20 69/77/39
f 13/87/40 11/51/27 58/54/27 60/82/40
f 31/88/41 29/47/25 76/50/25 78/75/41
f 42/89/42 43/86/39 69/77/39 67/78/42
f 41/90/43 42/89/42 67/78/42 65/79/43
f 5/91/44 3/41/22 50/44/22 52/85/44
f 23/92/45 21/33/18 68/36/18 70/76/45
f 40/93/46 41/90/43 65/79/43 63/81/46
f 15/94/47 13/87/40 60/82/40 62/80/47
f 1/42/23 31/88/41 78/75/41 49/43/23
f 39/95/48 40/93/46 63/81/46 61/83/48
f 38/96/49 39/95/48 61/83/48 59/84/49
f 7/69/36 5/91/44 52/85/44 54/70/36
f 25/67/35 23/92/45 70/76/45 72/68/35
f 37/73/38 38/96/49 59/84/49 57/74/38
f 17/61/32 15/94/47 62/80/47 64/62/32
f 83/6/16 84/8/16 127/97/16 128/98/16
f 104/99/50 103/100/50 136/101/50 137/102/50
f 84/8/16 85/10/16 126/103/16 127/97/16
f 103/100/50 102/104/50 135/105/50 136/101/50
f 85/10/16 86/12/16 125/106/16 126/103/16
f 102/104/50 101/107/50 134/108/50 135/105/50
f 86/12/16 87/14/16 124/109/16 125/106/16
f 101/107/50 100/110/50 133/111/50 134/108/50
f 87/14/16 88/16/16 123/112/16 124/109/16
f 100/110/50 99/113/50 132/114/50 133/111/50
f 88/16/16 89/18/16 122/115/16 123/112/16
f 99/113/50 98/116/50 131/117/50 132/114/50
f 89/18/16 90/20/16 121/118/16 122/115/16
f 112/119/50 111/120/50 144/121/50 113/122/50
f 98/116/50 97/123/50 130/124/50 131/117/50
f 90/20/16 91/22/16 120/125/16 121/118/16
f 33/57/1 112/119/1 97/123/2 34/58/2
f 34/58/2 97/123/2 98/116/3 35/65/3
f 35/65/3 98/116/3 99/113/4 36/71/4
f 36/71/4 99/113/4 100/110/5 37/73/5
f 37/73/5 100/110/5 101/107/6 38/96/6
f 38/96/6 101/107/6 102/104/7 39/95/7
f 39/95/7 102/104/7 103/100/8 40/93/8
f 40/93/8 103/100/8 104/99/9 41/90/9
f 41/90/9 104/99/9 105/126/10 42/89/10
f 42/89/10 105/126/10 106/127/11 43/86/11
f 43/86/11 106/127/11 107/128/12 44/37/12
f 44/37/12 107/128/12 108/129/13 45/38/13
f 45/38/13 108/129/13 109/130/14 46/45/14
f 46/45/14 109/130/14 110/131/15 47/55/15
f 47/55/15 110/131/15 111/120/17 48/63/17
f 48/63/17 111/120/17 112/119/1 33/57/1
f 144/121/17 115/132/17 114/133/1 113/122/1
f 143/134/15 116/135/15 115/132/17 144/121/17
f 142/136/14 117/137/14 116/135/15 143/134/15
f 141/138/13 118/139/13 117/137/14 142/136/14
f 140/140/12 119/141/12 118/139/13 141/138/13
f 139/142/11 120/125/11 119/141/12 140/140/12
f 138/143/10 121/118/10 120/125/11 139/142/11
f 137/102/9 122/115/9 121/118/10 138/143/10
f 136/101/8 123/112/8 122/115/9 137/102/9
f 135/105/7 124/109/7 123/112/8 136/101/8
f 134/108/6 125/106/6 124/109/7 135/105/7
f 133/111/5 126/103/5 125/106/6 134/108/6
f 132/114/4 127/97/4 126/103/5 133/111/5
f 131/117/3 128/98/3 127/97/4 132/114/4
f 130/124/2 129/144/2 128/98/3 131/117/3
f 113/122/1 114/133/1 129/144/2 130/124/2
f 105/126/50 104/99/50 137/102/50 138/143/50
f 96/32/16 81/1/16 114/133/16 115/132/16
f 82/4/16 83/6/16 128/98/16 129/144/16
f 106/127/50 105/126/50 138/143/50 139/142/50
f 95/30/16 96/32/16 115/132/16 116/135/16
f 81/1/16 82/4/16 129/144/16 114/133/16
f 107/128/50 106/127/50 139/142/50 140/140/50
f 94/28/16 95/30/16 116/135/16 117/137/16
f 108/129/50 107/128/50 140/140/50 141/138/50
f 93/26/16 94/28/16 117/137/16 118/139/16
f 109/130/50 108/129/50 141/138/50 142/136/50
f 92/24/16 93/26/16 118/139/16 119/141/16
f 110/131/50 109/130/50 142/136/50 143/134/50
f 91/22/16 92/24/16 119/141/16 120/125/16
f 97/123/50 112/119/50 113/122/50 130/124/50
f 111/120/50 110/131/50 143/134/50 144/121/50
f 145/145/50 146/146/50 148/147/51 147/148/51
f 147/148/16 148/147/16 150/149/16 149/150/16
f 155/151/52 154/152/53 153/153/54 152/154/55
f 149/150/56 150/149/56 146/146/50 145/145/50
f 145/155/9 147/156/9 149/157/9
f 151/158/57 152/159/55 153/160/54
f 154/152/53 156/161/58 151/162/57 153/153/54
f 156/161/58 155/151/52 152/154/55 151/162/57
f 148/147/59 146/146/60 155/163/52 156/164/58
f 150/149/61 148/147/61 156/164/58 154/165/53
f 146/146/60 150/149/62 154/165/53 155/163/52
