# Blender 4.5.3 LTS
# www.blender.org
mtllib Sidewalk_(8Count).mtl
o Cube.009
v -74.179329 0.024657 -0.293100
v -74.179329 0.025657 -0.253100
v -74.219330 0.025657 -0.293100
v -74.179329 0.123657 -0.253100
v -74.179329 0.124657 -0.293100
v -74.219330 0.123657 -0.293100
v -74.179329 0.024657 -4.213099
v -74.219330 0.025657 -4.213099
v -74.179329 0.025657 -4.253099
v -74.179329 0.124657 -4.213099
v -74.179329 0.123657 -4.253099
v -74.219330 0.123657 -4.213099
v -70.259331 0.024657 -0.293100
v -70.219330 0.025657 -0.293100
v -70.259331 0.025657 -0.253100
v -70.259331 0.124657 -0.293100
v -70.259331 0.123657 -0.253100
v -70.219330 0.123657 -0.293100
v -70.259331 0.024657 -4.213099
v -70.259331 0.025657 -4.253099
v -70.219330 0.025657 -4.213099
v -70.259331 0.124657 -4.213099
v -70.219330 0.123657 -4.213099
v -70.259331 0.123657 -4.253099
v -70.159332 0.024657 -0.293100
v -70.159332 0.025657 -0.253100
v -70.199333 0.025657 -0.293100
v -70.159332 0.123657 -0.253100
v -70.159332 0.124657 -0.293100
v -70.199333 0.123657 -0.293100
v -70.159332 0.024657 -4.213099
v -70.199333 0.025657 -4.213099
v -70.159332 0.025657 -4.253099
v -70.159332 0.124657 -4.213099
v -70.159332 0.123657 -4.253099
v -70.199333 0.123657 -4.213099
v -66.239326 0.024657 -0.293100
v -66.199333 0.025657 -0.293100
v -66.239326 0.025657 -0.253100
v -66.239326 0.124657 -0.293100
v -66.239326 0.123657 -0.253100
v -66.199333 0.123657 -0.293100
v -66.239326 0.024657 -4.213099
v -66.239326 0.025657 -4.253099
v -66.199333 0.025657 -4.213099
v -66.239326 0.124657 -4.213099
v -66.199333 0.123657 -4.213099
v -66.239326 0.123657 -4.253099
v -66.139328 0.024657 -0.293100
v -66.139328 0.025657 -0.253100
v -66.179329 0.025657 -0.293100
v -66.139328 0.123657 -0.253100
v -66.139328 0.124657 -0.293100
v -66.179329 0.123657 -0.293100
v -66.139328 0.024657 -4.213099
v -66.179329 0.025657 -4.213099
v -66.139328 0.025657 -4.253099
v -66.139328 0.124657 -4.213099
v -66.139328 0.123657 -4.253099
v -66.179329 0.123657 -4.213099
v -62.219330 0.024657 -0.293100
v -62.179329 0.025657 -0.293100
v -62.219330 0.025657 -0.253100
v -62.219330 0.124657 -0.293100
v -62.219330 0.123657 -0.253100
v -62.179329 0.123657 -0.293100
v -62.219330 0.024657 -4.213099
v -62.219330 0.025657 -4.253099
v -62.179329 0.025657 -4.213099
v -62.219330 0.124657 -4.213099
v -62.179329 0.123657 -4.213099
v -62.219330 0.123657 -4.253099
v -62.119331 0.024657 -0.293100
v -62.119331 0.025657 -0.253100
v -62.159332 0.025657 -0.293100
v -62.119331 0.123657 -0.253100
v -62.119331 0.124657 -0.293100
v -62.159332 0.123657 -0.293100
v -62.119331 0.024657 -4.213099
v -62.159332 0.025657 -4.213099
v -62.119331 0.025657 -4.253099
v -62.119331 0.124657 -4.213099
v -62.119331 0.123657 -4.253099
v -62.159332 0.123657 -4.213099
v -58.199329 0.024657 -0.293100
v -58.159332 0.025657 -0.293100
v -58.199329 0.025657 -0.253100
v -58.199329 0.124657 -0.293100
v -58.199329 0.123657 -0.253100
v -58.159332 0.123657 -0.293100
v -58.199329 0.024657 -4.213099
v -58.199329 0.025657 -4.253099
v -58.159332 0.025657 -4.213099
v -58.199329 0.124657 -4.213099
v -58.159332 0.123657 -4.213099
v -58.199329 0.123657 -4.253099
v -58.099331 0.024657 -0.293100
v -58.099331 0.025657 -0.253100
v -58.139328 0.025657 -0.293100
v -58.099331 0.123657 -0.253100
v -58.099331 0.124657 -0.293100
v -58.139328 0.123657 -0.293100
v -58.099331 0.024657 -4.213099
v -58.139328 0.025657 -4.213099
v -58.099331 0.025657 -4.253099
v -58.099331 0.124657 -4.213099
v -58.099331 0.123657 -4.253099
v -58.139328 0.123657 -4.213099
v -54.179329 0.024657 -0.293100
v -54.139328 0.025657 -0.293100
v -54.179329 0.025657 -0.253100
v -54.179329 0.124657 -0.293100
v -54.179329 0.123657 -0.253100
v -54.139328 0.123657 -0.293100
v -54.179329 0.024657 -4.213099
v -54.179329 0.025657 -4.253099
v -54.139328 0.025657 -4.213099
v -54.179329 0.124657 -4.213099
v -54.139328 0.123657 -4.213099
v -54.179329 0.123657 -4.253099
v -54.079330 0.024657 -0.293100
v -54.079330 0.025657 -0.253100
v -54.119331 0.025657 -0.293100
v -54.079330 0.123657 -0.253100
v -54.079330 0.124657 -0.293100
v -54.119331 0.123657 -0.293100
v -54.079330 0.024657 -4.213099
v -54.119331 0.025657 -4.213099
v -54.079330 0.025657 -4.253099
v -54.079330 0.124657 -4.213099
v -54.079330 0.123657 -4.253099
v -54.119331 0.123657 -4.213099
v -50.159332 0.024657 -0.293100
v -50.119331 0.025657 -0.293100
v -50.159332 0.025657 -0.253100
v -50.159332 0.124657 -0.293100
v -50.159332 0.123657 -0.253100
v -50.119331 0.123657 -0.293100
v -50.159332 0.024657 -4.213099
v -50.159332 0.025657 -4.253099
v -50.119331 0.025657 -4.213099
v -50.159332 0.124657 -4.213099
v -50.119331 0.123657 -4.213099
v -50.159332 0.123657 -4.253099
v -50.059326 0.024657 -0.293100
v -50.059326 0.025657 -0.253100
v -50.099327 0.025657 -0.293100
v -50.059326 0.123657 -0.253100
v -50.059326 0.124657 -0.293100
v -50.099327 0.123657 -0.293100
v -50.059326 0.024657 -4.213099
v -50.099327 0.025657 -4.213099
v -50.059326 0.025657 -4.253099
v -50.059326 0.124657 -4.213099
v -50.059326 0.123657 -4.253099
v -50.099327 0.123657 -4.213099
v -46.139328 0.024657 -0.293100
v -46.099327 0.025657 -0.293100
v -46.139328 0.025657 -0.253100
v -46.139328 0.124657 -0.293100
v -46.139328 0.123657 -0.253100
v -46.099327 0.123657 -0.293100
v -46.139328 0.024657 -4.213099
v -46.139328 0.025657 -4.253099
v -46.099327 0.025657 -4.213099
v -46.139328 0.124657 -4.213099
v -46.099327 0.123657 -4.213099
v -46.139328 0.123657 -4.253099
v -46.039330 0.024657 -0.293100
v -46.039330 0.025657 -0.253100
v -46.079330 0.025657 -0.293100
v -46.039330 0.123657 -0.253100
v -46.039330 0.124657 -0.293100
v -46.079330 0.123657 -0.293100
v -46.039330 0.024657 -4.213099
v -46.079330 0.025657 -4.213099
v -46.039330 0.025657 -4.253099
v -46.039330 0.124657 -4.213099
v -46.039330 0.123657 -4.253099
v -46.079330 0.123657 -4.213099
v -42.119331 0.024657 -0.293100
v -42.079330 0.025657 -0.293100
v -42.119331 0.025657 -0.253100
v -42.119331 0.124657 -0.293100
v -42.119331 0.123657 -0.253100
v -42.079330 0.123657 -0.293100
v -42.119331 0.024657 -4.213099
v -42.119331 0.025657 -4.253099
v -42.079330 0.025657 -4.213099
v -42.119331 0.124657 -4.213099
v -42.079330 0.123657 -4.213099
v -42.119331 0.123657 -4.253099
vn -0.0250 -0.9994 0.0250
vn -0.0250 0.9994 0.0250
vn -0.0250 -0.9994 -0.0250
vn -0.0250 0.9994 -0.0250
vn 0.0250 -0.9994 0.0250
vn 0.0250 0.9994 0.0250
vn 0.0250 -0.9994 -0.0250
vn 0.0250 0.9994 -0.0250
vn -0.0250 -0.9997 -0.0000
vn -0.7071 -0.0000 0.7071
vn -0.0250 0.9997 -0.0000
vn -0.7071 -0.0000 -0.7071
vn -0.0000 -0.9997 -0.0250
vn -0.0000 0.9997 -0.0250
vn 0.7071 -0.0000 -0.7071
vn 0.0250 -0.9997 -0.0000
vn 0.0250 0.9997 -0.0000
vn 0.7071 -0.0000 0.7071
vn -0.0000 -0.9997 0.0250
vn -0.0000 0.9997 0.0250
vn -0.0000 -1.0000 -0.0000
vn -1.0000 -0.0000 -0.0000
vn -0.0000 -0.0000 1.0000
vn -0.0000 1.0000 -0.0000
vn -0.0000 -0.0000 -1.0000
vn 1.0000 -0.0000 -0.0000
vt 0.015920 0.517556
vt 0.015920 0.517735
vt 0.015920 0.517735
vt 0.015920 0.535273
vt 0.015920 0.535451
vt 0.015920 0.535273
vt 0.015920 0.517556
vt 0.015920 0.517735
vt 0.015920 0.517735
vt 0.015920 0.535451
vt 0.015889 0.517556
vt 0.015889 0.517735
vt 0.015889 0.517735
vt 0.015889 0.535451
vt 0.015889 0.535273
vt 0.015889 0.535272
vt 0.015889 0.517556
vt 0.015889 0.517735
vt 0.015889 0.517735
vt 0.015889 0.535451
vt 0.015920 0.535272
vt 0.015920 0.535272
vt 0.015889 0.517735
vt 0.015889 0.535272
vt 0.015889 0.517735
vt 0.015889 0.535272
vt 0.015920 0.517735
vt 0.015920 0.535272
vt 0.015920 0.517735
vt 0.015920 0.517735
vt 0.015889 0.517735
vt 0.015889 0.517735
vt 0.015889 0.535272
vt 0.015920 0.517735
vt 0.015920 0.535272
vt 0.015920 0.517735
vt 0.015920 0.517735
vt 0.015920 0.535272
vt 0.015889 0.517735
vt 0.015889 0.517735
vt 0.015920 0.517735
vt 0.015920 0.517735
vt 0.015889 0.517556
vt 0.015889 0.517735
vt 0.015889 0.535273
vt 0.015889 0.517556
vt 0.015889 0.535451
vt 0.015920 0.517556
vt 0.015920 0.517735
vt 0.015920 0.535272
vt 0.015920 0.535451
vt 0.015920 0.535272
vt 0.015920 0.517556
vt 0.015920 0.517735
vt 0.015920 0.517735
vt 0.015920 0.535451
vt 0.015889 0.517556
vt 0.015920 0.517735
vt 0.015889 0.517735
vt 0.015889 0.517735
vt 0.015889 0.517735
vt 0.015889 0.517735
vt 0.015889 0.535272
vt 0.015920 0.517556
vt 0.015920 0.517735
vt 0.015889 0.517735
s 0
usemtl Material.001
f 1/1/1 2/2/1 3/3/1
f 4/4/2 5/5/2 6/6/2
f 7/7/3 8/8/3 9/9/3
f 10/10/4 11/4/4 12/6/4
f 13/11/5 14/12/5 15/13/5
f 16/14/6 17/15/6 18/16/6
f 19/17/7 20/18/7 21/19/7
f 22/20/8 23/16/8 24/15/8
f 25/1/1 26/2/1 27/3/1
f 28/21/2 29/5/2 30/22/2
f 31/7/3 32/8/3 33/9/3
f 34/10/4 35/4/4 36/6/4
f 37/11/5 38/23/5 39/13/5
f 40/14/6 41/24/6 42/16/6
f 43/17/7 44/18/7 45/25/7
f 46/20/8 47/26/8 48/24/8
f 49/1/1 50/2/1 51/27/1
f 52/4/2 53/5/2 54/28/2
f 55/7/3 56/29/3 57/30/3
f 58/10/4 59/4/4 60/28/4
f 61/11/5 62/12/5 63/31/5
f 64/14/6 65/24/6 66/16/6
f 67/17/7 68/32/7 69/25/7
f 70/20/8 71/16/8 72/33/8
f 73/1/1 74/34/1 75/3/1
f 76/35/2 77/5/2 78/22/2
f 79/7/3 80/36/3 81/37/3
f 82/10/4 83/38/4 84/22/4
f 85/11/5 86/39/5 87/31/5
f 88/14/6 89/24/6 90/16/6
f 91/17/7 92/40/7 93/25/7
f 94/20/8 95/26/8 96/33/8
f 97/1/1 98/41/1 99/42/1
f 100/38/2 101/5/2 102/22/2
f 103/7/3 104/8/3 105/37/3
f 106/10/4 107/38/4 108/22/4
f 109/43/5 110/39/5 111/44/5
f 112/14/6 113/24/6 114/45/6
f 115/46/7 116/40/7 117/19/7
f 118/47/8 119/16/8 120/24/8
f 121/48/1 122/2/1 123/49/1
f 124/50/2 125/51/2 126/52/2
f 127/53/3 128/54/3 129/55/3
f 130/56/4 131/21/4 132/52/4
f 133/57/5 134/39/5 135/44/5
f 136/14/6 137/24/6 138/16/6
f 139/46/7 140/18/7 141/19/7
f 142/47/8 143/16/8 144/24/8
f 145/48/1 146/2/1 147/58/1
f 148/21/2 149/51/2 150/22/2
f 151/53/3 152/8/3 153/30/3
f 154/56/4 155/21/4 156/22/4
f 157/57/5 158/59/5 159/60/5
f 160/47/6 161/24/6 162/26/6
f 163/46/7 164/61/7 165/62/7
f 166/47/8 167/63/8 168/24/8
f 169/64/1 170/2/1 171/58/1
f 172/21/2 173/51/2 174/22/2
f 175/53/3 176/65/3 177/9/3
f 178/56/4 179/21/4 180/22/4
f 181/57/5 182/59/5 183/60/5
f 184/47/6 185/24/6 186/63/6
f 187/46/7 188/66/7 189/62/7
f 190/47/8 191/63/8 192/24/8
f 7/7/9 1/1/9 3/3/9 8/8/9
f 2/2/10 4/4/10 6/6/10 3/3/10
f 5/5/11 10/10/11 12/6/11 6/6/11
f 11/4/12 9/9/12 8/8/12 12/6/12
f 19/17/13 7/7/13 9/9/13 20/18/13
f 10/10/14 22/20/14 24/15/14 11/4/14
f 23/16/15 21/19/15 20/18/15 24/15/15
f 13/11/16 19/17/16 21/19/16 14/12/16
f 22/20/17 16/14/17 18/16/17 23/16/17
f 17/15/18 15/13/18 14/12/18 18/16/18
f 1/1/19 13/11/19 15/13/19 2/2/19
f 16/14/20 5/5/20 4/4/20 17/15/20
f 31/7/9 25/1/9 27/3/9 32/8/9
f 26/2/10 28/21/10 30/22/10 27/3/10
f 29/5/11 34/10/11 36/6/11 30/22/11
f 35/4/12 33/9/12 32/8/12 36/6/12
f 43/17/13 31/7/13 33/9/13 44/18/13
f 34/10/14 46/20/14 48/24/14 35/4/14
f 47/26/15 45/25/15 44/18/15 48/24/15
f 37/11/16 43/17/16 45/25/16 38/23/16
f 46/20/17 40/14/17 42/16/17 47/26/17
f 41/24/18 39/13/18 38/23/18 42/16/18
f 25/1/19 37/11/19 39/13/19 26/2/19
f 40/14/20 29/5/20 28/21/20 41/24/20
f 55/7/9 49/1/9 51/27/9 56/29/9
f 50/2/10 52/4/10 54/28/10 51/27/10
f 53/5/11 58/10/11 60/28/11 54/28/11
f 59/4/12 57/30/12 56/29/12 60/28/12
f 67/17/13 55/7/13 57/30/13 68/32/13
f 58/10/14 70/20/14 72/33/14 59/4/14
f 71/16/15 69/25/15 68/32/15 72/33/15
f 61/11/16 67/17/16 69/25/16 62/12/16
f 70/20/17 64/14/17 66/16/17 71/16/17
f 65/24/18 63/31/18 62/12/18 66/16/18
f 49/1/19 61/11/19 63/31/19 50/2/19
f 64/14/20 53/5/20 52/4/20 65/24/20
f 79/7/9 73/1/9 75/3/9 80/36/9
f 74/34/10 76/35/10 78/22/10 75/3/10
f 77/5/11 82/10/11 84/22/11 78/22/11
f 83/38/12 81/37/12 80/36/12 84/22/12
f 91/17/13 79/7/13 81/37/13 92/40/13
f 82/10/14 94/20/14 96/33/14 83/38/14
f 95/26/15 93/25/15 92/40/15 96/33/15
f 85/11/16 91/17/16 93/25/16 86/39/16
f 94/20/17 88/14/17 90/16/17 95/26/17
f 89/24/18 87/31/18 86/39/18 90/16/18
f 73/1/19 85/11/19 87/31/19 74/34/19
f 88/14/20 77/5/20 76/35/20 89/24/20
f 103/7/9 97/1/9 99/42/9 104/8/9
f 98/41/10 100/38/10 102/22/10 99/42/10
f 101/5/11 106/10/11 108/22/11 102/22/11
f 107/38/12 105/37/12 104/8/12 108/22/12
f 115/46/13 103/7/13 105/37/13 116/40/13
f 106/10/14 118/47/14 120/24/14 107/38/14
f 119/16/15 117/19/15 116/40/15 120/24/15
f 109/43/16 115/46/16 117/19/16 110/39/16
f 118/47/17 112/14/17 114/45/17 119/16/17
f 113/24/18 111/44/18 110/39/18 114/45/18
f 97/1/19 109/43/19 111/44/19 98/41/19
f 112/14/20 101/5/20 100/38/20 113/24/20
f 127/53/9 121/48/9 123/49/9 128/54/9
f 122/2/10 124/50/10 126/52/10 123/49/10
f 125/51/11 130/56/11 132/52/11 126/52/11
f 131/21/12 129/55/12 128/54/12 132/52/12
f 139/46/13 127/53/13 129/55/13 140/18/13
f 130/56/14 142/47/14 144/24/14 131/21/14
f 143/16/15 141/19/15 140/18/15 144/24/15
f 133/57/16 139/46/16 141/19/16 134/39/16
f 142/47/17 136/14/17 138/16/17 143/16/17
f 137/24/18 135/44/18 134/39/18 138/16/18
f 121/48/19 133/57/19 135/44/19 122/2/19
f 136/14/20 125/51/20 124/50/20 137/24/20
f 151/53/9 145/48/9 147/58/9 152/8/9
f 146/2/10 148/21/10 150/22/10 147/58/10
f 149/51/11 154/56/11 156/22/11 150/22/11
f 155/21/12 153/30/12 152/8/12 156/22/12
f 163/46/13 151/53/13 153/30/13 164/61/13
f 154/56/14 166/47/14 168/24/14 155/21/14
f 167/63/15 165/62/15 164/61/15 168/24/15
f 157/57/16 163/46/16 165/62/16 158/59/16
f 166/47/17 160/47/17 162/26/17 167/63/17
f 161/24/18 159/60/18 158/59/18 162/26/18
f 145/48/19 157/57/19 159/60/19 146/2/19
f 160/47/20 149/51/20 148/21/20 161/24/20
f 175/53/9 169/64/9 171/58/9 176/65/9
f 170/2/10 172/21/10 174/22/10 171/58/10
f 173/51/11 178/56/11 180/22/11 174/22/11
f 179/21/12 177/9/12 176/65/12 180/22/12
f 187/46/13 175/53/13 177/9/13 188/66/13
f 178/56/14 190/47/14 192/24/14 179/21/14
f 191/63/15 189/62/15 188/66/15 192/24/15
f 181/57/16 187/46/16 189/62/16 182/59/16
f 190/47/17 184/47/17 186/63/17 191/63/17
f 185/24/18 183/60/18 182/59/18 186/63/18
f 169/64/19 181/57/19 183/60/19 170/2/19
f 184/47/20 173/51/20 172/21/20 185/24/20
f 7/7/21 19/17/21 13/11/21 1/1/21
f 3/3/22 6/6/22 12/6/22 8/8/22
f 15/13/23 17/15/23 4/4/23 2/2/23
f 22/20/24 10/10/24 5/5/24 16/14/24
f 9/9/25 11/4/25 24/15/25 20/18/25
f 21/19/26 23/16/26 18/16/26 14/12/26
f 31/7/21 43/17/21 37/11/21 25/1/21
f 27/3/22 30/22/22 36/6/22 32/8/22
f 39/13/23 41/24/23 28/21/23 26/2/23
f 46/20/24 34/10/24 29/5/24 40/14/24
f 33/9/25 35/4/25 48/24/25 44/18/25
f 45/25/26 47/26/26 42/16/26 38/23/26
f 55/7/21 67/17/21 61/11/21 49/1/21
f 51/27/22 54/28/22 60/28/22 56/29/22
f 63/31/23 65/24/23 52/4/23 50/2/23
f 70/20/24 58/10/24 53/5/24 64/14/24
f 57/30/25 59/4/25 72/33/25 68/32/25
f 69/25/26 71/16/26 66/16/26 62/12/26
f 79/7/21 91/17/21 85/11/21 73/1/21
f 75/3/22 78/22/22 84/22/22 80/36/22
f 87/31/23 89/24/23 76/35/23 74/34/23
f 94/20/24 82/10/24 77/5/24 88/14/24
f 81/37/25 83/38/25 96/33/25 92/40/25
f 93/25/26 95/26/26 90/16/26 86/39/26
f 103/7/21 115/46/21 109/43/21 97/1/21
f 99/42/22 102/22/22 108/22/22 104/8/22
f 111/44/23 113/24/23 100/38/23 98/41/23
f 118/47/24 106/10/24 101/5/24 112/14/24
f 105/37/25 107/38/25 120/24/25 116/40/25
f 117/19/26 119/16/26 114/45/26 110/39/26
f 127/53/21 139/46/21 133/57/21 121/48/21
f 123/49/22 126/52/22 132/52/22 128/54/22
f 135/44/23 137/24/23 124/50/23 122/2/23
f 142/47/24 130/56/24 125/51/24 136/14/24
f 129/55/25 131/21/25 144/24/25 140/18/25
f 141/19/26 143/16/26 138/16/26 134/39/26
f 151/53/21 163/46/21 157/57/21 145/48/21
f 147/58/22 150/22/22 156/22/22 152/8/22
f 159/60/23 161/24/23 148/21/23 146/2/23
f 166/47/24 154/56/24 149/51/24 160/47/24
f 153/30/25 155/21/25 168/24/25 164/61/25
f 165/62/26 167/63/26 162/26/26 158/59/26
f 175/53/21 187/46/21 181/57/21 169/64/21
f 171/58/22 174/22/22 180/22/22 176/65/22
f 183/60/23 185/24/23 172/21/23 170/2/23
f 190/47/24 178/56/24 173/51/24 184/47/24
f 177/9/25 179/21/25 192/24/25 188/66/25
f 189/62/26 191/63/26 186/63/26 182/59/26
