# Blender 4.5.3 LTS
# www.blender.org
mtllib Sidewalk_(1Count).mtl
o Cube.016
v -74.179329 0.024657 -11.581993
v -74.179329 0.025657 -11.541993
v -74.219330 0.025657 -11.581993
v -74.179329 0.123657 -11.541993
v -74.179329 0.124657 -11.581993
v -74.219330 0.123657 -11.581993
v -74.179329 0.024657 -15.501993
v -74.219330 0.025657 -15.501993
v -74.179329 0.025657 -15.541993
v -74.179329 0.124657 -15.501993
v -74.179329 0.123657 -15.541993
v -74.219330 0.123657 -15.501993
v -70.259331 0.024657 -11.581993
v -70.219330 0.025657 -11.581993
v -70.259331 0.025657 -11.541993
v -70.259331 0.124657 -11.581993
v -70.259331 0.123657 -11.541993
v -70.219330 0.123657 -11.581993
v -70.259331 0.024657 -15.501993
v -70.259331 0.025657 -15.541993
v -70.219330 0.025657 -15.501993
v -70.259331 0.124657 -15.501993
v -70.219330 0.123657 -15.501993
v -70.259331 0.123657 -15.541993
vn -0.0250 -0.9994 0.0250
vn -0.0250 0.9994 0.0250
vn -0.0250 -0.9994 -0.0250
vn -0.0250 0.9994 -0.0250
vn 0.0250 -0.9994 0.0250
vn 0.0250 0.9994 0.0250
vn 0.0250 -0.9994 -0.0250
vn 0.0250 0.9994 -0.0250
vn -0.0250 -0.9997 -0.0000
vn -0.7071 -0.0000 0.7071
vn -0.0250 0.9997 -0.0000
vn -0.7071 -0.0000 -0.7071
vn -0.0000 -0.9997 -0.0250
vn -0.0000 0.9997 -0.0250
vn 0.7071 -0.0000 -0.7071
vn 0.0250 -0.9997 -0.0000
vn 0.0250 0.9997 -0.0000
vn 0.7071 -0.0000 0.7071
vn -0.0000 -0.9997 0.0250
vn -0.0000 0.9997 0.0250
vn -0.0000 -1.0000 -0.0000
vn -1.0000 -0.0000 -0.0000
vn -0.0000 -0.0000 1.0000
vn -0.0000 1.0000 -0.0000
vn -0.0000 -0.0000 -1.0000
vn 1.0000 -0.0000 -0.0000
vt 0.015920 0.517556
vt 0.015920 0.517735
vt 0.015920 0.517735
vt 0.015920 0.535273
vt 0.015920 0.535451
vt 0.015920 0.535273
vt 0.015920 0.517556
vt 0.015920 0.517735
vt 0.015920 0.517735
vt 0.015920 0.535451
vt 0.015920 0.535272
vt 0.015889 0.517556
vt 0.015889 0.517735
vt 0.015889 0.517735
vt 0.015889 0.535451
vt 0.015889 0.535272
vt 0.015889 0.535273
vt 0.015889 0.517556
vt 0.015889 0.517735
vt 0.015889 0.517735
vt 0.015889 0.535451
vt 0.015889 0.535272
s 0
usemtl Material.001
f 1/1/1 2/2/1 3/3/1
f 4/4/2 5/5/2 6/6/2
f 7/7/3 8/8/3 9/9/3
f 10/10/4 11/4/4 12/11/4
f 13/12/5 14/13/5 15/14/5
f 16/15/6 17/16/6 18/17/6
f 19/18/7 20/19/7 21/20/7
f 22/21/8 23/22/8 24/16/8
f 7/7/9 1/1/9 3/3/9 8/8/9
f 2/2/10 4/4/10 6/6/10 3/3/10
f 5/5/11 10/10/11 12/11/11 6/6/11
f 11/4/12 9/9/12 8/8/12 12/11/12
f 19/18/13 7/7/13 9/9/13 20/19/13
f 10/10/14 22/21/14 24/16/14 11/4/14
f 23/22/15 21/20/15 20/19/15 24/16/15
f 13/12/16 19/18/16 21/20/16 14/13/16
f 22/21/17 16/15/17 18/17/17 23/22/17
f 17/16/18 15/14/18 14/13/18 18/17/18
f 1/1/19 13/12/19 15/14/19 2/2/19
f 16/15/20 5/5/20 4/4/20 17/16/20
f 7/7/21 19/18/21 13/12/21 1/1/21
f 3/3/22 6/6/22 12/11/22 8/8/22
f 15/14/23 17/16/23 4/4/23 2/2/23
f 22/21/24 10/10/24 5/5/24 16/15/24
f 9/9/25 11/4/25 24/16/25 20/19/25
f 21/20/26 23/22/26 18/17/26 14/13/26
