# Blender 4.5.3 LTS
# www.blender.org
mtllib StageLight(Ground).mtl
o StageGroundLight
v -0.180000 -0.050000 0.500000
v -0.256558 0.302396 0.450000
v -0.180000 -0.050000 -0.500000
v -0.256558 0.302396 -0.450000
v 0.219794 -0.050000 0.500000
v 0.181911 0.535956 0.450000
v 0.219794 -0.050000 -0.500000
v 0.181911 0.535956 -0.450000
v -0.180000 0.079969 0.500000
v -0.180000 0.079969 -0.500000
v 0.300000 0.342731 -0.500000
v 0.300000 0.342731 0.500000
v -0.283036 0.288292 0.500000
v -0.283036 0.288292 -0.500000
v 0.208388 0.550060 -0.500000
v 0.208388 0.550060 0.500000
v -0.242454 0.275918 0.450000
v -0.242454 0.275918 -0.450000
v 0.196015 0.509478 -0.450000
v 0.196015 0.509478 0.450000
v -0.180000 -0.050000 0.450000
v -0.283036 0.288292 0.450000
v 0.219794 -0.050000 0.450000
v 0.208388 0.550060 0.450000
v 0.300000 0.342731 0.450000
v -0.180000 0.079969 0.450000
v -0.256558 0.302396 0.405000
v 0.181911 0.535956 0.405000
v -0.242454 0.275918 0.405000
v 0.196015 0.509478 0.405000
v -0.283036 0.288292 -0.452500
v 0.219794 -0.050000 -0.452500
v -0.180000 0.079969 -0.452500
v -0.256558 0.302396 -0.407250
v -0.242454 0.275918 -0.407250
v -0.180000 -0.050000 -0.452500
v 0.208388 0.550060 -0.452500
v 0.300000 0.342731 -0.452500
v 0.181911 0.535956 -0.407250
v 0.196015 0.509478 -0.407250
v -0.180000 -0.050000 0.475000
v -0.231518 0.184130 0.500000
v -0.283036 0.288292 -0.476250
v -0.180000 0.014985 -0.500000
v 0.019897 -0.050000 -0.500000
v -0.037324 0.419176 -0.500000
v 0.259897 0.146365 -0.500000
v 0.219794 -0.050000 -0.476250
v 0.208388 0.550060 0.475000
v 0.259897 0.146365 0.500000
v 0.019897 -0.050000 0.500000
v -0.037324 0.419176 0.500000
v -0.180000 0.014985 0.500000
v -0.231518 0.184130 -0.500000
v 0.254194 0.446395 -0.500000
v 0.254194 0.446395 0.500000
v 0.060000 0.211350 0.500000
v 0.300000 0.342731 0.475000
v 0.060000 0.211350 -0.500000
v -0.180000 0.079969 -0.476250
v -0.256558 0.302396 -0.428625
v -0.037324 0.419176 -0.450000
v 0.181911 0.535956 0.427500
v -0.037324 0.419176 0.450000
v -0.269797 0.295344 0.475000
v -0.269797 0.295344 -0.475000
v 0.195149 0.543008 -0.475000
v 0.195149 0.543008 0.475000
v -0.242454 0.275918 -0.428625
v -0.023220 0.392698 -0.450000
v 0.196015 0.509478 0.427500
v -0.023220 0.392698 0.450000
v -0.249506 0.289157 -0.450000
v 0.188963 0.522717 -0.450000
v 0.188963 0.522717 0.450000
v -0.249506 0.289157 0.450000
v -0.180000 -0.050000 -0.001250
v -0.283036 0.288292 0.475000
v 0.219794 -0.050000 0.475000
v 0.208388 0.550060 -0.001250
v 0.300000 0.342731 -0.001250
v -0.180000 0.079969 0.475000
v -0.256558 0.302396 0.427500
v 0.181911 0.535956 -0.001125
v -0.242454 0.275918 0.427500
v 0.196015 0.509478 -0.001125
v -0.249506 0.289157 0.405000
v 0.188963 0.522717 0.405000
v -0.023220 0.392698 0.405000
v 0.195149 0.543008 0.427500
v -0.269797 0.295344 0.427500
v -0.180000 0.014985 0.450000
v 0.259897 0.146365 0.450000
v 0.019897 -0.050000 0.450000
v 0.254194 0.446395 0.450000
v -0.231518 0.184130 0.450000
v -0.283036 0.288292 -0.001250
v 0.219794 -0.050000 -0.001250
v -0.180000 0.079969 -0.001250
v -0.256558 0.302396 -0.001125
v -0.242454 0.275918 -0.001125
v -0.180000 -0.050000 -0.476250
v 0.208388 0.550060 -0.476250
v 0.300000 0.342731 -0.476250
v 0.181911 0.535956 -0.428625
v 0.196015 0.509478 -0.428625
v 0.254194 0.446395 -0.452500
v 0.019897 -0.050000 -0.452500
v 0.259897 0.146365 -0.452500
v 0.195149 0.543008 -0.429875
v -0.023220 0.392698 -0.407250
v -0.249506 0.289157 -0.407250
v 0.188963 0.522717 -0.407250
v -0.269797 0.295344 -0.429875
v -0.180000 0.014985 -0.452500
v -0.231518 0.184130 -0.452500
v -0.231518 0.184130 -0.476250
v 0.011338 0.315263 -0.500000
v 0.254194 0.446395 0.475000
v 0.011338 0.315263 0.500000
v 0.019897 -0.050000 0.475000
v -0.030272 0.405937 -0.450000
v 0.039948 0.080675 0.500000
v 0.259897 0.146365 0.475000
v 0.039948 0.080675 -0.500000
v -0.180000 0.014985 -0.476250
v -0.269797 0.295344 -0.452438
v -0.037324 0.419176 -0.475000
v 0.195149 0.543007 0.451250
v -0.037324 0.419176 0.475000
v -0.023220 0.392698 0.427500
v 0.188963 0.522717 -0.428625
v -0.249506 0.289157 0.427500
v -0.030272 0.405937 0.450000
v -0.249506 0.289157 -0.001125
v 0.188963 0.522717 0.427500
v -0.023220 0.392698 -0.001125
v 0.195149 0.543007 -0.001187
v -0.269797 0.295344 0.451250
v -0.180000 0.014985 0.475000
v 0.259897 0.146365 -0.001250
v 0.019897 -0.050000 -0.001250
v 0.254194 0.446395 -0.001250
v -0.231518 0.184130 0.475000
v 0.254194 0.446395 -0.476250
v 0.019897 -0.050000 -0.476250
v 0.259897 0.146365 -0.476250
v 0.195149 0.543007 -0.452438
v -0.023220 0.392698 -0.428625
v -0.249506 0.289157 -0.428625
v 0.188963 0.522717 -0.001125
v -0.269797 0.295344 -0.001188
v -0.180000 0.014985 -0.001250
v -0.231518 0.184130 -0.001250
vn -0.6509 -0.6509 0.3906
vn -0.1640 0.9687 -0.1864
vn -0.6509 -0.6509 -0.3906
vn -0.1640 0.9687 0.1864
vn 0.5795 -0.7098 0.4004
vn -0.7124 0.6766 -0.1864
vn 0.5795 -0.7098 -0.4004
vn -0.7124 0.6766 0.1864
vn -0.7954 -0.1859 0.5769
vn -0.7954 -0.1859 -0.5769
vn 0.8871 0.0956 -0.4515
vn 0.8871 0.0956 0.4515
vn -0.8758 0.2816 0.3919
vn -0.8758 0.2816 -0.3919
vn 0.3010 0.8714 -0.3873
vn 0.3010 0.8714 0.3873
vn 0.2685 0.8806 -0.3906
vn 0.2685 0.8806 0.3906
vn -0.8806 0.2685 0.3906
vn -0.8806 0.2685 -0.3906
vn -0.7071 -0.7071 -0.0000
vn -0.9520 0.3060 -0.0000
vn 0.6324 -0.7746 -0.0000
vn 0.3265 0.9452 -0.0000
vn 0.9942 0.1071 -0.0000
vn -0.9737 -0.2276 -0.0000
vn 0.2917 0.9565 -0.0000
vn -0.9565 0.2917 -0.0000
vn -0.7686 -0.3802 0.5145
vn -0.8575 -0.0000 -0.5145
vn -0.0000 -0.8575 -0.5145
vn -0.4031 0.7568 -0.5145
vn 0.8402 -0.1716 -0.5145
vn 0.8402 -0.1716 0.5145
vn -0.0000 -0.8575 0.5145
vn -0.4031 0.7568 0.5145
vn -0.8575 -0.0000 0.5145
vn -0.7686 -0.3802 -0.5145
vn 0.7843 0.3466 -0.5145
vn 0.7843 0.3466 0.5145
vn -0.0000 -0.0000 1.0000
vn -0.0000 -0.0000 -1.0000
vn -0.4701 0.8826 -0.0000
vn 0.7568 0.4031 0.5145
vn -0.7568 -0.4031 0.5145
vn -0.7568 -0.4031 -0.5145
vn 0.7568 0.4031 -0.5145
vn 0.8826 0.4701 -0.0000
vn -0.8826 -0.4701 -0.0000
vn -1.0000 -0.0000 -0.0000
vn 0.9798 -0.2001 -0.0000
vn -0.0000 -1.0000 -0.0000
vn 0.9147 0.4042 -0.0000
vn -0.8964 -0.4433 -0.0000
vt 0.014110 0.148569
vt 0.014109 0.219714
vt 0.014108 0.219714
vt 0.014109 0.148569
vt 0.014108 0.290860
vt 0.014107 0.290860
vt 0.014107 0.290860
vt 0.014108 0.219714
vt 0.014109 0.148569
vt 0.014112 0.309282
vt 0.014113 0.238306
vt 0.014111 0.380257
vt 0.014116 0.469655
vt 0.014117 0.398849
vt 0.014118 0.328043
vt 0.014153 0.328043
vt 0.014152 0.398849
vt 0.014153 0.398849
vt 0.014154 0.328043
vt 0.014152 0.469655
vt 0.014153 0.469655
vt 0.014153 0.469655
vt 0.014154 0.398849
vt 0.014155 0.328043
vt 0.014150 0.309282
vt 0.014151 0.238306
vt 0.014149 0.380257
vt 0.014144 0.290860
vt 0.014145 0.219714
vt 0.014146 0.148569
vt 0.014144 0.059796
vt 0.014148 0.059796
vt 0.014149 0.059796
vt 0.014145 0.059796
vt 0.014152 0.059796
vt 0.014153 0.059796
vt 0.014154 0.059796
vt 0.014150 0.059796
vt 0.014146 0.059796
vt 0.014117 0.460022
vt 0.014113 0.380257
vt 0.014113 0.371215
vt 0.014118 0.450979
vt 0.014109 0.300493
vt 0.014109 0.291450
vt 0.014109 0.282408
vt 0.014113 0.362172
vt 0.014118 0.441936
vt 0.014154 0.193920
vt 0.014150 0.149051
vt 0.014146 0.104183
vt 0.014153 0.193920
vt 0.014154 0.193920
vt 0.014109 0.059796
vt 0.014109 0.104183
vt 0.014113 0.149051
vt 0.014112 0.059796
vt 0.014117 0.193920
vt 0.014116 0.059796
vt 0.014110 0.059796
vt 0.014110 0.104183
vt 0.014109 0.104183
vt 0.014109 0.059796
vt 0.014111 0.300493
vt 0.014110 0.300493
vt 0.014109 0.295676
vt 0.014109 0.295676
vt 0.014108 0.295676
vt 0.014112 0.380257
vt 0.014117 0.464838
vt 0.014149 0.460022
vt 0.014150 0.460022
vt 0.014151 0.464838
vt 0.014150 0.464838
vt 0.014151 0.460022
vt 0.014152 0.464838
vt 0.014147 0.380257
vt 0.014148 0.380257
vt 0.014143 0.300493
vt 0.014143 0.295676
vt 0.733082 0.177552
vt 0.733087 0.094114
vt 0.733083 0.092482
vt 0.733078 0.176382
vt 0.733092 0.010675
vt 0.733088 0.008581
vt 0.733083 0.006487
vt 0.733079 0.090850
vt 0.733074 0.175212
vt 0.014119 0.460022
vt 0.014118 0.460022
vt 0.014118 0.450979
vt 0.014119 0.450979
vt 0.014118 0.450979
vt 0.014119 0.441936
vt 0.014119 0.441936
vt 0.014141 0.300493
vt 0.014142 0.300493
vt 0.014142 0.291450
vt 0.014141 0.291450
vt 0.014143 0.291450
vt 0.014143 0.282408
vt 0.014142 0.282408
vt 0.014141 0.282408
vt 0.014147 0.371215
vt 0.014151 0.450979
vt 0.014151 0.441936
vt 0.014147 0.362172
vt 0.014126 0.300493
vt 0.014126 0.291450
vt 0.014111 0.291450
vt 0.014126 0.282408
vt 0.014111 0.282408
vt 0.014150 0.450979
vt 0.014150 0.450979
vt 0.014150 0.441936
vt 0.014151 0.441936
vt 0.733207 0.214601
vt 0.733221 0.145097
vt 0.733154 0.119605
vt 0.733145 0.196077
vt 0.733234 0.075593
vt 0.733163 0.043134
vt 0.014134 0.460022
vt 0.014134 0.464838
vt 0.014118 0.464838
vt 0.014150 0.464838
vt 0.014135 0.469655
vt 0.014118 0.469655
vt 0.014142 0.295676
vt 0.014141 0.295676
vt 0.014142 0.290860
vt 0.014143 0.290860
vt 0.014145 0.104183
vt 0.014145 0.148569
vt 0.014144 0.148569
vt 0.014144 0.104183
vt 0.014118 0.059796
vt 0.014119 0.193920
vt 0.014136 0.193920
vt 0.014135 0.059796
vt 0.014120 0.328043
vt 0.014137 0.328043
vt 0.014114 0.059796
vt 0.014131 0.059796
vt 0.014127 0.059796
vt 0.014119 0.398849
vt 0.014136 0.398849
vt 0.014144 0.219714
vt 0.014143 0.219714
vt 0.014117 0.398849
vt 0.014118 0.398849
vt 0.014119 0.328043
vt 0.014117 0.469655
vt 0.014113 0.059796
vt 0.014109 0.059796
vt 0.014117 0.059796
vt 0.014118 0.193920
vt 0.014117 0.059796
vt 0.014118 0.464838
vt 0.014117 0.464838
vt 0.733213 0.216314
vt 0.733227 0.147423
vt 0.733224 0.146260
vt 0.733210 0.215457
vt 0.733241 0.078532
vt 0.733238 0.077063
vt 0.014110 0.291450
vt 0.014110 0.282408
vt 0.014134 0.450979
vt 0.014150 0.450979
vt 0.014134 0.441936
vt 0.014125 0.295676
vt 0.014125 0.290860
vt 0.014127 0.104183
vt 0.014127 0.148569
vt 0.014110 0.104183
vt 0.014126 0.219714
vt 0.014127 0.148569
s 1
usemtl Material
f 33/1/26 116/2/54 117/3/54 60/4/26
f 116/2/54 31/5/22 43/6/22 117/3/54
f 117/3/54 43/6/22 14/7/14 54/8/38
f 60/4/26 117/3/54 54/8/38 10/9/10
f 10/9/10 54/8/38 118/10/42 59/11/42
f 54/8/38 14/7/14 46/12/32 118/10/42
f 118/10/42 46/12/32 15/13/15 55/14/39
f 59/11/42 118/10/42 55/14/39 11/15/11
f 25/16/25 95/17/53 119/18/53 58/19/25
f 95/17/53 24/20/24 49/21/24 119/18/53
f 119/18/53 49/21/24 16/22/16 56/23/40
f 58/19/25 119/18/53 56/23/40 12/24/12
f 12/24/12 56/23/40 120/25/41 57/26/41
f 56/23/40 16/22/16 52/27/36 120/25/41
f 120/25/41 52/27/36 13/28/13 42/29/29
f 57/26/41 120/25/41 42/29/29 9/30/9
f 21/31/21 94/32/52 121/33/52 41/34/21
f 94/32/52 23/35/23 79/36/23 121/33/52
f 121/33/52 79/36/23 5/37/5 51/38/35
f 41/34/21 121/33/52 51/38/35 1/39/1
f 8/40/8 62/41/36 122/42/41 74/43/45
f 62/41/36 4/44/4 73/45/44 122/42/41
f 122/42/41 73/45/44 18/46/18 70/47/36
f 74/43/45 122/42/41 70/47/36 19/48/19
f 5/37/5 50/49/34 123/50/41 51/38/35
f 50/49/34 12/24/12 57/26/41 123/50/41
f 123/50/41 57/26/41 9/30/9 53/51/37
f 51/38/35 123/50/41 53/51/37 1/39/1
f 23/35/23 93/52/51 124/53/51 79/36/23
f 93/52/51 25/16/25 58/19/25 124/53/51
f 124/53/51 58/19/25 12/24/12 50/49/34
f 79/36/23 124/53/51 50/49/34 5/37/5
f 3/54/3 44/55/30 125/56/42 45/57/31
f 44/55/30 10/9/10 59/11/42 125/56/42
f 125/56/42 59/11/42 11/15/11 47/58/33
f 45/57/31 125/56/42 47/58/33 7/59/7
f 36/60/21 115/61/50 126/62/50 102/63/21
f 115/61/50 33/1/26 60/4/26 126/62/50
f 126/62/50 60/4/26 10/9/10 44/55/30
f 102/63/21 126/62/50 44/55/30 3/54/3
f 34/64/27 61/65/27 127/66/43 114/67/43
f 61/65/27 4/44/4 66/68/43 127/66/43
f 127/66/43 66/68/43 14/7/14 43/6/22
f 114/67/43 127/66/43 43/6/22 31/5/22
f 4/44/4 62/41/36 128/69/43 66/68/43
f 62/41/36 8/40/8 67/70/43 128/69/43
f 128/69/43 67/70/43 15/13/15 46/12/32
f 66/68/43 128/69/43 46/12/32 14/7/14
f 28/71/28 63/72/28 129/73/43 90/74/43
f 63/72/28 6/75/6 68/76/43 129/73/43
f 129/73/43 68/76/43 16/22/16 49/21/24
f 90/74/43 129/73/43 49/21/24 24/20/24
f 6/75/6 64/77/32 130/78/43 68/76/43
f 64/77/32 2/79/2 65/80/43 130/78/43
f 130/78/43 65/80/43 13/28/13 52/27/36
f 68/76/43 130/78/43 52/27/36 16/22/16
f 30/81/28 89/82/43 131/83/43 71/84/28
f 89/82/43 29/85/27 85/86/27 131/83/43
f 131/83/43 85/86/27 17/87/17 72/88/32
f 71/84/28 131/83/43 72/88/32 20/89/20
f 39/90/28 105/91/28 132/92/49 113/93/49
f 105/91/28 8/40/8 74/94/45 132/92/49
f 132/92/49 74/94/45 19/48/19 106/95/28
f 113/93/49 132/92/49 106/95/28 40/96/28
f 27/97/27 83/98/27 133/99/48 87/100/48
f 83/98/27 2/79/2 76/101/47 133/99/48
f 133/99/48 76/101/47 17/102/17 85/103/27
f 87/100/48 133/99/48 85/103/27 29/104/27
f 2/79/2 64/77/32 134/105/42 76/101/47
f 64/77/32 6/75/6 75/106/46 134/105/42
f 134/105/42 75/106/46 20/107/20 72/108/32
f 76/101/47 134/105/42 72/108/32 17/102/17
f 34/64/27 100/109/27 135/110/48 112/111/48
f 100/109/27 27/97/27 87/100/48 135/110/48
f 135/110/48 87/100/48 29/104/27 101/112/27
f 112/111/48 135/110/48 101/112/27 35/113/27
f 6/75/6 63/72/28 136/114/49 75/106/46
f 63/72/28 28/71/28 88/115/49 136/114/49
f 136/114/49 88/115/49 30/116/28 71/117/28
f 75/106/46 136/114/49 71/117/28 20/107/20
f 40/118/28 111/119/43 137/120/43 86/121/28
f 111/119/43 35/122/27 101/123/27 137/120/43
f 137/120/43 101/123/27 29/85/27 89/82/43
f 86/121/28 137/120/43 89/82/43 30/81/28
f 39/90/28 84/124/28 138/125/43 110/126/43
f 84/124/28 28/71/28 90/127/43 138/125/43
f 138/125/43 90/127/43 24/20/24 80/128/24
f 110/126/43 138/125/43 80/128/24 37/129/24
f 2/79/2 83/98/27 139/130/43 65/80/43
f 83/98/27 27/97/27 91/131/43 139/130/43
f 139/130/43 91/131/43 22/132/22 78/133/22
f 65/80/43 139/130/43 78/133/22 13/28/13
f 1/39/1 53/51/37 140/134/50 41/34/21
f 53/51/37 9/30/9 82/135/26 140/134/50
f 140/134/50 82/135/26 26/136/26 92/137/50
f 41/34/21 140/134/50 92/137/50 21/31/21
f 32/138/23 109/139/51 141/140/51 98/141/23
f 109/139/51 38/142/25 81/143/25 141/140/51
f 141/140/51 81/143/25 25/16/25 93/52/51
f 98/141/23 141/140/51 93/52/51 23/35/23
f 36/60/21 108/144/52 142/145/52 77/146/21
f 108/144/52 32/138/23 98/141/23 142/145/52
f 142/145/52 98/141/23 23/35/23 94/32/52
f 77/146/21 142/145/52 94/32/52 21/31/21
f 38/142/25 107/147/53 143/148/53 81/143/25
f 107/147/53 37/129/24 80/128/24 143/148/53
f 143/148/53 80/128/24 24/20/24 95/17/53
f 81/143/25 143/148/53 95/17/53 25/16/25
f 9/30/9 42/29/29 144/149/54 82/135/26
f 42/29/29 13/28/13 78/133/22 144/149/54
f 144/149/54 78/133/22 22/132/22 96/150/54
f 82/135/26 144/149/54 96/150/54 26/136/26
f 11/15/11 55/151/39 145/152/53 104/153/25
f 55/151/39 15/13/15 103/154/24 145/152/53
f 145/152/53 103/154/24 37/129/24 107/147/53
f 104/153/25 145/152/53 107/147/53 38/142/25
f 3/54/3 45/57/31 146/155/52 102/156/21
f 45/57/31 7/59/7 48/157/23 146/155/52
f 146/155/52 48/157/23 32/138/23 108/144/52
f 102/156/21 146/155/52 108/144/52 36/60/21
f 7/59/7 47/58/33 147/158/51 48/159/23
f 47/58/33 11/15/11 104/153/25 147/158/51
f 147/158/51 104/153/25 38/142/25 109/139/51
f 48/159/23 147/158/51 109/139/51 32/138/23
f 8/40/8 105/91/28 148/160/43 67/161/43
f 105/91/28 39/90/28 110/126/43 148/160/43
f 148/160/43 110/126/43 37/129/24 103/154/24
f 67/161/43 148/160/43 103/154/24 15/13/15
f 19/162/19 70/163/36 149/164/43 106/165/28
f 70/163/36 18/166/18 69/167/27 149/164/43
f 149/164/43 69/167/27 35/122/27 111/119/43
f 106/165/28 149/164/43 111/119/43 40/118/28
f 4/44/4 61/65/27 150/168/48 73/45/44
f 61/65/27 34/64/27 112/111/48 150/168/48
f 150/168/48 112/111/48 35/113/27 69/169/27
f 73/45/44 150/168/48 69/169/27 18/46/18
f 28/71/28 84/124/28 151/170/49 88/171/49
f 84/124/28 39/90/28 113/93/49 151/170/49
f 151/170/49 113/93/49 40/96/28 86/172/28
f 88/171/49 151/170/49 86/172/28 30/116/28
f 27/97/27 100/109/27 152/173/43 91/131/43
f 100/109/27 34/64/27 114/67/43 152/173/43
f 152/173/43 114/67/43 31/5/22 97/174/22
f 91/131/43 152/173/43 97/174/22 22/132/22
f 21/31/21 92/137/50 153/175/50 77/146/21
f 92/137/50 26/136/26 99/176/26 153/175/50
f 153/175/50 99/176/26 33/1/26 115/177/50
f 77/146/21 153/175/50 115/177/50 36/60/21
f 26/136/26 96/150/54 154/178/54 99/179/26
f 96/150/54 22/132/22 97/174/22 154/178/54
f 154/178/54 97/174/22 31/5/22 116/2/54
f 99/179/26 154/178/54 116/2/54 33/1/26
