# Blender 4.4.3
# www.blender.org
o Plane.1096
v 0.011367 -0.045402 -0.022266
v -0.005187 -0.045402 -0.013775
v 0.012650 0.097364 0.000615
v 0.014957 0.077575 -0.008997
v 0.013853 0.055926 -0.015861
v 0.012642 0.030247 -0.019226
v 0.011939 0.003101 -0.021150
v 0.011406 -0.022959 -0.022190
v -0.005148 -0.022959 -0.013699
v -0.004614 0.003101 -0.012659
v -0.003461 0.030247 -0.010966
v -0.001434 0.055926 -0.008019
v 0.003497 0.077575 -0.003118
v 0.029818 -0.048409 0.041422
v 0.050441 -0.048409 0.038661
v 0.037020 0.111256 0.016825
v 0.030995 0.089124 0.026094
v 0.029593 0.064913 0.033741
v 0.029611 0.036194 0.037742
v 0.029632 0.005835 0.040032
v 0.029806 -0.023310 0.041327
v 0.050428 -0.023310 0.038566
v 0.050254 0.005835 0.037270
v 0.049672 0.036194 0.035055
v 0.048637 0.064913 0.031191
v 0.045272 0.089124 0.024182
v -0.045004 -0.048409 0.020412
v -0.044919 -0.048409 -0.000394
v -0.068385 0.111256 0.009914
v -0.060027 0.089124 0.017149
v -0.052643 0.064913 0.019585
v -0.048678 0.036194 0.020114
v -0.046407 0.005835 0.020406
v -0.045100 -0.023310 0.020412
v -0.045015 -0.023310 -0.000395
v -0.046322 0.005835 -0.000400
v -0.048596 0.036194 -0.000126
v -0.052565 0.064913 0.000371
v -0.059969 0.089124 0.002746
v -0.015573 -0.049368 -0.074540
v 0.005736 -0.049368 -0.071618
v -0.001628 0.115684 -0.097068
v -0.010182 0.092805 -0.089490
v -0.013684 0.067778 -0.082256
v -0.014767 0.038090 -0.078265
v -0.015376 0.006706 -0.075977
v -0.015560 -0.023422 -0.074638
v 0.005749 -0.023422 -0.071716
v 0.005933 0.006706 -0.073054
v 0.005962 0.038090 -0.075422
v 0.005994 0.067778 -0.079557
v 0.004569 0.092805 -0.087467
v 0.069734 -0.057759 -0.054619
v 0.042559 -0.057759 -0.049495
v 0.061915 0.154449 -0.021463
v 0.069256 0.125033 -0.034191
v 0.070576 0.092856 -0.044440
v 0.070270 0.054686 -0.049748
v 0.070079 0.014335 -0.052786
v 0.069758 -0.024401 -0.054493
v 0.042583 -0.024401 -0.049370
v 0.042905 0.014335 -0.047663
v 0.043834 0.054686 -0.044764
v 0.045481 0.092856 -0.039709
v 0.050443 0.125033 -0.030644
v -0.066139 -0.053376 -0.065226
v -0.063826 -0.053376 -0.040891
v -0.037587 0.134203 -0.055662
v -0.048197 0.108201 -0.063153
v -0.057111 0.079758 -0.065144
v -0.061808 0.046018 -0.065303
v -0.064498 0.010351 -0.065382
v -0.066027 -0.023889 -0.065236
v -0.063714 -0.023889 -0.040902
v -0.062185 0.010351 -0.041047
v -0.059559 0.046018 -0.041631
v -0.054976 0.079758 -0.042672
v -0.046595 0.108201 -0.046307
v -0.009305 -0.053340 0.068691
v -0.000532 -0.053340 0.091477
v 0.020735 0.134033 0.070207
v 0.008512 0.108060 0.065856
v -0.000599 0.079648 0.066340
v -0.005160 0.045946 0.067451
v -0.007769 0.010317 0.068099
v -0.009200 -0.023885 0.068650
v -0.000427 -0.023885 0.091437
v 0.001005 0.010317 0.090885
v 0.003374 0.045946 0.089617
v 0.007503 0.079648 0.087382
v 0.014586 0.108060 0.081630
v 0.070052 -0.051065 0.078339
v 0.060261 -0.051065 0.057802
v 0.042036 0.123524 0.079094
v 0.053704 0.099323 0.082255
v 0.062133 0.072850 0.081150
v 0.066291 0.041447 0.079789
v 0.068667 0.008249 0.078999
v 0.069957 -0.023620 0.078384
v 0.060166 -0.023620 0.057848
v 0.058876 0.008249 0.058463
v 0.056766 0.041447 0.059811
v 0.053091 0.072850 0.062185
v 0.046925 0.099323 0.068038
v -0.072458 -0.044341 0.057111
v -0.085537 -0.044341 0.044996
v -0.092637 0.092463 0.065777
v -0.083226 0.073500 0.064699
v -0.077409 0.052756 0.061452
v -0.074777 0.028149 0.059257
v -0.073275 0.002136 0.057993
v -0.072514 -0.022836 0.057171
v -0.085592 -0.022836 0.045056
v -0.086354 0.002136 0.045878
v -0.087499 0.028149 0.047471
v -0.089487 0.052756 0.050264
v -0.092280 0.073500 0.056312
v 0.080167 -0.045992 -0.023398
v 0.092190 -0.045992 -0.008639
v 0.102795 0.100091 -0.029554
v 0.092683 0.079841 -0.029817
v 0.086049 0.057690 -0.027250
v 0.082938 0.031414 -0.025322
v 0.081162 0.003637 -0.024209
v 0.080235 -0.023028 -0.023454
v 0.092258 -0.023028 -0.008695
v 0.093185 0.003637 -0.009450
v 0.094634 0.031414 -0.010964
v 0.097152 0.057690 -0.013620
v 0.101007 0.079841 -0.019599
vn -0.4564 0.0038 -0.8898
vn -0.4268 0.3544 -0.8320
vn -0.4349 0.3036 -0.8478
vn -0.4475 0.1962 -0.8725
vn -0.4539 0.1041 -0.8849
vn -0.4556 0.0594 -0.8882
vn -0.4563 0.0243 -0.8895
vn 0.1327 0.0038 0.9911
vn 0.1241 0.3544 0.9268
vn 0.1266 0.3004 0.9454
vn 0.1306 0.1785 0.9752
vn 0.1321 0.0997 0.9862
vn 0.1325 0.0583 0.9895
vn 0.1327 0.0236 0.9909
vn 0.1327 0.0250 0.9908
vn 0.1325 0.0606 0.9893
vn 0.1320 0.1084 0.9853
vn 0.1295 0.2204 0.9668
vn 0.1261 0.3125 0.9415
vn 1.0000 0.0038 0.0041
vn 0.9351 0.3544 0.0038
vn 0.9409 0.3385 0.0038
vn 0.9697 0.2442 0.0039
vn 0.9935 0.1140 0.0040
vn 0.9980 0.0624 0.0041
vn 0.9997 0.0258 0.0041
vn 0.9997 0.0225 0.0041
vn 0.9984 0.0565 0.0041
vn 0.9955 0.0943 0.0041
vn 0.9861 0.1658 0.0040
vn 0.9539 0.3002 0.0039
vn -0.1359 0.0038 0.9907
vn -0.1271 0.3544 0.9264
vn -0.1296 0.2995 0.9452
vn -0.1339 0.1708 0.9762
vn -0.1352 0.0970 0.9861
vn -0.1357 0.0574 0.9891
vn -0.1358 0.0231 0.9905
vn -0.1358 0.0254 0.9904
vn -0.1356 0.0615 0.9889
vn -0.1350 0.1113 0.9846
vn -0.1321 0.2350 0.9630
vn -0.1285 0.3254 0.9368
vn -0.1853 0.0038 -0.9827
vn -0.1733 0.3544 -0.9189
vn -0.1767 0.3007 -0.9372
vn -0.1822 0.1806 -0.9665
vn -0.1843 0.1004 -0.9777
vn -0.1850 0.0584 -0.9810
vn -0.1852 0.0237 -0.9824
vn -0.1852 0.0249 -0.9824
vn -0.1849 0.0605 -0.9809
vn -0.1842 0.1078 -0.9770
vn -0.1809 0.2168 -0.9593
vn -0.1761 0.3105 -0.9341
vn -0.9955 0.0038 0.0946
vn -0.9309 0.3544 0.0885
vn -0.9367 0.3386 0.0890
vn -0.9657 0.2430 0.0918
vn -0.9890 0.1140 0.0940
vn -0.9936 0.0624 0.0944
vn -0.9952 0.0258 0.0946
vn -0.9953 0.0225 0.0946
vn -0.9939 0.0565 0.0945
vn -0.9911 0.0942 0.0942
vn -0.9817 0.1663 0.0933
vn -0.9494 0.3009 0.0902
vn -0.9332 0.0038 0.3593
vn -0.8727 0.3544 0.3360
vn -0.8810 0.3300 0.3392
vn -0.9104 0.2198 0.3505
vn -0.9276 0.1093 0.3572
vn -0.9315 0.0612 0.3586
vn -0.9329 0.0251 0.3592
vn -0.9330 0.0229 0.3592
vn -0.9317 0.0575 0.3587
vn -0.9288 0.0973 0.3576
vn -0.9184 0.1775 0.3536
vn -0.8875 0.3092 0.3417
vn 0.9027 0.0038 -0.4304
vn 0.8441 0.3544 -0.4024
vn 0.8544 0.3225 -0.4074
vn 0.8839 0.2029 -0.4214
vn 0.8977 0.1048 -0.4280
vn 0.9010 0.0598 -0.4296
vn 0.9024 0.0243 -0.4302
vn 0.9024 0.0236 -0.4302
vn 0.9011 0.0586 -0.4296
vn 0.8980 0.1010 -0.4282
vn 0.8863 0.1897 -0.4225
vn 0.8564 0.3161 -0.4083
vn 0.6796 0.0038 -0.7336
vn 0.6355 0.3544 -0.6860
vn 0.6480 0.3013 -0.6995
vn 0.6701 0.1666 -0.7234
vn 0.6765 0.0943 -0.7303
vn 0.6785 0.0565 -0.7324
vn 0.6794 0.0225 -0.7334
vn 0.6793 0.0258 -0.7334
vn 0.6782 0.0624 -0.7322
vn 0.6751 0.1139 -0.7288
vn 0.6593 0.2422 -0.7118
vn 0.6395 0.3384 -0.6903
vn -0.7753 0.0038 0.6316
vn -0.7250 0.3544 0.5906
vn -0.7386 0.3042 0.6017
vn -0.7640 0.1700 0.6224
vn -0.7718 0.0951 0.6287
vn -0.7741 0.0568 0.6306
vn -0.7751 0.0226 0.6314
vn -0.7751 0.0256 0.6314
vn -0.7738 0.0620 0.6304
vn -0.7704 0.1125 0.6276
vn -0.7538 0.2341 0.6140
vn -0.7303 0.3356 0.5950
vt 0.766388 0.861086
vt 0.766388 0.861086
vt 0.766388 0.879437
vt 0.766388 0.747049
vt 0.766388 0.747049
vt 0.766388 0.767860
vt 0.766388 0.767860
vt 0.766388 0.792026
vt 0.766388 0.792026
vt 0.766388 0.817199
vt 0.766388 0.817199
vt 0.766388 0.841012
vt 0.766388 0.841012
vt 0.766388 0.871796
vt 0.766387 0.871796
vt 0.766387 0.892319
vt 0.766388 0.744261
vt 0.766387 0.744261
vt 0.766387 0.767535
vt 0.766388 0.767535
vt 0.766387 0.794561
vt 0.766388 0.794561
vt 0.766387 0.822714
vt 0.766388 0.822714
vt 0.766387 0.849345
vt 0.766388 0.849345
vt 0.766389 0.871796
vt 0.766389 0.892319
vt 0.766389 0.744261
vt 0.766389 0.767535
vt 0.766389 0.794561
vt 0.766389 0.794561
vt 0.766389 0.822714
vt 0.766389 0.849345
vt 0.766388 0.875209
vt 0.766388 0.875209
vt 0.766388 0.896425
vt 0.766388 0.743372
vt 0.766388 0.743372
vt 0.766388 0.767431
vt 0.766388 0.767431
vt 0.766388 0.795369
vt 0.766388 0.795369
vt 0.766388 0.824472
vt 0.766388 0.824472
vt 0.766388 0.852001
vt 0.766388 0.852001
vt 0.766387 0.905095
vt 0.766387 0.905095
vt 0.766387 0.932372
vt 0.766387 0.735590
vt 0.766387 0.735590
vt 0.766387 0.766524
vt 0.766387 0.766524
vt 0.766387 0.802444
vt 0.766387 0.802444
vt 0.766387 0.839861
vt 0.766387 0.839861
vt 0.766387 0.875256
vt 0.766387 0.875256
vt 0.766389 0.889486
vt 0.766389 0.889486
vt 0.766389 0.913598
vt 0.766389 0.739655
vt 0.766389 0.739655
vt 0.766389 0.766998
vt 0.766389 0.766998
vt 0.766389 0.798749
vt 0.766389 0.798749
vt 0.766389 0.831824
vt 0.766389 0.863110
vt 0.766388 0.889355
vt 0.766388 0.889355
vt 0.766388 0.913440
vt 0.766388 0.739689
vt 0.766388 0.739689
vt 0.766388 0.767002
vt 0.766388 0.767002
vt 0.766388 0.798718
vt 0.766388 0.798718
vt 0.766388 0.831756
vt 0.766388 0.831756
vt 0.766388 0.863009
vt 0.766388 0.863009
vt 0.766387 0.881253
vt 0.766387 0.881253
vt 0.766387 0.903695
vt 0.766387 0.741798
vt 0.766387 0.741798
vt 0.766387 0.767248
vt 0.766387 0.767248
vt 0.766387 0.796800
vt 0.766387 0.796800
vt 0.766387 0.827584
vt 0.766387 0.827584
vt 0.766387 0.856704
vt 0.766387 0.856704
vt 0.766389 0.857307
vt 0.766390 0.857307
vt 0.766390 0.874892
vt 0.766389 0.748033
vt 0.766389 0.748033
vt 0.766389 0.767975
vt 0.766389 0.767975
vt 0.766389 0.791131
vt 0.766389 0.791131
vt 0.766389 0.815253
vt 0.766389 0.815253
vt 0.766389 0.838071
vt 0.766389 0.838071
vt 0.766386 0.863188
vt 0.766386 0.863188
vt 0.766386 0.881965
vt 0.766387 0.746502
vt 0.766386 0.746502
vt 0.766386 0.767796
vt 0.766387 0.767796
vt 0.766386 0.792524
vt 0.766387 0.792524
vt 0.766386 0.818281
vt 0.766387 0.818281
vt 0.766386 0.842647
vt 0.766387 0.842647
s 1
f 4/1/3 13/2/3 3/3/2
f 1/4/1 2/5/1 9/6/7 8/7/7
f 8/7/7 9/6/7 10/8/6 7/9/6
f 7/9/6 10/8/6 11/10/5 6/11/5
f 6/11/5 11/10/5 12/12/4 5/13/4
f 5/13/4 12/12/4 13/2/3 4/1/3
f 17/14/10 26/15/19 16/16/9
f 14/17/8 15/18/8 22/19/15 21/20/14
f 21/20/14 22/19/15 23/21/16 20/22/13
f 20/22/13 23/21/16 24/23/17 19/24/12
f 19/24/12 24/23/17 25/25/18 18/26/11
f 18/26/11 25/25/18 26/15/19 17/14/10
f 30/27/22 39/27/31 29/28/21
f 27/29/20 28/29/20 35/30/27 34/30/26
f 34/30/26 35/30/27 36/31/28 33/32/25
f 33/32/25 36/31/28 37/33/29 32/33/24
f 32/33/24 37/33/29 38/34/30 31/34/23
f 31/34/23 38/34/30 39/27/31 30/27/22
f 43/35/34 52/36/43 42/37/33
f 40/38/32 41/39/32 48/40/39 47/41/38
f 47/41/38 48/40/39 49/42/40 46/43/37
f 46/43/37 49/42/40 50/44/41 45/45/36
f 45/45/36 50/44/41 51/46/42 44/47/35
f 44/47/35 51/46/42 52/36/43 43/35/34
f 56/48/46 65/49/55 55/50/45
f 53/51/44 54/52/44 61/53/51 60/54/50
f 60/54/50 61/53/51 62/55/52 59/56/49
f 59/56/49 62/55/52 63/57/53 58/58/48
f 58/58/48 63/57/53 64/59/54 57/60/47
f 57/60/47 64/59/54 65/49/55 56/48/46
f 69/61/58 78/62/67 68/63/57
f 66/64/56 67/65/56 74/66/63 73/67/62
f 73/67/62 74/66/63 75/68/64 72/69/61
f 72/69/61 75/68/64 76/70/65 71/70/60
f 71/70/60 76/70/65 77/71/66 70/71/59
f 70/71/59 77/71/66 78/62/67 69/61/58
f 82/72/70 91/73/79 81/74/69
f 79/75/68 80/76/68 87/77/75 86/78/74
f 86/78/74 87/77/75 88/79/76 85/80/73
f 85/80/73 88/79/76 89/81/77 84/82/72
f 84/82/72 89/81/77 90/83/78 83/84/71
f 83/84/71 90/83/78 91/73/79 82/72/70
f 95/85/82 104/86/91 94/87/81
f 92/88/80 93/89/80 100/90/87 99/91/86
f 99/91/86 100/90/87 101/92/88 98/93/85
f 98/93/85 101/92/88 102/94/89 97/95/84
f 97/95/84 102/94/89 103/96/90 96/97/83
f 96/97/83 103/96/90 104/86/91 95/85/82
f 108/98/94 117/99/103 107/100/93
f 105/101/92 106/102/92 113/103/99 112/104/98
f 112/104/98 113/103/99 114/105/100 111/106/97
f 111/106/97 114/105/100 115/107/101 110/108/96
f 110/108/96 115/107/101 116/109/102 109/110/95
f 109/110/95 116/109/102 117/99/103 108/98/94
f 121/111/106 130/112/115 120/113/105
f 118/114/104 119/115/104 126/116/111 125/117/110
f 125/117/110 126/116/111 127/118/112 124/119/109
f 124/119/109 127/118/112 128/120/113 123/121/108
f 123/121/108 128/120/113 129/122/114 122/123/107
f 122/123/107 129/122/114 130/112/115 121/111/106
