# Blender 4.4.3
# www.blender.org
o Plane.016
v 0.013355 -0.056434 0.015691
v -0.006726 -0.056434 0.003662
v -0.010227 0.222570 0.032284
v 0.001572 0.176069 0.028353
v 0.008168 0.129569 0.022607
v 0.010957 0.083068 0.019075
v 0.012544 0.036567 0.017045
v 0.013300 -0.009933 0.015783
v -0.006781 -0.009933 0.003754
v -0.007537 0.036567 0.005016
v -0.008578 0.083068 0.007373
v -0.010376 0.129569 0.011499
v -0.012329 0.176069 0.020026
v 0.068677 -0.061184 -0.038014
v 0.050624 -0.061184 -0.023112
v 0.128312 0.226605 0.038960
v 0.109208 0.198196 0.007236
v 0.090914 0.154028 -0.014746
v 0.078228 0.099328 -0.028027
v 0.070079 0.045162 -0.036430
v 0.068745 -0.008041 -0.037930
v 0.050693 -0.008041 -0.023029
v 0.052127 0.045177 -0.021436
v 0.061105 0.099395 -0.013128
v 0.074967 0.154137 -0.000318
v 0.098127 0.198360 0.017375
v 0.020515 -0.054145 -0.071254
v 0.030378 -0.054145 -0.092482
v 0.001547 0.205650 -0.092973
v 0.006690 0.162351 -0.081648
v 0.013094 0.119052 -0.075689
v 0.016898 0.075753 -0.073285
v 0.019083 0.032453 -0.071919
v 0.020417 -0.010846 -0.071299
v 0.030281 -0.010846 -0.092528
v 0.028947 0.032454 -0.093147
v 0.026494 0.075753 -0.093936
v 0.022203 0.119052 -0.095293
v 0.013519 0.162351 -0.096345
v -0.018218 -0.049632 -0.052074
v -0.013381 -0.049632 -0.029171
v 0.009986 0.172299 -0.046068
v -0.000921 0.135310 -0.052046
v -0.009619 0.098322 -0.052974
v -0.014106 0.061333 -0.052617
v -0.016673 0.024345 -0.052400
v -0.018112 -0.012644 -0.052096
v -0.013275 -0.012644 -0.029193
v -0.011836 0.024345 -0.029497
v -0.009400 0.061333 -0.030337
v -0.005152 0.098322 -0.031824
v 0.002428 0.135310 -0.036190
v -0.100813 -0.052213 0.070929
v -0.085708 -0.052213 0.053047
v -0.113393 0.191376 0.044983
v -0.111412 0.150778 0.057261
v -0.106804 0.110179 0.064696
v -0.103767 0.069581 0.068018
v -0.102018 0.028983 0.069911
v -0.100895 -0.011615 0.070860
v -0.085790 -0.011615 0.052977
v -0.086914 0.028983 0.052028
v -0.089072 0.069581 0.050621
v -0.092855 0.110180 0.048182
v -0.100956 0.150778 0.044882
v 0.082600 -0.050428 0.086709
v 0.084988 -0.050428 0.063423
v 0.057578 0.178179 0.072378
v 0.066138 0.140078 0.081401
v 0.074137 0.101977 0.084941
v 0.078519 0.063876 0.085971
v 0.081030 0.025775 0.086548
v 0.082493 -0.012327 0.086698
v 0.084881 -0.012327 0.063412
v 0.083418 0.025775 0.063262
v 0.080841 0.063876 0.063318
v 0.076342 0.101977 0.063437
v 0.067791 0.140078 0.065280
v -0.089553 -0.057022 -0.029940
v -0.068799 -0.057022 -0.019114
v -0.047612 0.238572 -0.089099
v -0.071012 0.188028 -0.061057
v -0.082899 0.135732 -0.042380
v -0.087226 0.085189 -0.033827
v -0.088823 0.037623 -0.031339
v -0.089503 -0.009699 -0.030036
v -0.068749 -0.009699 -0.019209
v -0.068069 0.037623 -0.020513
v -0.067032 0.085198 -0.023308
v -0.063714 0.135766 -0.032435
v -0.056626 0.188065 -0.053620
vn 0.5139 0.0023 -0.8579
vn 0.5036 0.1989 -0.8407
vn 0.5055 0.1802 -0.8438
vn 0.5099 0.1246 -0.8512
vn 0.5125 0.0737 -0.8555
vn 0.5134 0.0429 -0.8571
vn 0.5138 0.0170 -0.8577
vn -0.6366 0.0020 -0.7712
vn -0.4090 0.7883 -0.4597
vn -0.4491 0.7385 -0.5030
vn -0.5817 0.4898 -0.6494
vn -0.6294 0.2968 -0.7181
vn -0.6377 0.1442 -0.7567
vn -0.6377 0.0224 -0.7700
vn -0.6374 0.0177 -0.7703
vn -0.6389 0.0691 -0.7662
vn -0.6329 0.2299 -0.7393
vn -0.6219 0.3474 -0.7019
vn -0.5466 0.5759 -0.6079
vn 0.9069 0.0025 0.4214
vn 0.8861 0.2129 0.4117
vn 0.8894 0.1955 0.4132
vn 0.8999 0.1242 0.4181
vn 0.9045 0.0731 0.4202
vn 0.9060 0.0437 0.4210
vn 0.9068 0.0166 0.4213
vn 0.9067 0.0188 0.4213
vn 0.9058 0.0478 0.4209
vn 0.9037 0.0834 0.4199
vn 0.8967 0.1495 0.4166
vn 0.8879 0.2037 0.4125
vn -0.9784 0.0029 0.2066
vn -0.9481 0.2472 0.2002
vn -0.9540 0.2221 0.2015
vn -0.9696 0.1342 0.2048
vn -0.9751 0.0818 0.2059
vn -0.9772 0.0498 0.2064
vn -0.9782 0.0190 0.2066
vn -0.9782 0.0231 0.2066
vn -0.9768 0.0578 0.2063
vn -0.9732 0.1029 0.2055
vn -0.9603 0.1913 0.2028
vn -0.9500 0.2391 0.2006
vn 0.7639 0.0027 0.6453
vn 0.7441 0.2264 0.6285
vn 0.7455 0.2182 0.6297
vn 0.7535 0.1650 0.6364
vn 0.7608 0.0911 0.6426
vn 0.7629 0.0519 0.6444
vn 0.7638 0.0206 0.6451
vn 0.7638 0.0173 0.6452
vn 0.7631 0.0458 0.6446
vn 0.7617 0.0761 0.6434
vn 0.7576 0.1282 0.6400
vn 0.7475 0.2064 0.6314
vn 0.9948 0.0028 0.1020
vn 0.9656 0.2404 0.0990
vn 0.9712 0.2165 0.0996
vn 0.9863 0.1304 0.1011
vn 0.9917 0.0788 0.1017
vn 0.9936 0.0479 0.1019
vn 0.9946 0.0181 0.1020
vn 0.9945 0.0226 0.1020
vn 0.9932 0.0565 0.1018
vn 0.9897 0.1006 0.1015
vn 0.9773 0.1867 0.1002
vn 0.9671 0.2343 0.0992
vn -0.4625 0.0023 0.8866
vn -0.3764 0.5766 0.7252
vn -0.4113 0.4499 0.7927
vn -0.4419 0.2845 0.8508
vn -0.4581 0.1257 0.8800
vn -0.4619 0.0465 0.8857
vn -0.4624 0.0168 0.8865
vn -0.4624 0.0166 0.8865
vn -0.4619 0.0457 0.8858
vn -0.4589 0.1122 0.8814
vn -0.4471 0.2447 0.8604
vn -0.4170 0.4247 0.8036
vt 0.766394 0.934521
vt 0.766394 0.934521
vt 0.766394 0.972914
vt 0.766394 0.742556
vt 0.766394 0.742556
vt 0.766394 0.780949
vt 0.766394 0.780949
vt 0.766394 0.819342
vt 0.766394 0.819342
vt 0.766394 0.857735
vt 0.766394 0.857735
vt 0.766394 0.896128
vt 0.766394 0.896128
vt 0.766392 0.952789
vt 0.766392 0.952925
vt 0.766392 0.976245
vt 0.766393 0.738635
vt 0.766393 0.738635
vt 0.766393 0.782512
vt 0.766393 0.782512
vt 0.766393 0.826451
vt 0.766393 0.826438
vt 0.766393 0.871215
vt 0.766393 0.871160
vt 0.766393 0.916413
vt 0.766392 0.916322
vt 0.766394 0.923194
vt 0.766394 0.923194
vt 0.766394 0.958944
vt 0.766393 0.744447
vt 0.766393 0.744447
vt 0.766393 0.780196
vt 0.766393 0.780196
vt 0.766393 0.815946
vt 0.766393 0.815946
vt 0.766393 0.851695
vt 0.766394 0.851695
vt 0.766393 0.887445
vt 0.766394 0.887445
vt 0.766394 0.900869
vt 0.766394 0.931408
vt 0.766394 0.748172
vt 0.766394 0.748172
vt 0.766394 0.778712
vt 0.766394 0.778712
vt 0.766394 0.809251
vt 0.766394 0.809251
vt 0.766394 0.839790
vt 0.766394 0.839790
vt 0.766394 0.870329
vt 0.766394 0.870329
vt 0.766395 0.913639
vt 0.766395 0.913639
vt 0.766395 0.947159
vt 0.766395 0.746041
vt 0.766395 0.746041
vt 0.766395 0.779561
vt 0.766395 0.779561
vt 0.766395 0.813080
vt 0.766395 0.813080
vt 0.766395 0.846600
vt 0.766395 0.846600
vt 0.766395 0.880119
vt 0.766395 0.880119
vt 0.766393 0.904805
vt 0.766393 0.936263
vt 0.766392 0.747516
vt 0.766392 0.778973
vt 0.766392 0.778973
vt 0.766392 0.810431
vt 0.766392 0.810431
vt 0.766393 0.841889
vt 0.766393 0.873347
vt 0.766395 0.944394
vt 0.766395 0.944425
vt 0.766394 0.986126
vt 0.766395 0.742071
vt 0.766395 0.742071
vt 0.766395 0.781143
vt 0.766395 0.781143
vt 0.766395 0.820214
vt 0.766395 0.820214
vt 0.766395 0.859493
vt 0.766395 0.859486
vt 0.766395 0.901245
vt 0.766395 0.901216
s 1
f 4/1/3 13/2/3 3/3/2
f 1/4/1 2/5/1 9/6/7 8/7/7
f 8/7/7 9/6/7 10/8/6 7/9/6
f 7/9/6 10/8/6 11/10/5 6/11/5
f 6/11/5 11/10/5 12/12/4 5/13/4
f 5/13/4 12/12/4 13/2/3 4/1/3
f 17/14/10 26/15/19 16/16/9
f 14/17/8 15/18/8 22/19/15 21/20/14
f 21/20/14 22/19/15 23/21/16 20/22/13
f 20/22/13 23/21/16 24/23/17 19/24/12
f 19/24/12 24/23/17 25/25/18 18/26/11
f 18/26/11 25/25/18 26/15/19 17/14/10
f 30/27/22 39/28/31 29/29/21
f 27/30/20 28/31/20 35/32/27 34/33/26
f 34/33/26 35/32/27 36/34/28 33/35/25
f 33/35/25 36/34/28 37/36/29 32/37/24
f 32/37/24 37/36/29 38/38/30 31/39/23
f 31/39/23 38/38/30 39/28/31 30/27/22
f 43/40/34 52/40/43 42/41/33
f 40/42/32 41/43/32 48/44/39 47/45/38
f 47/45/38 48/44/39 49/46/40 46/47/37
f 46/47/37 49/46/40 50/48/41 45/49/36
f 45/49/36 50/48/41 51/50/42 44/51/35
f 44/51/35 51/50/42 52/40/43 43/40/34
f 56/52/46 65/53/55 55/54/45
f 53/55/44 54/56/44 61/57/51 60/58/50
f 60/58/50 61/57/51 62/59/52 59/60/49
f 59/60/49 62/59/52 63/61/53 58/62/48
f 58/62/48 63/61/53 64/63/54 57/64/47
f 57/64/47 64/63/54 65/53/55 56/52/46
f 69/65/58 78/65/67 68/66/57
f 66/67/56 67/67/56 74/68/63 73/69/62
f 73/69/62 74/68/63 75/70/64 72/71/61
f 72/71/61 75/70/64 76/72/65 71/72/60
f 71/72/60 76/72/65 77/73/66 70/73/59
f 70/73/59 77/73/66 78/65/67 69/65/58
f 82/74/70 91/75/79 81/76/69
f 79/77/68 80/78/68 87/79/75 86/80/74
f 86/80/74 87/79/75 88/81/76 85/82/73
f 85/82/73 88/81/76 89/83/77 84/84/72
f 84/84/72 89/83/77 90/85/78 83/86/71
f 83/86/71 90/85/78 91/75/79 82/74/70
