# Blender 5.0.1
# www.blender.org
o BézierCurve.021
v -0.338831 -0.321174 -0.445328
v -0.436898 -0.276123 -0.337434
v -0.472808 -0.259634 -0.190036
v -0.436938 -0.276123 -0.042628
v -0.338900 -0.321174 0.065291
v -0.204964 -0.382715 0.104806
v -0.071016 -0.444255 0.065328
v 0.027050 -0.489306 -0.042565
v 0.062960 -0.505796 -0.189964
v 0.027090 -0.489306 -0.337371
v -0.070947 -0.444256 -0.445291
v -0.204884 -0.382715 -0.484806
v -0.288887 -0.202793 -0.445209
v -0.389350 -0.163503 -0.337364
v -0.426137 -0.149121 -0.190031
v -0.389389 -0.163500 -0.042688
v -0.288954 -0.202787 0.065185
v -0.151743 -0.256455 0.104683
v -0.014523 -0.310125 0.065222
v 0.085940 -0.349414 -0.042623
v 0.122726 -0.363797 -0.189957
v 0.085979 -0.349418 -0.337300
v -0.014456 -0.310131 -0.445172
v -0.151666 -0.256462 -0.484670
v -0.233802 -0.052004 -0.444212
v -0.335672 -0.017817 -0.336786
v -0.372972 -0.005301 -0.190026
v -0.335709 -0.017811 -0.043257
v -0.233867 -0.051995 0.064196
v -0.094734 -0.098692 0.103541
v 0.044408 -0.145391 0.064234
v 0.146276 -0.179579 -0.043192
v 0.183577 -0.192094 -0.189951
v 0.146315 -0.179584 -0.336721
v 0.044473 -0.145401 -0.444174
v -0.094660 -0.098703 -0.483519
v -0.176711 0.127890 -0.442100
v -0.279157 0.157222 -0.335566
v -0.316669 0.167961 -0.190023
v -0.279194 0.157228 -0.044470
v -0.176775 0.127901 0.062092
v -0.036856 0.087837 0.101110
v 0.103074 0.047771 0.062130
v 0.205520 0.018439 -0.044405
v 0.243031 0.007700 -0.189948
v 0.205557 0.018433 -0.335501
v 0.103139 0.047760 -0.442063
v -0.036781 0.087824 -0.481081
v -0.120707 0.333792 -0.438880
v -0.223025 0.358251 -0.333705
v -0.260491 0.367206 -0.190020
v -0.223063 0.358257 -0.046325
v -0.120770 0.333802 0.058877
v 0.018978 0.300394 0.097397
v 0.158735 0.266985 0.058914
v 0.261054 0.242525 -0.046261
v 0.298519 0.233570 -0.189946
v 0.261091 0.242519 -0.333641
v 0.158798 0.266974 -0.438844
v 0.019050 0.300382 -0.477364
v -0.068664 0.562781 -0.434392
v -0.170124 0.582218 -0.331113
v -0.207274 0.589334 -0.190018
v -0.170159 0.582223 -0.048914
v -0.068726 0.562791 0.054391
v 0.069849 0.536243 0.092218
v 0.208433 0.509694 0.054428
v 0.309893 0.490257 -0.048850
v 0.347044 0.483140 -0.189946
v 0.309930 0.490251 -0.331050
v 0.208496 0.509684 -0.434355
v 0.069921 0.536231 -0.472181
v -0.023347 0.812045 -0.428381
v -0.123105 0.826256 -0.327642
v -0.159632 0.831459 -0.190017
v -0.123140 0.826260 -0.052382
v -0.023408 0.812053 0.048383
v 0.112841 0.792644 0.085279
v 0.249101 0.773234 0.048419
v 0.348859 0.759024 -0.052320
v 0.385385 0.753820 -0.189946
v 0.348894 0.759019 -0.327580
v 0.249162 0.773226 -0.428346
v 0.112912 0.792635 -0.465241
v 0.012362 1.078879 -0.420851
v -0.084822 1.087682 -0.323294
v -0.120406 1.090905 -0.190016
v -0.084856 1.087685 -0.056729
v 0.012303 1.078884 0.040854
v 0.145038 1.066861 0.076584
v 0.277781 1.054837 0.040888
v 0.374966 1.046034 -0.056669
v 0.410550 1.042811 -0.189947
v 0.375000 1.046031 -0.323234
v 0.277840 1.054831 -0.420816
v 0.145106 1.066854 -0.456547
v 0.035680 1.360626 -0.411666
v -0.057963 1.363902 -0.317991
v -0.092251 1.365102 -0.190015
v -0.057996 1.363904 -0.062030
v 0.035622 1.360629 0.031670
v 0.163520 1.356156 0.065979
v 0.291427 1.351681 0.031703
v 0.385070 1.348405 -0.061973
v 0.419357 1.347205 -0.189949
v 0.385102 1.348403 -0.317933
v 0.291484 1.351678 -0.411633
v 0.163586 1.356152 -0.445942
v 0.043855 1.654709 -0.400643
v -0.045157 1.652454 -0.311625
v -0.077749 1.651629 -0.190014
v -0.045188 1.652455 -0.068394
v 0.043800 1.654709 0.020646
v 0.165373 1.657790 0.053248
v 0.286954 1.660870 0.020677
v 0.375965 1.663125 -0.068340
v 0.408558 1.663950 -0.189951
v 0.375996 1.663125 -0.311571
v 0.287008 1.660870 -0.400611
v 0.165436 1.657789 -0.433214
v 0.034224 1.958649 -0.387422
v -0.048880 1.951050 -0.303992
v -0.079310 1.948268 -0.190013
v -0.048909 1.951048 -0.076027
v 0.034174 1.958646 0.007424
v 0.147678 1.969026 0.037980
v 0.261191 1.979406 0.007454
v 0.344295 1.987005 -0.075977
v 0.374725 1.989787 -0.189955
v 0.344325 1.987007 -0.303941
v 0.261242 1.979409 -0.387392
v 0.147737 1.969029 -0.417949
v 0.004595 2.270184 -0.370758
v -0.070799 2.257776 -0.294370
v -0.098404 2.253233 -0.190012
v -0.070825 2.257772 -0.085647
v 0.004549 2.270178 -0.009240
v 0.107521 2.287126 0.018737
v 0.210501 2.304075 -0.009213
v 0.285894 2.316483 -0.085601
v 0.313499 2.321027 -0.189959
v 0.285921 2.316487 -0.294324
v 0.210546 2.304081 -0.370731
v 0.107574 2.287133 -0.398708
v -0.048008 2.587191 -0.350602
v -0.113926 2.570959 -0.282732
v -0.138063 2.565016 -0.190011
v -0.113950 2.570954 -0.097283
v -0.048048 2.587183 -0.029396
v 0.041983 2.609353 -0.004539
v 0.132021 2.631525 -0.029372
v 0.197939 2.647757 -0.097242
v 0.222075 2.653700 -0.189963
v 0.197963 2.647762 -0.282691
v 0.132061 2.631533 -0.350578
v 0.042029 2.609363 -0.375435
v -0.126103 2.907851 -0.325828
v -0.180490 2.889453 -0.268427
v -0.200404 2.882716 -0.190009
v -0.180509 2.889447 -0.111585
v -0.126135 2.907841 -0.054170
v -0.051852 2.932969 -0.033147
v 0.022436 2.958099 -0.054150
v 0.076823 2.976497 -0.111550
v 0.096738 2.983234 -0.189968
v 0.076842 2.976503 -0.268392
v 0.022468 2.958109 -0.325807
v -0.051814 2.932981 -0.346830
v -0.232025 3.230816 -0.294473
v -0.272403 3.212929 -0.250322
v -0.287188 3.206379 -0.190005
v -0.272417 3.212923 -0.129684
v -0.232050 3.230806 -0.085522
v -0.176903 3.255237 -0.069352
v -0.121752 3.279669 -0.085506
v -0.081374 3.297557 -0.129657
v -0.066589 3.304106 -0.189974
v -0.081360 3.297563 -0.250295
v -0.121727 3.279680 -0.294457
v -0.176874 3.255249 -0.310627
v -0.367652 3.555630 -0.252786
v -0.390776 3.542600 -0.226251
v -0.399243 3.537829 -0.189999
v -0.390784 3.542596 -0.153746
v -0.367666 3.555622 -0.127204
v -0.336084 3.573418 -0.117485
v -0.304500 3.591216 -0.127195
v -0.281376 3.604245 -0.153730
v -0.272909 3.609016 -0.189981
v -0.281367 3.604250 -0.226235
v -0.304485 3.591223 -0.252777
v -0.336068 3.573427 -0.262495
v -0.533535 3.883920 -0.192577
v -0.534429 3.883292 -0.191484
v -0.534756 3.883061 -0.189991
v -0.534429 3.883292 -0.188497
v -0.533535 3.883920 -0.187405
v -0.532313 3.884778 -0.187004
v -0.531091 3.885637 -0.187404
v -0.530197 3.886265 -0.188497
v -0.529870 3.886496 -0.189990
v -0.530197 3.886265 -0.191483
v -0.531091 3.885637 -0.192576
v -0.532313 3.884778 -0.192977
vn -0.4568 0.1936 -0.8683
vn -0.7965 0.3366 -0.5022
vn -0.9212 0.3891 -0.0001
vn -0.7967 0.3366 0.5020
vn -0.4570 0.1936 0.8682
vn 0.0051 -0.0012 1.0000
vn 0.4647 -0.1950 0.8637
vn 0.7995 -0.3363 0.4977
vn 0.9217 -0.3879 0.0001
vn 0.7996 -0.3363 -0.4975
vn 0.4649 -0.1950 -0.8636
vn 0.0053 -0.0012 -1.0000
vn -0.4611 0.1847 -0.8679
vn -0.8040 0.3188 -0.5019
vn -0.9298 0.3680 -0.0001
vn -0.8041 0.3188 0.5017
vn -0.4614 0.1847 0.8678
vn 0.0052 0.0021 1.0000
vn 0.4698 -0.1799 0.8642
vn 0.8087 -0.3126 0.4983
vn 0.9325 -0.3611 0.0001
vn 0.8088 -0.3126 -0.4981
vn 0.4700 -0.1799 -0.8641
vn 0.0055 0.0021 -1.0000
vn -0.4681 0.1676 -0.8677
vn -0.8168 0.2849 -0.5017
vn -0.9447 0.3279 -0.0001
vn -0.8169 0.2849 0.5015
vn -0.4683 0.1677 0.8675
vn 0.0065 0.0080 0.9999
vn 0.4795 -0.1512 0.8644
vn 0.8247 -0.2673 0.4985
vn 0.9508 -0.3097 0.0001
vn 0.8248 -0.2673 -0.4983
vn 0.4797 -0.1512 -0.8643
vn 0.0067 0.0079 -0.9999
vn -0.4738 0.1514 -0.8675
vn -0.8273 0.2530 -0.5016
vn -0.9570 0.2903 -0.0001
vn -0.8274 0.2530 0.5014
vn -0.4740 0.1514 0.8674
vn 0.0074 0.0131 0.9999
vn 0.4870 -0.1247 0.8645
vn 0.8371 -0.2252 0.4985
vn 0.9651 -0.2620 0.0001
vn 0.8372 -0.2252 -0.4983
vn 0.4872 -0.1247 -0.8643
vn 0.0076 0.0131 -0.9999
vn -0.4789 0.1348 -0.8675
vn -0.8365 0.2207 -0.5016
vn -0.9677 0.2522 -0.0001
vn -0.8366 0.2207 0.5014
vn -0.4791 0.1348 0.8674
vn 0.0078 0.0178 0.9998
vn 0.4931 -0.0987 0.8644
vn 0.8472 -0.1837 0.4985
vn 0.9767 -0.2148 0.0001
vn 0.8473 -0.1837 -0.4982
vn 0.4933 -0.0987 -0.8642
vn 0.0081 0.0178 -0.9998
vn -0.4834 0.1178 -0.8674
vn -0.8446 0.1875 -0.5016
vn -0.9770 0.2131 -0.0001
vn -0.8447 0.1875 0.5014
vn -0.4836 0.1178 0.8673
vn 0.0081 0.0229 0.9997
vn 0.4980 -0.0715 0.8642
vn 0.8555 -0.1404 0.4984
vn 0.9862 -0.1656 0.0001
vn 0.8556 -0.1405 -0.4981
vn 0.4982 -0.0716 -0.8641
vn 0.0083 0.0229 -0.9997
vn -0.4875 0.0996 -0.8674
vn -0.8516 0.1521 -0.5016
vn -0.9852 0.1713 -0.0001
vn -0.8518 0.1521 0.5014
vn -0.4877 0.0996 0.8673
vn 0.0079 0.0282 0.9996
vn 0.5016 -0.0428 0.8640
vn 0.8619 -0.0946 0.4982
vn 0.9935 -0.1136 0.0001
vn 0.8620 -0.0947 -0.4980
vn 0.5019 -0.0429 -0.8639
vn 0.0082 0.0282 -0.9996
vn -0.4912 0.0795 -0.8674
vn -0.8576 0.1134 -0.5017
vn -0.9920 0.1259 -0.0001
vn -0.8577 0.1134 0.5014
vn -0.4914 0.0795 0.8673
vn 0.0072 0.0335 0.9994
vn 0.5038 -0.0123 0.8638
vn 0.8660 -0.0457 0.4980
vn 0.9983 -0.0579 0.0001
vn 0.8661 -0.0457 -0.4978
vn 0.5040 -0.0124 -0.8636
vn 0.0075 0.0335 -0.9994
vn -0.4943 0.0577 -0.8674
vn -0.8621 0.0714 -0.5017
vn -0.9971 0.0764 -0.0001
vn -0.8622 0.0714 0.5015
vn -0.4945 0.0577 0.8673
vn 0.0059 0.0391 0.9992
vn 0.5040 0.0208 0.8634
vn 0.8673 0.0074 0.4978
vn 1.0000 0.0025 0.0001
vn 0.8674 0.0074 -0.4975
vn 0.5043 0.0207 -0.8633
vn 0.0062 0.0391 -0.9992
vn -0.4966 0.0341 -0.8673
vn -0.8646 0.0258 -0.5017
vn -0.9997 0.0227 -0.0001
vn -0.8648 0.0258 0.5015
vn -0.4968 0.0341 0.8672
vn 0.0038 0.0456 0.9990
vn 0.5019 0.0571 0.8630
vn 0.8650 0.0655 0.4975
vn 0.9976 0.0686 0.0001
vn 0.8651 0.0655 -0.4972
vn 0.5021 0.0571 -0.8629
vn 0.0040 0.0456 -0.9990
vn -0.4980 0.0105 -0.8671
vn -0.8648 -0.0219 -0.5017
vn -0.9994 -0.0338 -0.0001
vn -0.8649 -0.0219 0.5015
vn -0.4982 0.0105 0.8670
vn 0.0004 0.0546 0.9985
vn 0.4964 0.0986 0.8625
vn 0.8578 0.1307 0.4971
vn 0.9898 0.1425 0.0001
vn 0.8579 0.1307 -0.4969
vn 0.4966 0.0986 -0.8624
vn 0.0006 0.0546 -0.9985
vn -0.4985 -0.0143 -0.8668
vn -0.8620 -0.0728 -0.5016
vn -0.9955 -0.0943 -0.0001
vn -0.8622 -0.0728 0.5014
vn -0.4987 -0.0143 0.8666
vn -0.0048 0.0652 0.9979
vn 0.4864 0.1445 0.8617
vn 0.8441 0.2022 0.4965
vn 0.9747 0.2233 0.0001
vn 0.8443 0.2022 -0.4963
vn 0.4866 0.1445 -0.8616
vn -0.0045 0.0653 -0.9979
vn -0.4980 -0.0409 -0.8662
vn -0.8558 -0.1275 -0.5013
vn -0.9872 -0.1593 -0.0001
vn -0.8559 -0.1275 0.5011
vn -0.4982 -0.0410 0.8661
vn -0.0123 0.0767 0.9970
vn 0.4707 0.1938 0.8608
vn 0.8223 0.2791 0.4959
vn 0.9507 0.3102 0.0001
vn 0.8224 0.2791 -0.4957
vn 0.4709 0.1938 -0.8606
vn -0.0120 0.0768 -0.9970
vn -0.4971 -0.0666 -0.8652
vn -0.8460 -0.1829 -0.5008
vn -0.9742 -0.2256 -0.0001
vn -0.8461 -0.1829 0.5006
vn -0.4973 -0.0666 0.8650
vn -0.0235 0.0914 0.9955
vn 0.4470 0.2485 0.8593
vn 0.7895 0.3629 0.4950
vn 0.9145 0.4046 0.0001
vn 0.7896 0.3629 -0.4948
vn 0.4472 0.2485 -0.8592
vn -0.0233 0.0915 -0.9955
vn -0.4971 -0.0880 -0.8632
vn -0.8335 -0.2353 -0.4998
vn -0.9572 -0.2894 -0.0001
vn -0.8337 -0.2353 0.4996
vn -0.4973 -0.0881 0.8631
vn -0.0409 0.1117 0.9929
vn 0.4121 0.3101 0.8567
vn 0.7416 0.4545 0.4934
vn 0.8618 0.5072 0.0001
vn 0.7417 0.4545 -0.4932
vn 0.4123 0.3102 -0.8566
vn -0.0407 0.1118 -0.9929
vn -0.5013 -0.0977 -0.8597
vn -0.8216 -0.2766 -0.4985
vn -0.9395 -0.3424 -0.0001
vn -0.8217 -0.2766 0.4983
vn -0.5015 -0.0978 0.8596
vn -0.0683 0.1442 0.9872
vn 0.3602 0.3835 0.8504
vn 0.6711 0.5571 0.4891
vn 0.7844 0.6203 0.0001
vn 0.6712 0.5571 -0.4889
vn 0.3604 0.3836 -0.8503
vn -0.0681 0.1443 -0.9872
vn -0.5053 -0.0981 -0.8574
vn -0.8162 -0.2934 -0.4977
vn -0.9308 -0.3654 -0.0001
vn -0.8164 -0.2935 0.4974
vn -0.5055 -0.0982 0.8572
vn -0.0858 0.1653 0.9825
vn 0.3274 0.4246 0.8441
vn 0.6255 0.6116 0.4844
vn 0.7337 0.6795 0.0001
vn 0.6256 0.6117 -0.4842
vn 0.3276 0.4247 -0.8440
vn -0.0856 0.1654 -0.9825
vt 0.453235 0.016955
vt 0.453235 0.033317
vt 0.453235 0.053473
vt 0.453235 0.077016
vt 0.453235 0.103537
vt 0.453235 0.132628
vt 0.453235 0.163878
vt 0.453235 0.196882
vt 0.453235 0.231760
vt 0.453235 0.260004
vt 0.453235 0.295865
vt 0.453235 0.334637
vt 0.453235 0.373742
vt 0.453235 0.414386
vt 0.453235 0.455922
vt 0.453235 0.498511
vt 0.453235 0.541601
s 1
f 1/1/1 13/2/13 24/2/24 12/1/12
f 2/1/2 14/2/14 13/2/13 1/1/1
f 3/1/3 15/2/15 14/2/14 2/1/2
f 4/1/4 16/2/16 15/2/15 3/1/3
f 5/1/5 17/2/17 16/2/16 4/1/4
f 6/1/6 18/2/18 17/2/17 5/1/5
f 7/1/7 19/2/19 18/2/18 6/1/6
f 8/1/8 20/2/20 19/2/19 7/1/7
f 9/1/9 21/2/21 20/2/20 8/1/8
f 10/1/10 22/2/22 21/2/21 9/1/9
f 11/1/11 23/2/23 22/2/22 10/1/10
f 12/1/12 24/2/24 23/2/23 11/1/11
f 13/2/13 25/3/25 36/3/36 24/2/24
f 14/2/14 26/3/26 25/3/25 13/2/13
f 15/2/15 27/3/27 26/3/26 14/2/14
f 16/2/16 28/3/28 27/3/27 15/2/15
f 17/2/17 29/3/29 28/3/28 16/2/16
f 18/2/18 30/3/30 29/3/29 17/2/17
f 19/2/19 31/3/31 30/3/30 18/2/18
f 20/2/20 32/3/32 31/3/31 19/2/19
f 21/2/21 33/3/33 32/3/32 20/2/20
f 22/2/22 34/3/34 33/3/33 21/2/21
f 23/2/23 35/3/35 34/3/34 22/2/22
f 24/2/24 36/3/36 35/3/35 23/2/23
f 25/3/25 37/4/37 48/4/48 36/3/36
f 26/3/26 38/4/38 37/4/37 25/3/25
f 27/3/27 39/4/39 38/4/38 26/3/26
f 28/3/28 40/4/40 39/4/39 27/3/27
f 29/3/29 41/4/41 40/4/40 28/3/28
f 30/3/30 42/4/42 41/4/41 29/3/29
f 31/3/31 43/4/43 42/4/42 30/3/30
f 32/3/32 44/4/44 43/4/43 31/3/31
f 33/3/33 45/4/45 44/4/44 32/3/32
f 34/3/34 46/4/46 45/4/45 33/3/33
f 35/3/35 47/4/47 46/4/46 34/3/34
f 36/3/36 48/4/48 47/4/47 35/3/35
f 37/4/37 49/5/49 60/5/60 48/4/48
f 38/4/38 50/5/50 49/5/49 37/4/37
f 39/4/39 51/5/51 50/5/50 38/4/38
f 40/4/40 52/5/52 51/5/51 39/4/39
f 41/4/41 53/5/53 52/5/52 40/4/40
f 42/4/42 54/5/54 53/5/53 41/4/41
f 43/4/43 55/5/55 54/5/54 42/4/42
f 44/4/44 56/5/56 55/5/55 43/4/43
f 45/4/45 57/5/57 56/5/56 44/4/44
f 46/4/46 58/5/58 57/5/57 45/4/45
f 47/4/47 59/5/59 58/5/58 46/4/46
f 48/4/48 60/5/60 59/5/59 47/4/47
f 49/5/49 61/6/61 72/6/72 60/5/60
f 50/5/50 62/6/62 61/6/61 49/5/49
f 51/5/51 63/6/63 62/6/62 50/5/50
f 52/5/52 64/6/64 63/6/63 51/5/51
f 53/5/53 65/6/65 64/6/64 52/5/52
f 54/5/54 66/6/66 65/6/65 53/5/53
f 55/5/55 67/6/67 66/6/66 54/5/54
f 56/5/56 68/6/68 67/6/67 55/5/55
f 57/5/57 69/6/69 68/6/68 56/5/56
f 58/5/58 70/6/70 69/6/69 57/5/57
f 59/5/59 71/6/71 70/6/70 58/5/58
f 60/5/60 72/6/72 71/6/71 59/5/59
f 61/6/61 73/7/73 84/7/84 72/6/72
f 62/6/62 74/7/74 73/7/73 61/6/61
f 63/6/63 75/7/75 74/7/74 62/6/62
f 64/6/64 76/7/76 75/7/75 63/6/63
f 65/6/65 77/7/77 76/7/76 64/6/64
f 66/6/66 78/7/78 77/7/77 65/6/65
f 67/6/67 79/7/79 78/7/78 66/6/66
f 68/6/68 80/7/80 79/7/79 67/6/67
f 69/6/69 81/7/81 80/7/80 68/6/68
f 70/6/70 82/7/82 81/7/81 69/6/69
f 71/6/71 83/7/83 82/7/82 70/6/70
f 72/6/72 84/7/84 83/7/83 71/6/71
f 73/7/73 85/8/85 96/8/96 84/7/84
f 74/7/74 86/8/86 85/8/85 73/7/73
f 75/7/75 87/8/87 86/8/86 74/7/74
f 76/7/76 88/8/88 87/8/87 75/7/75
f 77/7/77 89/8/89 88/8/88 76/7/76
f 78/7/78 90/8/90 89/8/89 77/7/77
f 79/7/79 91/8/91 90/8/90 78/7/78
f 80/7/80 92/8/92 91/8/91 79/7/79
f 81/7/81 93/8/93 92/8/92 80/7/80
f 82/7/82 94/8/94 93/8/93 81/7/81
f 83/7/83 95/8/95 94/8/94 82/7/82
f 84/7/84 96/8/96 95/8/95 83/7/83
f 85/8/85 97/9/97 108/9/108 96/8/96
f 86/8/86 98/9/98 97/9/97 85/8/85
f 87/8/87 99/9/99 98/9/98 86/8/86
f 88/8/88 100/9/100 99/9/99 87/8/87
f 89/8/89 101/9/101 100/9/100 88/8/88
f 90/8/90 102/9/102 101/9/101 89/8/89
f 91/8/91 103/9/103 102/9/102 90/8/90
f 92/8/92 104/9/104 103/9/103 91/8/91
f 93/8/93 105/9/105 104/9/104 92/8/92
f 94/8/94 106/9/106 105/9/105 93/8/93
f 95/8/95 107/9/107 106/9/106 94/8/94
f 96/8/96 108/9/108 107/9/107 95/8/95
f 97/9/97 109/10/109 120/10/120 108/9/108
f 98/9/98 110/10/110 109/10/109 97/9/97
f 99/9/99 111/10/111 110/10/110 98/9/98
f 100/9/100 112/10/112 111/10/111 99/9/99
f 101/9/101 113/10/113 112/10/112 100/9/100
f 102/9/102 114/10/114 113/10/113 101/9/101
f 103/9/103 115/10/115 114/10/114 102/9/102
f 104/9/104 116/10/116 115/10/115 103/9/103
f 105/9/105 117/10/117 116/10/116 104/9/104
f 106/9/106 118/10/118 117/10/117 105/9/105
f 107/9/107 119/10/119 118/10/118 106/9/106
f 108/9/108 120/10/120 119/10/119 107/9/107
f 109/10/109 121/11/121 132/11/132 120/10/120
f 110/10/110 122/11/122 121/11/121 109/10/109
f 111/10/111 123/11/123 122/11/122 110/10/110
f 112/10/112 124/11/124 123/11/123 111/10/111
f 113/10/113 125/11/125 124/11/124 112/10/112
f 114/10/114 126/11/126 125/11/125 113/10/113
f 115/10/115 127/11/127 126/11/126 114/10/114
f 116/10/116 128/11/128 127/11/127 115/10/115
f 117/10/117 129/11/129 128/11/128 116/10/116
f 118/10/118 130/11/130 129/11/129 117/10/117
f 119/10/119 131/11/131 130/11/130 118/10/118
f 120/10/120 132/11/132 131/11/131 119/10/119
f 121/11/121 133/12/133 144/12/144 132/11/132
f 122/11/122 134/12/134 133/12/133 121/11/121
f 123/11/123 135/12/135 134/12/134 122/11/122
f 124/11/124 136/12/136 135/12/135 123/11/123
f 125/11/125 137/12/137 136/12/136 124/11/124
f 126/11/126 138/12/138 137/12/137 125/11/125
f 127/11/127 139/12/139 138/12/138 126/11/126
f 128/11/128 140/12/140 139/12/139 127/11/127
f 129/11/129 141/12/141 140/12/140 128/11/128
f 130/11/130 142/12/142 141/12/141 129/11/129
f 131/11/131 143/12/143 142/12/142 130/11/130
f 132/11/132 144/12/144 143/12/143 131/11/131
f 133/12/133 145/13/145 156/13/156 144/12/144
f 134/12/134 146/13/146 145/13/145 133/12/133
f 135/12/135 147/13/147 146/13/146 134/12/134
f 136/12/136 148/13/148 147/13/147 135/12/135
f 137/12/137 149/13/149 148/13/148 136/12/136
f 138/12/138 150/13/150 149/13/149 137/12/137
f 139/12/139 151/13/151 150/13/150 138/12/138
f 140/12/140 152/13/152 151/13/151 139/12/139
f 141/12/141 153/13/153 152/13/152 140/12/140
f 142/12/142 154/13/154 153/13/153 141/12/141
f 143/12/143 155/13/155 154/13/154 142/12/142
f 144/12/144 156/13/156 155/13/155 143/12/143
f 145/13/145 157/14/157 168/14/168 156/13/156
f 146/13/146 158/14/158 157/14/157 145/13/145
f 147/13/147 159/14/159 158/14/158 146/13/146
f 148/13/148 160/14/160 159/14/159 147/13/147
f 149/13/149 161/14/161 160/14/160 148/13/148
f 150/13/150 162/14/162 161/14/161 149/13/149
f 151/13/151 163/14/163 162/14/162 150/13/150
f 152/13/152 164/14/164 163/14/163 151/13/151
f 153/13/153 165/14/165 164/14/164 152/13/152
f 154/13/154 166/14/166 165/14/165 153/13/153
f 155/13/155 167/14/167 166/14/166 154/13/154
f 156/13/156 168/14/168 167/14/167 155/13/155
f 157/14/157 169/15/169 180/15/180 168/14/168
f 158/14/158 170/15/170 169/15/169 157/14/157
f 159/14/159 171/15/171 170/15/170 158/14/158
f 160/14/160 172/15/172 171/15/171 159/14/159
f 161/14/161 173/15/173 172/15/172 160/14/160
f 162/14/162 174/15/174 173/15/173 161/14/161
f 163/14/163 175/15/175 174/15/174 162/14/162
f 164/14/164 176/15/176 175/15/175 163/14/163
f 165/14/165 177/15/177 176/15/176 164/14/164
f 166/14/166 178/15/178 177/15/177 165/14/165
f 167/14/167 179/15/179 178/15/178 166/14/166
f 168/14/168 180/15/180 179/15/179 167/14/167
f 169/15/169 181/16/181 192/16/192 180/15/180
f 170/15/170 182/16/182 181/16/181 169/15/169
f 171/15/171 183/16/183 182/16/182 170/15/170
f 172/15/172 184/16/184 183/16/183 171/15/171
f 173/15/173 185/16/185 184/16/184 172/15/172
f 174/15/174 186/16/186 185/16/185 173/15/173
f 175/15/175 187/16/187 186/16/186 174/15/174
f 176/15/176 188/16/188 187/16/187 175/15/175
f 177/15/177 189/16/189 188/16/188 176/15/176
f 178/15/178 190/16/190 189/16/189 177/15/177
f 179/15/179 191/16/191 190/16/190 178/15/178
f 180/15/180 192/16/192 191/16/191 179/15/179
f 181/16/181 193/17/193 204/17/204 192/16/192
f 182/16/182 194/17/194 193/17/193 181/16/181
f 183/16/183 195/17/195 194/17/194 182/16/182
f 184/16/184 196/17/196 195/17/195 183/16/183
f 185/16/185 197/17/197 196/17/196 184/16/184
f 186/16/186 198/17/198 197/17/197 185/16/185
f 187/16/187 199/17/199 198/17/198 186/16/186
f 188/16/188 200/17/200 199/17/199 187/16/187
f 189/16/189 201/17/201 200/17/200 188/16/188
f 190/16/190 202/17/202 201/17/201 189/16/189
f 191/16/191 203/17/203 202/17/202 190/16/190
f 192/16/192 204/17/204 203/17/203 191/16/191
