# Blender 5.0.1
# www.blender.org
o BézierCurve.015
v -0.282667 -0.203544 -0.503913
v -0.371603 -0.105087 -0.371247
v -0.404165 -0.069049 -0.190016
v -0.371627 -0.105087 -0.008780
v -0.282707 -0.203544 0.123897
v -0.161234 -0.338038 0.172466
v -0.039754 -0.472533 0.123913
v 0.049183 -0.570990 -0.008753
v 0.081744 -0.607028 -0.189984
v 0.049206 -0.570990 -0.371219
v -0.039713 -0.472533 -0.503897
v -0.161187 -0.338039 -0.552466
v -0.020402 0.487888 -0.495993
v -0.148262 0.507390 -0.366670
v -0.195070 0.514529 -0.190005
v -0.148284 0.507391 -0.013334
v -0.020440 0.487890 0.116004
v 0.154205 0.461250 0.163353
v 0.328856 0.434610 0.116026
v 0.456715 0.415108 -0.013296
v 0.503524 0.407969 -0.189961
v 0.456737 0.415107 -0.366632
v 0.328894 0.434608 -0.495971
v 0.154249 0.461248 -0.543320
v 0.001306 1.371393 -0.473826
v -0.117689 1.356130 -0.353871
v -0.161252 1.350543 -0.190002
v -0.117710 1.356128 -0.026127
v 0.001271 1.371389 0.093843
v 0.163809 1.392236 0.137763
v 0.326351 1.413085 0.093864
v 0.445347 1.428347 -0.026091
v 0.488909 1.433935 -0.189961
v 0.445368 1.428350 -0.353835
v 0.326387 1.413089 -0.473806
v 0.163849 1.392241 -0.517725
v -0.130045 1.987350 -0.448981
v -0.232763 1.949505 -0.339526
v -0.270367 1.935651 -0.190001
v -0.232781 1.949500 -0.040472
v -0.130075 1.987340 0.068997
v 0.010230 2.039034 0.109072
v 0.150539 2.090728 0.069015
v 0.253258 2.128573 -0.040439
v 0.290862 2.142427 -0.189964
v 0.253276 2.128578 -0.339494
v 0.150571 2.090738 -0.448962
v 0.010265 2.039045 -0.489038
v -0.248426 2.277745 -0.432726
v -0.338856 2.229282 -0.330141
v -0.371961 2.211541 -0.190001
v -0.338871 2.229275 -0.049857
v -0.248453 2.277732 0.052740
v -0.124933 2.343929 0.090300
v -0.001409 2.410127 0.052757
v 0.089021 2.458590 -0.049827
v 0.122126 2.476331 -0.189967
v 0.089037 2.458597 -0.330111
v -0.001382 2.410140 -0.432709
v -0.124902 2.343943 -0.470268
v -0.605924 2.788419 -0.387457
v -0.662030 2.726629 -0.304004
v -0.682571 2.704008 -0.190001
v -0.662040 2.726619 -0.075994
v -0.605941 2.788402 0.007469
v -0.529304 2.872803 0.038023
v -0.452665 2.957207 0.007482
v -0.396558 3.018997 -0.075970
v -0.376018 3.041618 -0.189974
v -0.396548 3.019007 -0.303980
v -0.452647 2.957224 -0.387443
v -0.529284 2.872823 -0.417997
v -1.160427 3.165427 -0.318447
v -1.178703 3.114302 -0.264160
v -1.185393 3.095585 -0.189999
v -1.178706 3.114294 -0.115835
v -1.160433 3.165414 -0.061541
v -1.135471 3.235248 -0.041665
v -1.110508 3.305084 -0.061532
v -1.092233 3.356210 -0.115820
v -1.085543 3.374926 -0.189981
v -1.092230 3.356218 -0.264145
v -1.110502 3.305098 -0.318439
v -1.135464 3.235264 -0.338315
v -1.971085 3.359173 -0.193171
v -1.971063 3.357829 -0.191827
v -1.971055 3.357337 -0.189991
v -1.971063 3.357829 -0.188155
v -1.971085 3.359173 -0.186811
v -1.971116 3.361008 -0.186319
v -1.971146 3.362844 -0.186811
v -1.971169 3.364188 -0.188155
v -1.971177 3.364680 -0.189990
v -1.971169 3.364188 -0.191826
v -1.971146 3.362844 -0.193170
v -1.971116 3.361009 -0.193662
vn -0.4297 0.1721 -0.8864
vn -0.8066 0.3003 -0.5091
vn -0.9401 0.3409 -0.0001
vn -0.8067 0.3003 0.5090
vn -0.4298 0.1721 0.8863
vn 0.0789 -0.0225 0.9966
vn 0.5377 -0.2129 0.8158
vn 0.8279 -0.3394 0.4465
vn 0.9240 -0.3824 0.0001
vn 0.8280 -0.3395 -0.4464
vn 0.5378 -0.2129 -0.8157
vn 0.0791 -0.0225 -0.9966
vn -0.4743 0.1092 -0.8735
vn -0.8468 0.1736 -0.5029
vn -0.9810 0.1941 -0.0001
vn -0.8468 0.1736 0.5028
vn -0.4745 0.1092 0.8735
vn 0.0322 0.0100 0.9994
vn 0.5206 -0.0913 0.8489
vn 0.8614 -0.1621 0.4814
vn 0.9824 -0.1869 0.0001
vn 0.8615 -0.1621 -0.4813
vn 0.5207 -0.0913 -0.8489
vn 0.0324 0.0100 -0.9994
vn -0.4863 -0.0171 -0.8736
vn -0.8596 -0.0567 -0.5079
vn -0.9975 -0.0712 -0.0001
vn -0.8596 -0.0567 0.5077
vn -0.4864 -0.0171 0.8735
vn 0.0152 0.0365 0.9992
vn 0.5072 0.0898 0.8571
vn 0.8614 0.1286 0.4915
vn 0.9898 0.1427 0.0001
vn 0.8614 0.1286 -0.4913
vn 0.5073 0.0898 -0.8571
vn 0.0153 0.0365 -0.9992
vn -0.4795 -0.1062 -0.8711
vn -0.8337 -0.2222 -0.5056
vn -0.9643 -0.2648 -0.0001
vn -0.8338 -0.2222 0.5054
vn -0.4796 -0.1063 0.8710
vn -0.0020 0.0510 0.9987
vn 0.4686 0.2070 0.8588
vn 0.8087 0.3205 0.4933
vn 0.9322 0.3618 0.0001
vn 0.8087 0.3205 -0.4932
vn 0.4687 0.2071 -0.8587
vn -0.0019 0.0511 -0.9987
vn -0.4540 -0.1855 -0.8715
vn -0.7775 -0.3731 -0.5062
vn -0.8969 -0.4422 -0.0001
vn -0.7776 -0.3731 0.5061
vn -0.4541 -0.1856 0.8714
vn -0.0186 0.0674 0.9976
vn 0.4091 0.3159 0.8561
vn 0.7173 0.4945 0.4909
vn 0.8291 0.5592 0.0001
vn 0.7173 0.4945 -0.4908
vn 0.4092 0.3159 -0.8560
vn -0.0185 0.0675 -0.9975
vn -0.3899 -0.2863 -0.8752
vn -0.6466 -0.5659 -0.5115
vn -0.7424 -0.6700 -0.0001
vn -0.6467 -0.5659 0.5114
vn -0.3900 -0.2864 0.8752
vn -0.0495 0.0852 0.9951
vn 0.2807 0.4463 0.8497
vn 0.5169 0.7047 0.4859
vn 0.6023 0.7982 0.0001
vn 0.5170 0.7048 -0.4858
vn 0.2808 0.4463 -0.8497
vn -0.0494 0.0853 -0.9951
vn -0.2923 -0.3847 -0.8756
vn -0.4255 -0.7447 -0.5142
vn -0.4753 -0.8798 -0.0001
vn -0.4255 -0.7448 0.5141
vn -0.2923 -0.3848 0.8755
vn -0.1164 0.0875 0.9893
vn 0.0530 0.5403 0.8398
vn 0.1732 0.8610 0.4782
vn 0.2164 0.9763 0.0001
vn 0.1732 0.8610 -0.4781
vn 0.0530 0.5404 -0.8397
vn -0.1164 0.0877 -0.9893
vn -0.2368 -0.4262 -0.8731
vn -0.2949 -0.8080 -0.5102
vn -0.3160 -0.9487 -0.0001
vn -0.2949 -0.8080 0.5101
vn -0.2368 -0.4263 0.8731
vn -0.1583 0.0802 0.9841
vn -0.0827 0.5584 0.8255
vn -0.0301 0.8855 0.4636
vn -0.0116 0.9999 0.0001
vn -0.0301 0.8856 -0.4635
vn -0.0827 0.5585 -0.8254
vn -0.1583 0.0803 -0.9841
vt 0.452852 0.014904
vt 0.452852 0.129940
vt 0.452852 0.015563
vt 0.452852 0.014422
vt 0.452852 0.129940
vt 0.452852 0.014244
vt 0.452852 0.014420
vt 0.452852 0.014900
vt 0.452852 0.015558
vt 0.452852 0.016216
vt 0.452852 0.016699
vt 0.452852 0.129940
vt 0.452852 0.016876
vt 0.452852 0.016701
vt 0.452852 0.016220
vt 0.452852 0.248190
vt 0.452852 0.248190
vt 0.452852 0.248190
vt 0.452852 0.317735
vt 0.452852 0.317735
vt 0.452852 0.317735
vt 0.452852 0.360269
vt 0.452852 0.360269
vt 0.452852 0.427160
vt 0.452852 0.513448
vt 0.452852 0.596638
vt 0.452852 0.596747
vt 0.452852 0.596598
vt 0.452852 0.596896
vt 0.452852 0.597045
vt 0.452852 0.596301
vt 0.452852 0.596887
vt 0.452852 0.597046
s 1
f 1/1/1 13/2/13 24/2/24 12/3/12
f 2/4/2 14/5/14 13/2/13 1/1/1
f 3/6/3 15/5/15 14/5/14 2/4/2
f 4/7/4 16/5/16 15/5/15 3/6/3
f 5/8/5 17/2/17 16/5/16 4/7/4
f 6/9/6 18/2/18 17/2/17 5/8/5
f 7/10/7 19/2/19 18/2/18 6/9/6
f 8/11/8 20/12/20 19/2/19 7/10/7
f 9/13/9 21/12/21 20/12/20 8/11/8
f 10/14/10 22/12/22 21/12/21 9/13/9
f 11/15/11 23/2/23 22/12/22 10/14/10
f 12/3/12 24/2/24 23/2/23 11/15/11
f 13/2/13 25/16/25 36/16/36 24/2/24
f 14/5/14 26/17/26 25/16/25 13/2/13
f 15/5/15 27/17/27 26/17/26 14/5/14
f 16/5/16 28/17/28 27/17/27 15/5/15
f 17/2/17 29/16/29 28/17/28 16/5/16
f 18/2/18 30/16/30 29/16/29 17/2/17
f 19/2/19 31/16/31 30/16/30 18/2/18
f 20/12/20 32/16/32 31/16/31 19/2/19
f 21/12/21 33/18/33 32/16/32 20/12/20
f 22/12/22 34/16/34 33/18/33 21/12/21
f 23/2/23 35/16/35 34/16/34 22/12/22
f 24/2/24 36/16/36 35/16/35 23/2/23
f 26/17/26 38/19/38 37/20/37 25/16/25
f 27/17/27 39/19/39 38/19/38 26/17/26
f 28/17/28 40/19/40 39/19/39 27/17/27
f 29/16/29 41/20/41 40/19/40 28/17/28
f 30/16/30 42/20/42 41/20/41 29/16/29
f 31/16/31 43/20/43 42/20/42 30/16/30
f 32/16/32 44/20/44 43/20/43 31/16/31
f 33/18/33 45/21/45 44/20/44 32/16/32
f 34/16/34 46/20/46 45/21/45 33/18/33
f 35/16/35 47/20/47 46/20/46 34/16/34
f 36/16/36 48/20/48 47/20/47 35/16/35
f 37/20/37 49/22/49 60/22/60 48/20/48
f 38/19/38 50/23/50 49/22/49 37/20/37
f 39/19/39 51/23/51 50/23/50 38/19/38
f 40/19/40 52/23/52 51/23/51 39/19/39
f 41/20/41 53/22/53 52/23/52 40/19/40
f 42/20/42 54/22/54 53/22/53 41/20/41
f 43/20/43 55/22/55 54/22/54 42/20/42
f 44/20/44 56/22/56 55/22/55 43/20/43
f 45/21/45 57/22/57 56/22/56 44/20/44
f 46/20/46 58/22/58 57/22/57 45/21/45
f 47/20/47 59/22/59 58/22/58 46/20/46
f 48/20/48 60/22/60 59/22/59 47/20/47
f 50/23/50 62/24/62 61/24/61 49/22/49
f 51/23/51 63/24/63 62/24/62 50/23/50
f 52/23/52 64/24/64 63/24/63 51/23/51
f 53/22/53 65/24/65 64/24/64 52/23/52
f 54/22/54 66/24/66 65/24/65 53/22/53
f 55/22/55 67/24/67 66/24/66 54/22/54
f 56/22/56 68/24/68 67/24/67 55/22/55
f 57/22/57 69/24/69 68/24/68 56/22/56
f 58/22/58 70/24/70 69/24/69 57/22/57
f 59/22/59 71/24/71 70/24/70 58/22/58
f 60/22/60 72/24/72 71/24/71 59/22/59
f 25/16/25 37/20/37 48/20/48 36/16/36
f 62/24/62 74/25/74 73/25/73 61/24/61
f 63/24/63 75/25/75 74/25/74 62/24/62
f 64/24/64 76/25/76 75/25/75 63/24/63
f 65/24/65 77/25/77 76/25/76 64/24/64
f 66/24/66 78/25/78 77/25/77 65/24/65
f 67/24/67 79/25/79 78/25/78 66/24/66
f 68/24/68 80/25/80 79/25/79 67/24/67
f 69/24/69 81/25/81 80/25/80 68/24/68
f 70/24/70 82/25/82 81/25/81 69/24/69
f 71/24/71 83/25/83 82/25/82 70/24/70
f 72/24/72 84/25/84 83/25/83 71/24/71
f 49/22/49 61/24/61 72/24/72 60/22/60
f 74/25/74 86/26/86 85/27/85 73/25/73
f 75/25/75 87/28/87 86/26/86 74/25/74
f 76/25/76 88/26/88 87/28/87 75/25/75
f 77/25/77 89/27/89 88/26/88 76/25/76
f 78/25/78 90/29/90 89/27/89 77/25/77
f 79/25/79 91/30/91 90/29/90 78/25/78
f 80/25/80 92/31/92 91/30/91 79/25/79
f 81/25/81 93/32/93 92/31/92 80/25/80
f 82/25/82 94/31/94 93/32/93 81/25/81
f 83/25/83 95/33/95 94/31/94 82/25/82
f 84/25/84 96/29/96 95/33/95 83/25/83
f 73/25/73 85/27/85 96/29/96 84/25/84
f 61/24/61 73/25/73 84/25/84 72/24/72
