# Blender 5.0.1
# www.blender.org
o BézierCurve.016
v -0.253062 -0.532914 -0.558328
v -0.377032 -0.438750 -0.402669
v -0.422420 -0.404283 -0.190025
v -0.377063 -0.438750 0.022625
v -0.253116 -0.532914 0.178303
v -0.083790 -0.661544 0.235294
v 0.085544 -0.790175 0.178328
v 0.209515 -0.884339 0.022669
v 0.254903 -0.918806 -0.189975
v 0.209547 -0.884340 -0.402625
v 0.085600 -0.790176 -0.558303
v -0.083727 -0.661545 -0.615294
v -0.187400 -0.417075 -0.558161
v -0.328316 -0.351068 -0.402572
v -0.379907 -0.326906 -0.190022
v -0.328347 -0.351066 0.022535
v -0.187452 -0.417073 0.178145
v 0.005024 -0.507240 0.235113
v 0.197509 -0.597408 0.178174
v 0.338425 -0.663416 0.022584
v 0.390015 -0.687577 -0.189965
v 0.338456 -0.663417 -0.402523
v 0.197561 -0.597410 -0.558133
v 0.005085 -0.507243 -0.615101
v -0.118230 -0.231072 -0.556725
v -0.266456 -0.185733 -0.401741
v -0.320721 -0.169137 -0.190019
v -0.266486 -0.185731 0.021711
v -0.118282 -0.231069 0.176716
v 0.084179 -0.293002 0.233463
v 0.286649 -0.354936 0.176746
v 0.434874 -0.400275 0.021763
v 0.489140 -0.416871 -0.189960
v 0.434905 -0.400277 -0.401690
v 0.286701 -0.354939 -0.556695
v 0.084240 -0.293006 -0.613442
v -0.057089 0.012114 -0.553681
v -0.207932 0.041715 -0.399982
v -0.263155 0.052550 -0.190016
v -0.207962 0.041717 0.019959
v -0.057141 0.012117 0.173679
v 0.148895 -0.028318 0.229956
v 0.354940 -0.068753 0.173709
v 0.505783 -0.098354 0.020011
v 0.561006 -0.109190 -0.189956
v 0.505813 -0.098356 -0.399931
v 0.354993 -0.068756 -0.553651
v 0.148956 -0.028321 -0.609927
v -0.011686 0.299198 -0.549037
v -0.162596 0.315212 -0.397300
v -0.217844 0.321073 -0.190013
v -0.162625 0.315212 0.017282
v -0.011737 0.299199 0.169040
v 0.194393 0.277324 0.224598
v 0.400530 0.255449 0.169070
v 0.551441 0.239435 0.017333
v 0.606689 0.233573 -0.189953
v 0.551471 0.239434 -0.397248
v 0.400582 0.255448 -0.549007
v 0.194452 0.277323 -0.604565
v 0.012438 0.618854 -0.542562
v -0.136549 0.622086 -0.393561
v -0.191093 0.623269 -0.190011
v -0.136579 0.622086 0.013546
v 0.012387 0.618852 0.162568
v 0.215889 0.614436 0.217125
v 0.419398 0.610020 0.162598
v 0.568386 0.606788 0.013597
v 0.622929 0.605605 -0.189953
v 0.568415 0.606788 -0.393510
v 0.419450 0.610021 -0.542532
v 0.215948 0.614438 -0.597089
v 0.010527 0.960662 -0.533891
v -0.134525 0.951236 -0.388554
v -0.187627 0.947786 -0.190010
v -0.134553 0.951234 0.008542
v 0.010478 0.960658 0.153900
v 0.208605 0.973531 0.207115
v 0.406739 0.986405 0.153929
v 0.551791 0.995831 0.008592
v 0.604894 0.999281 -0.189953
v 0.551820 0.995833 -0.388505
v 0.406789 0.986409 -0.533862
v 0.208662 0.973536 -0.587077
v -0.022044 1.314702 -0.523028
v -0.161038 1.292427 -0.382282
v -0.211922 1.284272 -0.190009
v -0.161064 1.292423 0.002271
v -0.022092 1.314695 0.143037
v 0.167758 1.345121 0.194572
v 0.357615 1.375548 0.143066
v 0.496609 1.397823 0.002319
v 0.547493 1.405978 -0.189953
v 0.496636 1.397827 -0.382234
v 0.357663 1.375555 -0.523000
v 0.167813 1.345129 -0.574534
v -0.089586 1.671450 -0.509779
v -0.220050 1.636105 -0.374632
v -0.267812 1.623166 -0.190009
v -0.220076 1.636099 -0.005378
v -0.089631 1.671439 0.129788
v 0.088569 1.719717 0.179273
v 0.266775 1.767996 0.129815
v 0.397239 1.803340 -0.005331
v 0.445000 1.816280 -0.189955
v 0.397264 1.803347 -0.374586
v 0.266820 1.768007 -0.509752
v 0.088620 1.719729 -0.559236
v -0.196269 2.021871 -0.493876
v -0.315285 1.973570 -0.365450
v -0.358857 1.955887 -0.190008
v -0.315309 1.973561 -0.014559
v -0.196310 2.021856 0.113885
v -0.033746 2.087831 0.160908
v 0.128825 2.153809 0.113910
v 0.247841 2.202110 -0.014516
v 0.291413 2.219793 -0.189958
v 0.247865 2.202119 -0.365406
v 0.128866 2.153824 -0.493850
v -0.033698 2.087849 -0.540874
v -0.346254 2.357651 -0.474803
v -0.450453 2.297365 -0.354438
v -0.488600 2.275295 -0.190008
v -0.450473 2.297354 -0.025571
v -0.346290 2.357632 0.094811
v -0.203964 2.439977 0.138882
v -0.061633 2.522326 0.094834
v 0.042566 2.582611 -0.025530
v 0.080713 2.604681 -0.189961
v 0.042586 2.582622 -0.354397
v -0.061597 2.522344 -0.474779
v -0.203922 2.439999 -0.518851
v -0.543700 2.671772 -0.450764
v -0.629256 2.602283 -0.340558
v -0.660578 2.576843 -0.190007
v -0.629274 2.602270 -0.039450
v -0.543730 2.671750 0.070771
v -0.426869 2.766667 0.111123
v -0.310003 2.861586 0.070793
v -0.224446 2.931076 -0.039413
v -0.193124 2.956516 -0.189964
v -0.224429 2.931089 -0.340521
v -0.309973 2.861609 -0.450742
v -0.426834 2.766692 -0.491094
v -0.794940 2.957453 -0.421686
v -0.859163 2.883522 -0.323769
v -0.882675 2.856457 -0.190006
v -0.859176 2.883509 -0.056237
v -0.794962 2.957429 0.041693
v -0.707240 3.058412 0.077545
v -0.619514 3.159398 0.041712
v -0.555291 3.233328 -0.056205
v -0.531779 3.260394 -0.189968
v -0.555278 3.233342 -0.323737
v -0.619492 3.159421 -0.421667
v -0.707214 3.058439 -0.457519
v -1.107342 3.208320 -0.385946
v -1.149437 3.136991 -0.303134
v -1.164848 3.110878 -0.190004
v -1.149446 3.136978 -0.076870
v -1.107357 3.208297 0.005953
v -1.049860 3.305725 0.036275
v -0.992360 3.403157 0.005969
v -0.950265 3.474486 -0.076843
v -0.934854 3.500599 -0.189973
v -0.950257 3.474500 -0.303106
v -0.992345 3.403181 -0.385930
v -1.049843 3.305752 -0.416252
v -1.489534 3.417470 -0.340714
v -1.511520 3.357679 -0.277017
v -1.519570 3.335790 -0.190002
v -1.511525 3.357668 -0.102983
v -1.489541 3.417451 -0.039277
v -1.459509 3.499120 -0.015955
v -1.429476 3.580792 -0.039265
v -1.407490 3.640583 -0.102962
v -1.399440 3.662472 -0.189977
v -1.407485 3.640594 -0.276996
v -1.429468 3.580812 -0.340702
v -1.459500 3.499142 -0.364024
v -1.950475 3.577694 -0.280578
v -1.957436 3.540044 -0.242295
v -1.959985 3.526261 -0.189998
v -1.957438 3.540037 -0.137698
v -1.950478 3.577682 -0.099410
v -1.940970 3.629108 -0.085393
v -1.931462 3.680536 -0.099403
v -1.924501 3.718185 -0.137685
v -1.921953 3.731969 -0.189983
v -1.924500 3.718193 -0.242283
v -1.931460 3.680548 -0.280571
v -1.940967 3.629122 -0.294588
v -2.499088 3.684049 -0.193722
v -2.499134 3.682473 -0.192145
v -2.499151 3.681896 -0.189991
v -2.499134 3.682473 -0.187837
v -2.499088 3.684049 -0.186260
v -2.499025 3.686202 -0.185682
v -2.498962 3.688355 -0.186259
v -2.498915 3.689931 -0.187836
v -2.498899 3.690509 -0.189990
v -2.498915 3.689932 -0.192144
v -2.498962 3.688356 -0.193721
v -2.499025 3.686203 -0.194299
vn -0.4221 0.2396 -0.8743
vn -0.7523 0.4195 -0.5081
vn -0.8752 0.4838 -0.0001
vn -0.7524 0.4195 0.5079
vn -0.4222 0.2396 0.8743
vn 0.0184 -0.0102 0.9998
vn 0.4473 -0.2594 0.8559
vn 0.7534 -0.4392 0.4894
vn 0.8636 -0.5042 0.0001
vn 0.7535 -0.4392 -0.4893
vn 0.4475 -0.2594 -0.8559
vn 0.0185 -0.0103 -0.9998
vn -0.4430 0.2099 -0.8716
vn -0.7828 0.3635 -0.5051
vn -0.9081 0.4187 -0.0001
vn -0.7828 0.3635 0.5050
vn -0.4432 0.2099 0.8715
vn 0.0138 -0.0025 0.9999
vn 0.4630 -0.2148 0.8599
vn 0.7872 -0.3693 0.4940
vn 0.9049 -0.4256 0.0001
vn 0.7872 -0.3693 -0.4938
vn 0.4631 -0.2148 -0.8599
vn 0.0140 -0.0025 -0.9999
vn -0.4685 0.1542 -0.8699
vn -0.8230 0.2623 -0.5039
vn -0.9534 0.3018 -0.0001
vn -0.8231 0.2623 0.5037
vn -0.4686 0.1542 0.8699
vn 0.0117 0.0067 0.9999
vn 0.4873 -0.1401 0.8619
vn 0.8325 -0.2471 0.4959
vn 0.9582 -0.2861 0.0001
vn 0.8326 -0.2471 -0.4958
vn 0.4875 -0.1401 -0.8618
vn 0.0119 0.0067 -0.9999
vn -0.4819 0.1109 -0.8692
vn -0.8446 0.1827 -0.5032
vn -0.9779 0.2090 -0.0001
vn -0.8447 0.1827 0.5031
vn -0.4820 0.1109 0.8691
vn 0.0102 0.0133 0.9999
vn 0.4988 -0.0836 0.8627
vn 0.8541 -0.1542 0.4967
vn 0.9837 -0.1800 0.0001
vn 0.8542 -0.1542 -0.4966
vn 0.4989 -0.0836 -0.8626
vn 0.0104 0.0133 -0.9999
vn -0.4897 0.0729 -0.8688
vn -0.8570 0.1127 -0.5029
vn -0.9919 0.1274 -0.0001
vn -0.8570 0.1127 0.5028
vn -0.4898 0.0729 0.8688
vn 0.0088 0.0189 0.9998
vn 0.5041 -0.0347 0.8629
vn 0.8646 -0.0737 0.4970
vn 0.9961 -0.0880 0.0001
vn 0.8647 -0.0737 -0.4969
vn 0.5042 -0.0348 -0.8629
vn 0.0090 0.0189 -0.9998
vn -0.4940 0.0370 -0.8687
vn -0.8632 0.0461 -0.5028
vn -0.9988 0.0494 -0.0001
vn -0.8632 0.0461 0.5027
vn -0.4941 0.0370 0.8686
vn 0.0073 0.0248 0.9997
vn 0.5053 0.0128 0.8629
vn 0.8677 0.0042 0.4970
vn 1.0000 0.0010 0.0001
vn 0.8678 0.0042 -0.4969
vn 0.5054 0.0128 -0.8628
vn 0.0074 0.0248 -0.9997
vn -0.4953 0.0002 -0.8687
vn -0.8641 -0.0224 -0.5029
vn -0.9995 -0.0307 -0.0001
vn -0.8641 -0.0225 0.5028
vn -0.4954 0.0002 0.8686
vn 0.0051 0.0311 0.9995
vn 0.5021 0.0619 0.8626
vn 0.8638 0.0845 0.4968
vn 0.9957 0.0928 0.0001
vn 0.8638 0.0845 -0.4966
vn 0.5023 0.0620 -0.8625
vn 0.0053 0.0311 -0.9995
vn -0.4935 -0.0399 -0.8688
vn -0.8588 -0.0967 -0.5031
vn -0.9931 -0.1175 -0.0001
vn -0.8589 -0.0967 0.5030
vn -0.4936 -0.0399 0.8688
vn 0.0019 0.0375 0.9993
vn 0.4936 0.1145 0.8621
vn 0.8512 0.1707 0.4964
vn 0.9815 0.1912 0.0001
vn 0.8512 0.1707 -0.4962
vn 0.4938 0.1145 -0.8620
vn 0.0021 0.0375 -0.9993
vn -0.4876 -0.0843 -0.8690
vn -0.8453 -0.1789 -0.5034
vn -0.9769 -0.2136 -0.0001
vn -0.8454 -0.1789 0.5032
vn -0.4877 -0.0843 0.8689
vn -0.0028 0.0443 0.9990
vn 0.4778 0.1723 0.8614
vn 0.8269 0.2654 0.4958
vn 0.9541 0.2994 0.0001
vn 0.8269 0.2654 -0.4957
vn 0.4779 0.1723 -0.8614
vn -0.0027 0.0444 -0.9990
vn -0.4760 -0.1339 -0.8692
vn -0.8204 -0.2705 -0.5037
vn -0.9472 -0.3207 -0.0001
vn -0.8205 -0.2705 0.5036
vn -0.4762 -0.1339 0.8691
vn -0.0100 0.0517 0.9986
vn 0.4514 0.2359 0.8606
vn 0.7862 0.3699 0.4951
vn 0.9081 0.4187 0.0001
vn 0.7862 0.3699 -0.4950
vn 0.4515 0.2359 -0.8605
vn -0.0098 0.0517 -0.9986
vn -0.4578 -0.1872 -0.8691
vn -0.7806 -0.3697 -0.5039
vn -0.8996 -0.4368 -0.0001
vn -0.7807 -0.3697 0.5038
vn -0.4579 -0.1872 0.8691
vn -0.0215 0.0602 0.9980
vn 0.4098 0.3055 0.8595
vn 0.7223 0.4837 0.4943
vn 0.8361 0.5487 0.0001
vn 0.7224 0.4838 -0.4941
vn 0.4099 0.3056 -0.8594
vn -0.0213 0.0603 -0.9980
vn -0.4302 -0.2447 -0.8690
vn -0.7211 -0.4753 -0.5041
vn -0.8284 -0.5601 -0.0001
vn -0.7212 -0.4753 0.5040
vn -0.4303 -0.2448 0.8689
vn -0.0377 0.0673 0.9970
vn 0.3496 0.3761 0.8581
vn 0.6298 0.6000 0.4932
vn 0.7318 0.6816 0.0001
vn 0.6299 0.6001 -0.4931
vn 0.3497 0.3762 -0.8580
vn -0.0375 0.0674 -0.9970
vn -0.3909 -0.3049 -0.8685
vn -0.6380 -0.5822 -0.5041
vn -0.7292 -0.6843 -0.0001
vn -0.6380 -0.5822 0.5039
vn -0.3910 -0.3049 0.8684
vn -0.0580 0.0696 0.9959
vn 0.2700 0.4396 0.8567
vn 0.5071 0.7075 0.4923
vn 0.5933 0.8050 0.0001
vn 0.5071 0.7075 -0.4921
vn 0.2701 0.4396 -0.8566
vn -0.0579 0.0697 -0.9959
vn -0.3419 -0.3614 -0.8675
vn -0.5343 -0.6789 -0.5037
vn -0.6054 -0.7960 -0.0001
vn -0.5343 -0.6789 0.5035
vn -0.3419 -0.3615 0.8674
vn -0.0828 0.0667 0.9943
vn 0.1723 0.4891 0.8551
vn 0.3566 0.7947 0.4912
vn 0.4236 0.9058 0.0001
vn 0.3567 0.7947 -0.4911
vn 0.1724 0.4892 -0.8550
vn -0.0827 0.0669 -0.9943
vn -0.2890 -0.4088 -0.8657
vn -0.4202 -0.7555 -0.5027
vn -0.4687 -0.8834 -0.0001
vn -0.4202 -0.7555 0.5026
vn -0.2890 -0.4089 0.8656
vn -0.1123 0.0582 0.9920
vn 0.0617 0.5185 0.8528
vn 0.1874 0.8514 0.4899
vn 0.2331 0.9724 0.0001
vn 0.1875 0.8515 -0.4897
vn 0.0618 0.5186 -0.8528
vn -0.1122 0.0584 -0.9920
vn -0.2438 -0.4417 -0.8634
vn -0.3135 -0.8060 -0.5021
vn -0.3392 -0.9407 -0.0001
vn -0.3135 -0.8061 0.5019
vn -0.2438 -0.4418 0.8633
vn -0.1501 0.0475 0.9875
vn -0.0580 0.5278 0.8474
vn 0.0084 0.8739 0.4861
vn 0.0326 0.9995 0.0001
vn 0.0085 0.8740 -0.4859
vn -0.0580 0.5279 -0.8473
vn -0.1501 0.0476 -0.9875
vn -0.2246 -0.4548 -0.8618
vn -0.2631 -0.8243 -0.5012
vn -0.2773 -0.9608 -0.0001
vn -0.2631 -0.8244 0.5011
vn -0.2246 -0.4549 0.8618
vn -0.1726 0.0414 0.9841
vn -0.1216 0.5260 0.8417
vn -0.0850 0.8725 0.4812
vn -0.0717 0.9974 0.0001
vn -0.0849 0.8725 -0.4811
vn -0.1216 0.5261 -0.8417
vn -0.1726 0.0415 -0.9841
vt 0.453696 0.016828
vt 0.453696 0.035762
vt 0.453696 0.035492
vt 0.453696 0.016495
vt 0.453696 0.017071
vt 0.453696 0.035959
vt 0.453696 0.017159
vt 0.453696 0.036031
vt 0.453696 0.017069
vt 0.453696 0.035958
vt 0.453696 0.016824
vt 0.453696 0.035760
vt 0.453696 0.016491
vt 0.453696 0.035490
vt 0.453696 0.016158
vt 0.453696 0.035220
vt 0.453696 0.015915
vt 0.453696 0.035022
vt 0.453696 0.015827
vt 0.453696 0.034951
vt 0.453696 0.015918
vt 0.453696 0.035024
vt 0.453696 0.016162
vt 0.453696 0.035222
vt 0.453696 0.061252
vt 0.453696 0.089627
vt 0.453696 0.122391
vt 0.453696 0.158529
vt 0.453696 0.197025
vt 0.453696 0.236859
vt 0.453696 0.277016
vt 0.453696 0.302232
vt 0.453696 0.343921
vt 0.453696 0.386281
vt 0.453696 0.428721
vt 0.453696 0.454749
vt 0.453696 0.502970
vt 0.453696 0.540498
vt 0.453696 0.596197
vt 0.453696 0.596273
vt 0.453696 0.596135
vt 0.453696 0.596348
vt 0.453696 0.596407
s 1
f 1/1/1 13/2/13 24/3/24 12/4/12
f 2/5/2 14/6/14 13/2/13 1/1/1
f 3/7/3 15/8/15 14/6/14 2/5/2
f 4/9/4 16/10/16 15/8/15 3/7/3
f 5/11/5 17/12/17 16/10/16 4/9/4
f 6/13/6 18/14/18 17/12/17 5/11/5
f 7/15/7 19/16/19 18/14/18 6/13/6
f 8/17/8 20/18/20 19/16/19 7/15/7
f 9/19/9 21/20/21 20/18/20 8/17/8
f 10/21/10 22/22/22 21/20/21 9/19/9
f 11/23/11 23/24/23 22/22/22 10/21/10
f 12/4/12 24/3/24 23/24/23 11/23/11
f 13/2/13 25/25/25 36/25/36 24/3/24
f 14/6/14 26/25/26 25/25/25 13/2/13
f 15/8/15 27/25/27 26/25/26 14/6/14
f 16/10/16 28/25/28 27/25/27 15/8/15
f 17/12/17 29/25/29 28/25/28 16/10/16
f 18/14/18 30/25/30 29/25/29 17/12/17
f 19/16/19 31/25/31 30/25/30 18/14/18
f 20/18/20 32/25/32 31/25/31 19/16/19
f 21/20/21 33/25/33 32/25/32 20/18/20
f 22/22/22 34/25/34 33/25/33 21/20/21
f 23/24/23 35/25/35 34/25/34 22/22/22
f 24/3/24 36/25/36 35/25/35 23/24/23
f 25/25/25 37/26/37 48/26/48 36/25/36
f 26/25/26 38/26/38 37/26/37 25/25/25
f 27/25/27 39/26/39 38/26/38 26/25/26
f 28/25/28 40/26/40 39/26/39 27/25/27
f 29/25/29 41/26/41 40/26/40 28/25/28
f 30/25/30 42/26/42 41/26/41 29/25/29
f 31/25/31 43/26/43 42/26/42 30/25/30
f 32/25/32 44/26/44 43/26/43 31/25/31
f 33/25/33 45/26/45 44/26/44 32/25/32
f 34/25/34 46/26/46 45/26/45 33/25/33
f 35/25/35 47/26/47 46/26/46 34/25/34
f 36/25/36 48/26/48 47/26/47 35/25/35
f 37/26/37 49/27/49 60/27/60 48/26/48
f 38/26/38 50/27/50 49/27/49 37/26/37
f 39/26/39 51/27/51 50/27/50 38/26/38
f 40/26/40 52/27/52 51/27/51 39/26/39
f 41/26/41 53/27/53 52/27/52 40/26/40
f 42/26/42 54/27/54 53/27/53 41/26/41
f 43/26/43 55/27/55 54/27/54 42/26/42
f 44/26/44 56/27/56 55/27/55 43/26/43
f 45/26/45 57/27/57 56/27/56 44/26/44
f 46/26/46 58/27/58 57/27/57 45/26/45
f 47/26/47 59/27/59 58/27/58 46/26/46
f 48/26/48 60/27/60 59/27/59 47/26/47
f 49/27/49 61/28/61 72/28/72 60/27/60
f 50/27/50 62/28/62 61/28/61 49/27/49
f 51/27/51 63/28/63 62/28/62 50/27/50
f 52/27/52 64/28/64 63/28/63 51/27/51
f 53/27/53 65/28/65 64/28/64 52/27/52
f 54/27/54 66/28/66 65/28/65 53/27/53
f 55/27/55 67/28/67 66/28/66 54/27/54
f 56/27/56 68/28/68 67/28/67 55/27/55
f 57/27/57 69/28/69 68/28/68 56/27/56
f 58/27/58 70/28/70 69/28/69 57/27/57
f 59/27/59 71/28/71 70/28/70 58/27/58
f 60/27/60 72/28/72 71/28/71 59/27/59
f 61/28/61 73/29/73 84/29/84 72/28/72
f 62/28/62 74/29/74 73/29/73 61/28/61
f 63/28/63 75/29/75 74/29/74 62/28/62
f 64/28/64 76/29/76 75/29/75 63/28/63
f 65/28/65 77/29/77 76/29/76 64/28/64
f 66/28/66 78/29/78 77/29/77 65/28/65
f 67/28/67 79/29/79 78/29/78 66/28/66
f 68/28/68 80/29/80 79/29/79 67/28/67
f 69/28/69 81/29/81 80/29/80 68/28/68
f 70/28/70 82/29/82 81/29/81 69/28/69
f 71/28/71 83/29/83 82/29/82 70/28/70
f 72/28/72 84/29/84 83/29/83 71/28/71
f 73/29/73 85/30/85 96/30/96 84/29/84
f 74/29/74 86/30/86 85/30/85 73/29/73
f 75/29/75 87/30/87 86/30/86 74/29/74
f 76/29/76 88/30/88 87/30/87 75/29/75
f 77/29/77 89/30/89 88/30/88 76/29/76
f 78/29/78 90/30/90 89/30/89 77/29/77
f 79/29/79 91/30/91 90/30/90 78/29/78
f 80/29/80 92/30/92 91/30/91 79/29/79
f 81/29/81 93/30/93 92/30/92 80/29/80
f 82/29/82 94/30/94 93/30/93 81/29/81
f 83/29/83 95/30/95 94/30/94 82/29/82
f 84/29/84 96/30/96 95/30/95 83/29/83
f 85/30/85 97/31/97 108/31/108 96/30/96
f 86/30/86 98/31/98 97/31/97 85/30/85
f 87/30/87 99/31/99 98/31/98 86/30/86
f 88/30/88 100/31/100 99/31/99 87/30/87
f 89/30/89 101/31/101 100/31/100 88/30/88
f 90/30/90 102/31/102 101/31/101 89/30/89
f 91/30/91 103/31/103 102/31/102 90/30/90
f 92/30/92 104/31/104 103/31/103 91/30/91
f 93/30/93 105/31/105 104/31/104 92/30/92
f 94/30/94 106/31/106 105/31/105 93/30/93
f 95/30/95 107/31/107 106/31/106 94/30/94
f 96/30/96 108/31/108 107/31/107 95/30/95
f 97/31/97 109/32/109 120/32/120 108/31/108
f 98/31/98 110/32/110 109/32/109 97/31/97
f 99/31/99 111/32/111 110/32/110 98/31/98
f 100/31/100 112/32/112 111/32/111 99/31/99
f 101/31/101 113/32/113 112/32/112 100/31/100
f 102/31/102 114/32/114 113/32/113 101/31/101
f 103/31/103 115/32/115 114/32/114 102/31/102
f 104/31/104 116/32/116 115/32/115 103/31/103
f 105/31/105 117/32/117 116/32/116 104/31/104
f 106/31/106 118/32/118 117/32/117 105/31/105
f 107/31/107 119/32/119 118/32/118 106/31/106
f 108/31/108 120/32/120 119/32/119 107/31/107
f 109/32/109 121/33/121 132/33/132 120/32/120
f 110/32/110 122/33/122 121/33/121 109/32/109
f 111/32/111 123/33/123 122/33/122 110/32/110
f 112/32/112 124/33/124 123/33/123 111/32/111
f 113/32/113 125/33/125 124/33/124 112/32/112
f 114/32/114 126/33/126 125/33/125 113/32/113
f 115/32/115 127/33/127 126/33/126 114/32/114
f 116/32/116 128/33/128 127/33/127 115/32/115
f 117/32/117 129/33/129 128/33/128 116/32/116
f 118/32/118 130/33/130 129/33/129 117/32/117
f 119/32/119 131/33/131 130/33/130 118/32/118
f 120/32/120 132/33/132 131/33/131 119/32/119
f 121/33/121 133/34/133 144/34/144 132/33/132
f 122/33/122 134/34/134 133/34/133 121/33/121
f 123/33/123 135/34/135 134/34/134 122/33/122
f 124/33/124 136/34/136 135/34/135 123/33/123
f 125/33/125 137/34/137 136/34/136 124/33/124
f 126/33/126 138/34/138 137/34/137 125/33/125
f 127/33/127 139/34/139 138/34/138 126/33/126
f 128/33/128 140/34/140 139/34/139 127/33/127
f 129/33/129 141/34/141 140/34/140 128/33/128
f 130/33/130 142/34/142 141/34/141 129/33/129
f 131/33/131 143/34/143 142/34/142 130/33/130
f 132/33/132 144/34/144 143/34/143 131/33/131
f 133/34/133 145/35/145 156/35/156 144/34/144
f 134/34/134 146/35/146 145/35/145 133/34/133
f 135/34/135 147/35/147 146/35/146 134/34/134
f 136/34/136 148/35/148 147/35/147 135/34/135
f 137/34/137 149/35/149 148/35/148 136/34/136
f 138/34/138 150/35/150 149/35/149 137/34/137
f 139/34/139 151/35/151 150/35/150 138/34/138
f 140/34/140 152/35/152 151/35/151 139/34/139
f 141/34/141 153/35/153 152/35/152 140/34/140
f 142/34/142 154/35/154 153/35/153 141/34/141
f 143/34/143 155/35/155 154/35/154 142/34/142
f 144/34/144 156/35/156 155/35/155 143/34/143
f 145/35/145 157/36/157 168/36/168 156/35/156
f 146/35/146 158/36/158 157/36/157 145/35/145
f 147/35/147 159/36/159 158/36/158 146/35/146
f 148/35/148 160/36/160 159/36/159 147/35/147
f 149/35/149 161/36/161 160/36/160 148/35/148
f 150/35/150 162/36/162 161/36/161 149/35/149
f 151/35/151 163/36/163 162/36/162 150/35/150
f 152/35/152 164/36/164 163/36/163 151/35/151
f 153/35/153 165/36/165 164/36/164 152/35/152
f 154/35/154 166/36/166 165/36/165 153/35/153
f 155/35/155 167/36/167 166/36/166 154/35/154
f 156/35/156 168/36/168 167/36/167 155/35/155
f 157/36/157 169/37/169 180/37/180 168/36/168
f 158/36/158 170/37/170 169/37/169 157/36/157
f 159/36/159 171/37/171 170/37/170 158/36/158
f 160/36/160 172/37/172 171/37/171 159/36/159
f 161/36/161 173/37/173 172/37/172 160/36/160
f 162/36/162 174/37/174 173/37/173 161/36/161
f 163/36/163 175/37/175 174/37/174 162/36/162
f 164/36/164 176/37/176 175/37/175 163/36/163
f 165/36/165 177/37/177 176/37/176 164/36/164
f 166/36/166 178/37/178 177/37/177 165/36/165
f 167/36/167 179/37/179 178/37/178 166/36/166
f 168/36/168 180/37/180 179/37/179 167/36/167
f 169/37/169 181/38/181 192/38/192 180/37/180
f 170/37/170 182/38/182 181/38/181 169/37/169
f 171/37/171 183/38/183 182/38/182 170/37/170
f 172/37/172 184/38/184 183/38/183 171/37/171
f 173/37/173 185/38/185 184/38/184 172/37/172
f 174/37/174 186/38/186 185/38/185 173/37/173
f 175/37/175 187/38/187 186/38/186 174/37/174
f 176/37/176 188/38/188 187/38/187 175/37/175
f 177/37/177 189/38/189 188/38/188 176/37/176
f 178/37/178 190/38/190 189/38/189 177/37/177
f 179/37/179 191/38/191 190/38/190 178/37/178
f 180/37/180 192/38/192 191/38/191 179/37/179
f 181/38/181 193/39/193 204/40/204 192/38/192
f 182/38/182 194/41/194 193/39/193 181/38/181
f 183/38/183 195/41/195 194/41/194 182/38/182
f 184/38/184 196/41/196 195/41/195 183/38/183
f 185/38/185 197/39/197 196/41/196 184/38/184
f 186/38/186 198/40/198 197/39/197 185/38/185
f 187/38/187 199/42/199 198/40/198 186/38/186
f 188/38/188 200/43/200 199/42/199 187/38/187
f 189/38/189 201/43/201 200/43/200 188/38/188
f 190/38/190 202/43/202 201/43/201 189/38/189
f 191/38/191 203/42/203 202/43/202 190/38/190
f 192/38/192 204/40/204 203/42/203 191/38/191
