# Blender 5.0.1
# www.blender.org
o BézierCurve.025
v -0.442942 -0.385348 -0.566713
v -0.587631 -0.318880 -0.407526
v -0.640612 -0.294550 -0.190053
v -0.587690 -0.318880 0.027434
v -0.443044 -0.385348 0.186659
v -0.245433 -0.476146 0.244959
v -0.047806 -0.566943 0.186713
v 0.096883 -0.633412 0.027526
v 0.149864 -0.657741 -0.189947
v 0.096942 -0.633412 -0.407433
v -0.047704 -0.566943 -0.566659
v -0.245315 -0.476146 -0.624959
v -0.169100 0.403513 -0.557207
v -0.318795 0.444538 -0.402031
v -0.373607 0.459558 -0.190036
v -0.318848 0.444549 0.021972
v -0.169191 0.403533 0.177188
v 0.035264 0.347499 0.234021
v 0.239734 0.291462 0.177242
v 0.389430 0.250437 0.022066
v 0.444242 0.235417 -0.189928
v 0.389483 0.250426 -0.401938
v 0.239825 0.291443 -0.557154
v 0.035371 0.347477 -0.613986
v 0.111488 1.731079 -0.517056
v -0.025939 1.746102 -0.378846
v -0.076258 1.751602 -0.190030
v -0.025987 1.746108 -0.001199
v 0.111405 1.731090 0.137046
v 0.299105 1.710573 0.187666
v 0.486816 1.690054 0.137095
v 0.624243 1.675032 -0.001116
v 0.674562 1.669531 -0.189932
v 0.624291 1.675026 -0.378763
v 0.486899 1.690043 -0.517008
v 0.299200 1.710560 -0.567627
v 0.174184 2.866639 -0.456698
v 0.061779 2.858056 -0.343995
v 0.020621 2.854914 -0.190024
v 0.061740 2.858054 -0.036043
v 0.174116 2.866636 0.076689
v 0.327639 2.878360 0.117967
v 0.481173 2.890085 0.076728
v 0.593578 2.898668 -0.035975
v 0.634736 2.901810 -0.189946
v 0.593618 2.898669 -0.343927
v 0.481241 2.890087 -0.456659
v 0.327718 2.878363 -0.497937
v 0.004822 3.976017 -0.344143
v -0.055874 3.952324 -0.279003
v -0.078098 3.943649 -0.190011
v -0.055896 3.952316 -0.101013
v 0.004785 3.976004 -0.035856
v 0.087685 4.008365 -0.011999
v 0.170590 4.040727 -0.035834
v 0.231287 4.064420 -0.100974
v 0.253511 4.073095 -0.189966
v 0.231309 4.064428 -0.278964
v 0.170627 4.040740 -0.344121
v 0.087727 4.008380 -0.367978
v -0.278014 4.667171 -0.193806
v -0.279298 4.666196 -0.192194
v -0.279769 4.665839 -0.189991
v -0.279298 4.666196 -0.187787
v -0.278014 4.667171 -0.186175
v -0.276260 4.668503 -0.185584
v -0.274505 4.669835 -0.186175
v -0.273221 4.670811 -0.187786
v -0.272751 4.671168 -0.189989
v -0.273221 4.670812 -0.192193
v -0.274505 4.669836 -0.193806
v -0.276259 4.668504 -0.194396
vn -0.4579 0.1694 -0.8727
vn -0.8123 0.2897 -0.5063
vn -0.9426 0.3338 -0.0001
vn -0.8124 0.2897 0.5061
vn -0.4582 0.1694 0.8726
vn 0.0202 0.0063 0.9998
vn 0.4901 -0.1547 0.8578
vn 0.8277 -0.2708 0.4915
vn 0.9498 -0.3129 0.0001
vn 0.8278 -0.2708 -0.4913
vn 0.4903 -0.1548 -0.8577
vn 0.0204 0.0062 -0.9998
vn -0.4694 0.1491 -0.8703
vn -0.8282 0.2445 -0.5043
vn -0.9601 0.2796 -0.0001
vn -0.8283 0.2446 0.5041
vn -0.4697 0.1491 0.8702
vn 0.0162 0.0194 0.9997
vn 0.4967 -0.1093 0.8610
vn 0.8449 -0.2028 0.4951
vn 0.9716 -0.2368 0.0001
vn 0.8450 -0.2028 -0.4948
vn 0.4969 -0.1093 -0.8609
vn 0.0164 0.0193 -0.9997
vn -0.4818 0.1001 -0.8706
vn -0.8515 0.1414 -0.5050
vn -0.9877 0.1566 -0.0001
vn -0.8516 0.1414 0.5048
vn -0.4820 0.1001 0.8704
vn 0.0175 0.0446 0.9989
vn 0.5108 -0.0101 0.8597
vn 0.8680 -0.0496 0.4941
vn 0.9979 -0.0640 0.0001
vn 0.8681 -0.0497 -0.4939
vn 0.5110 -0.0101 -0.8595
vn 0.0178 0.0446 -0.9988
vn -0.4907 0.0431 -0.8702
vn -0.8627 0.0110 -0.5057
vn -1.0000 -0.0008 -0.0001
vn -0.8628 0.0110 0.5054
vn -0.4910 0.0431 0.8701
vn 0.0096 0.0864 0.9962
vn 0.5016 0.1290 0.8554
vn 0.8565 0.1596 0.4909
vn 0.9853 0.1706 0.0001
vn 0.8566 0.1596 -0.4907
vn 0.5018 0.1290 -0.8553
vn 0.0098 0.0864 -0.9962
vn -0.4990 -0.0029 -0.8666
vn -0.8524 -0.1304 -0.5064
vn -0.9840 -0.1779 -0.0001
vn -0.8525 -0.1304 0.5062
vn -0.4992 -0.0030 0.8665
vn -0.0297 0.1662 0.9856
vn 0.4264 0.3307 0.8419
vn 0.7529 0.4486 0.4816
vn 0.8710 0.4913 0.0001
vn 0.7530 0.4486 -0.4814
vn 0.4266 0.3307 -0.8418
vn -0.0295 0.1663 -0.9856
vn -0.5063 -0.0197 -0.8621
vn -0.8394 -0.2014 -0.5048
vn -0.9631 -0.2690 -0.0001
vn -0.8396 -0.2014 0.5045
vn -0.5065 -0.0198 0.8620
vn -0.0658 0.2196 0.9734
vn 0.3543 0.4470 0.8214
vn 0.6469 0.6048 0.4644
vn 0.7507 0.6606 0.0001
vn 0.6470 0.6048 -0.4642
vn 0.3545 0.4471 -0.8213
vn -0.0656 0.2198 -0.9733
vt 0.453122 0.020313
vt 0.453122 0.181469
vt 0.453122 0.439061
vt 0.453122 0.641866
vt 0.453122 0.855175
vt 0.453122 0.982042
s 1
f 1/1/1 13/2/13 24/2/24 12/1/12
f 2/1/2 14/2/14 13/2/13 1/1/1
f 3/1/3 15/2/15 14/2/14 2/1/2
f 4/1/4 16/2/16 15/2/15 3/1/3
f 5/1/5 17/2/17 16/2/16 4/1/4
f 6/1/6 18/2/18 17/2/17 5/1/5
f 7/1/7 19/2/19 18/2/18 6/1/6
f 8/1/8 20/2/20 19/2/19 7/1/7
f 9/1/9 21/2/21 20/2/20 8/1/8
f 10/1/10 22/2/22 21/2/21 9/1/9
f 11/1/11 23/2/23 22/2/22 10/1/10
f 12/1/12 24/2/24 23/2/23 11/1/11
f 13/2/13 25/3/25 36/3/36 24/2/24
f 14/2/14 26/3/26 25/3/25 13/2/13
f 15/2/15 27/3/27 26/3/26 14/2/14
f 16/2/16 28/3/28 27/3/27 15/2/15
f 17/2/17 29/3/29 28/3/28 16/2/16
f 18/2/18 30/3/30 29/3/29 17/2/17
f 19/2/19 31/3/31 30/3/30 18/2/18
f 20/2/20 32/3/32 31/3/31 19/2/19
f 21/2/21 33/3/33 32/3/32 20/2/20
f 22/2/22 34/3/34 33/3/33 21/2/21
f 23/2/23 35/3/35 34/3/34 22/2/22
f 24/2/24 36/3/36 35/3/35 23/2/23
f 25/3/25 37/4/37 48/4/48 36/3/36
f 26/3/26 38/4/38 37/4/37 25/3/25
f 27/3/27 39/4/39 38/4/38 26/3/26
f 28/3/28 40/4/40 39/4/39 27/3/27
f 29/3/29 41/4/41 40/4/40 28/3/28
f 30/3/30 42/4/42 41/4/41 29/3/29
f 31/3/31 43/4/43 42/4/42 30/3/30
f 32/3/32 44/4/44 43/4/43 31/3/31
f 33/3/33 45/4/45 44/4/44 32/3/32
f 34/3/34 46/4/46 45/4/45 33/3/33
f 35/3/35 47/4/47 46/4/46 34/3/34
f 36/3/36 48/4/48 47/4/47 35/3/35
f 37/4/37 49/5/49 60/5/60 48/4/48
f 38/4/38 50/5/50 49/5/49 37/4/37
f 39/4/39 51/5/51 50/5/50 38/4/38
f 40/4/40 52/5/52 51/5/51 39/4/39
f 41/4/41 53/5/53 52/5/52 40/4/40
f 42/4/42 54/5/54 53/5/53 41/4/41
f 43/4/43 55/5/55 54/5/54 42/4/42
f 44/4/44 56/5/56 55/5/55 43/4/43
f 45/4/45 57/5/57 56/5/56 44/4/44
f 46/4/46 58/5/58 57/5/57 45/4/45
f 47/4/47 59/5/59 58/5/58 46/4/46
f 48/4/48 60/5/60 59/5/59 47/4/47
f 50/5/50 62/6/62 61/6/61 49/5/49
f 51/5/51 63/6/63 62/6/62 50/5/50
f 52/5/52 64/6/64 63/6/63 51/5/51
f 53/5/53 65/6/65 64/6/64 52/5/52
f 54/5/54 66/6/66 65/6/65 53/5/53
f 55/5/55 67/6/67 66/6/66 54/5/54
f 56/5/56 68/6/68 67/6/67 55/5/55
f 57/5/57 69/6/69 68/6/68 56/5/56
f 58/5/58 70/6/70 69/6/69 57/5/57
f 59/5/59 71/6/71 70/6/70 58/5/58
f 60/5/60 72/6/72 71/6/71 59/5/59
f 49/5/49 61/6/61 72/6/72 60/5/60
