# Blender 5.0.1
# www.blender.org
o BézierCurve.017
v -0.449030 -0.408870 -0.524856
v -0.577642 -0.349787 -0.383356
v -0.624736 -0.328161 -0.190047
v -0.577694 -0.349787 0.003274
v -0.449121 -0.408870 0.144808
v -0.273466 -0.489579 0.196631
v -0.097798 -0.570288 0.144856
v 0.030814 -0.629371 0.003357
v 0.077909 -0.650997 -0.189952
v 0.030866 -0.629371 -0.383274
v -0.097707 -0.570288 -0.524808
v -0.273361 -0.489579 -0.576631
v -0.179176 0.643747 -0.510520
v -0.313509 0.661360 -0.375072
v -0.362696 0.667808 -0.190030
v -0.313557 0.661365 -0.004975
v -0.179259 0.643756 0.130508
v 0.004213 0.619699 0.180116
v 0.187697 0.595642 0.130556
v 0.322031 0.578029 -0.004891
v 0.371218 0.571581 -0.189933
v 0.322079 0.578024 -0.374989
v 0.187781 0.595633 -0.510471
v 0.004309 0.619689 -0.560079
v -0.121880 1.641132 -0.480716
v -0.244561 1.634050 -0.357862
v -0.289481 1.631457 -0.190025
v -0.244604 1.634048 -0.022177
v -0.121955 1.641129 0.100709
v 0.045603 1.650803 0.145704
v 0.213173 1.660477 0.100753
v 0.335853 1.667559 -0.022101
v 0.380774 1.670152 -0.189938
v 0.335897 1.667561 -0.357786
v 0.213248 1.660480 -0.480672
v 0.045690 1.650806 -0.525667
v -0.291439 2.733929 -0.427064
v -0.386470 2.702142 -0.326883
v -0.421267 2.690503 -0.190021
v -0.386504 2.702131 -0.053148
v -0.291497 2.733911 0.047058
v -0.161704 2.777328 0.083750
v -0.031902 2.820746 0.047094
v 0.063130 2.852534 -0.053087
v 0.097927 2.864173 -0.189950
v 0.063165 2.852544 -0.326822
v -0.031842 2.820764 -0.427029
v -0.161636 2.777348 -0.463720
v -0.805681 3.803147 -0.327016
v -0.850610 3.766598 -0.269113
v -0.867061 3.753216 -0.190010
v -0.850626 3.766585 -0.110900
v -0.805709 3.803125 -0.052983
v -0.744345 3.853044 -0.031776
v -0.682976 3.902966 -0.052962
v -0.638047 3.939514 -0.110865
v -0.621596 3.952897 -0.189969
v -0.638031 3.939527 -0.269078
v -0.682948 3.902987 -0.326996
v -0.744312 3.853069 -0.348203
v -1.404969 4.468161 -0.193382
v -1.405801 4.466993 -0.191949
v -1.406106 4.466566 -0.189991
v -1.405802 4.466992 -0.188033
v -1.404969 4.468160 -0.186599
v -1.403833 4.469754 -0.186074
v -1.402696 4.471350 -0.186598
v -1.401864 4.472517 -0.188032
v -1.401560 4.472944 -0.189990
v -1.401864 4.472517 -0.191948
v -1.402696 4.471350 -0.193382
v -1.403832 4.469755 -0.193907
vn -0.4625 0.1303 -0.8770
vn -0.8316 0.2214 -0.5094
vn -0.9670 0.2546 -0.0001
vn -0.8317 0.2215 0.5092
vn -0.4627 0.1304 0.8769
vn 0.0338 0.0061 0.9994
vn 0.5144 -0.1156 0.8497
vn 0.8522 -0.2021 0.4827
vn 0.9725 -0.2330 0.0001
vn 0.8523 -0.2021 -0.4824
vn 0.5146 -0.1157 -0.8496
vn 0.0341 0.0061 -0.9994
vn -0.4801 0.0935 -0.8722
vn -0.8500 0.1469 -0.5059
vn -0.9861 0.1663 -0.0001
vn -0.8501 0.1469 0.5057
vn -0.4803 0.0935 0.8721
vn 0.0193 0.0208 0.9996
vn 0.5107 -0.0511 0.8582
vn 0.8644 -0.1030 0.4921
vn 0.9926 -0.1218 0.0001
vn 0.8645 -0.1030 -0.4919
vn 0.5109 -0.0512 -0.8581
vn 0.0196 0.0208 -0.9996
vn -0.4883 0.0107 -0.8726
vn -0.8618 -0.0145 -0.5071
vn -0.9997 -0.0237 -0.0001
vn -0.8619 -0.0145 0.5068
vn -0.4885 0.0107 0.8725
vn 0.0141 0.0447 0.9989
vn 0.5081 0.0781 0.8578
vn 0.8645 0.1021 0.4922
vn 0.9938 0.1108 0.0001
vn 0.8646 0.1021 -0.4920
vn 0.5083 0.0781 -0.8576
vn 0.0143 0.0447 -0.9989
vn -0.4774 -0.0874 -0.8743
vn -0.8341 -0.2109 -0.5097
vn -0.9665 -0.2566 -0.0001
vn -0.8343 -0.2109 0.5094
vn -0.4776 -0.0875 0.8742
vn -0.0012 0.0775 0.9970
vn 0.4639 0.2383 0.8533
vn 0.7977 0.3534 0.4886
vn 0.9187 0.3950 0.0001
vn 0.7978 0.3534 -0.4884
vn 0.4641 0.2383 -0.8531
vn -0.0009 0.0776 -0.9970
vn -0.4538 -0.1815 -0.8724
vn -0.7557 -0.4106 -0.5101
vn -0.8683 -0.4961 -0.0001
vn -0.7558 -0.4107 0.5099
vn -0.4539 -0.1816 0.8723
vn -0.0534 0.1221 0.9911
vn 0.3345 0.4167 0.8452
vn 0.6110 0.6273 0.4829
vn 0.7107 0.7035 0.0001
vn 0.6111 0.6274 -0.4826
vn 0.3347 0.4169 -0.8451
vn -0.0532 0.1223 -0.9911
vn -0.4414 -0.2231 -0.8691
vn -0.7016 -0.5003 -0.5074
vn -0.7978 -0.6029 -0.0001
vn -0.7017 -0.5004 0.5072
vn -0.4415 -0.2233 0.8690
vn -0.0948 0.1450 0.9849
vn 0.2383 0.4979 0.8339
vn 0.4717 0.7444 0.4725
vn 0.5547 0.8320 0.0001
vn 0.4718 0.7445 -0.4723
vn 0.2385 0.4980 -0.8337
vn -0.0946 0.1452 -0.9849
vt 0.452650 0.017225
vt 0.452650 0.207696
vt 0.452650 0.207696
vt 0.452650 0.017225
vt 0.452650 0.017225
vt 0.452650 0.207696
vt 0.452650 0.365134
vt 0.452650 0.365134
vt 0.452650 0.365134
vt 0.452650 0.555351
vt 0.452650 0.555351
vt 0.452650 0.555351
vt 0.452650 0.719734
vt 0.452650 0.719734
vt 0.452650 0.868951
s 1
f 2/1/2 14/2/14 13/3/13 1/1/1
f 3/1/3 15/2/15 14/2/14 2/1/2
f 4/1/4 16/2/16 15/2/15 3/1/3
f 5/1/5 17/3/17 16/2/16 4/1/4
f 6/4/6 18/3/18 17/3/17 5/1/5
f 7/5/7 19/6/19 18/3/18 6/4/6
f 8/5/8 20/6/20 19/6/19 7/5/7
f 9/5/9 21/6/21 20/6/20 8/5/8
f 10/5/10 22/6/22 21/6/21 9/5/9
f 11/5/11 23/6/23 22/6/22 10/5/10
f 12/4/12 24/3/24 23/6/23 11/5/11
f 1/1/1 13/3/13 24/3/24 12/4/12
f 13/3/13 25/7/25 36/8/36 24/3/24
f 14/2/14 26/7/26 25/7/25 13/3/13
f 15/2/15 27/7/27 26/7/26 14/2/14
f 16/2/16 28/7/28 27/7/27 15/2/15
f 17/3/17 29/7/29 28/7/28 16/2/16
f 18/3/18 30/8/30 29/7/29 17/3/17
f 19/6/19 31/8/31 30/8/30 18/3/18
f 20/6/20 32/9/32 31/8/31 19/6/19
f 21/6/21 33/9/33 32/9/32 20/6/20
f 22/6/22 34/9/34 33/9/33 21/6/21
f 23/6/23 35/8/35 34/9/34 22/6/22
f 24/3/24 36/8/36 35/8/35 23/6/23
f 25/7/25 37/10/37 48/10/48 36/8/36
f 26/7/26 38/11/38 37/10/37 25/7/25
f 27/7/27 39/11/39 38/11/38 26/7/26
f 28/7/28 40/11/40 39/11/39 27/7/27
f 29/7/29 41/10/41 40/11/40 28/7/28
f 30/8/30 42/10/42 41/10/41 29/7/29
f 31/8/31 43/10/43 42/10/42 30/8/30
f 32/9/32 44/12/44 43/10/43 31/8/31
f 33/9/33 45/12/45 44/12/44 32/9/32
f 34/9/34 46/12/46 45/12/45 33/9/33
f 35/8/35 47/10/47 46/12/46 34/9/34
f 36/8/36 48/10/48 47/10/47 35/8/35
f 37/10/37 49/13/49 60/14/60 48/10/48
f 38/11/38 50/13/50 49/13/49 37/10/37
f 39/11/39 51/13/51 50/13/50 38/11/38
f 40/11/40 52/13/52 51/13/51 39/11/39
f 41/10/41 53/13/53 52/13/52 40/11/40
f 42/10/42 54/14/54 53/13/53 41/10/41
f 43/10/43 55/14/55 54/14/54 42/10/42
f 44/12/44 56/14/56 55/14/55 43/10/43
f 45/12/45 57/14/57 56/14/56 44/12/44
f 46/12/46 58/14/58 57/14/57 45/12/45
f 47/10/47 59/14/59 58/14/58 46/12/46
f 48/10/48 60/14/60 59/14/59 47/10/47
f 50/13/50 62/15/62 61/15/61 49/13/49
f 51/13/51 63/15/63 62/15/62 50/13/50
f 52/13/52 64/15/64 63/15/63 51/13/51
f 53/13/53 65/15/65 64/15/64 52/13/52
f 54/14/54 66/15/66 65/15/65 53/13/53
f 55/14/55 67/15/67 66/15/66 54/14/54
f 56/14/56 68/15/68 67/15/67 55/14/55
f 57/14/57 69/15/69 68/15/68 56/14/56
f 58/14/58 70/15/70 69/15/69 57/14/57
f 59/14/59 71/15/71 70/15/70 58/14/58
f 60/14/60 72/15/72 71/15/71 59/14/59
f 49/13/49 61/15/61 72/15/72 60/14/60
