# Blender 5.0.1
# www.blender.org
o BézierCurve.019
v -0.391469 -0.353859 -0.482999
v -0.504005 -0.302162 -0.359187
v -0.545212 -0.283239 -0.190041
v -0.504050 -0.302162 -0.020885
v -0.391548 -0.353859 0.102957
v -0.237851 -0.424480 0.148302
v -0.084141 -0.495100 0.102999
v 0.028395 -0.546798 -0.020813
v 0.069602 -0.565721 -0.189958
v 0.028441 -0.546798 -0.359115
v -0.084061 -0.495100 -0.482957
v -0.237759 -0.424480 -0.528302
v -0.142798 0.393651 -0.475603
v -0.259834 0.423263 -0.354910
v -0.302686 0.434105 -0.190026
v -0.259875 0.423271 -0.025130
v -0.142870 0.393665 0.095594
v 0.016977 0.353219 0.139798
v 0.176835 0.312771 0.095636
v 0.293871 0.283159 -0.025056
v 0.336724 0.272317 -0.189941
v 0.293912 0.283150 -0.354837
v 0.176908 0.312757 -0.475561
v 0.017061 0.353203 -0.519764
v 0.040941 1.290941 -0.454914
v -0.070113 1.305312 -0.342963
v -0.110776 1.310574 -0.190021
v -0.070152 1.305317 -0.037068
v 0.040873 1.290950 0.074911
v 0.192550 1.271322 0.115913
v 0.344238 1.251692 0.074951
v 0.455291 1.237321 -0.037000
v 0.495954 1.232059 -0.189942
v 0.455330 1.237316 -0.342894
v 0.344305 1.251683 -0.454874
v 0.192628 1.271311 -0.495876
v 0.119246 2.336963 -0.416552
v 0.023529 2.333946 -0.320813
v -0.011518 2.332842 -0.190018
v 0.023496 2.333946 -0.059214
v 0.119188 2.336963 0.036550
v 0.249917 2.341084 0.071614
v 0.380656 2.345205 0.036584
v 0.476372 2.348222 -0.059156
v 0.511420 2.349326 -0.189950
v 0.476407 2.348222 -0.320754
v 0.380714 2.345205 -0.416518
v 0.249984 2.341084 -0.451582
v 0.071216 3.059477 -0.374299
v -0.005450 3.045644 -0.296415
v -0.033521 3.040580 -0.190014
v -0.005477 3.045640 -0.083606
v 0.071169 3.059470 -0.005702
v 0.175880 3.078363 0.022822
v 0.280597 3.097257 -0.005675
v 0.357263 3.111090 -0.083558
v 0.385334 3.116154 -0.189960
v 0.357290 3.111094 -0.296368
v 0.280644 3.097264 -0.374272
v 0.175933 3.078371 -0.402797
v -0.085091 3.767738 -0.309888
v -0.132321 3.749366 -0.259223
v -0.149615 3.742638 -0.190007
v -0.132338 3.749359 -0.120787
v -0.085120 3.767728 -0.070109
v -0.020612 3.792821 -0.051553
v 0.043899 3.817917 -0.070091
v 0.091129 3.836289 -0.120756
v 0.108423 3.843016 -0.189972
v 0.091146 3.836295 -0.259192
v 0.043928 3.817927 -0.309870
v -0.020580 3.792834 -0.328426
v -0.368927 4.447390 -0.192958
v -0.369953 4.446669 -0.191704
v -0.370329 4.446404 -0.189991
v -0.369954 4.446669 -0.188277
v -0.368928 4.447390 -0.187023
v -0.367526 4.448374 -0.186563
v -0.366123 4.449359 -0.187023
v -0.365097 4.450081 -0.188277
v -0.364721 4.450345 -0.189990
v -0.365097 4.450081 -0.191704
v -0.366123 4.449360 -0.192958
v -0.367525 4.448375 -0.193417
vn -0.4596 0.1614 -0.8734
vn -0.8161 0.2777 -0.5068
vn -0.9473 0.3203 -0.0001
vn -0.8162 0.2777 0.5066
vn -0.4598 0.1615 0.8732
vn 0.0212 0.0038 0.9998
vn 0.4929 -0.1515 0.8568
vn 0.8308 -0.2632 0.4904
vn 0.9528 -0.3036 0.0001
vn 0.8310 -0.2632 -0.4902
vn 0.4931 -0.1515 -0.8567
vn 0.0215 0.0038 -0.9998
vn -0.4723 0.1408 -0.8701
vn -0.8315 0.2336 -0.5041
vn -0.9635 0.2677 -0.0001
vn -0.8316 0.2337 0.5038
vn -0.4725 0.1408 0.8700
vn 0.0142 0.0147 0.9998
vn 0.4959 -0.1104 0.8613
vn 0.8451 -0.2013 0.4953
vn 0.9722 -0.2343 0.0001
vn 0.8452 -0.2013 -0.4951
vn 0.4961 -0.1105 -0.8612
vn 0.0144 0.0147 -0.9998
vn -0.4838 0.0934 -0.8702
vn -0.8522 0.1389 -0.5044
vn -0.9878 0.1557 -0.0001
vn -0.8523 0.1389 0.5042
vn -0.4841 0.0934 0.8700
vn 0.0145 0.0319 0.9994
vn 0.5078 -0.0291 0.8610
vn 0.8657 -0.0733 0.4952
vn 0.9960 -0.0894 0.0001
vn 0.8658 -0.0733 -0.4950
vn 0.5080 -0.0291 -0.8608
vn 0.0148 0.0318 -0.9994
vn -0.4913 0.0433 -0.8699
vn -0.8626 0.0360 -0.5045
vn -0.9994 0.0333 -0.0001
vn -0.8628 0.0360 0.5043
vn -0.4915 0.0433 0.8698
vn 0.0105 0.0534 0.9985
vn 0.5067 0.0636 0.8598
vn 0.8663 0.0712 0.4944
vn 0.9973 0.0740 0.0001
vn 0.8664 0.0712 -0.4942
vn 0.5069 0.0636 -0.8597
vn 0.0107 0.0534 -0.9985
vn -0.4953 -0.0061 -0.8687
vn -0.8607 -0.0724 -0.5040
vn -0.9953 -0.0967 -0.0001
vn -0.8608 -0.0724 0.5038
vn -0.4955 -0.0062 0.8686
vn -0.0022 0.0834 0.9965
vn 0.4848 0.1719 0.8576
vn 0.8375 0.2360 0.4929
vn 0.9658 0.2593 0.0001
vn 0.8376 0.2360 -0.4927
vn 0.4850 0.1719 -0.8575
vn -0.0020 0.0834 -0.9965
vn -0.4954 -0.0439 -0.8675
vn -0.8439 -0.1799 -0.5055
vn -0.9731 -0.2304 -0.0001
vn -0.8440 -0.1800 0.5053
vn -0.4956 -0.0440 0.8674
vn -0.0295 0.1376 0.9900
vn 0.4263 0.3147 0.8481
vn 0.7541 0.4418 0.4859
vn 0.8729 0.4879 0.0001
vn 0.7542 0.4419 -0.4857
vn 0.4265 0.3148 -0.8479
vn -0.0293 0.1377 -0.9900
vn -0.4956 -0.0579 -0.8666
vn -0.8302 -0.2340 -0.5059
vn -0.9542 -0.2993 -0.0001
vn -0.8304 -0.2340 0.5057
vn -0.4958 -0.0580 0.8665
vn -0.0502 0.1759 0.9831
vn 0.3790 0.4006 0.8342
vn 0.6810 0.5584 0.4737
vn 0.7888 0.6146 0.0001
vn 0.6811 0.5584 -0.4735
vn 0.3792 0.4007 -0.8341
vn -0.0500 0.1760 -0.9831
vt 0.453113 0.014815
vt 0.453113 0.165980
vt 0.453113 0.337776
vt 0.453113 0.527410
vt 0.453113 0.663600
vt 0.453113 0.785886
vt 0.453113 0.922208
s 1
f 1/1/1 13/2/13 24/2/24 12/1/12
f 2/1/2 14/2/14 13/2/13 1/1/1
f 3/1/3 15/2/15 14/2/14 2/1/2
f 4/1/4 16/2/16 15/2/15 3/1/3
f 5/1/5 17/2/17 16/2/16 4/1/4
f 6/1/6 18/2/18 17/2/17 5/1/5
f 7/1/7 19/2/19 18/2/18 6/1/6
f 8/1/8 20/2/20 19/2/19 7/1/7
f 9/1/9 21/2/21 20/2/20 8/1/8
f 10/1/10 22/2/22 21/2/21 9/1/9
f 11/1/11 23/2/23 22/2/22 10/1/10
f 12/1/12 24/2/24 23/2/23 11/1/11
f 13/2/13 25/3/25 36/3/36 24/2/24
f 14/2/14 26/3/26 25/3/25 13/2/13
f 15/2/15 27/3/27 26/3/26 14/2/14
f 16/2/16 28/3/28 27/3/27 15/2/15
f 17/2/17 29/3/29 28/3/28 16/2/16
f 18/2/18 30/3/30 29/3/29 17/2/17
f 19/2/19 31/3/31 30/3/30 18/2/18
f 20/2/20 32/3/32 31/3/31 19/2/19
f 21/2/21 33/3/33 32/3/32 20/2/20
f 22/2/22 34/3/34 33/3/33 21/2/21
f 23/2/23 35/3/35 34/3/34 22/2/22
f 24/2/24 36/3/36 35/3/35 23/2/23
f 25/3/25 37/4/37 48/4/48 36/3/36
f 26/3/26 38/4/38 37/4/37 25/3/25
f 27/3/27 39/4/39 38/4/38 26/3/26
f 28/3/28 40/4/40 39/4/39 27/3/27
f 29/3/29 41/4/41 40/4/40 28/3/28
f 30/3/30 42/4/42 41/4/41 29/3/29
f 31/3/31 43/4/43 42/4/42 30/3/30
f 32/3/32 44/4/44 43/4/43 31/3/31
f 33/3/33 45/4/45 44/4/44 32/3/32
f 34/3/34 46/4/46 45/4/45 33/3/33
f 35/3/35 47/4/47 46/4/46 34/3/34
f 36/3/36 48/4/48 47/4/47 35/3/35
f 38/4/38 50/5/50 49/5/49 37/4/37
f 39/4/39 51/5/51 50/5/50 38/4/38
f 40/4/40 52/5/52 51/5/51 39/4/39
f 41/4/41 53/5/53 52/5/52 40/4/40
f 42/4/42 54/5/54 53/5/53 41/4/41
f 43/4/43 55/5/55 54/5/54 42/4/42
f 44/4/44 56/5/56 55/5/55 43/4/43
f 45/4/45 57/5/57 56/5/56 44/4/44
f 46/4/46 58/5/58 57/5/57 45/4/45
f 47/4/47 59/5/59 58/5/58 46/4/46
f 48/4/48 60/5/60 59/5/59 47/4/47
f 50/5/50 62/6/62 61/6/61 49/5/49
f 51/5/51 63/6/63 62/6/62 50/5/50
f 52/5/52 64/6/64 63/6/63 51/5/51
f 53/5/53 65/6/65 64/6/64 52/5/52
f 54/5/54 66/6/66 65/6/65 53/5/53
f 55/5/55 67/6/67 66/6/66 54/5/54
f 56/5/56 68/6/68 67/6/67 55/5/55
f 57/5/57 69/6/69 68/6/68 56/5/56
f 58/5/58 70/6/70 69/6/69 57/5/57
f 59/5/59 71/6/71 70/6/70 58/5/58
f 60/5/60 72/6/72 71/6/71 59/5/59
f 37/4/37 49/5/49 60/5/60 48/4/48
f 62/6/62 74/7/74 73/7/73 61/6/61
f 63/6/63 75/7/75 74/7/74 62/6/62
f 64/6/64 76/7/76 75/7/75 63/6/63
f 65/6/65 77/7/77 76/7/76 64/6/64
f 66/6/66 78/7/78 77/7/77 65/6/65
f 67/6/67 79/7/79 78/7/78 66/6/66
f 68/6/68 80/7/80 79/7/79 67/6/67
f 69/6/69 81/7/81 80/7/80 68/6/68
f 70/6/70 82/7/82 81/7/81 69/6/69
f 71/6/71 83/7/83 82/7/82 70/6/70
f 72/6/72 84/7/84 83/7/83 71/6/71
f 49/5/49 61/6/61 72/6/72 60/5/60
f 61/6/61 73/7/73 84/7/84 72/6/72
