# Blender 5.0.1
# www.blender.org
o BézierCurve.023
v -0.406391 -0.323409 -0.537413
v -0.539826 -0.262110 -0.390607
v -0.588687 -0.239673 -0.190050
v -0.539880 -0.262110 0.010522
v -0.406485 -0.323409 0.157364
v -0.224244 -0.407144 0.211129
v -0.041988 -0.490880 0.157413
v 0.091447 -0.552178 0.010608
v 0.140308 -0.574615 -0.189950
v 0.091502 -0.552178 -0.390522
v -0.041894 -0.490880 -0.537363
v -0.224135 -0.407144 -0.591129
v -0.145457 0.386593 -0.528646
v -0.282892 0.426614 -0.385539
v -0.333215 0.441266 -0.190033
v -0.282941 0.426625 0.005487
v -0.145541 0.386612 0.148630
v 0.042168 0.331950 0.201043
v 0.229890 0.277286 0.148680
v 0.367325 0.237265 0.005573
v 0.417648 0.222612 -0.189933
v 0.367374 0.237254 -0.385453
v 0.229974 0.277266 -0.528597
v 0.042265 0.331928 -0.581009
v 0.107100 1.529627 -0.491618
v -0.019651 1.543369 -0.364157
v -0.066061 1.548401 -0.190026
v -0.019695 1.543375 -0.015883
v 0.107024 1.529637 0.111610
v 0.280140 1.510868 0.158292
v 0.453268 1.492097 0.111654
v 0.580019 1.478355 -0.015807
v 0.626429 1.473323 -0.189938
v 0.580063 1.478349 -0.364080
v 0.453345 1.492088 -0.491574
v 0.280228 1.510857 -0.538256
v 0.155627 2.525305 -0.435954
v 0.052071 2.516098 -0.332016
v 0.014154 2.512727 -0.190021
v 0.052035 2.516096 -0.048017
v 0.155565 2.525302 0.055947
v 0.297001 2.537878 0.094014
v 0.438448 2.550455 0.055983
v 0.542004 2.559662 -0.047954
v 0.579921 2.563033 -0.189950
v 0.542040 2.559664 -0.331954
v 0.438510 2.550458 -0.435919
v 0.297074 2.537882 -0.473986
v -0.012455 3.543796 -0.332155
v -0.068412 3.521902 -0.272080
v -0.088902 3.513885 -0.190010
v -0.068431 3.521895 -0.107934
v -0.012487 3.543784 -0.047845
v 0.063941 3.573687 -0.025843
v 0.140375 3.603592 -0.047824
v 0.196333 3.625487 -0.107899
v 0.216823 3.633503 -0.189969
v 0.196352 3.625494 -0.272045
v 0.140408 3.603605 -0.332134
v 0.063980 3.573701 -0.354136
v -0.281446 4.217456 -0.193509
v -0.282663 4.216601 -0.192023
v -0.283108 4.216288 -0.189991
v -0.282663 4.216601 -0.187959
v -0.281447 4.217456 -0.186472
v -0.279784 4.218624 -0.185927
v -0.278122 4.219792 -0.186471
v -0.276905 4.220647 -0.187958
v -0.276459 4.220960 -0.189990
v -0.276904 4.220647 -0.192022
v -0.278121 4.219792 -0.193509
v -0.279783 4.218625 -0.194054
vn -0.4567 0.1785 -0.8715
vn -0.8073 0.3049 -0.5052
vn -0.9363 0.3513 -0.0001
vn -0.8075 0.3049 0.5050
vn -0.4569 0.1786 0.8714
vn 0.0175 0.0073 0.9998
vn 0.4852 -0.1619 0.8593
vn 0.8223 -0.2841 0.4930
vn 0.9445 -0.3285 0.0001
vn 0.8224 -0.2842 -0.4928
vn 0.4854 -0.1620 -0.8592
vn 0.0178 0.0072 -0.9998
vn -0.4665 0.1562 -0.8706
vn -0.8243 0.2566 -0.5047
vn -0.9560 0.2935 -0.0001
vn -0.8244 0.2566 0.5045
vn -0.4667 0.1563 0.8705
vn 0.0173 0.0202 0.9996
vn 0.4959 -0.1145 0.8608
vn 0.8426 -0.2122 0.4949
vn 0.9688 -0.2478 0.0001
vn 0.8427 -0.2123 -0.4947
vn 0.4961 -0.1145 -0.8607
vn 0.0176 0.0202 -0.9996
vn -0.4804 0.1027 -0.8710
vn -0.8507 0.1443 -0.5055
vn -0.9872 0.1596 -0.0001
vn -0.8508 0.1443 0.5053
vn -0.4806 0.1028 0.8709
vn 0.0190 0.0469 0.9987
vn 0.5118 -0.0080 0.8590
vn 0.8684 -0.0476 0.4936
vn 0.9981 -0.0620 0.0001
vn 0.8685 -0.0476 -0.4934
vn 0.5121 -0.0080 -0.8589
vn 0.0193 0.0469 -0.9987
vn -0.4906 0.0399 -0.8705
vn -0.8625 0.0042 -0.5060
vn -1.0000 -0.0090 -0.0001
vn -0.8626 0.0041 0.5058
vn -0.4908 0.0399 0.8704
vn 0.0092 0.0881 0.9961
vn 0.5004 0.1355 0.8551
vn 0.8547 0.1695 0.4907
vn 0.9833 0.1818 0.0001
vn 0.8548 0.1695 -0.4905
vn 0.5006 0.1355 -0.8550
vn 0.0095 0.0882 -0.9961
vn -0.4996 -0.0085 -0.8662
vn -0.8521 -0.1356 -0.5056
vn -0.9831 -0.1829 -0.0001
vn -0.8522 -0.1356 0.5053
vn -0.4998 -0.0085 0.8661
vn -0.0302 0.1607 0.9865
vn 0.4271 0.3257 0.8435
vn 0.7548 0.4442 0.4827
vn 0.8733 0.4871 0.0001
vn 0.7549 0.4442 -0.4825
vn 0.4273 0.3258 -0.8434
vn -0.0299 0.1608 -0.9865
vn -0.5070 -0.0251 -0.8616
vn -0.8402 -0.2011 -0.5035
vn -0.9638 -0.2665 -0.0001
vn -0.8404 -0.2012 0.5033
vn -0.5072 -0.0252 0.8615
vn -0.0644 0.2079 0.9760
vn 0.3608 0.4311 0.8270
vn 0.6594 0.5874 0.4692
vn 0.7658 0.6431 0.0001
vn 0.6595 0.5875 -0.4690
vn 0.3610 0.4312 -0.8269
vn -0.0642 0.2080 -0.9760
vt 0.452637 0.017802
vt 0.452637 0.145361
vt 0.452637 0.340392
vt 0.452637 0.493367
vt 0.452637 0.664415
vt 0.452637 0.758321
vt 0.452637 0.758496
vt 0.452637 0.758294
vt 0.452637 0.758670
vt 0.452637 0.758697
s 1
f 1/1/1 13/2/13 24/2/24 12/1/12
f 2/1/2 14/2/14 13/2/13 1/1/1
f 3/1/3 15/2/15 14/2/14 2/1/2
f 4/1/4 16/2/16 15/2/15 3/1/3
f 5/1/5 17/2/17 16/2/16 4/1/4
f 6/1/6 18/2/18 17/2/17 5/1/5
f 7/1/7 19/2/19 18/2/18 6/1/6
f 8/1/8 20/2/20 19/2/19 7/1/7
f 9/1/9 21/2/21 20/2/20 8/1/8
f 10/1/10 22/2/22 21/2/21 9/1/9
f 11/1/11 23/2/23 22/2/22 10/1/10
f 12/1/12 24/2/24 23/2/23 11/1/11
f 13/2/13 25/3/25 36/3/36 24/2/24
f 14/2/14 26/3/26 25/3/25 13/2/13
f 15/2/15 27/3/27 26/3/26 14/2/14
f 16/2/16 28/3/28 27/3/27 15/2/15
f 17/2/17 29/3/29 28/3/28 16/2/16
f 18/2/18 30/3/30 29/3/29 17/2/17
f 19/2/19 31/3/31 30/3/30 18/2/18
f 20/2/20 32/3/32 31/3/31 19/2/19
f 21/2/21 33/3/33 32/3/32 20/2/20
f 22/2/22 34/3/34 33/3/33 21/2/21
f 23/2/23 35/3/35 34/3/34 22/2/22
f 24/2/24 36/3/36 35/3/35 23/2/23
f 25/3/25 37/4/37 48/4/48 36/3/36
f 26/3/26 38/4/38 37/4/37 25/3/25
f 27/3/27 39/4/39 38/4/38 26/3/26
f 28/3/28 40/4/40 39/4/39 27/3/27
f 29/3/29 41/4/41 40/4/40 28/3/28
f 30/3/30 42/4/42 41/4/41 29/3/29
f 31/3/31 43/4/43 42/4/42 30/3/30
f 32/3/32 44/4/44 43/4/43 31/3/31
f 33/3/33 45/4/45 44/4/44 32/3/32
f 34/3/34 46/4/46 45/4/45 33/3/33
f 35/3/35 47/4/47 46/4/46 34/3/34
f 36/3/36 48/4/48 47/4/47 35/3/35
f 37/4/37 49/5/49 60/5/60 48/4/48
f 38/4/38 50/5/50 49/5/49 37/4/37
f 39/4/39 51/5/51 50/5/50 38/4/38
f 40/4/40 52/5/52 51/5/51 39/4/39
f 41/4/41 53/5/53 52/5/52 40/4/40
f 42/4/42 54/5/54 53/5/53 41/4/41
f 43/4/43 55/5/55 54/5/54 42/4/42
f 44/4/44 56/5/56 55/5/55 43/4/43
f 45/4/45 57/5/57 56/5/56 44/4/44
f 46/4/46 58/5/58 57/5/57 45/4/45
f 47/4/47 59/5/59 58/5/58 46/4/46
f 48/4/48 60/5/60 59/5/59 47/4/47
f 50/5/50 62/6/62 61/7/61 49/5/49
f 51/5/51 63/8/63 62/6/62 50/5/50
f 52/5/52 64/6/64 63/8/63 51/5/51
f 53/5/53 65/7/65 64/6/64 52/5/52
f 54/5/54 66/7/66 65/7/65 53/5/53
f 55/5/55 67/7/67 66/7/66 54/5/54
f 56/5/56 68/9/68 67/7/67 55/5/55
f 57/5/57 69/10/69 68/9/68 56/5/56
f 58/5/58 70/9/70 69/10/69 57/5/57
f 59/5/59 71/7/71 70/9/70 58/5/58
f 60/5/60 72/7/72 71/7/71 59/5/59
f 49/5/49 61/7/61 72/7/72 60/5/60
