# Blender 5.0.1
# www.blender.org
o BézierCurve.020
v -0.308146 -0.219699 -0.482999
v -0.420681 -0.168002 -0.359187
v -0.461889 -0.149079 -0.190041
v -0.420727 -0.168001 -0.020885
v -0.308225 -0.219699 0.102957
v -0.154527 -0.290319 0.148302
v -0.000818 -0.360940 0.102999
v 0.111718 -0.412638 -0.020813
v 0.152926 -0.431560 -0.189958
v 0.111764 -0.412638 -0.359115
v -0.000738 -0.360940 -0.482957
v -0.154436 -0.290320 -0.528302
v -0.044415 0.700490 -0.470452
v -0.161359 0.719923 -0.351936
v -0.204179 0.727038 -0.190024
v -0.161401 0.719929 -0.028100
v -0.044488 0.700499 0.090447
v 0.115234 0.673957 0.133854
v 0.274966 0.647412 0.090489
v 0.391910 0.627979 -0.028028
v 0.434730 0.620863 -0.189940
v 0.391952 0.627973 -0.351863
v 0.275039 0.647402 -0.470410
v 0.115318 0.673945 -0.513817
v 0.040913 1.539316 -0.444374
v -0.066611 1.539062 -0.336877
v -0.105982 1.538970 -0.190020
v -0.066649 1.539063 -0.043152
v 0.040847 1.539317 0.064373
v 0.187704 1.539663 0.103743
v 0.334572 1.540009 0.064411
v 0.442096 1.540262 -0.043086
v 0.481467 1.540355 -0.189944
v 0.442134 1.540262 -0.336811
v 0.334638 1.540008 -0.444336
v 0.187781 1.539662 -0.483707
v -0.033549 2.478028 -0.397430
v -0.119026 2.458492 -0.309771
v -0.150324 2.451339 -0.190017
v -0.119056 2.458486 -0.070253
v -0.033602 2.478018 0.017428
v 0.083143 2.504700 0.049532
v 0.199895 2.531385 0.017459
v 0.285372 2.550921 -0.070200
v 0.316670 2.558074 -0.189955
v 0.285403 2.550927 -0.309718
v 0.199948 2.531395 -0.397399
v 0.083204 2.504712 -0.429503
v -0.348524 3.439833 -0.309888
v -0.392532 3.414704 -0.259223
v -0.408646 3.405503 -0.190007
v -0.392548 3.414696 -0.120787
v -0.348551 3.439819 -0.070109
v -0.288444 3.474141 -0.051553
v -0.228332 3.508465 -0.070091
v -0.184324 3.533595 -0.120756
v -0.168210 3.542796 -0.189972
v -0.184308 3.533603 -0.259192
v -0.228306 3.508480 -0.309870
v -0.288412 3.474158 -0.328426
v -0.730215 4.074846 -0.192958
v -0.731137 4.073995 -0.191704
v -0.731474 4.073683 -0.189991
v -0.731137 4.073994 -0.188277
v -0.730216 4.074845 -0.187023
v -0.728957 4.076008 -0.186563
v -0.727699 4.077171 -0.187023
v -0.726777 4.078022 -0.188277
v -0.726440 4.078334 -0.189990
v -0.726777 4.078022 -0.191704
v -0.727698 4.077171 -0.192958
v -0.728956 4.076009 -0.193417
vn -0.4612 0.1440 -0.8755
vn -0.8255 0.2452 -0.5083
vn -0.9593 0.2823 -0.0001
vn -0.8256 0.2453 0.5081
vn -0.4614 0.1440 0.8754
vn 0.0294 0.0066 0.9995
vn 0.5069 -0.1281 0.8524
vn 0.8450 -0.2240 0.4856
vn 0.9660 -0.2585 0.0001
vn 0.8451 -0.2241 -0.4853
vn 0.5071 -0.1281 -0.8523
vn 0.0297 0.0065 -0.9995
vn -0.4769 0.1113 -0.8719
vn -0.8441 0.1779 -0.5057
vn -0.9793 0.2023 -0.0001
vn -0.8443 0.1779 0.5055
vn -0.4772 0.1113 0.8717
vn 0.0188 0.0211 0.9996
vn 0.5074 -0.0680 0.8590
vn 0.8599 -0.1323 0.4930
vn 0.9878 -0.1556 0.0001
vn 0.8600 -0.1323 -0.4928
vn 0.5076 -0.0681 -0.8589
vn 0.0191 0.0210 -0.9996
vn -0.4886 0.0407 -0.8716
vn -0.8617 0.0374 -0.5060
vn -0.9993 0.0362 -0.0001
vn -0.8618 0.0374 0.5058
vn -0.4888 0.0407 0.8715
vn 0.0143 0.0452 0.9989
vn 0.5100 0.0497 0.8587
vn 0.8683 0.0529 0.4932
vn 0.9985 0.0541 0.0001
vn 0.8684 0.0529 -0.4930
vn 0.5102 0.0497 -0.8586
vn 0.0145 0.0452 -0.9989
vn -0.4877 -0.0370 -0.8722
vn -0.8528 -0.1232 -0.5075
vn -0.9879 -0.1550 -0.0001
vn -0.8529 -0.1232 0.5073
vn -0.4879 -0.0371 0.8721
vn 0.0018 0.0785 0.9969
vn 0.4820 0.1916 0.8550
vn 0.8277 0.2729 0.4903
vn 0.9532 0.3024 0.0001
vn 0.8278 0.2730 -0.4901
vn 0.4822 0.1916 -0.8549
vn 0.0021 0.0785 -0.9969
vn -0.4832 -0.1042 -0.8693
vn -0.8145 -0.2816 -0.5071
vn -0.9377 -0.3476 -0.0001
vn -0.8147 -0.2817 0.5069
vn -0.4834 -0.1043 0.8692
vn -0.0415 0.1322 0.9904
vn 0.3889 0.3628 0.8469
vn 0.6972 0.5282 0.4846
vn 0.8087 0.5882 0.0001
vn 0.6973 0.5283 -0.4844
vn 0.3891 0.3629 -0.8467
vn -0.0413 0.1323 -0.9904
vn -0.4828 -0.1308 -0.8659
vn -0.7876 -0.3528 -0.5051
vn -0.9004 -0.4351 -0.0001
vn -0.7877 -0.3529 0.5049
vn -0.4830 -0.1309 0.8658
vn -0.0764 0.1647 0.9834
vn 0.3162 0.4494 0.8355
vn 0.5932 0.6500 0.4750
vn 0.6923 0.7216 0.0001
vn 0.5933 0.6501 -0.4747
vn 0.3164 0.4496 -0.8353
vn -0.0762 0.1648 -0.9834
vt 0.453218 0.016077
vt 0.453218 0.233748
vt 0.453217 0.233748
vt 0.453217 0.016077
vt 0.453219 0.016077
vt 0.453219 0.233748
vt 0.453220 0.016077
vt 0.453219 0.233748
vt 0.453215 0.016077
vt 0.453215 0.233748
vt 0.453214 0.016077
vt 0.453214 0.233748
vt 0.453214 0.016077
vt 0.453214 0.233748
vt 0.453218 0.410009
vt 0.453217 0.410009
vt 0.453219 0.410009
vt 0.453219 0.410009
vt 0.453216 0.410009
vt 0.453215 0.410009
vt 0.453214 0.410009
vt 0.453217 0.620287
vt 0.453216 0.620287
vt 0.453218 0.620287
vt 0.453215 0.620287
vt 0.453214 0.620287
vt 0.453214 0.620287
vt 0.453217 0.825153
vt 0.453217 0.825153
vt 0.453218 0.825153
vt 0.453216 0.825153
vt 0.453216 0.825153
vt 0.453218 0.984830
s 1
f 1/1/1 13/2/13 24/3/24 12/4/12
f 2/5/2 14/6/14 13/2/13 1/1/1
f 3/7/3 15/8/15 14/6/14 2/5/2
f 4/5/4 16/6/16 15/8/15 3/7/3
f 5/1/5 17/2/17 16/6/16 4/5/4
f 6/4/6 18/3/18 17/2/17 5/1/5
f 7/9/7 19/10/19 18/3/18 6/4/6
f 8/11/8 20/12/20 19/10/19 7/9/7
f 9/13/9 21/14/21 20/12/20 8/11/8
f 10/11/10 22/12/22 21/14/21 9/13/9
f 11/9/11 23/10/23 22/12/22 10/11/10
f 12/4/12 24/3/24 23/10/23 11/9/11
f 13/2/13 25/15/25 36/16/36 24/3/24
f 14/6/14 26/17/26 25/15/25 13/2/13
f 15/8/15 27/18/27 26/17/26 14/6/14
f 16/6/16 28/17/28 27/18/27 15/8/15
f 17/2/17 29/15/29 28/17/28 16/6/16
f 18/3/18 30/16/30 29/15/29 17/2/17
f 19/10/19 31/19/31 30/16/30 18/3/18
f 20/12/20 32/20/32 31/19/31 19/10/19
f 21/14/21 33/21/33 32/20/32 20/12/20
f 22/12/22 34/20/34 33/21/33 21/14/21
f 23/10/23 35/19/35 34/20/34 22/12/22
f 24/3/24 36/16/36 35/19/35 23/10/23
f 25/15/25 37/22/37 48/23/48 36/16/36
f 26/17/26 38/24/38 37/22/37 25/15/25
f 27/18/27 39/24/39 38/24/38 26/17/26
f 28/17/28 40/24/40 39/24/39 27/18/27
f 29/15/29 41/22/41 40/24/40 28/17/28
f 30/16/30 42/23/42 41/22/41 29/15/29
f 31/19/31 43/25/43 42/23/42 30/16/30
f 32/20/32 44/26/44 43/25/43 31/19/31
f 33/21/33 45/27/45 44/26/44 32/20/32
f 34/20/34 46/26/46 45/27/45 33/21/33
f 35/19/35 47/25/47 46/26/46 34/20/34
f 36/16/36 48/23/48 47/25/47 35/19/35
f 37/22/37 49/28/49 60/29/60 48/23/48
f 38/24/38 50/30/50 49/28/49 37/22/37
f 39/24/39 51/30/51 50/30/50 38/24/38
f 40/24/40 52/30/52 51/30/51 39/24/39
f 41/22/41 53/28/53 52/30/52 40/24/40
f 42/23/42 54/29/54 53/28/53 41/22/41
f 43/25/43 55/31/55 54/29/54 42/23/42
f 44/26/44 56/32/56 55/31/55 43/25/43
f 45/27/45 57/32/57 56/32/56 44/26/44
f 46/26/46 58/32/58 57/32/57 45/27/45
f 47/25/47 59/31/59 58/32/58 46/26/46
f 48/23/48 60/29/60 59/31/59 47/25/47
f 50/30/50 62/33/62 61/33/61 49/28/49
f 51/30/51 63/33/63 62/33/62 50/30/50
f 52/30/52 64/33/64 63/33/63 51/30/51
f 53/28/53 65/33/65 64/33/64 52/30/52
f 54/29/54 66/33/66 65/33/65 53/28/53
f 55/31/55 67/33/67 66/33/66 54/29/54
f 56/32/56 68/33/68 67/33/67 55/31/55
f 57/32/57 69/33/69 68/33/68 56/32/56
f 58/32/58 70/33/70 69/33/69 57/32/57
f 59/31/59 71/33/71 70/33/70 58/32/58
f 60/29/60 72/33/72 71/33/71 59/31/59
f 49/28/49 61/33/61 72/33/72 60/29/60
