# Blender 5.0.1
# www.blender.org
o BézierCurve.018
v -0.376259 -0.433473 -0.587641
v -0.528986 -0.363312 -0.419611
v -0.584911 -0.337631 -0.190056
v -0.529048 -0.363312 0.039513
v -0.376367 -0.433473 0.207585
v -0.167777 -0.529315 0.269124
v 0.040829 -0.625156 0.207642
v 0.193557 -0.695317 0.039611
v 0.249481 -0.720998 -0.189943
v 0.193618 -0.695318 -0.419513
v 0.040937 -0.625157 -0.587585
v -0.167652 -0.529315 -0.649124
v 0.004099 0.643528 -0.570619
v -0.152223 0.681576 -0.409775
v -0.209461 0.695507 -0.190037
v -0.152277 0.681588 0.029715
v 0.004004 0.643549 0.190600
v 0.217509 0.591582 0.249509
v 0.431028 0.539613 0.190656
v 0.587350 0.501565 0.029811
v 0.644587 0.487635 -0.189926
v 0.587404 0.501553 -0.409679
v 0.431122 0.539592 -0.570564
v 0.217618 0.591559 -0.629472
v 0.176211 1.651157 -0.535228
v 0.030441 1.657898 -0.389339
v -0.022932 1.660366 -0.190032
v 0.030391 1.657901 0.009288
v 0.176124 1.651163 0.155214
v 0.375218 1.641957 0.208645
v 0.574325 1.632750 0.155264
v 0.720095 1.626010 0.009376
v 0.773470 1.623541 -0.189931
v 0.720147 1.626007 -0.389251
v 0.574413 1.632745 -0.535177
v 0.375319 1.641951 -0.588608
v 0.112506 2.757944 -0.471516
v -0.002783 2.728477 -0.352551
v -0.044996 2.717688 -0.190026
v -0.002823 2.728467 -0.027491
v 0.112437 2.757928 0.091504
v 0.269899 2.798176 0.135075
v 0.427372 2.838426 0.091545
v 0.542661 2.867893 -0.027420
v 0.584874 2.878682 -0.189944
v 0.542701 2.867902 -0.352480
v 0.427441 2.838441 -0.471475
v 0.269979 2.798194 -0.515045
v -0.342762 3.857435 -0.352708
v -0.397105 3.815279 -0.283949
v -0.417002 3.799844 -0.190013
v -0.397124 3.815265 -0.096070
v -0.342795 3.857411 -0.027294
v -0.268573 3.914989 -0.002111
v -0.194347 3.972569 -0.027270
v -0.140004 4.014726 -0.096030
v -0.120107 4.030161 -0.189966
v -0.139985 4.014740 -0.283908
v -0.194314 3.972594 -0.352685
v -0.268536 3.915017 -0.377868
v -0.953564 4.564024 -0.194019
v -0.954553 4.562639 -0.192316
v -0.954915 4.562131 -0.189991
v -0.954553 4.562638 -0.187666
v -0.953564 4.564024 -0.185963
v -0.952214 4.565917 -0.185340
v -0.950863 4.567810 -0.185962
v -0.949874 4.569195 -0.187664
v -0.949512 4.569703 -0.189990
v -0.949874 4.569196 -0.192315
v -0.950863 4.567810 -0.194018
v -0.952213 4.565917 -0.194641
vn -0.4568 0.1751 -0.8722
vn -0.8101 0.2968 -0.5056
vn -0.9399 0.3415 -0.0001
vn -0.8102 0.2968 0.5054
vn -0.4570 0.1751 0.8720
vn 0.0210 0.0103 0.9997
vn 0.4910 -0.1520 0.8578
vn 0.8286 -0.2685 0.4913
vn 0.9505 -0.3106 0.0001
vn 0.8287 -0.2685 -0.4911
vn 0.4912 -0.1520 -0.8577
vn 0.0212 0.0102 -0.9997
vn -0.4684 0.1440 -0.8717
vn -0.8304 0.2337 -0.5059
vn -0.9638 0.2667 -0.0001
vn -0.8305 0.2337 0.5056
vn -0.4686 0.1441 0.8716
vn 0.0200 0.0232 0.9995
vn 0.5019 -0.0959 0.8596
vn 0.8503 -0.1819 0.4938
vn 0.9770 -0.2131 0.0001
vn 0.8505 -0.1819 -0.4936
vn 0.5021 -0.0959 -0.8595
vn 0.0203 0.0232 -0.9995
vn -0.4836 0.0673 -0.8727
vn -0.8581 0.0803 -0.5072
vn -0.9964 0.0852 -0.0001
vn -0.8582 0.0803 0.5070
vn -0.4838 0.0673 0.8726
vn 0.0198 0.0502 0.9985
vn 0.5142 0.0335 0.8570
vn 0.8706 0.0213 0.4916
vn 0.9999 0.0169 0.0001
vn 0.8707 0.0213 -0.4914
vn 0.5145 0.0334 -0.8569
vn 0.0200 0.0502 -0.9985
vn -0.4828 -0.0401 -0.8748
vn -0.8487 -0.1377 -0.5107
vn -0.9848 -0.1739 -0.0001
vn -0.8488 -0.1377 0.5104
vn -0.4830 -0.0401 0.8747
vn 0.0041 0.0901 0.9959
vn 0.4781 0.2166 0.8512
vn 0.8177 0.3069 0.4870
vn 0.9406 0.3395 0.0001
vn 0.8178 0.3070 -0.4868
vn 0.4783 0.2167 -0.8511
vn 0.0043 0.0902 -0.9959
vn -0.4661 -0.1492 -0.8721
vn -0.7762 -0.3694 -0.5109
vn -0.8921 -0.4519 -0.0001
vn -0.7763 -0.3695 0.5107
vn -0.4662 -0.1493 0.8720
vn -0.0566 0.1414 0.9883
vn 0.3382 0.4221 0.8411
vn 0.6185 0.6223 0.4798
vn 0.7194 0.6946 0.0001
vn 0.6186 0.6224 -0.4796
vn 0.3384 0.4222 -0.8410
vn -0.0564 0.1415 -0.9883
vn -0.4555 -0.1990 -0.8677
vn -0.7194 -0.4745 -0.5073
vn -0.8170 -0.5766 -0.0001
vn -0.7195 -0.4745 0.5071
vn -0.4557 -0.1991 0.8676
vn -0.1051 0.1656 0.9806
vn 0.2297 0.5126 0.8273
vn 0.4628 0.7532 0.4675
vn 0.5453 0.8383 0.0001
vn 0.4628 0.7533 -0.4673
vn 0.2299 0.5127 -0.8272
vn -0.1049 0.1658 -0.9806
vt 0.453181 0.016784
vt 0.453181 0.179918
vt 0.453181 0.327979
vt 0.453181 0.480755
vt 0.453181 0.634847
vt 0.453181 0.760651
vt 0.453181 0.760737
vt 0.453181 0.760840
vt 0.453181 0.760943
vt 0.453181 0.761017
vt 0.453181 0.761050
s 1
f 1/1/1 13/2/13 24/2/24 12/1/12
f 2/1/2 14/2/14 13/2/13 1/1/1
f 3/1/3 15/2/15 14/2/14 2/1/2
f 4/1/4 16/2/16 15/2/15 3/1/3
f 5/1/5 17/2/17 16/2/16 4/1/4
f 6/1/6 18/2/18 17/2/17 5/1/5
f 7/1/7 19/2/19 18/2/18 6/1/6
f 8/1/8 20/2/20 19/2/19 7/1/7
f 9/1/9 21/2/21 20/2/20 8/1/8
f 10/1/10 22/2/22 21/2/21 9/1/9
f 11/1/11 23/2/23 22/2/22 10/1/10
f 12/1/12 24/2/24 23/2/23 11/1/11
f 13/2/13 25/3/25 36/3/36 24/2/24
f 14/2/14 26/3/26 25/3/25 13/2/13
f 15/2/15 27/3/27 26/3/26 14/2/14
f 16/2/16 28/3/28 27/3/27 15/2/15
f 17/2/17 29/3/29 28/3/28 16/2/16
f 18/2/18 30/3/30 29/3/29 17/2/17
f 19/2/19 31/3/31 30/3/30 18/2/18
f 20/2/20 32/3/32 31/3/31 19/2/19
f 21/2/21 33/3/33 32/3/32 20/2/20
f 22/2/22 34/3/34 33/3/33 21/2/21
f 23/2/23 35/3/35 34/3/34 22/2/22
f 24/2/24 36/3/36 35/3/35 23/2/23
f 25/3/25 37/4/37 48/4/48 36/3/36
f 26/3/26 38/4/38 37/4/37 25/3/25
f 27/3/27 39/4/39 38/4/38 26/3/26
f 28/3/28 40/4/40 39/4/39 27/3/27
f 29/3/29 41/4/41 40/4/40 28/3/28
f 30/3/30 42/4/42 41/4/41 29/3/29
f 31/3/31 43/4/43 42/4/42 30/3/30
f 32/3/32 44/4/44 43/4/43 31/3/31
f 33/3/33 45/4/45 44/4/44 32/3/32
f 34/3/34 46/4/46 45/4/45 33/3/33
f 35/3/35 47/4/47 46/4/46 34/3/34
f 36/3/36 48/4/48 47/4/47 35/3/35
f 37/4/37 49/5/49 60/5/60 48/4/48
f 38/4/38 50/5/50 49/5/49 37/4/37
f 39/4/39 51/5/51 50/5/50 38/4/38
f 40/4/40 52/5/52 51/5/51 39/4/39
f 41/4/41 53/5/53 52/5/52 40/4/40
f 42/4/42 54/5/54 53/5/53 41/4/41
f 43/4/43 55/5/55 54/5/54 42/4/42
f 44/4/44 56/5/56 55/5/55 43/4/43
f 45/4/45 57/5/57 56/5/56 44/4/44
f 46/4/46 58/5/58 57/5/57 45/4/45
f 47/4/47 59/5/59 58/5/58 46/4/46
f 48/4/48 60/5/60 59/5/59 47/4/47
f 50/5/50 62/6/62 61/7/61 49/5/49
f 51/5/51 63/6/63 62/6/62 50/5/50
f 52/5/52 64/6/64 63/6/63 51/5/51
f 53/5/53 65/7/65 64/6/64 52/5/52
f 54/5/54 66/8/66 65/7/65 53/5/53
f 55/5/55 67/9/67 66/8/66 54/5/54
f 56/5/56 68/10/68 67/9/67 55/5/55
f 57/5/57 69/11/69 68/10/68 56/5/56
f 58/5/58 70/10/70 69/11/69 57/5/57
f 59/5/59 71/9/71 70/10/70 58/5/58
f 60/5/60 72/8/72 71/9/71 59/5/59
f 49/5/49 61/7/61 72/8/72 60/5/60
