# Blender 5.0.1
# www.blender.org
o BézierCurve.023
v -0.406391 -0.323409 -0.537413
v -0.539826 -0.262110 -0.390607
v -0.588687 -0.239673 -0.190050
v -0.539880 -0.262110 0.010522
v -0.406485 -0.323409 0.157364
v -0.224244 -0.407144 0.211129
v -0.041988 -0.490880 0.157413
v 0.091447 -0.552178 0.010608
v 0.140308 -0.574615 -0.189950
v 0.091502 -0.552178 -0.390522
v -0.041894 -0.490880 -0.537363
v -0.224135 -0.407144 -0.591129
v -0.353376 -0.200846 -0.537254
v -0.489193 -0.145191 -0.390514
v -0.538924 -0.124817 -0.190044
v -0.489244 -0.145185 0.010439
v -0.353466 -0.200836 0.157217
v -0.167970 -0.276858 0.210959
v 0.017539 -0.352883 0.157267
v 0.153356 -0.408538 0.010526
v 0.203087 -0.428912 -0.189943
v 0.153407 -0.408544 -0.390427
v 0.017629 -0.352893 -0.537204
v -0.167866 -0.276870 -0.590947
v -0.289623 -0.038699 -0.535898
v -0.426814 0.011846 -0.389729
v -0.477048 0.030350 -0.190040
v -0.426864 0.011855 0.009664
v -0.289710 -0.038683 0.155870
v -0.102335 -0.107723 0.209404
v 0.085054 -0.176765 0.155921
v 0.222245 -0.227310 0.009751
v 0.272479 -0.245815 -0.189938
v 0.222295 -0.227320 -0.389642
v 0.085141 -0.176782 -0.535848
v -0.102234 -0.107742 -0.589382
v -0.219030 0.158501 -0.533027
v -0.356724 0.203925 -0.388070
v -0.407142 0.220556 -0.190036
v -0.356773 0.203936 0.008011
v -0.219114 0.158520 0.153006
v -0.031051 0.096476 0.206095
v 0.157026 0.034429 0.153056
v 0.294721 -0.010996 0.008099
v 0.345139 -0.027626 -0.189935
v 0.294771 -0.011007 -0.387983
v 0.157112 0.034410 -0.532977
v -0.030952 0.096454 -0.586067
v -0.145457 0.386593 -0.528646
v -0.282892 0.426614 -0.385539
v -0.333215 0.441266 -0.190033
v -0.282941 0.426625 0.005487
v -0.145541 0.386612 0.148630
v 0.042168 0.331950 0.201043
v 0.229890 0.277286 0.148680
v 0.367325 0.237265 0.005573
v 0.417648 0.222612 -0.189933
v 0.367374 0.237254 -0.385453
v 0.229974 0.277266 -0.528597
v 0.042265 0.331928 -0.581009
v -0.072524 0.641593 -0.522539
v -0.208865 0.675782 -0.382012
v -0.258787 0.688300 -0.190030
v -0.208913 0.675792 0.001964
v -0.072607 0.641611 0.142527
v 0.113610 0.594914 0.193994
v 0.299838 0.548215 0.142576
v 0.436180 0.514026 0.002049
v 0.486102 0.501508 -0.189933
v 0.436227 0.514015 -0.381927
v 0.299921 0.548197 -0.522490
v 0.113705 0.594893 -0.573958
v -0.003714 0.919606 -0.514361
v -0.137961 0.947459 -0.377290
v -0.187116 0.957657 -0.190029
v -0.138008 0.947468 -0.002756
v -0.003795 0.919622 0.134350
v 0.179561 0.881580 0.184552
v 0.362929 0.843536 0.134399
v 0.497177 0.815683 -0.002673
v 0.546332 0.805484 -0.189934
v 0.497223 0.815673 -0.377207
v 0.363011 0.843519 -0.514313
v 0.179654 0.881561 -0.564515
v 0.057330 1.216861 -0.504115
v -0.073771 1.237885 -0.371373
v -0.121774 1.245583 -0.190028
v -0.073816 1.237892 -0.008670
v 0.057250 1.216874 0.124106
v 0.236308 1.188160 0.172722
v 0.415379 1.159444 0.124152
v 0.546480 1.138421 -0.008590
v 0.594482 1.130723 -0.189935
v 0.546525 1.138413 -0.371293
v 0.415458 1.159431 -0.504069
v 0.236400 1.188145 -0.552685
v 0.107100 1.529627 -0.491618
v -0.019651 1.543369 -0.364157
v -0.066061 1.548401 -0.190026
v -0.019695 1.543375 -0.015883
v 0.107024 1.529637 0.111610
v 0.280140 1.510868 0.158292
v 0.453268 1.492097 0.111654
v 0.580019 1.478355 -0.015807
v 0.626429 1.473323 -0.189938
v 0.580063 1.478349 -0.364080
v 0.453345 1.492088 -0.491574
v 0.280228 1.510857 -0.538256
v 0.142153 1.854258 -0.476618
v 0.021155 1.860371 -0.355496
v -0.023149 1.862610 -0.190025
v 0.021113 1.860374 -0.024542
v 0.142081 1.854263 0.096611
v 0.307341 1.845915 0.140971
v 0.472613 1.837565 0.096653
v 0.593611 1.831452 -0.024469
v 0.637915 1.829213 -0.189941
v 0.593653 1.831449 -0.355423
v 0.472685 1.837560 -0.476576
v 0.307425 1.845908 -0.520936
v 0.159199 2.187234 -0.458628
v 0.045663 2.185566 -0.345108
v 0.004092 2.184956 -0.190023
v 0.045624 2.185567 -0.034928
v 0.159131 2.187235 0.078621
v 0.314200 2.189514 0.120196
v 0.469279 2.191792 0.078660
v 0.582815 2.193460 -0.034860
v 0.624386 2.194071 -0.189945
v 0.582854 2.193460 -0.345041
v 0.469346 2.191791 -0.458589
v 0.314278 2.189512 -0.500165
v 0.155627 2.525305 -0.435954
v 0.052071 2.516098 -0.332016
v 0.014154 2.512727 -0.190021
v 0.052035 2.516096 -0.048017
v 0.155565 2.525302 0.055947
v 0.297001 2.537878 0.094014
v 0.438448 2.550455 0.055983
v 0.542004 2.559662 -0.047954
v 0.579921 2.563033 -0.189950
v 0.542040 2.559664 -0.331954
v 0.438510 2.550458 -0.435919
v 0.297074 2.537882 -0.473986
v 0.127802 2.865561 -0.408528
v 0.036803 2.849699 -0.316180
v 0.003483 2.843891 -0.190019
v 0.036771 2.849694 -0.063849
v 0.127748 2.865554 0.028523
v 0.252035 2.887219 0.062344
v 0.376330 2.908887 0.028554
v 0.467329 2.924749 -0.063794
v 0.500649 2.930557 -0.189955
v 0.467361 2.924754 -0.316125
v 0.376385 2.908895 -0.408497
v 0.252097 2.887228 -0.442318
v 0.072718 3.205585 -0.374818
v -0.002631 3.184955 -0.296715
v -0.030220 3.177402 -0.190015
v -0.002657 3.184949 -0.083308
v 0.072673 3.205575 -0.005186
v 0.175586 3.233752 0.023419
v 0.278505 3.261930 -0.005159
v 0.353855 3.282561 -0.083261
v 0.381443 3.290114 -0.189962
v 0.353880 3.282567 -0.296669
v 0.278551 3.261941 -0.374791
v 0.175638 3.233764 -0.403396
v -0.012455 3.543796 -0.332155
v -0.068412 3.521902 -0.272080
v -0.088902 3.513885 -0.190010
v -0.068431 3.521895 -0.107934
v -0.012487 3.543784 -0.047845
v 0.063941 3.573687 -0.025843
v 0.140375 3.603592 -0.047824
v 0.196333 3.625487 -0.107899
v 0.216823 3.633503 -0.189969
v 0.196352 3.625494 -0.272045
v 0.140408 3.603605 -0.332134
v 0.063980 3.573701 -0.354136
v -0.130136 3.880076 -0.275433
v -0.162016 3.863110 -0.239328
v -0.173689 3.856897 -0.190003
v -0.162027 3.863104 -0.140674
v -0.130154 3.880066 -0.104560
v -0.086611 3.903240 -0.091336
v -0.043066 3.926414 -0.104547
v -0.011184 3.943381 -0.140653
v 0.000489 3.949594 -0.189978
v -0.011174 3.943387 -0.239307
v -0.043047 3.926425 -0.275421
v -0.086589 3.903251 -0.288645
v -0.281446 4.217456 -0.193509
v -0.282663 4.216601 -0.192023
v -0.283108 4.216288 -0.189991
v -0.282663 4.216601 -0.187959
v -0.281447 4.217456 -0.186472
v -0.279784 4.218624 -0.185927
v -0.278122 4.219792 -0.186471
v -0.276905 4.220647 -0.187958
v -0.276459 4.220960 -0.189990
v -0.276904 4.220647 -0.192022
v -0.278121 4.219792 -0.193509
v -0.279783 4.218625 -0.194054
vn -0.4559 0.1983 -0.8677
vn -0.7937 0.3441 -0.5017
vn -0.9176 0.3976 -0.0001
vn -0.7938 0.3441 0.5015
vn -0.4561 0.1983 0.8676
vn 0.0038 -0.0004 1.0000
vn 0.4620 -0.1984 0.8644
vn 0.7963 -0.3429 0.4984
vn 0.9184 -0.3957 0.0001
vn 0.7964 -0.3429 -0.4982
vn 0.4622 -0.1984 -0.8643
vn 0.0041 -0.0004 -1.0000
vn -0.4585 0.1934 -0.8674
vn -0.7986 0.3329 -0.5014
vn -0.9233 0.3840 -0.0001
vn -0.7987 0.3329 0.5012
vn -0.4587 0.1935 0.8673
vn 0.0045 0.0034 1.0000
vn 0.4664 -0.1861 0.8648
vn 0.8037 -0.3245 0.4988
vn 0.9270 -0.3751 0.0001
vn 0.8038 -0.3245 -0.4986
vn 0.4666 -0.1861 -0.8646
vn 0.0048 0.0034 -1.0000
vn -0.4628 0.1837 -0.8672
vn -0.8075 0.3110 -0.5013
vn -0.9338 0.3577 -0.0001
vn -0.8076 0.3110 0.5011
vn -0.4630 0.1837 0.8671
vn 0.0066 0.0103 0.9999
vn 0.4750 -0.1627 0.8648
vn 0.8171 -0.2890 0.4989
vn 0.9421 -0.3352 0.0001
vn 0.8172 -0.2891 -0.4987
vn 0.4752 -0.1628 -0.8647
vn 0.0069 0.0102 -0.9999
vn -0.4669 0.1734 -0.8671
vn -0.8156 0.2889 -0.5012
vn -0.9435 0.3313 -0.0001
vn -0.8158 0.2890 0.5010
vn -0.4671 0.1735 0.8670
vn 0.0081 0.0161 0.9998
vn 0.4821 -0.1407 0.8648
vn 0.8282 -0.2553 0.4988
vn 0.9548 -0.2972 0.0001
vn 0.8284 -0.2553 -0.4986
vn 0.4823 -0.1408 -0.8646
vn 0.0084 0.0161 -0.9998
vn -0.4710 0.1620 -0.8671
vn -0.8237 0.2652 -0.5012
vn -0.9530 0.3030 -0.0001
vn -0.8238 0.2652 0.5010
vn -0.4713 0.1620 0.8670
vn 0.0092 0.0215 0.9997
vn 0.4882 -0.1187 0.8646
vn 0.8381 -0.2210 0.4987
vn 0.9660 -0.2584 0.0001
vn 0.8382 -0.2210 -0.4985
vn 0.4885 -0.1187 -0.8645
vn 0.0094 0.0214 -0.9997
vn -0.4751 0.1498 -0.8671
vn -0.8314 0.2398 -0.5012
vn -0.9621 0.2728 -0.0001
vn -0.8315 0.2398 0.5010
vn -0.4753 0.1499 0.8669
vn 0.0100 0.0273 0.9996
vn 0.4938 -0.0947 0.8644
vn 0.8471 -0.1839 0.4986
vn 0.9763 -0.2164 0.0001
vn 0.8473 -0.1839 -0.4983
vn 0.4940 -0.0948 -0.8643
vn 0.0102 0.0273 -0.9996
vn -0.4793 0.1362 -0.8670
vn -0.8390 0.2116 -0.5013
vn -0.9710 0.2392 -0.0001
vn -0.8391 0.2116 0.5011
vn -0.4795 0.1362 0.8669
vn 0.0104 0.0336 0.9994
vn 0.4986 -0.0686 0.8641
vn 0.8551 -0.1432 0.4983
vn 0.9854 -0.1705 0.0001
vn 0.8552 -0.1433 -0.4981
vn 0.4989 -0.0687 -0.8640
vn 0.0106 0.0335 -0.9994
vn -0.4836 0.1203 -0.8670
vn -0.8465 0.1794 -0.5013
vn -0.9796 0.2011 -0.0001
vn -0.8466 0.1795 0.5011
vn -0.4838 0.1204 0.8669
vn 0.0102 0.0400 0.9991
vn 0.5024 -0.0401 0.8637
vn 0.8615 -0.0984 0.4981
vn 0.9928 -0.1197 0.0001
vn 0.8617 -0.0984 -0.4978
vn 0.5026 -0.0401 -0.8636
vn 0.0104 0.0399 -0.9991
vn -0.4878 0.1024 -0.8669
vn -0.8533 0.1432 -0.5013
vn -0.9874 0.1582 -0.0001
vn -0.8534 0.1432 0.5011
vn -0.4881 0.1025 0.8668
vn 0.0093 0.0471 0.9988
vn 0.5047 -0.0079 0.8633
vn 0.8660 -0.0480 0.4977
vn 0.9980 -0.0626 0.0001
vn 0.8661 -0.0480 -0.4975
vn 0.5049 -0.0080 -0.8632
vn 0.0096 0.0471 -0.9988
vn -0.4919 0.0825 -0.8667
vn -0.8592 0.1024 -0.5013
vn -0.9940 0.1098 -0.0001
vn -0.8593 0.1025 0.5011
vn -0.4921 0.0825 0.8666
vn 0.0075 0.0555 0.9984
vn 0.5049 0.0288 0.8627
vn 0.8675 0.0094 0.4973
vn 1.0000 0.0023 0.0001
vn 0.8676 0.0094 -0.4971
vn 0.5051 0.0288 -0.8626
vn 0.0078 0.0555 -0.9984
vn -0.4956 0.0624 -0.8663
vn -0.8633 0.0588 -0.5012
vn -0.9983 0.0575 -0.0001
vn -0.8635 0.0588 0.5010
vn -0.4958 0.0624 0.8662
vn 0.0043 0.0676 0.9977
vn 0.5019 0.0728 0.8619
vn 0.8645 0.0768 0.4967
vn 0.9969 0.0782 0.0001
vn 0.8646 0.0768 -0.4965
vn 0.5021 0.0728 -0.8618
vn 0.0046 0.0675 -0.9977
vn -0.4990 0.0408 -0.8656
vn -0.8654 0.0104 -0.5009
vn -1.0000 -0.0007 -0.0001
vn -0.8656 0.0104 0.5007
vn -0.4992 0.0408 0.8655
vn -0.0012 0.0823 0.9966
vn 0.4939 0.1237 0.8607
vn 0.8546 0.1540 0.4959
vn 0.9863 0.1651 0.0001
vn 0.8547 0.1540 -0.4957
vn 0.4941 0.1237 -0.8605
vn -0.0010 0.0823 -0.9966
vn -0.5022 0.0164 -0.8646
vn -0.8647 -0.0441 -0.5004
vn -0.9978 -0.0663 -0.0001
vn -0.8648 -0.0441 0.5002
vn -0.5025 0.0163 0.8644
vn -0.0102 0.0987 0.9951
vn 0.4789 0.1809 0.8591
vn 0.8349 0.2408 0.4949
vn 0.9649 0.2627 0.0001
vn 0.8350 0.2408 -0.4947
vn 0.4791 0.1809 -0.8589
vn -0.0100 0.0988 -0.9951
vn -0.5058 -0.0077 -0.8626
vn -0.8604 -0.1016 -0.4994
vn -0.9907 -0.1360 -0.0001
vn -0.8605 -0.1016 0.4992
vn -0.5060 -0.0077 0.8625
vn -0.0247 0.1200 0.9925
vn 0.4531 0.2471 0.8565
vn 0.8008 0.3397 0.4933
vn 0.9276 0.3735 0.0001
vn 0.8009 0.3397 -0.4931
vn 0.4533 0.2471 -0.8564
vn -0.0245 0.1201 -0.9925
vn -0.5114 -0.0276 -0.8589
vn -0.8530 -0.1578 -0.4975
vn -0.9786 -0.2056 -0.0001
vn -0.8531 -0.1578 0.4973
vn -0.5116 -0.0277 0.8588
vn -0.0484 0.1490 0.9877
vn 0.4110 0.3245 0.8519
vn 0.7450 0.4522 0.4905
vn 0.8668 0.4987 0.0001
vn 0.7451 0.4522 -0.4903
vn 0.4112 0.3245 -0.8518
vn -0.0482 0.1491 -0.9876
vn -0.5218 -0.0338 -0.8524
vn -0.8450 -0.2027 -0.4948
vn -0.9642 -0.2651 -0.0001
vn -0.8451 -0.2028 0.4946
vn -0.5220 -0.0339 0.8523
vn -0.0861 0.1939 0.9772
vn 0.3438 0.4185 0.8406
vn 0.6550 0.5811 0.4830
vn 0.7682 0.6402 0.0001
vn 0.6551 0.5812 -0.4828
vn 0.3440 0.4186 -0.8405
vn -0.0859 0.1940 -0.9772
vn -0.5293 -0.0315 -0.8479
vn -0.8413 -0.2212 -0.4932
vn -0.9566 -0.2913 -0.0001
vn -0.8414 -0.2213 0.4930
vn -0.5295 -0.0316 0.8477
vn -0.1105 0.2228 0.9686
vn 0.2995 0.4716 0.8294
vn 0.5935 0.6499 0.4747
vn 0.6998 0.7143 0.0001
vn 0.5936 0.6499 -0.4745
vn 0.2997 0.4717 -0.8293
vn -0.1103 0.2230 -0.9686
vt 0.452637 0.017802
vt 0.452637 0.040707
vt 0.452637 0.070109
vt 0.452637 0.105247
vt 0.452637 0.145361
vt 0.452637 0.189692
vt 0.452637 0.237483
vt 0.452637 0.287966
vt 0.452637 0.340392
vt 0.452637 0.381234
vt 0.452637 0.436709
vt 0.452637 0.493367
vt 0.452637 0.550663
vt 0.452637 0.608047
vt 0.452637 0.664415
vt 0.452637 0.700011
vt 0.452637 0.758496
vt 0.452637 0.758321
vt 0.452637 0.758294
vt 0.452637 0.758670
vt 0.452637 0.758697
s 1
f 1/1/1 13/2/13 24/2/24 12/1/12
f 2/1/2 14/2/14 13/2/13 1/1/1
f 3/1/3 15/2/15 14/2/14 2/1/2
f 4/1/4 16/2/16 15/2/15 3/1/3
f 5/1/5 17/2/17 16/2/16 4/1/4
f 6/1/6 18/2/18 17/2/17 5/1/5
f 7/1/7 19/2/19 18/2/18 6/1/6
f 8/1/8 20/2/20 19/2/19 7/1/7
f 9/1/9 21/2/21 20/2/20 8/1/8
f 10/1/10 22/2/22 21/2/21 9/1/9
f 11/1/11 23/2/23 22/2/22 10/1/10
f 12/1/12 24/2/24 23/2/23 11/1/11
f 13/2/13 25/3/25 36/3/36 24/2/24
f 14/2/14 26/3/26 25/3/25 13/2/13
f 15/2/15 27/3/27 26/3/26 14/2/14
f 16/2/16 28/3/28 27/3/27 15/2/15
f 17/2/17 29/3/29 28/3/28 16/2/16
f 18/2/18 30/3/30 29/3/29 17/2/17
f 19/2/19 31/3/31 30/3/30 18/2/18
f 20/2/20 32/3/32 31/3/31 19/2/19
f 21/2/21 33/3/33 32/3/32 20/2/20
f 22/2/22 34/3/34 33/3/33 21/2/21
f 23/2/23 35/3/35 34/3/34 22/2/22
f 24/2/24 36/3/36 35/3/35 23/2/23
f 25/3/25 37/4/37 48/4/48 36/3/36
f 26/3/26 38/4/38 37/4/37 25/3/25
f 27/3/27 39/4/39 38/4/38 26/3/26
f 28/3/28 40/4/40 39/4/39 27/3/27
f 29/3/29 41/4/41 40/4/40 28/3/28
f 30/3/30 42/4/42 41/4/41 29/3/29
f 31/3/31 43/4/43 42/4/42 30/3/30
f 32/3/32 44/4/44 43/4/43 31/3/31
f 33/3/33 45/4/45 44/4/44 32/3/32
f 34/3/34 46/4/46 45/4/45 33/3/33
f 35/3/35 47/4/47 46/4/46 34/3/34
f 36/3/36 48/4/48 47/4/47 35/3/35
f 37/4/37 49/5/49 60/5/60 48/4/48
f 38/4/38 50/5/50 49/5/49 37/4/37
f 39/4/39 51/5/51 50/5/50 38/4/38
f 40/4/40 52/5/52 51/5/51 39/4/39
f 41/4/41 53/5/53 52/5/52 40/4/40
f 42/4/42 54/5/54 53/5/53 41/4/41
f 43/4/43 55/5/55 54/5/54 42/4/42
f 44/4/44 56/5/56 55/5/55 43/4/43
f 45/4/45 57/5/57 56/5/56 44/4/44
f 46/4/46 58/5/58 57/5/57 45/4/45
f 47/4/47 59/5/59 58/5/58 46/4/46
f 48/4/48 60/5/60 59/5/59 47/4/47
f 49/5/49 61/6/61 72/6/72 60/5/60
f 50/5/50 62/6/62 61/6/61 49/5/49
f 51/5/51 63/6/63 62/6/62 50/5/50
f 52/5/52 64/6/64 63/6/63 51/5/51
f 53/5/53 65/6/65 64/6/64 52/5/52
f 54/5/54 66/6/66 65/6/65 53/5/53
f 55/5/55 67/6/67 66/6/66 54/5/54
f 56/5/56 68/6/68 67/6/67 55/5/55
f 57/5/57 69/6/69 68/6/68 56/5/56
f 58/5/58 70/6/70 69/6/69 57/5/57
f 59/5/59 71/6/71 70/6/70 58/5/58
f 60/5/60 72/6/72 71/6/71 59/5/59
f 61/6/61 73/7/73 84/7/84 72/6/72
f 62/6/62 74/7/74 73/7/73 61/6/61
f 63/6/63 75/7/75 74/7/74 62/6/62
f 64/6/64 76/7/76 75/7/75 63/6/63
f 65/6/65 77/7/77 76/7/76 64/6/64
f 66/6/66 78/7/78 77/7/77 65/6/65
f 67/6/67 79/7/79 78/7/78 66/6/66
f 68/6/68 80/7/80 79/7/79 67/6/67
f 69/6/69 81/7/81 80/7/80 68/6/68
f 70/6/70 82/7/82 81/7/81 69/6/69
f 71/6/71 83/7/83 82/7/82 70/6/70
f 72/6/72 84/7/84 83/7/83 71/6/71
f 73/7/73 85/8/85 96/8/96 84/7/84
f 74/7/74 86/8/86 85/8/85 73/7/73
f 75/7/75 87/8/87 86/8/86 74/7/74
f 76/7/76 88/8/88 87/8/87 75/7/75
f 77/7/77 89/8/89 88/8/88 76/7/76
f 78/7/78 90/8/90 89/8/89 77/7/77
f 79/7/79 91/8/91 90/8/90 78/7/78
f 80/7/80 92/8/92 91/8/91 79/7/79
f 81/7/81 93/8/93 92/8/92 80/7/80
f 82/7/82 94/8/94 93/8/93 81/7/81
f 83/7/83 95/8/95 94/8/94 82/7/82
f 84/7/84 96/8/96 95/8/95 83/7/83
f 85/8/85 97/9/97 108/9/108 96/8/96
f 86/8/86 98/9/98 97/9/97 85/8/85
f 87/8/87 99/9/99 98/9/98 86/8/86
f 88/8/88 100/9/100 99/9/99 87/8/87
f 89/8/89 101/9/101 100/9/100 88/8/88
f 90/8/90 102/9/102 101/9/101 89/8/89
f 91/8/91 103/9/103 102/9/102 90/8/90
f 92/8/92 104/9/104 103/9/103 91/8/91
f 93/8/93 105/9/105 104/9/104 92/8/92
f 94/8/94 106/9/106 105/9/105 93/8/93
f 95/8/95 107/9/107 106/9/106 94/8/94
f 96/8/96 108/9/108 107/9/107 95/8/95
f 97/9/97 109/10/109 120/10/120 108/9/108
f 98/9/98 110/10/110 109/10/109 97/9/97
f 99/9/99 111/10/111 110/10/110 98/9/98
f 100/9/100 112/10/112 111/10/111 99/9/99
f 101/9/101 113/10/113 112/10/112 100/9/100
f 102/9/102 114/10/114 113/10/113 101/9/101
f 103/9/103 115/10/115 114/10/114 102/9/102
f 104/9/104 116/10/116 115/10/115 103/9/103
f 105/9/105 117/10/117 116/10/116 104/9/104
f 106/9/106 118/10/118 117/10/117 105/9/105
f 107/9/107 119/10/119 118/10/118 106/9/106
f 108/9/108 120/10/120 119/10/119 107/9/107
f 109/10/109 121/11/121 132/11/132 120/10/120
f 110/10/110 122/11/122 121/11/121 109/10/109
f 111/10/111 123/11/123 122/11/122 110/10/110
f 112/10/112 124/11/124 123/11/123 111/10/111
f 113/10/113 125/11/125 124/11/124 112/10/112
f 114/10/114 126/11/126 125/11/125 113/10/113
f 115/10/115 127/11/127 126/11/126 114/10/114
f 116/10/116 128/11/128 127/11/127 115/10/115
f 117/10/117 129/11/129 128/11/128 116/10/116
f 118/10/118 130/11/130 129/11/129 117/10/117
f 119/10/119 131/11/131 130/11/130 118/10/118
f 120/10/120 132/11/132 131/11/131 119/10/119
f 121/11/121 133/12/133 144/12/144 132/11/132
f 122/11/122 134/12/134 133/12/133 121/11/121
f 123/11/123 135/12/135 134/12/134 122/11/122
f 124/11/124 136/12/136 135/12/135 123/11/123
f 125/11/125 137/12/137 136/12/136 124/11/124
f 126/11/126 138/12/138 137/12/137 125/11/125
f 127/11/127 139/12/139 138/12/138 126/11/126
f 128/11/128 140/12/140 139/12/139 127/11/127
f 129/11/129 141/12/141 140/12/140 128/11/128
f 130/11/130 142/12/142 141/12/141 129/11/129
f 131/11/131 143/12/143 142/12/142 130/11/130
f 132/11/132 144/12/144 143/12/143 131/11/131
f 133/12/133 145/13/145 156/13/156 144/12/144
f 134/12/134 146/13/146 145/13/145 133/12/133
f 135/12/135 147/13/147 146/13/146 134/12/134
f 136/12/136 148/13/148 147/13/147 135/12/135
f 137/12/137 149/13/149 148/13/148 136/12/136
f 138/12/138 150/13/150 149/13/149 137/12/137
f 139/12/139 151/13/151 150/13/150 138/12/138
f 140/12/140 152/13/152 151/13/151 139/12/139
f 141/12/141 153/13/153 152/13/152 140/12/140
f 142/12/142 154/13/154 153/13/153 141/12/141
f 143/12/143 155/13/155 154/13/154 142/12/142
f 144/12/144 156/13/156 155/13/155 143/12/143
f 145/13/145 157/14/157 168/14/168 156/13/156
f 146/13/146 158/14/158 157/14/157 145/13/145
f 147/13/147 159/14/159 158/14/158 146/13/146
f 148/13/148 160/14/160 159/14/159 147/13/147
f 149/13/149 161/14/161 160/14/160 148/13/148
f 150/13/150 162/14/162 161/14/161 149/13/149
f 151/13/151 163/14/163 162/14/162 150/13/150
f 152/13/152 164/14/164 163/14/163 151/13/151
f 153/13/153 165/14/165 164/14/164 152/13/152
f 154/13/154 166/14/166 165/14/165 153/13/153
f 155/13/155 167/14/167 166/14/166 154/13/154
f 156/13/156 168/14/168 167/14/167 155/13/155
f 157/14/157 169/15/169 180/15/180 168/14/168
f 158/14/158 170/15/170 169/15/169 157/14/157
f 159/14/159 171/15/171 170/15/170 158/14/158
f 160/14/160 172/15/172 171/15/171 159/14/159
f 161/14/161 173/15/173 172/15/172 160/14/160
f 162/14/162 174/15/174 173/15/173 161/14/161
f 163/14/163 175/15/175 174/15/174 162/14/162
f 164/14/164 176/15/176 175/15/175 163/14/163
f 165/14/165 177/15/177 176/15/176 164/14/164
f 166/14/166 178/15/178 177/15/177 165/14/165
f 167/14/167 179/15/179 178/15/178 166/14/166
f 168/14/168 180/15/180 179/15/179 167/14/167
f 169/15/169 181/16/181 192/16/192 180/15/180
f 170/15/170 182/16/182 181/16/181 169/15/169
f 171/15/171 183/16/183 182/16/182 170/15/170
f 172/15/172 184/16/184 183/16/183 171/15/171
f 173/15/173 185/16/185 184/16/184 172/15/172
f 174/15/174 186/16/186 185/16/185 173/15/173
f 175/15/175 187/16/187 186/16/186 174/15/174
f 176/15/176 188/16/188 187/16/187 175/15/175
f 177/15/177 189/16/189 188/16/188 176/15/176
f 178/15/178 190/16/190 189/16/189 177/15/177
f 179/15/179 191/16/191 190/16/190 178/15/178
f 180/15/180 192/16/192 191/16/191 179/15/179
f 181/16/181 193/17/193 204/17/204 192/16/192
f 182/16/182 194/18/194 193/17/193 181/16/181
f 183/16/183 195/19/195 194/18/194 182/16/182
f 184/16/184 196/18/196 195/19/195 183/16/183
f 185/16/185 197/17/197 196/18/196 184/16/184
f 186/16/186 198/17/198 197/17/197 185/16/185
f 187/16/187 199/17/199 198/17/198 186/16/186
f 188/16/188 200/20/200 199/17/199 187/16/187
f 189/16/189 201/21/201 200/20/200 188/16/188
f 190/16/190 202/20/202 201/21/201 189/16/189
f 191/16/191 203/17/203 202/20/202 190/16/190
f 192/16/192 204/17/204 203/17/203 191/16/191
