# Blender 5.0.1
# www.blender.org
o BézierCurve.019
v -0.391469 -0.353859 -0.482999
v -0.504005 -0.302162 -0.359187
v -0.545212 -0.283239 -0.190041
v -0.504050 -0.302162 -0.020885
v -0.391548 -0.353859 0.102957
v -0.237851 -0.424480 0.148302
v -0.084141 -0.495100 0.102999
v 0.028395 -0.546798 -0.020813
v 0.069602 -0.565721 -0.189958
v 0.028441 -0.546798 -0.359115
v -0.084061 -0.495100 -0.482957
v -0.237759 -0.424480 -0.528302
v -0.340018 -0.230431 -0.482864
v -0.455471 -0.185776 -0.359107
v -0.497746 -0.169429 -0.190036
v -0.455515 -0.185771 -0.020954
v -0.340094 -0.230423 0.102834
v -0.182410 -0.291421 0.148160
v -0.024714 -0.352419 0.102877
v 0.090739 -0.397075 -0.020880
v 0.133014 -0.413422 -0.189951
v 0.090783 -0.397080 -0.359033
v -0.024638 -0.352427 -0.482822
v -0.182322 -0.291430 -0.528147
v -0.278749 -0.060973 -0.481720
v -0.395673 -0.021818 -0.358445
v -0.438486 -0.007483 -0.190032
v -0.395716 -0.021811 -0.021607
v -0.278822 -0.060961 0.101699
v -0.119128 -0.114444 0.146848
v 0.040578 -0.167928 0.101742
v 0.157504 -0.207084 -0.021533
v 0.200317 -0.221419 -0.189946
v 0.157546 -0.207091 -0.358370
v 0.040653 -0.167941 -0.481677
v -0.119042 -0.114458 -0.526826
v -0.211731 0.148801 -0.479298
v -0.329100 0.183120 -0.357045
v -0.372076 0.195685 -0.190029
v -0.329142 0.183129 -0.023001
v -0.211803 0.148815 0.099284
v -0.051500 0.101940 0.144059
v 0.108815 0.055062 0.099327
v 0.226184 0.020743 -0.022926
v 0.269160 0.008178 -0.189943
v 0.226226 0.020734 -0.356971
v 0.108888 0.055048 -0.479255
v -0.051416 0.101923 -0.524030
v -0.142798 0.393651 -0.475603
v -0.259834 0.423263 -0.354910
v -0.302686 0.434105 -0.190026
v -0.259875 0.423271 -0.025130
v -0.142870 0.393665 0.095594
v 0.016977 0.353219 0.139798
v 0.176835 0.312771 0.095636
v 0.293871 0.283159 -0.025056
v 0.336724 0.272317 -0.189941
v 0.293912 0.283150 -0.354837
v 0.176908 0.312757 -0.475561
v 0.017061 0.353203 -0.519764
v -0.075453 0.668725 -0.470452
v -0.191380 0.693513 -0.351935
v -0.233827 0.702589 -0.190023
v -0.191421 0.693521 -0.028100
v -0.075524 0.668739 0.090447
v 0.082809 0.634884 0.133854
v 0.241153 0.601026 0.090489
v 0.357080 0.576239 -0.028028
v 0.399527 0.567163 -0.189940
v 0.357121 0.576231 -0.351863
v 0.241224 0.601013 -0.470411
v 0.082891 0.634868 -0.513817
v -0.013050 0.969341 -0.463555
v -0.126988 0.989058 -0.347953
v -0.168707 0.996278 -0.190022
v -0.127028 0.989065 -0.032081
v -0.013119 0.969352 0.083551
v 0.142498 0.942422 0.125891
v 0.298127 0.915489 0.083592
v 0.412065 0.895772 -0.032010
v 0.453784 0.888552 -0.189940
v 0.412105 0.895765 -0.347882
v 0.298196 0.915478 -0.463514
v 0.142579 0.942408 -0.505854
v 0.040941 1.290941 -0.454914
v -0.070113 1.305312 -0.342963
v -0.110776 1.310574 -0.190021
v -0.070152 1.305317 -0.037068
v 0.040873 1.290950 0.074911
v 0.192550 1.271322 0.115913
v 0.344238 1.251692 0.074951
v 0.455291 1.237321 -0.037000
v 0.495954 1.232059 -0.189942
v 0.455330 1.237316 -0.342894
v 0.344305 1.251683 -0.454874
v 0.192628 1.271311 -0.495876
v 0.083164 1.629019 -0.444374
v -0.024005 1.637771 -0.336877
v -0.063244 1.640975 -0.190020
v -0.024043 1.637774 -0.043152
v 0.083098 1.629026 0.064373
v 0.229468 1.617073 0.103743
v 0.375848 1.605120 0.064411
v 0.483016 1.596368 -0.043086
v 0.522256 1.593164 -0.189944
v 0.483055 1.596364 -0.336811
v 0.375914 1.605113 -0.444336
v 0.229544 1.617066 -0.483707
v 0.110321 1.979139 -0.431724
v 0.008185 1.982053 -0.329573
v -0.029213 1.983119 -0.190019
v 0.008149 1.982054 -0.050455
v 0.110259 1.979143 0.051722
v 0.249755 1.975164 0.089135
v 0.389263 1.971186 0.051758
v 0.491398 1.968272 -0.050393
v 0.528796 1.967206 -0.189947
v 0.491435 1.968271 -0.329511
v 0.389325 1.971182 -0.431688
v 0.249828 1.975161 -0.469100
v 0.119246 2.336963 -0.416552
v 0.023529 2.333946 -0.320813
v -0.011518 2.332842 -0.190018
v 0.023496 2.333946 -0.059214
v 0.119188 2.336963 0.036550
v 0.249917 2.341084 0.071614
v 0.380656 2.345205 0.036584
v 0.476372 2.348222 -0.059156
v 0.511420 2.349326 -0.189950
v 0.476407 2.348222 -0.320754
v 0.380714 2.345205 -0.416518
v 0.249984 2.341084 -0.451582
v 0.107354 2.698366 -0.397430
v 0.020111 2.689612 -0.309771
v -0.011834 2.686406 -0.190016
v 0.020080 2.689610 -0.070253
v 0.107300 2.698363 0.017428
v 0.226457 2.710320 0.049533
v 0.345622 2.722279 0.017459
v 0.432865 2.731034 -0.070200
v 0.464809 2.734239 -0.189955
v 0.432895 2.731036 -0.309718
v 0.345675 2.722283 -0.397399
v 0.226518 2.710325 -0.429503
v 0.071216 3.059477 -0.374299
v -0.005450 3.045644 -0.296415
v -0.033521 3.040580 -0.190014
v -0.005477 3.045640 -0.083606
v 0.071169 3.059470 -0.005702
v 0.175880 3.078363 0.022822
v 0.280597 3.097257 -0.005675
v 0.357263 3.111090 -0.083558
v 0.385334 3.116154 -0.189960
v 0.357290 3.111094 -0.296368
v 0.280644 3.097264 -0.374272
v 0.175933 3.078371 -0.402797
v 0.007963 3.416841 -0.345869
v -0.055564 3.399366 -0.280000
v -0.078825 3.392967 -0.190011
v -0.055586 3.399360 -0.100017
v 0.007924 3.416832 -0.034131
v 0.094689 3.440700 -0.010006
v 0.181459 3.464570 -0.034108
v 0.244986 3.482046 -0.099977
v 0.268246 3.488444 -0.189966
v 0.245008 3.482051 -0.279960
v 0.181498 3.464580 -0.345846
v 0.094733 3.440711 -0.369971
v -0.085091 3.767738 -0.309888
v -0.132321 3.749366 -0.259223
v -0.149615 3.742638 -0.190007
v -0.132338 3.749359 -0.120787
v -0.085120 3.767728 -0.070109
v -0.020612 3.792821 -0.051553
v 0.043899 3.817917 -0.070091
v 0.091129 3.836289 -0.120756
v 0.108423 3.843016 -0.189972
v 0.091146 3.836295 -0.259192
v 0.043928 3.817927 -0.309870
v -0.020580 3.792834 -0.328426
v -0.210274 4.110772 -0.262051
v -0.237197 4.096530 -0.231601
v -0.247056 4.091315 -0.190001
v -0.237207 4.096525 -0.148398
v -0.210290 4.110764 -0.117940
v -0.173519 4.130216 -0.106788
v -0.136744 4.149669 -0.117930
v -0.109821 4.163911 -0.148380
v -0.099963 4.169126 -0.189980
v -0.109811 4.163916 -0.231583
v -0.136728 4.149677 -0.262041
v -0.173500 4.130225 -0.273193
v -0.368927 4.447390 -0.192958
v -0.369953 4.446669 -0.191704
v -0.370329 4.446404 -0.189991
v -0.369954 4.446669 -0.188277
v -0.368928 4.447390 -0.187023
v -0.367526 4.448374 -0.186563
v -0.366123 4.449359 -0.187023
v -0.365097 4.450081 -0.188277
v -0.364721 4.450345 -0.189990
v -0.365097 4.450081 -0.191704
v -0.366123 4.449360 -0.192958
v -0.367525 4.448375 -0.193417
vn -0.4571 0.1914 -0.8686
vn -0.7978 0.3331 -0.5025
vn -0.9229 0.3850 -0.0001
vn -0.7980 0.3331 0.5023
vn -0.4573 0.1915 0.8684
vn 0.0057 -0.0014 1.0000
vn 0.4659 -0.1933 0.8634
vn 0.8009 -0.3333 0.4974
vn 0.9232 -0.3843 0.0001
vn 0.8011 -0.3333 -0.4972
vn 0.4662 -0.1934 -0.8633
vn 0.0060 -0.0014 -1.0000
vn -0.4619 0.1830 -0.8679
vn -0.8052 0.3158 -0.5019
vn -0.9312 0.3644 -0.0001
vn -0.8054 0.3158 0.5017
vn -0.4621 0.1831 0.8677
vn 0.0052 0.0022 1.0000
vn 0.4705 -0.1780 0.8643
vn 0.8098 -0.3096 0.4983
vn 0.9338 -0.3577 0.0001
vn 0.8100 -0.3096 -0.4981
vn 0.4707 -0.1781 -0.8641
vn 0.0055 0.0022 -1.0000
vn -0.4685 0.1674 -0.8675
vn -0.8171 0.2843 -0.5015
vn -0.9450 0.3272 -0.0001
vn -0.8172 0.2844 0.5013
vn -0.4687 0.1674 0.8673
vn 0.0061 0.0081 0.9999
vn 0.4793 -0.1507 0.8646
vn 0.8248 -0.2667 0.4987
vn 0.9510 -0.3091 0.0001
vn 0.8249 -0.2667 -0.4984
vn 0.4795 -0.1508 -0.8645
vn 0.0063 0.0081 -0.9999
vn -0.4735 0.1538 -0.8673
vn -0.8261 0.2572 -0.5014
vn -0.9555 0.2951 -0.0001
vn -0.8263 0.2572 0.5011
vn -0.4737 0.1538 0.8672
vn 0.0068 0.0129 0.9999
vn 0.4858 -0.1275 0.8647
vn 0.8356 -0.2301 0.4988
vn 0.9635 -0.2676 0.0001
vn 0.8358 -0.2301 -0.4985
vn 0.4860 -0.1276 -0.8646
vn 0.0070 0.0129 -0.9999
vn -0.4777 0.1403 -0.8672
vn -0.8339 0.2308 -0.5013
vn -0.9645 0.2640 -0.0001
vn -0.8340 0.2308 0.5011
vn -0.4780 0.1404 0.8671
vn 0.0073 0.0172 0.9998
vn 0.4911 -0.1057 0.8647
vn 0.8444 -0.1953 0.4988
vn 0.9736 -0.2281 0.0001
vn 0.8446 -0.1954 -0.4985
vn 0.4913 -0.1057 -0.8645
vn 0.0075 0.0171 -0.9998
vn -0.4815 0.1270 -0.8672
vn -0.8408 0.2042 -0.5013
vn -0.9726 0.2325 -0.0001
vn -0.8410 0.2042 0.5011
vn -0.4818 0.1270 0.8671
vn 0.0077 0.0218 0.9997
vn 0.4957 -0.0830 0.8645
vn 0.8520 -0.1595 0.4987
vn 0.9823 -0.1875 0.0001
vn 0.8521 -0.1595 -0.4984
vn 0.4959 -0.0830 -0.8644
vn 0.0079 0.0218 -0.9997
vn -0.4851 0.1126 -0.8672
vn -0.8472 0.1758 -0.5013
vn -0.9800 0.1989 -0.0001
vn -0.8473 0.1758 0.5011
vn -0.4853 0.1127 0.8670
vn 0.0078 0.0267 0.9996
vn 0.4994 -0.0589 0.8643
vn 0.8583 -0.1214 0.4985
vn 0.9895 -0.1442 0.0001
vn 0.8585 -0.1214 -0.4983
vn 0.4997 -0.0589 -0.8642
vn 0.0081 0.0267 -0.9996
vn -0.4885 0.0966 -0.8672
vn -0.8531 0.1444 -0.5014
vn -0.9868 0.1619 -0.0001
vn -0.8532 0.1444 0.5012
vn -0.4888 0.0967 0.8670
vn 0.0076 0.0317 0.9995
vn 0.5023 -0.0329 0.8641
vn 0.8633 -0.0801 0.4983
vn 0.9953 -0.0973 0.0001
vn 0.8634 -0.0801 -0.4981
vn 0.5025 -0.0329 -0.8640
vn 0.0079 0.0317 -0.9995
vn -0.4917 0.0789 -0.8672
vn -0.8582 0.1095 -0.5015
vn -0.9927 0.1207 -0.0001
vn -0.8584 0.1095 0.5012
vn -0.4919 0.0789 0.8670
vn 0.0069 0.0374 0.9993
vn 0.5039 -0.0040 0.8638
vn 0.8665 -0.0341 0.4981
vn 0.9990 -0.0452 0.0001
vn 0.8666 -0.0342 -0.4978
vn 0.5041 -0.0040 -0.8636
vn 0.0072 0.0373 -0.9993
vn -0.4945 0.0594 -0.8671
vn -0.8622 0.0707 -0.5015
vn -0.9972 0.0748 -0.0001
vn -0.8624 0.0707 0.5013
vn -0.4947 0.0594 0.8670
vn 0.0056 0.0441 0.9990
vn 0.5038 0.0289 0.8633
vn 0.8672 0.0179 0.4977
vn 0.9999 0.0139 0.0001
vn 0.8673 0.0179 -0.4975
vn 0.5040 0.0289 -0.8632
vn 0.0059 0.0441 -0.9990
vn -0.4968 0.0393 -0.8670
vn -0.8647 0.0287 -0.5015
vn -0.9997 0.0249 -0.0001
vn -0.8648 0.0287 0.5013
vn -0.4970 0.0393 0.8668
vn 0.0032 0.0538 0.9985
vn 0.5011 0.0682 0.8627
vn 0.8640 0.0788 0.4973
vn 0.9966 0.0827 0.0001
vn 0.8641 0.0788 -0.4970
vn 0.5013 0.0682 -0.8626
vn 0.0035 0.0538 -0.9985
vn -0.4986 0.0175 -0.8666
vn -0.8650 -0.0179 -0.5014
vn -0.9995 -0.0309 -0.0001
vn -0.8651 -0.0179 0.5012
vn -0.4989 0.0175 0.8665
vn -0.0009 0.0658 0.9978
vn 0.4943 0.1139 0.8618
vn 0.8551 0.1490 0.4966
vn 0.9868 0.1619 0.0001
vn 0.8552 0.1490 -0.4964
vn 0.4945 0.1139 -0.8617
vn -0.0007 0.0658 -0.9978
vn -0.4999 -0.0071 -0.8660
vn -0.8624 -0.0708 -0.5012
vn -0.9956 -0.0942 -0.0001
vn -0.8625 -0.0708 0.5010
vn -0.5001 -0.0071 0.8659
vn -0.0078 0.0796 0.9968
vn 0.4815 0.1659 0.8606
vn 0.8377 0.2288 0.4958
vn 0.9678 0.2518 0.0001
vn 0.8379 0.2288 -0.4956
vn 0.4817 0.1659 -0.8605
vn -0.0075 0.0796 -0.9968
vn -0.5010 -0.0320 -0.8649
vn -0.8561 -0.1277 -0.5007
vn -0.9867 -0.1628 -0.0001
vn -0.8563 -0.1277 0.5005
vn -0.5012 -0.0321 0.8647
vn -0.0192 0.0979 0.9950
vn 0.4594 0.2270 0.8587
vn 0.8076 0.3211 0.4946
vn 0.9347 0.3555 0.0001
vn 0.8078 0.3212 -0.4944
vn 0.4596 0.2271 -0.8586
vn -0.0189 0.0979 -0.9950
vn -0.5032 -0.0543 -0.8624
vn -0.8462 -0.1853 -0.4996
vn -0.9724 -0.2335 -0.0001
vn -0.8463 -0.1854 0.4993
vn -0.5034 -0.0544 0.8623
vn -0.0385 0.1234 0.9916
vn 0.4226 0.2998 0.8553
vn 0.7578 0.4281 0.4924
vn 0.8800 0.4749 0.0001
vn 0.7579 0.4281 -0.4922
vn 0.4228 0.2998 -0.8552
vn -0.0382 0.1234 -0.9916
vn -0.5092 -0.0655 -0.8582
vn -0.8346 -0.2353 -0.4981
vn -0.9546 -0.2980 -0.0001
vn -0.8347 -0.2354 0.4979
vn -0.5094 -0.0656 0.8580
vn -0.0704 0.1636 0.9840
vn 0.3627 0.3896 0.8466
vn 0.6762 0.5532 0.4865
vn 0.7903 0.6127 0.0001
vn 0.6764 0.5532 -0.4863
vn 0.3629 0.3897 -0.8464
vn -0.0702 0.1637 -0.9840
vn -0.5139 -0.0667 -0.8552
vn -0.8285 -0.2575 -0.4972
vn -0.9447 -0.3280 -0.0001
vn -0.8286 -0.2576 0.4970
vn -0.5141 -0.0668 0.8551
vn -0.0912 0.1895 0.9776
vn 0.3231 0.4404 0.8376
vn 0.6205 0.6204 0.4796
vn 0.7281 0.6855 0.0001
vn 0.6206 0.6205 -0.4794
vn 0.3233 0.4405 -0.8375
vn -0.0910 0.1896 -0.9776
vt 0.453113 0.014815
vt 0.453113 0.041308
vt 0.453113 0.075988
vt 0.453113 0.117874
vt 0.453113 0.165980
vt 0.453113 0.219321
vt 0.453113 0.276916
vt 0.453113 0.337776
vt 0.453113 0.400920
vt 0.453113 0.459798
vt 0.453113 0.527410
vt 0.453113 0.595622
vt 0.453113 0.663600
vt 0.453113 0.730509
vt 0.453113 0.785886
vt 0.453113 0.854246
vt 0.453113 0.922208
s 1
f 1/1/1 13/2/13 24/2/24 12/1/12
f 2/1/2 14/2/14 13/2/13 1/1/1
f 3/1/3 15/2/15 14/2/14 2/1/2
f 4/1/4 16/2/16 15/2/15 3/1/3
f 5/1/5 17/2/17 16/2/16 4/1/4
f 6/1/6 18/2/18 17/2/17 5/1/5
f 7/1/7 19/2/19 18/2/18 6/1/6
f 8/1/8 20/2/20 19/2/19 7/1/7
f 9/1/9 21/2/21 20/2/20 8/1/8
f 10/1/10 22/2/22 21/2/21 9/1/9
f 11/1/11 23/2/23 22/2/22 10/1/10
f 12/1/12 24/2/24 23/2/23 11/1/11
f 13/2/13 25/3/25 36/3/36 24/2/24
f 14/2/14 26/3/26 25/3/25 13/2/13
f 15/2/15 27/3/27 26/3/26 14/2/14
f 16/2/16 28/3/28 27/3/27 15/2/15
f 17/2/17 29/3/29 28/3/28 16/2/16
f 18/2/18 30/3/30 29/3/29 17/2/17
f 19/2/19 31/3/31 30/3/30 18/2/18
f 20/2/20 32/3/32 31/3/31 19/2/19
f 21/2/21 33/3/33 32/3/32 20/2/20
f 22/2/22 34/3/34 33/3/33 21/2/21
f 23/2/23 35/3/35 34/3/34 22/2/22
f 24/2/24 36/3/36 35/3/35 23/2/23
f 25/3/25 37/4/37 48/4/48 36/3/36
f 26/3/26 38/4/38 37/4/37 25/3/25
f 27/3/27 39/4/39 38/4/38 26/3/26
f 28/3/28 40/4/40 39/4/39 27/3/27
f 29/3/29 41/4/41 40/4/40 28/3/28
f 30/3/30 42/4/42 41/4/41 29/3/29
f 31/3/31 43/4/43 42/4/42 30/3/30
f 32/3/32 44/4/44 43/4/43 31/3/31
f 33/3/33 45/4/45 44/4/44 32/3/32
f 34/3/34 46/4/46 45/4/45 33/3/33
f 35/3/35 47/4/47 46/4/46 34/3/34
f 36/3/36 48/4/48 47/4/47 35/3/35
f 37/4/37 49/5/49 60/5/60 48/4/48
f 38/4/38 50/5/50 49/5/49 37/4/37
f 39/4/39 51/5/51 50/5/50 38/4/38
f 40/4/40 52/5/52 51/5/51 39/4/39
f 41/4/41 53/5/53 52/5/52 40/4/40
f 42/4/42 54/5/54 53/5/53 41/4/41
f 43/4/43 55/5/55 54/5/54 42/4/42
f 44/4/44 56/5/56 55/5/55 43/4/43
f 45/4/45 57/5/57 56/5/56 44/4/44
f 46/4/46 58/5/58 57/5/57 45/4/45
f 47/4/47 59/5/59 58/5/58 46/4/46
f 48/4/48 60/5/60 59/5/59 47/4/47
f 49/5/49 61/6/61 72/6/72 60/5/60
f 50/5/50 62/6/62 61/6/61 49/5/49
f 51/5/51 63/6/63 62/6/62 50/5/50
f 52/5/52 64/6/64 63/6/63 51/5/51
f 53/5/53 65/6/65 64/6/64 52/5/52
f 54/5/54 66/6/66 65/6/65 53/5/53
f 55/5/55 67/6/67 66/6/66 54/5/54
f 56/5/56 68/6/68 67/6/67 55/5/55
f 57/5/57 69/6/69 68/6/68 56/5/56
f 58/5/58 70/6/70 69/6/69 57/5/57
f 59/5/59 71/6/71 70/6/70 58/5/58
f 60/5/60 72/6/72 71/6/71 59/5/59
f 61/6/61 73/7/73 84/7/84 72/6/72
f 62/6/62 74/7/74 73/7/73 61/6/61
f 63/6/63 75/7/75 74/7/74 62/6/62
f 64/6/64 76/7/76 75/7/75 63/6/63
f 65/6/65 77/7/77 76/7/76 64/6/64
f 66/6/66 78/7/78 77/7/77 65/6/65
f 67/6/67 79/7/79 78/7/78 66/6/66
f 68/6/68 80/7/80 79/7/79 67/6/67
f 69/6/69 81/7/81 80/7/80 68/6/68
f 70/6/70 82/7/82 81/7/81 69/6/69
f 71/6/71 83/7/83 82/7/82 70/6/70
f 72/6/72 84/7/84 83/7/83 71/6/71
f 73/7/73 85/8/85 96/8/96 84/7/84
f 74/7/74 86/8/86 85/8/85 73/7/73
f 75/7/75 87/8/87 86/8/86 74/7/74
f 76/7/76 88/8/88 87/8/87 75/7/75
f 77/7/77 89/8/89 88/8/88 76/7/76
f 78/7/78 90/8/90 89/8/89 77/7/77
f 79/7/79 91/8/91 90/8/90 78/7/78
f 80/7/80 92/8/92 91/8/91 79/7/79
f 81/7/81 93/8/93 92/8/92 80/7/80
f 82/7/82 94/8/94 93/8/93 81/7/81
f 83/7/83 95/8/95 94/8/94 82/7/82
f 84/7/84 96/8/96 95/8/95 83/7/83
f 85/8/85 97/9/97 108/9/108 96/8/96
f 86/8/86 98/9/98 97/9/97 85/8/85
f 87/8/87 99/9/99 98/9/98 86/8/86
f 88/8/88 100/9/100 99/9/99 87/8/87
f 89/8/89 101/9/101 100/9/100 88/8/88
f 90/8/90 102/9/102 101/9/101 89/8/89
f 91/8/91 103/9/103 102/9/102 90/8/90
f 92/8/92 104/9/104 103/9/103 91/8/91
f 93/8/93 105/9/105 104/9/104 92/8/92
f 94/8/94 106/9/106 105/9/105 93/8/93
f 95/8/95 107/9/107 106/9/106 94/8/94
f 96/8/96 108/9/108 107/9/107 95/8/95
f 97/9/97 109/10/109 120/10/120 108/9/108
f 98/9/98 110/10/110 109/10/109 97/9/97
f 99/9/99 111/10/111 110/10/110 98/9/98
f 100/9/100 112/10/112 111/10/111 99/9/99
f 101/9/101 113/10/113 112/10/112 100/9/100
f 102/9/102 114/10/114 113/10/113 101/9/101
f 103/9/103 115/10/115 114/10/114 102/9/102
f 104/9/104 116/10/116 115/10/115 103/9/103
f 105/9/105 117/10/117 116/10/116 104/9/104
f 106/9/106 118/10/118 117/10/117 105/9/105
f 107/9/107 119/10/119 118/10/118 106/9/106
f 108/9/108 120/10/120 119/10/119 107/9/107
f 109/10/109 121/11/121 132/11/132 120/10/120
f 110/10/110 122/11/122 121/11/121 109/10/109
f 111/10/111 123/11/123 122/11/122 110/10/110
f 112/10/112 124/11/124 123/11/123 111/10/111
f 113/10/113 125/11/125 124/11/124 112/10/112
f 114/10/114 126/11/126 125/11/125 113/10/113
f 115/10/115 127/11/127 126/11/126 114/10/114
f 116/10/116 128/11/128 127/11/127 115/10/115
f 117/10/117 129/11/129 128/11/128 116/10/116
f 118/10/118 130/11/130 129/11/129 117/10/117
f 119/10/119 131/11/131 130/11/130 118/10/118
f 120/10/120 132/11/132 131/11/131 119/10/119
f 121/11/121 133/12/133 144/12/144 132/11/132
f 122/11/122 134/12/134 133/12/133 121/11/121
f 123/11/123 135/12/135 134/12/134 122/11/122
f 124/11/124 136/12/136 135/12/135 123/11/123
f 125/11/125 137/12/137 136/12/136 124/11/124
f 126/11/126 138/12/138 137/12/137 125/11/125
f 127/11/127 139/12/139 138/12/138 126/11/126
f 128/11/128 140/12/140 139/12/139 127/11/127
f 129/11/129 141/12/141 140/12/140 128/11/128
f 130/11/130 142/12/142 141/12/141 129/11/129
f 131/11/131 143/12/143 142/12/142 130/11/130
f 132/11/132 144/12/144 143/12/143 131/11/131
f 133/12/133 145/13/145 156/13/156 144/12/144
f 134/12/134 146/13/146 145/13/145 133/12/133
f 135/12/135 147/13/147 146/13/146 134/12/134
f 136/12/136 148/13/148 147/13/147 135/12/135
f 137/12/137 149/13/149 148/13/148 136/12/136
f 138/12/138 150/13/150 149/13/149 137/12/137
f 139/12/139 151/13/151 150/13/150 138/12/138
f 140/12/140 152/13/152 151/13/151 139/12/139
f 141/12/141 153/13/153 152/13/152 140/12/140
f 142/12/142 154/13/154 153/13/153 141/12/141
f 143/12/143 155/13/155 154/13/154 142/12/142
f 144/12/144 156/13/156 155/13/155 143/12/143
f 145/13/145 157/14/157 168/14/168 156/13/156
f 146/13/146 158/14/158 157/14/157 145/13/145
f 147/13/147 159/14/159 158/14/158 146/13/146
f 148/13/148 160/14/160 159/14/159 147/13/147
f 149/13/149 161/14/161 160/14/160 148/13/148
f 150/13/150 162/14/162 161/14/161 149/13/149
f 151/13/151 163/14/163 162/14/162 150/13/150
f 152/13/152 164/14/164 163/14/163 151/13/151
f 153/13/153 165/14/165 164/14/164 152/13/152
f 154/13/154 166/14/166 165/14/165 153/13/153
f 155/13/155 167/14/167 166/14/166 154/13/154
f 156/13/156 168/14/168 167/14/167 155/13/155
f 157/14/157 169/15/169 180/15/180 168/14/168
f 158/14/158 170/15/170 169/15/169 157/14/157
f 159/14/159 171/15/171 170/15/170 158/14/158
f 160/14/160 172/15/172 171/15/171 159/14/159
f 161/14/161 173/15/173 172/15/172 160/14/160
f 162/14/162 174/15/174 173/15/173 161/14/161
f 163/14/163 175/15/175 174/15/174 162/14/162
f 164/14/164 176/15/176 175/15/175 163/14/163
f 165/14/165 177/15/177 176/15/176 164/14/164
f 166/14/166 178/15/178 177/15/177 165/14/165
f 167/14/167 179/15/179 178/15/178 166/14/166
f 168/14/168 180/15/180 179/15/179 167/14/167
f 169/15/169 181/16/181 192/16/192 180/15/180
f 170/15/170 182/16/182 181/16/181 169/15/169
f 171/15/171 183/16/183 182/16/182 170/15/170
f 172/15/172 184/16/184 183/16/183 171/15/171
f 173/15/173 185/16/185 184/16/184 172/15/172
f 174/15/174 186/16/186 185/16/185 173/15/173
f 175/15/175 187/16/187 186/16/186 174/15/174
f 176/15/176 188/16/188 187/16/187 175/15/175
f 177/15/177 189/16/189 188/16/188 176/15/176
f 178/15/178 190/16/190 189/16/189 177/15/177
f 179/15/179 191/16/191 190/16/190 178/15/178
f 180/15/180 192/16/192 191/16/191 179/15/179
f 181/16/181 193/17/193 204/17/204 192/16/192
f 182/16/182 194/17/194 193/17/193 181/16/181
f 183/16/183 195/17/195 194/17/194 182/16/182
f 184/16/184 196/17/196 195/17/195 183/16/183
f 185/16/185 197/17/197 196/17/196 184/16/184
f 186/16/186 198/17/198 197/17/197 185/16/185
f 187/16/187 199/17/199 198/17/198 186/16/186
f 188/16/188 200/17/200 199/17/199 187/16/187
f 189/16/189 201/17/201 200/17/200 188/16/188
f 190/16/190 202/17/202 201/17/201 189/16/189
f 191/16/191 203/17/203 202/17/202 190/16/190
f 192/16/192 204/17/204 203/17/203 191/16/191
