# Blender 5.0.0
# www.blender.org
o Island_7
v 2.204546 0.000000 0.369985
v 0.806293 0.000000 1.236100
v -1.885743 0.000000 -0.051361
v -1.325283 0.000000 1.166487
v -1.130883 0.000000 -1.127051
v 0.741785 0.000000 -1.144895
v -2.003682 -0.078801 -0.059690
v -1.199017 -0.078801 -1.206353
v 2.356479 -0.078801 0.389455
v 0.865972 -0.078801 1.312716
v -1.406243 -0.078801 1.238510
v 0.797207 -0.078801 -1.225374
vn 0.3477 0.9367 0.0418
vn 0.0788 0.9090 0.4094
vn -0.3704 0.9281 -0.0368
vn -0.1905 0.9078 0.3737
vn -0.1617 0.9119 -0.3771
vn 0.1381 0.9104 -0.3901
vn -0.5526 0.8321 -0.0479
vn -0.3042 0.7935 -0.5271
vn 0.4539 0.8892 0.0571
vn 0.1984 0.7563 0.6233
vn -0.3544 0.8026 0.4798
vn 0.2630 0.7737 -0.5764
vt 0.000000 0.000000
s 1
f 3/1/3 4/1/4 2/1/2 1/1/1 6/1/6 5/1/5
f 4/1/4 11/1/11 10/1/10 2/1/2
f 5/1/5 8/1/8 7/1/7 3/1/3
f 1/1/1 9/1/9 12/1/12 6/1/6
f 3/1/3 7/1/7 11/1/11 4/1/4
f 2/1/2 10/1/10 9/1/9 1/1/1
f 6/1/6 12/1/12 8/1/8 5/1/5
o Island_7.001
v -2.003682 -0.078801 -0.059690
v -1.199017 -0.078801 -1.206353
v 2.356479 -0.078801 0.389455
v 0.865972 -0.078801 1.312716
v -1.406243 -0.078801 1.238510
v 0.797207 -0.078801 -1.225374
v -1.890265 -0.311928 -0.051680
v -1.133495 -0.311928 -1.130091
v 2.210371 -0.311928 0.370731
v 0.808581 -0.311928 1.239038
v -1.328387 -0.311928 1.169248
v 0.743910 -0.311928 -1.147980
v -1.495841 -0.681797 -0.023825
v -0.905634 -0.681797 -0.864883
v 1.702261 -0.681797 0.305615
v 0.609000 -0.681797 0.982811
v -1.057631 -0.681797 0.928381
v 0.558562 -0.681797 -0.878835
v -0.865879 -1.045241 0.020664
v -0.541700 -1.045241 -0.441296
v 0.890717 -1.045241 0.201613
v 0.290230 -1.045241 0.573571
v -0.625186 -1.045241 0.543675
v 0.262527 -1.045241 -0.448960
v -0.498024 -1.369476 0.046643
v -0.329188 -1.369476 -0.193952
v 0.416832 -1.369476 0.140883
v 0.104091 -1.369476 0.334603
v -0.372669 -1.369476 0.319033
v 0.089663 -1.369476 -0.197943
v -0.103177 -1.908506 0.072952
vn -0.8953 -0.4383 -0.0790
vn -0.4468 -0.3891 -0.8056
vn 0.8388 -0.5342 0.1052
vn 0.2639 -0.3491 0.8991
vn -0.5292 -0.3992 0.7487
vn 0.3738 -0.3681 -0.8514
vn -0.8198 -0.5677 -0.0751
vn -0.3930 -0.5190 -0.7591
vn 0.7631 -0.6393 0.0946
vn 0.2253 -0.4829 0.8462
vn -0.4623 -0.5251 0.7145
vn 0.3322 -0.5002 -0.7996
vn -0.6154 -0.7861 -0.0580
vn -0.2949 -0.7410 -0.6033
vn 0.5342 -0.8429 0.0653
vn 0.1707 -0.7047 0.6887
vn -0.3421 -0.7453 0.5722
vn 0.2549 -0.7238 -0.6412
vn -0.5578 -0.8283 -0.0526
vn -0.2720 -0.7825 -0.5602
vn 0.4434 -0.8947 0.0540
vn 0.1625 -0.7341 0.6593
vn -0.3109 -0.7908 0.5273
vn 0.2383 -0.7617 -0.6025
vn -0.7177 -0.6931 -0.0669
vn -0.3433 -0.6337 -0.6932
vn 0.6039 -0.7936 0.0742
vn 0.1981 -0.5808 0.7896
vn -0.3970 -0.6456 0.6523
vn 0.2955 -0.6105 -0.7349
vn -0.0272 -0.9996 -0.0001
vt 0.036040 0.080736
vt 0.083036 0.116233
vt 0.310385 -0.016674
vt 0.288226 -0.071612
vt 0.362244 0.090310
vt 0.722209 0.115459
vt 0.768418 0.012409
vt 0.397310 1.215170
vt 0.416739 1.157976
vt 0.067593 1.090981
vt 0.016633 1.129232
vt -0.040137 0.695486
vt 0.016567 0.689865
vt 0.002093 0.348866
vt -0.054604 0.337800
vt 0.779093 -0.042846
vt 0.124663 0.670131
vt 0.258322 0.628221
vt 0.256532 0.435726
vt 0.112607 0.382015
vt 0.180224 0.193509
vt 0.173839 1.002733
vt 0.447716 1.031484
vt 0.311507 0.850547
vt 0.393599 0.721167
vt 0.356357 0.591989
vt 0.427686 0.235709
vt 0.636307 0.245182
vt 0.312089 0.309879
vt 0.469601 0.852942
vt 0.396596 0.397570
vt 0.462704 0.350756
vt 0.478118 0.722414
vt 0.359668 0.474092
vt 0.576055 0.350563
vt 0.501239 0.527818
s 1
f 13/2/13 19/3/19 23/4/23 17/5/17
f 23/4/23 29/6/29 28/7/28 22/8/22
f 16/9/16 22/10/22 21/11/21 15/12/15
f 18/13/18 24/14/24 20/15/20 14/16/14
f 17/5/17 23/4/23 22/8/22 16/17/16
f 14/16/14 20/15/20 19/3/19 13/2/13
f 15/12/15 21/11/21 24/14/24 18/13/18
f 30/18/30 36/19/36 32/20/32 26/21/26
f 20/15/20 26/21/26 25/22/25 19/3/19
f 21/11/21 27/23/27 30/18/30 24/14/24
f 19/3/19 25/22/25 29/6/29 23/4/23
f 22/10/22 28/24/28 27/23/27 21/11/21
f 24/14/24 30/18/30 26/21/26 20/15/20
f 33/25/33 39/26/39 42/27/42 36/19/36
f 29/6/29 35/28/35 34/29/34 28/7/28
f 26/21/26 32/20/32 31/30/31 25/22/25
f 27/23/27 33/25/33 36/19/36 30/18/30
f 25/22/25 31/30/31 35/28/35 29/6/29
f 28/24/28 34/31/34 33/25/33 27/23/27
f 31/30/31 37/32/37 41/33/41 35/28/35
f 34/31/34 40/34/40 39/26/39 33/25/33
f 36/19/36 42/27/42 38/35/38 32/20/32
f 35/28/35 41/33/41 40/36/40 34/29/34
f 32/20/32 38/35/38 37/32/37 31/30/31
f 37/32/37 43/37/43 41/33/41
f 41/33/41 43/37/43 40/36/40
f 40/34/40 43/37/43 39/26/39
f 39/26/39 43/37/43 42/27/42
f 42/27/42 43/37/43 38/35/38
f 38/35/38 43/37/43 37/32/37
