# Blender 5.0.0
# www.blender.org
o Island_13
v 0.354207 0.000000 1.505561
v -0.529438 0.000000 1.771448
v -1.678171 0.000000 1.091584
v -0.938378 0.000000 1.291231
v 1.034573 0.000000 1.731714
v 1.323102 0.000000 1.090026
v 1.696908 0.000000 0.650174
v 1.740350 0.000000 -0.136320
v 1.231374 0.000000 -1.320034
v -1.337435 0.000000 -1.300947
v 0.356608 -0.025602 1.530720
v 1.049157 -0.025602 1.760379
v -0.538028 -0.025602 1.799815
v -0.956990 -0.025602 1.310968
v -1.705558 -0.025602 1.109171
v 1.344506 -0.025602 1.105672
v 1.724223 -0.025602 0.659872
v 1.769446 -0.025602 -0.140430
v 1.244997 -0.025602 -1.348352
v -1.360974 -0.025602 -1.328988
vn -0.0010 0.9177 0.3972
vn -0.1212 0.8958 0.4275
vn -0.3616 0.8984 0.2492
vn -0.2138 0.9229 0.3202
vn 0.1635 0.8942 0.4168
vn 0.3203 0.9251 0.2040
vn 0.3827 0.9103 0.1576
vn 0.4007 0.9131 -0.0749
vn 0.2487 0.9044 -0.3467
vn -0.2836 0.9080 -0.3083
vn -0.0238 0.6972 0.7165
vn 0.2546 0.7864 0.5628
vn -0.1795 0.7634 0.6204
vn -0.3568 0.7132 0.6034
vn -0.5054 0.7930 0.3401
vn 0.5908 0.7175 0.3690
vn 0.6143 0.7504 0.2440
vn 0.6653 0.7371 -0.1188
vn 0.3165 0.7864 -0.5304
vn -0.3861 0.8129 -0.4360
vt 0.000000 0.000000
s 1
f 1/1/1 5/1/5 6/1/6 7/1/7 8/1/8 9/1/9 10/1/10 3/1/3 4/1/4 2/1/2
f 7/1/7 6/1/6 16/1/16 17/1/17
f 2/1/2 4/1/4 14/1/14 13/1/13
f 3/1/3 10/1/10 20/1/20 15/1/15
f 8/1/8 7/1/7 17/1/17 18/1/18
f 4/1/4 3/1/3 15/1/15 14/1/14
f 5/1/5 1/1/1 11/1/11 12/1/12
f 9/1/9 8/1/8 18/1/18 19/1/19
f 6/1/6 5/1/5 12/1/12 16/1/16
f 1/1/1 2/1/2 13/1/13 11/1/11
f 10/1/10 9/1/9 19/1/19 20/1/20
o Island_13.001
v 0.356608 -0.025602 1.530720
v 1.049157 -0.025602 1.760379
v -0.538028 -0.025602 1.799815
v -0.956990 -0.025602 1.310968
v -1.705558 -0.025602 1.109171
v 1.344506 -0.025602 1.105672
v 1.724223 -0.025602 0.659872
v 1.769446 -0.025602 -0.140430
v 1.244997 -0.025602 -1.348352
v -1.360974 -0.025602 -1.328988
v 0.355738 -0.084309 1.518664
v 1.038851 -0.084309 1.745194
v -0.526709 -0.084309 1.784092
v -0.939962 -0.084309 1.301906
v -1.678331 -0.084309 1.102859
v 1.330176 -0.084309 1.099408
v 1.704719 -0.084309 0.659681
v 1.749326 -0.084309 -0.129717
v 1.232022 -0.084309 -1.321180
v -1.338442 -0.084309 -1.302081
v 0.343632 -0.252760 1.350949
v 0.895477 -0.252760 1.533948
v -0.369243 -0.252760 1.565372
v -0.703084 -0.252760 1.175844
v -1.299567 -0.252760 1.015045
v 1.130820 -0.252760 1.012257
v 1.433390 -0.252760 0.657029
v 1.469426 -0.252760 0.019324
v 1.051528 -0.252760 -0.943186
v -1.024992 -0.252760 -0.927757
v 0.326414 -0.369275 1.112418
v 0.691564 -0.369275 1.233507
v -0.145288 -0.369275 1.254300
v -0.366187 -0.369275 0.996553
v -0.760873 -0.369275 0.890154
v 0.847289 -0.369275 0.888309
v 1.047497 -0.369275 0.653258
v 1.071340 -0.369275 0.231295
v 0.794822 -0.369275 -0.405588
v -0.579190 -0.369275 -0.395378
v 0.311852 -0.534226 0.910660
v 0.519088 -0.534226 0.979382
v 0.044143 -0.534226 0.991183
v -0.081226 -0.534226 0.844902
v -0.305226 -0.534226 0.784516
v 0.607468 -0.534226 0.783469
v 0.721093 -0.534226 0.650069
v 0.734626 -0.534226 0.410589
v 0.577691 -0.534226 0.049133
v -0.202113 -0.534226 0.054928
v 0.302492 -0.673984 0.780990
v 0.408238 -0.673984 0.816057
v 0.165889 -0.673984 0.822079
v 0.101917 -0.673984 0.747436
v -0.012383 -0.673984 0.716623
v 0.453336 -0.673984 0.716089
v 0.511315 -0.673984 0.648019
v 0.518220 -0.673984 0.525820
v 0.438142 -0.673984 0.341381
v 0.040232 -0.673984 0.344338
v 0.225669 -0.975111 0.626046
vn -0.0172 -0.2009 0.9795
vn 0.4009 -0.2947 0.8674
vn -0.2969 -0.3000 0.9065
vn -0.4878 -0.2696 0.8303
vn -0.7843 -0.4135 0.4626
vn 0.8151 -0.2545 0.5205
vn 0.8935 -0.2979 0.3359
vn 0.9203 -0.3480 -0.1788
vn 0.4731 -0.4540 -0.7550
vn -0.5630 -0.5130 -0.6479
vn -0.0166 -0.4970 0.8676
vn 0.3324 -0.5359 0.7761
vn -0.2262 -0.5508 0.8034
vn -0.4087 -0.5924 0.6943
vn -0.6257 -0.6319 0.4574
vn 0.6970 -0.5627 0.4444
vn 0.7625 -0.5698 0.3066
vn 0.7674 -0.6268 -0.1353
vn 0.4103 -0.6783 -0.6096
vn -0.4669 -0.7090 -0.5285
vn -0.0101 -0.8282 0.5603
vn 0.1514 -0.8695 0.4701
vn -0.0808 -0.8725 0.4819
vn -0.2304 -0.8942 0.3839
vn -0.2719 -0.9154 0.2968
vn 0.4069 -0.8764 0.2577
vn 0.4221 -0.8860 0.1922
vn 0.3908 -0.9185 -0.0597
vn 0.1908 -0.9473 -0.2574
vn -0.1886 -0.9597 -0.2085
vn -0.0116 -0.8314 0.5555
vn 0.1125 -0.9300 0.3500
vn -0.0696 -0.9261 0.3709
vn -0.2171 -0.8944 0.3911
vn -0.1986 -0.9587 0.2035
vn 0.3847 -0.8897 0.2459
vn 0.3506 -0.9244 0.1501
vn 0.3244 -0.9443 -0.0555
vn 0.1354 -0.9723 -0.1905
vn -0.1302 -0.9808 -0.1452
vn -0.0127 -0.7218 0.6919
vn 0.1663 -0.8541 0.4929
vn -0.1008 -0.8500 0.5171
vn -0.2887 -0.8164 0.5001
vn -0.2920 -0.9104 0.2932
vn 0.5025 -0.8032 0.3200
vn 0.4823 -0.8508 0.2085
vn 0.4531 -0.8882 -0.0758
vn 0.1999 -0.9390 -0.2798
vn -0.1955 -0.9562 -0.2177
vn -0.0337 -0.5560 0.8305
vn 0.2307 -0.7560 0.6126
vn -0.1341 -0.7180 0.6830
vn -0.4148 -0.6393 0.6476
vn -0.4363 -0.8066 0.3989
vn 0.6075 -0.6936 0.3871
vn 0.6037 -0.7535 0.2604
vn 0.5961 -0.7971 -0.0963
vn 0.2881 -0.8712 -0.3975
vn -0.2962 -0.8927 -0.3398
vn -0.0533 -0.9915 0.1188
vt 0.341725 2.373677
vt -0.075845 2.055711
vt -0.041525 2.021184
vt 0.366606 2.331136
vt -1.049812 0.356155
vt -1.425942 -0.009180
vt -1.101577 0.041609
vt -0.787130 0.341900
vt -1.099197 0.372428
vt -1.479960 -0.011135
vt -0.674105 1.534909
vt -0.608459 1.089988
vt -0.561831 1.068835
vt -0.627962 1.512733
vt 1.223314 2.797754
vt 1.235973 2.748755
vt -0.259203 1.762781
vt -0.225484 1.726374
vt -1.062823 0.767714
vt -1.019212 0.743897
vt -0.727982 -1.589867
vt 1.235972 -1.447820
vt 1.226958 -1.397186
vt -0.698020 -1.541791
vt -0.433993 1.385991
vt -0.384718 0.985582
vt -0.192243 0.892171
vt -0.203774 1.197488
vt 0.456436 2.066384
vt 1.189133 2.401822
vt -0.088902 1.549790
vt -0.786126 0.679150
vt 1.085484 -1.076094
vt -0.489129 -1.201697
vt 0.087779 1.814576
vt 0.055517 1.324605
vt 0.014508 1.002749
vt 0.177769 1.093051
vt 0.503649 1.688704
vt 1.045956 1.894321
vt -0.473581 0.637465
vt 0.858691 -0.638261
vt -0.210207 -0.722106
vt 0.208404 1.520905
vt -0.462582 0.383375
vt -0.666578 0.138096
vt -0.005804 0.799995
vt -0.169530 0.607410
vt 0.046825 0.599817
vt 0.127163 0.727538
vt 0.644958 -0.233834
vt 0.023521 -0.270969
vt 0.288041 1.216393
vt -0.162594 0.438165
vt -0.269823 0.261154
vt 0.481794 1.313891
vt 0.825469 1.405684
vt 0.505382 0.053114
vt 0.175231 0.060581
vt 0.250670 0.906677
vt 0.318847 0.975942
vt 0.044151 0.496944
vt 0.004007 0.375623
vt 0.427240 1.027062
vt 0.160493 0.847949
vt 0.606866 1.058369
vt 0.340540 0.505023
s 1
f 28/2/28 27/3/27 37/4/37 38/5/38
f 34/6/34 35/7/35 45/8/45 44/9/44
f 24/10/24 25/11/25 35/7/35 34/6/34
f 22/12/22 21/13/21 31/14/31 32/15/32
f 29/16/29 28/2/28 38/5/38 39/17/39
f 26/18/26 22/12/22 32/15/32 36/19/36
f 21/13/21 23/20/23 33/21/33 31/14/31
f 30/22/30 29/23/29 39/24/39 40/25/40
f 27/3/27 26/18/26 36/19/36 37/4/37
f 23/20/23 24/10/24 34/6/34 33/21/33
f 25/11/25 30/22/30 40/25/40 35/7/35
f 42/26/42 41/27/41 51/28/51 52/29/52
f 32/15/32 31/14/31 41/27/41 42/26/42
f 39/17/39 38/5/38 48/30/48 49/31/49
f 36/19/36 32/15/32 42/26/42 46/32/46
f 31/14/31 33/21/33 43/33/43 41/27/41
f 40/25/40 39/24/39 49/34/49 50/35/50
f 37/4/37 36/19/36 46/32/46 47/36/47
f 33/21/33 34/6/34 44/9/44 43/33/43
f 35/7/35 40/25/40 50/35/50 45/8/45
f 38/5/38 37/4/37 47/36/47 48/30/48
f 56/37/56 52/29/52 62/38/62 66/39/66
f 49/31/49 48/30/48 58/40/58 59/41/59
f 46/32/46 42/26/42 52/29/52 56/37/56
f 41/27/41 43/33/43 53/42/53 51/28/51
f 50/35/50 49/34/49 59/43/59 60/44/60
f 47/36/47 46/32/46 56/37/56 57/45/57
f 43/33/43 44/9/44 54/46/54 53/42/53
f 45/8/45 50/35/50 60/44/60 55/47/55
f 48/30/48 47/36/47 57/45/57 58/40/58
f 44/9/44 45/8/45 55/47/55 54/46/54
f 61/48/61 63/49/63 73/50/73 71/51/71
f 51/28/51 53/42/53 63/49/63 61/48/61
f 60/44/60 59/43/59 69/52/69 70/53/70
f 57/45/57 56/37/56 66/39/66 67/54/67
f 53/42/53 54/46/54 64/55/64 63/49/63
f 55/47/55 60/44/60 70/53/70 65/56/65
f 58/40/58 57/45/57 67/54/67 68/57/68
f 54/46/54 55/47/55 65/56/65 64/55/64
f 52/29/52 51/28/51 61/48/61 62/38/62
f 59/41/59 58/40/58 68/57/68 69/58/69
f 70/53/70 69/52/69 79/59/79 80/60/80
f 67/54/67 66/39/66 76/61/76 77/62/77
f 63/49/63 64/55/64 74/63/74 73/50/73
f 65/56/65 70/53/70 80/60/80 75/64/75
f 68/57/68 67/54/67 77/62/77 78/65/78
f 64/55/64 65/56/65 75/64/75 74/63/74
f 62/38/62 61/48/61 71/51/71 72/66/72
f 69/58/69 68/57/68 78/65/78 79/67/79
f 66/39/66 62/38/62 72/66/72 76/61/76
f 71/51/71 73/50/73 81/68/81
f 73/50/73 74/63/74 81/68/81
f 74/63/74 75/64/75 81/68/81
f 75/64/75 80/60/80 81/68/81
f 80/60/80 79/59/79 81/68/81
f 79/67/79 78/65/78 81/68/81
f 78/65/78 77/62/77 81/68/81
f 77/62/77 76/61/76 81/68/81
f 76/61/76 72/66/72 81/68/81
f 72/66/72 71/51/71 81/68/81
