# Blender 5.0.0
# www.blender.org
o Island_8
v -1.779285 0.000000 -0.053208
v -0.619456 0.000000 -1.270849
v 1.498978 0.000000 0.423076
v 1.598426 0.000000 -1.076149
v 0.137256 0.000000 1.726486
v -1.291605 0.000000 1.177783
v 1.605307 -0.076177 0.441208
v 0.151650 -0.076177 1.832616
v -1.894284 -0.076177 -0.067232
v -0.656151 -0.076177 -1.367081
v 1.711470 -0.076177 -1.159236
v -1.373679 -0.076177 1.246868
vn -0.3672 0.9262 -0.0849
vn -0.1369 0.9214 -0.3638
vn 0.3319 0.9252 0.1838
vn 0.2518 0.9352 -0.2489
vn 0.0900 0.9178 0.3867
vn -0.2559 0.9273 0.2732
vn 0.5413 0.8096 0.2271
vn 0.1072 0.8145 0.5701
vn -0.5414 0.8352 -0.0972
vn -0.2104 0.8040 -0.5562
vn 0.3685 0.8785 -0.3040
vn -0.4140 0.8145 0.4064
vt 0.000000 0.000000
s 1
f 3/1/3 4/1/4 2/1/2 1/1/1 6/1/6 5/1/5
f 5/1/5 8/1/8 7/1/7 3/1/3
f 1/1/1 9/1/9 12/1/12 6/1/6
f 3/1/3 7/1/7 11/1/11 4/1/4
f 2/1/2 10/1/10 9/1/9 1/1/1
f 6/1/6 12/1/12 8/1/8 5/1/5
f 4/1/4 11/1/11 10/1/10 2/1/2
o Island_8.001
v 1.605307 -0.076177 0.441208
v 0.151650 -0.076177 1.832616
v -1.894284 -0.076177 -0.067232
v -0.656151 -0.076177 -1.367081
v 1.711470 -0.076177 -1.159236
v -1.373679 -0.076177 1.246868
v 1.549114 -0.263546 0.431617
v 0.144043 -0.260543 1.776525
v -1.833509 -0.265531 -0.059808
v -0.636760 -0.268362 -1.316246
v 1.651731 -0.267344 -1.115309
v -1.330305 -0.262278 1.210362
v 1.379742 -0.483251 0.402793
v 0.121114 -0.487428 1.607526
v -1.650324 -0.487886 -0.037533
v -0.578405 -0.484167 -1.162900
v 1.471783 -0.480839 -0.983079
v -1.199594 -0.488936 1.100334
v 1.131962 -0.738527 0.361382
v 0.087622 -0.764016 1.360842
v -1.382533 -0.761786 -0.005494
v -0.493942 -0.738969 -0.938134
v 1.209847 -0.721815 -0.790995
v -1.008639 -0.770565 0.939539
v 0.652899 -1.151911 0.279433
v 0.022758 -1.164276 0.882376
v -0.864361 -1.161087 0.057950
v -0.328083 -1.149954 -0.504678
v 0.699816 -1.142981 -0.416091
v -0.638709 -1.166336 0.628146
v -0.039617 -1.490977 0.118397
vn 0.8758 -0.2820 0.3917
vn 0.1834 -0.2913 0.9389
vn -0.9353 -0.3074 -0.1756
vn -0.3400 -0.2738 -0.8997
vn 0.7135 -0.3623 -0.5998
vn -0.6773 -0.2898 0.6762
vn 0.8164 -0.4340 0.3808
vn 0.1782 -0.4314 0.8844
vn -0.8736 -0.4560 -0.1700
vn -0.3198 -0.4270 -0.8458
vn 0.6494 -0.5123 -0.5620
vn -0.6328 -0.4358 0.6401
vn 0.6929 -0.6379 0.3361
vn 0.1580 -0.6314 0.7592
vn -0.7326 -0.6643 -0.1484
vn -0.2727 -0.6369 -0.7212
vn 0.4965 -0.7435 -0.4480
vn -0.5428 -0.6295 0.5559
vn 0.6328 -0.7116 0.3053
vn 0.1481 -0.7115 0.6869
vn -0.6591 -0.7387 -0.1409
vn -0.2458 -0.7098 -0.6602
vn 0.4354 -0.8054 -0.4022
vn -0.4907 -0.7117 0.5027
vn 0.5194 -0.8169 0.2509
vn 0.1257 -0.8300 0.5434
vn -0.5176 -0.8470 -0.1212
vn -0.1991 -0.8117 -0.5490
vn 0.3634 -0.8659 -0.3438
vn -0.3772 -0.8404 0.3892
vn 0.0153 -0.9997 -0.0171
vt -0.245779 0.435385
vt -0.172482 0.419022
vt -0.214721 -0.089050
vt -0.285162 -0.125864
vt -0.110131 -0.043404
vt 0.484594 -0.403215
vt 0.437954 -0.492419
vt 0.400996 -0.557824
vt 1.012298 -0.663638
vt 0.993941 -0.734892
vt 0.513516 1.306137
vt 0.548668 1.242360
vt 0.110672 0.974284
vt 0.055156 1.020525
vt 0.986281 1.445110
vt 1.006154 1.373505
vt 0.541137 -0.284805
vt 0.997963 -0.401951
vt 1.013006 -0.554812
vt 0.188789 0.905457
vt -0.067170 0.405301
vt 1.013006 1.261687
vt 0.593475 1.147027
vt 0.291017 0.813425
vt 0.459583 0.648370
vt 0.318268 0.371083
vt 0.069440 0.391505
vt 0.643025 1.015349
vt 0.027774 0.012829
vt 1.005277 1.101388
vt 0.933796 0.799616
vt 0.693424 0.776823
vt 0.293764 0.123480
vt 0.624516 -0.058610
vt 0.926859 -0.120239
vt 0.660660 0.323383
s 1
f 13/2/13 19/3/19 23/4/23 17/5/17
f 23/4/23 29/6/29 28/7/28 22/8/22
f 16/9/16 22/8/22 21/10/21 15/11/15
f 18/12/18 24/13/24 20/14/20 14/15/14
f 17/5/17 23/4/23 22/8/22 16/9/16
f 14/15/14 20/14/20 19/3/19 13/2/13
f 15/16/15 21/17/21 24/13/24 18/12/18
f 28/7/28 34/18/34 33/19/33 27/20/27
f 20/14/20 26/21/26 25/22/25 19/3/19
f 21/17/21 27/23/27 30/24/30 24/13/24
f 19/3/19 25/22/25 29/6/29 23/4/23
f 22/8/22 28/7/28 27/20/27 21/10/21
f 24/13/24 30/24/30 26/21/26 20/14/20
f 32/25/32 38/26/38 37/27/37 31/28/31
f 30/24/30 36/29/36 32/25/32 26/21/26
f 29/6/29 35/30/35 34/18/34 28/7/28
f 26/21/26 32/25/32 31/28/31 25/22/25
f 27/23/27 33/31/33 36/29/36 30/24/30
f 25/22/25 31/28/31 35/30/35 29/6/29
f 33/31/33 39/32/39 42/33/42 36/29/36
f 31/28/31 37/27/37 41/34/41 35/30/35
f 34/18/34 40/35/40 39/36/39 33/19/33
f 36/29/36 42/33/42 38/26/38 32/25/32
f 35/30/35 41/34/41 40/35/40 34/18/34
f 37/27/37 43/37/43 41/34/41
f 41/34/41 43/37/43 40/35/40
f 40/35/40 43/37/43 39/36/39
f 39/32/39 43/37/43 42/33/42
f 42/33/42 43/37/43 38/26/38
f 38/26/38 43/37/43 37/27/37
