# Blender 5.0.0
# www.blender.org
o Island_12
v 2.157376 0.000000 -0.484425
v 1.136567 0.000000 1.140221
v -2.018777 0.000000 -0.360386
v -0.952350 0.000000 1.487703
v -1.084069 0.000000 -1.347928
v 0.888643 -0.003949 -1.139637
v -2.154100 -0.112102 -0.376503
v -1.157388 -0.112102 -1.429554
v 2.299077 -0.112102 -0.508771
v 1.210552 -0.112102 1.223646
v -1.016932 -0.112102 1.594177
v 0.946183 -0.112102 -1.207447
vn 0.4319 0.8886 -0.1545
vn 0.2459 0.8836 0.3984
vn -0.4431 0.8950 -0.0522
vn -0.1800 0.8836 0.4322
vn -0.1258 0.8645 -0.4867
vn 0.1260 0.8690 -0.4786
vn -0.6309 0.7723 -0.0745
vn -0.2929 0.6831 -0.6691
vn 0.5951 0.7903 -0.1459
vn 0.4060 0.7027 0.5842
vn -0.2985 0.7420 0.6002
vn 0.2506 0.5989 -0.7606
vt 0.765210 0.782229
vt 0.765246 0.782229
vt 0.765239 0.782229
vt 0.765208 0.782229
vt 0.765195 0.778884
vt 0.765191 0.782229
vt 0.765207 0.687265
vt 0.765193 0.687265
vt 0.765210 0.687265
vt 0.765248 0.687265
vt 0.765241 0.687265
vt 0.765189 0.687265
s 1
f 3/1/3 4/2/4 2/3/2 1/4/1 6/5/6 5/6/5
f 1/4/1 9/7/9 12/8/12 6/5/6
f 3/1/3 7/9/7 11/10/11 4/2/4
f 2/3/2 10/11/10 9/7/9 1/4/1
f 6/5/6 12/8/12 8/12/8 5/6/5
f 4/2/4 11/10/11 10/11/10 2/3/2
f 5/6/5 8/12/8 7/9/7 3/1/3
o Island_12.001
v -2.154100 -0.112102 -0.376503
v -1.157388 -0.112102 -1.429554
v 2.299077 -0.112102 -0.508771
v 1.210552 -0.112102 1.223646
v -1.016932 -0.112102 1.594177
v 0.946183 -0.112102 -1.207447
v -2.094661 -0.312496 -0.369424
v -1.125184 -0.312496 -1.393701
v 2.236837 -0.312496 -0.498078
v 1.178055 -0.312496 1.187003
v -0.988566 -0.312496 1.547410
v 0.920910 -0.312496 -1.177663
v -1.882979 -0.586440 -0.344212
v -1.010491 -0.586440 -1.266016
v 2.015180 -0.586440 -0.459994
v 1.062322 -0.586440 1.056504
v -0.887541 -0.586440 1.380855
v 0.830903 -0.586440 -1.071591
v -0.927710 -1.346394 -0.230433
v -0.492916 -1.346394 -0.689804
v 1.014893 -1.346394 -0.288133
v 0.540047 -1.346394 0.467597
v -0.431645 -1.346394 0.629234
v 0.424722 -1.346394 -0.592914
v 0.013769 -1.778616 -0.070189
vn -0.9516 -0.2862 -0.1122
vn -0.3584 -0.2199 -0.9073
vn 0.9232 -0.2996 -0.2409
vn 0.5449 -0.2355 0.8048
vn -0.4197 -0.2622 0.8689
vn 0.2906 -0.1764 -0.9404
vn -0.8960 -0.4314 -0.1055
vn -0.3276 -0.3531 -0.8764
vn 0.8651 -0.4406 -0.2400
vn 0.5146 -0.3753 0.7709
vn -0.3903 -0.4036 0.8275
vn 0.2777 -0.2982 -0.9132
vn -0.7266 -0.6817 -0.0854
vn -0.2647 -0.5823 -0.7687
vn 0.6905 -0.6918 -0.2114
vn 0.4323 -0.6141 0.6603
vn -0.3150 -0.6491 0.6924
vn 0.2458 -0.5106 -0.8239
vn -0.5497 -0.8328 -0.0661
vn -0.1911 -0.7601 -0.6211
vn 0.5162 -0.8382 -0.1762
vn 0.3395 -0.7799 0.5258
vn -0.2388 -0.8047 0.5435
vn 0.1957 -0.7105 -0.6759
vn 0.0108 -0.9999 -0.0104
vt 0.781761 1.253487
vt 0.781691 1.192825
vt 0.188598 1.193100
vt 0.165336 1.251269
vt 0.359482 -0.415340
vt 0.399848 -0.320456
vt 0.764659 -0.209714
vt 0.776218 -0.313705
vt -0.344130 0.432473
vt -0.281751 0.440077
vt -0.016089 -0.055690
vt -0.066386 -0.091729
vt -0.156881 1.011322
vt -0.210584 1.044293
vt 0.334078 -0.473974
vt 0.781761 -0.377464
vt 0.507136 0.043300
vt 0.661496 0.156004
vt -0.071821 0.954386
vt -0.182661 0.449098
vt 0.059493 0.004105
vt 0.765913 1.101079
vt 0.234571 1.106135
vt 0.228162 0.737929
vt 0.164277 0.468435
vt 0.298204 0.221682
vt 0.658596 0.795887
vt 0.392877 0.811066
vt 0.479331 0.479015
s 1
f 18/13/18 24/14/24 20/15/20 14/16/14
f 21/17/21 27/18/27 30/19/30 24/20/24
f 17/21/17 23/22/23 22/23/22 16/24/16
f 14/16/14 20/15/20 19/25/19 13/26/13
f 15/27/15 21/17/21 24/20/24 18/28/18
f 13/26/13 19/25/19 23/22/23 17/21/17
f 16/24/16 22/23/22 21/17/21 15/27/15
f 27/18/27 33/29/33 36/30/36 30/19/30
f 19/25/19 25/31/25 29/32/29 23/22/23
f 22/23/22 28/33/28 27/18/27 21/17/21
f 24/14/24 30/34/30 26/35/26 20/15/20
f 23/22/23 29/32/29 28/33/28 22/23/22
f 20/15/20 26/35/26 25/31/25 19/25/19
f 29/32/29 25/31/25 31/36/31 35/37/35
f 27/18/27 28/33/28 34/38/34 33/29/33
f 26/35/26 30/34/30 36/39/36 32/40/32
f 28/33/28 29/32/29 35/37/35 34/38/34
f 31/36/31 37/41/37 35/37/35
f 35/37/35 37/41/37 34/38/34
f 34/38/34 37/41/37 33/29/33
f 33/29/33 37/41/37 36/30/36
f 36/39/36 37/41/37 32/40/32
f 32/40/32 37/41/37 31/36/31
f 25/31/25 26/35/26 32/40/32 31/36/31
