# Blender 5.0.0
# www.blender.org
o Island_11
v -3.608364 0.000000 0.385432
v 1.941629 0.000000 -0.711585
v 1.383384 0.000000 -1.471057
v -2.783979 0.000000 -0.393515
v 3.863030 0.000000 -0.387024
v 2.908821 0.000000 0.047888
v 3.454083 0.000000 0.469817
v 2.214260 0.000000 0.632098
v 2.545313 0.000000 1.151395
v 1.019876 0.000000 1.274728
v 0.760227 0.000000 1.638237
v -1.089771 0.000000 1.008589
v -2.530822 0.000000 0.956659
v -2.828162 -0.058751 -0.450047
v 1.413305 -0.058751 -1.539264
v 1.992338 -0.058751 -0.756248
v 4.012966 -0.058751 -0.406127
v -3.710580 -0.058751 0.402831
v 3.019178 -0.058751 0.058243
v 3.582643 -0.058751 0.504131
v 2.300590 -0.058751 0.669574
v 2.639842 -0.058751 1.194913
v 1.045044 -0.058751 1.327644
v 0.783249 -0.058751 1.709893
v -1.102802 -0.058751 1.062145
v -2.553286 -0.058751 1.010369
vn -0.3693 0.9277 0.0555
vn 0.2096 0.9263 -0.3131
vn 0.1290 0.9084 -0.3977
vn -0.1900 0.9138 -0.3589
vn 0.2839 0.9577 -0.0470
vn 0.2582 0.9656 0.0308
vn 0.3131 0.9434 0.1093
vn 0.2512 0.9610 0.1157
vn 0.3456 0.9208 0.1809
vn 0.1864 0.9209 0.3424
vn 0.1424 0.8934 0.4260
vn -0.0727 0.9180 0.3899
vn -0.1027 0.9037 0.4156
vn -0.3354 0.7452 -0.5763
vn 0.2144 0.7963 -0.5656
vn 0.3220 0.7124 -0.6235
vn 0.3291 0.9432 -0.0452
vn -0.4726 0.8763 0.0941
vn 0.4924 0.8665 0.0817
vn 0.3774 0.9183 0.1197
vn 0.4612 0.8545 0.2391
vn 0.4473 0.8707 0.2044
vn 0.3540 0.7139 0.6041
vn 0.1998 0.7693 0.6069
vn -0.1271 0.6930 0.7097
vn -0.1881 0.7086 0.6801
vt 0.000000 0.000000
s 1
f 4/1/4 1/1/1 13/1/13 12/1/12 11/1/11 10/1/10 9/1/9 8/1/8 7/1/7 6/1/6 5/1/5 2/1/2 3/1/3
f 6/1/6 19/1/19 17/1/17 5/1/5
f 1/1/1 18/1/18 26/1/26 13/1/13
f 7/1/7 20/1/20 19/1/19 6/1/6
f 8/1/8 21/1/21 20/1/20 7/1/7
f 9/1/9 22/1/22 21/1/21 8/1/8
f 3/1/3 15/1/15 14/1/14 4/1/4
f 10/1/10 23/1/23 22/1/22 9/1/9
f 5/1/5 17/1/17 16/1/16 2/1/2
f 11/1/11 24/1/24 23/1/23 10/1/10
f 2/1/2 16/1/16 15/1/15 3/1/3
f 12/1/12 25/1/25 24/1/24 11/1/11
f 4/1/4 14/1/14 18/1/18 1/1/1
f 13/1/13 26/1/26 25/1/25 12/1/12
o Island_11.001
v -2.828162 -0.058751 -0.450047
v 1.413305 -0.058751 -1.539264
v 1.992338 -0.058751 -0.756248
v 4.012966 -0.058751 -0.406127
v -3.710580 -0.058751 0.402831
v 3.019178 -0.058751 0.058243
v 3.582643 -0.058751 0.504131
v 2.300590 -0.058751 0.669574
v 2.639842 -0.058751 1.194913
v 1.045044 -0.058751 1.327644
v 0.783249 -0.058751 1.709893
v -1.102802 -0.058751 1.062145
v -2.553286 -0.058751 1.010369
v -2.694955 -0.258052 -0.420125
v 1.391427 -0.258052 -1.469515
v 1.949288 -0.258052 -0.715129
v 3.896033 -0.258052 -0.377811
v -3.545108 -0.258052 0.401568
v 2.938582 -0.258052 0.069580
v 3.481446 -0.258052 0.499165
v 2.246269 -0.258052 0.658559
v 2.573117 -0.258052 1.164689
v 1.036631 -0.258052 1.292566
v 0.784408 -0.258052 1.660839
v -1.032681 -0.258052 1.036776
v -2.430130 -0.258052 0.986893
v -1.856413 -0.721170 -0.231761
v 1.253703 -0.721170 -1.030445
v 1.678286 -0.721170 -0.456287
v 3.159940 -0.721170 -0.199557
v -2.503457 -0.721170 0.393623
v 2.431231 -0.721170 0.140949
v 2.844401 -0.721170 0.467903
v 1.904317 -0.721170 0.589217
v 2.153078 -0.721170 0.974428
v 0.983670 -0.721170 1.071755
v 0.791705 -0.721170 1.352045
v -0.591268 -0.721170 0.877075
v -1.654856 -0.721170 0.839109
v -0.669381 -1.134703 0.034884
v 1.058742 -1.134703 -0.408902
v 1.294661 -1.134703 -0.089873
v 2.117936 -1.134703 0.052778
v -1.028909 -1.134703 0.382376
v 1.713031 -1.134703 0.241979
v 1.942607 -1.134703 0.423650
v 1.420254 -1.134703 0.491057
v 1.558477 -1.134703 0.705098
v 0.908700 -1.134703 0.759177
v 0.802035 -1.134703 0.914919
v 0.033592 -1.134703 0.651004
v -0.557387 -1.134703 0.629909
v 0.111999 -1.609142 0.210407
v 0.930405 -1.609142 0.000239
v 1.042131 -1.609142 0.151324
v 1.432019 -1.609142 0.218881
v -0.058267 -1.609142 0.374972
v 1.240264 -1.609142 0.308483
v 1.348986 -1.609142 0.394519
v 1.101610 -1.609142 0.426442
v 1.167070 -1.609142 0.527808
v 0.859348 -1.609142 0.553418
v 0.808833 -1.609142 0.627175
v 0.444913 -1.609142 0.502190
v 0.165037 -1.609142 0.492199
v 0.668999 -2.270185 0.275218
vn -0.4879 -0.4393 -0.7543
vn 0.3109 -0.3442 -0.8860
vn 0.4890 -0.2763 -0.8273
vn 0.8466 -0.5155 -0.1326
vn -0.7662 -0.6367 0.0865
vn 0.9161 -0.3605 0.1757
vn 0.8712 -0.4474 0.2023
vn 0.8583 -0.2584 0.4434
vn 0.8442 -0.3449 0.4104
vn 0.5081 -0.1701 0.8444
vn 0.2805 -0.2279 0.9324
vn -0.1508 -0.1768 0.9726
vn -0.3064 -0.2959 0.9047
vn -0.3789 -0.5994 -0.7051
vn 0.2900 -0.5046 -0.8132
vn 0.4503 -0.4720 -0.7579
vn 0.7711 -0.6329 -0.0703
vn -0.6642 -0.7346 0.1385
vn 0.7704 -0.6057 0.1989
vn 0.7748 -0.5753 0.2623
vn 0.7723 -0.4676 0.4299
vn 0.7813 -0.4893 0.3876
vn 0.4907 -0.3093 0.8146
vn 0.2921 -0.3650 0.8840
vn -0.1560 -0.3096 0.9380
vn -0.2298 -0.4499 0.8630
vn -0.2508 -0.8148 -0.5227
vn 0.2227 -0.7595 -0.6112
vn 0.3557 -0.7136 -0.6035
vn 0.5085 -0.8601 0.0413
vn -0.3712 -0.9204 0.1231
vn 0.5559 -0.8026 0.2165
vn 0.5099 -0.8023 0.3105
vn 0.6017 -0.6944 0.3946
vn 0.5890 -0.7484 0.3049
vn 0.4440 -0.5229 0.7276
vn 0.2863 -0.5973 0.7492
vn -0.1425 -0.5341 0.8333
vn -0.1596 -0.6484 0.7444
vn -0.2597 -0.8215 -0.5077
vn 0.2107 -0.7890 -0.5771
vn 0.3806 -0.6690 -0.6384
vn 0.4190 -0.9037 0.0880
vn -0.3059 -0.9466 0.1015
vn 0.6537 -0.7343 0.1831
vn 0.4228 -0.8399 0.3402
vn 0.6846 -0.6204 0.3827
vn 0.5230 -0.8058 0.2778
vn 0.4450 -0.4851 0.7528
vn 0.2986 -0.6190 0.7265
vn -0.1496 -0.5302 0.8346
vn -0.1700 -0.6221 0.7643
vn -0.3703 -0.6024 -0.7071
vn 0.2933 -0.5973 -0.7464
vn 0.4298 -0.4772 -0.7665
vn 0.5937 -0.8043 0.0244
vn -0.4941 -0.8576 0.1425
vn 0.7373 -0.6688 0.0952
vn 0.5982 -0.7346 0.3202
vn 0.7425 -0.5634 0.3623
vn 0.6654 -0.6630 0.3430
vn 0.4397 -0.4279 0.7897
vn 0.3233 -0.4881 0.8107
vn -0.1781 -0.4089 0.8951
vn -0.1924 -0.4591 0.8673
vn -0.0259 -0.9981 -0.0561
vt 0.977234 1.257674
vt 0.929936 1.187566
vt -0.430769 1.855537
vt -0.434919 1.951293
vt -0.896552 1.438584
vt -0.592058 1.207635
vt -0.449711 0.814410
vt -0.689379 0.940826
vt -0.751469 0.192295
vt -0.670156 0.178001
vt -0.836871 -0.301774
vt -0.922052 -0.305217
vt 1.871587 1.058042
vt 1.813486 0.979424
vt 1.118669 0.957163
vt 1.148071 1.038208
vt -0.796502 0.317676
vt -0.715433 0.315858
vt -0.775479 0.952687
vt -0.878986 1.932778
vt -0.944310 2.023520
vt -0.989855 1.464261
vt 1.871531 0.606646
vt 1.772577 0.575701
vt -0.878920 -0.936909
vt -0.792727 -0.906048
vt -0.540394 -0.998456
vt -0.603213 -1.077497
vt -0.765050 -0.478468
vt -0.676720 -0.460899
vt -0.596666 -0.256329
vt -0.320968 -0.114703
vt -0.229178 -0.154226
vt -0.442907 -0.342297
vt 1.401232 0.472679
vt 1.593121 0.736485
vt -0.633330 1.563959
vt -0.548567 -0.733201
vt -0.340556 -0.721001
vt 0.791995 0.980100
vt -0.288942 1.501283
vt -0.463747 0.165982
vt 0.974754 0.765163
vt -0.507343 0.287410
vt 1.148036 0.502590
vt 0.733209 0.384159
vt 0.556587 0.460063
vt 0.747671 0.606329
vt 0.630471 0.739037
vt -0.043505 1.035854
vt -0.259231 0.173470
vt -0.282856 0.251410
vt -0.218134 0.588649
vt -0.251364 1.060892
vt -0.251259 0.839070
vt 1.008694 0.356350
vt -0.264675 -0.399929
vt -0.142275 -0.387227
vt -0.060066 0.229645
vt -0.050306 0.189978
vt 0.494109 0.521950
vt -0.015087 0.406954
vt 0.131602 0.650944
vt 0.025913 0.655685
vt -0.001993 0.540155
vt 0.680985 0.311596
vt -0.027596 -0.102908
vt 0.030374 -0.098998
vt -0.027019 0.017561
vt -0.069834 0.041018
vt 0.266472 0.278816
s 1
f 28/2/28 41/3/41 40/4/40 27/5/27
f 52/6/52 65/7/65 64/8/64 51/9/51
f 36/10/36 49/11/49 48/12/48 35/13/35
f 30/14/30 43/15/43 42/16/42 29/17/29
f 37/18/37 50/19/50 49/11/49 36/10/36
f 29/17/29 42/16/42 41/3/41 28/2/28
f 38/20/38 51/9/51 50/19/50 37/18/37
f 27/5/27 40/4/40 44/21/44 31/22/31
f 39/23/39 52/6/52 51/9/51 38/20/38
f 32/24/32 45/25/45 43/15/43 30/14/30
f 31/22/31 44/21/44 52/6/52 39/23/39
f 33/26/33 46/27/46 45/28/45 32/29/32
f 34/30/34 47/31/47 46/27/46 33/26/33
f 35/13/35 48/12/48 47/31/47 34/30/34
f 61/32/61 74/33/74 73/34/73 60/35/60
f 45/25/45 58/36/58 56/37/56 43/15/43
f 44/21/44 57/38/57 65/7/65 52/6/52
f 46/27/46 59/39/59 58/40/58 45/28/45
f 47/31/47 60/35/60 59/39/59 46/27/46
f 48/12/48 61/32/61 60/35/60 47/31/47
f 41/3/41 54/41/54 53/42/53 40/4/40
f 49/11/49 62/43/62 61/32/61 48/12/48
f 43/15/43 56/37/56 55/44/55 42/16/42
f 50/19/50 63/45/63 62/43/62 49/11/49
f 42/16/42 55/44/55 54/41/54 41/3/41
f 51/9/51 64/8/64 63/45/63 50/19/50
f 40/4/40 53/42/53 57/38/57 44/21/44
f 69/46/69 82/47/82 81/48/81 68/49/68
f 54/41/54 67/50/67 66/51/66 53/42/53
f 62/43/62 75/52/75 74/33/74 61/32/61
f 56/37/56 69/46/69 68/49/68 55/44/55
f 63/45/63 76/53/76 75/52/75 62/43/62
f 55/44/55 68/49/68 67/50/67 54/41/54
f 64/8/64 77/54/77 76/53/76 63/45/63
f 53/42/53 66/51/66 70/55/70 57/38/57
f 65/7/65 78/56/78 77/54/77 64/8/64
f 58/36/58 71/57/71 69/46/69 56/37/56
f 57/38/57 70/55/70 78/56/78 65/7/65
f 59/39/59 72/58/72 71/59/71 58/40/58
f 60/35/60 73/34/73 72/58/72 59/39/59
f 76/53/76 89/60/89 88/61/88 75/52/75
f 68/49/68 81/48/81 80/62/80 67/50/67
f 77/54/77 90/63/90 89/60/89 76/53/76
f 66/51/66 79/64/79 83/65/83 70/55/70
f 78/56/78 91/66/91 90/63/90 77/54/77
f 71/57/71 84/67/84 82/47/82 69/46/69
f 70/55/70 83/65/83 91/66/91 78/56/78
f 72/58/72 85/68/85 84/69/84 71/59/71
f 73/34/73 86/70/86 85/68/85 72/58/72
f 74/33/74 87/71/87 86/70/86 73/34/73
f 67/50/67 80/62/80 79/64/79 66/51/66
f 75/52/75 88/61/88 87/71/87 74/33/74
f 79/64/79 92/72/92 83/65/83
f 83/65/83 92/72/92 91/66/91
f 91/66/91 92/72/92 90/63/90
f 90/63/90 92/72/92 89/60/89
f 89/60/89 92/72/92 88/61/88
f 88/61/88 92/72/92 87/71/87
f 87/71/87 92/72/92 86/70/86
f 86/70/86 92/72/92 85/68/85
f 85/68/85 92/72/92 84/69/84
f 84/67/84 92/72/92 82/47/82
f 82/47/82 92/72/92 81/48/81
f 81/48/81 92/72/92 80/62/80
f 80/62/80 92/72/92 79/64/79
