# Blender 5.0.0
# www.blender.org
o Island_4
v -1.783285 0.000000 0.809185
v 1.735272 0.000000 -0.667380
v 1.459411 0.000000 -1.099739
v -1.923868 0.000000 -1.139527
v 1.713168 0.000000 1.100962
v 1.272851 0.000000 1.519616
v 0.407248 0.000000 1.380801
v -0.171884 0.000000 1.478060
v -1.087000 0.000000 1.274701
v -1.966839 -0.033024 -1.183718
v 1.493563 -0.033024 -1.142868
v 1.776788 -0.033024 -0.698969
v 1.754093 -0.033024 1.116569
v -1.825798 -0.033024 0.833475
v 1.288848 -0.033024 1.559573
v 0.406731 -0.033024 1.417054
v -0.177977 -0.033024 1.513615
v -1.104341 -0.033024 1.311416
vn -0.3264 0.9258 0.1906
vn 0.3427 0.9367 -0.0712
vn 0.1480 0.9375 -0.3149
vn -0.2598 0.9377 -0.2307
vn 0.3514 0.9227 0.1586
vn 0.1088 0.9146 0.3894
vn 0.0011 0.9305 0.3663
vn -0.0039 0.9192 0.3938
vn -0.1416 0.9292 0.3414
vn -0.3279 0.8862 -0.3275
vn 0.2654 0.8556 -0.4445
vn 0.5266 0.8315 -0.1771
vn 0.5530 0.7991 0.2361
vn -0.4996 0.8167 0.2889
vn 0.1889 0.7898 0.5835
vn 0.0039 0.7378 0.6750
vn -0.0238 0.7468 0.6646
vn -0.2460 0.7755 0.5814
vt 0.000000 0.000000
s 1
f 4/1/4 1/1/1 9/1/9 8/1/8 7/1/7 6/1/6 5/1/5 2/1/2 3/1/3
f 6/1/6 15/1/15 13/1/13 5/1/5
f 5/1/5 13/1/13 12/1/12 2/1/2
f 1/1/1 14/1/14 18/1/18 9/1/9
f 7/1/7 16/1/16 15/1/15 6/1/6
f 2/1/2 12/1/12 11/1/11 3/1/3
f 8/1/8 17/1/17 16/1/16 7/1/7
f 4/1/4 10/1/10 14/1/14 1/1/1
f 3/1/3 11/1/11 10/1/10 4/1/4
f 9/1/9 18/1/18 17/1/17 8/1/8
o Island_4.001
v -1.966839 -0.033024 -1.183718
v 1.493563 -0.033024 -1.142868
v 1.776788 -0.033024 -0.698969
v 1.754093 -0.033024 1.116569
v -1.825798 -0.033024 0.833475
v 1.288848 -0.033024 1.559573
v 0.406731 -0.033024 1.417054
v -0.177977 -0.033024 1.513615
v -1.104341 -0.033024 1.311416
v -1.920221 -0.143158 -1.146659
v 1.465137 -0.143158 -1.106695
v 1.742219 -0.143158 -0.672423
v 1.720017 -0.143158 1.103742
v -1.782238 -0.143158 0.826788
v 1.264861 -0.143158 1.537140
v 0.401874 -0.143158 1.397711
v -0.170153 -0.143158 1.492178
v -1.076428 -0.143158 1.294364
v -1.572467 -0.395079 -0.870211
v 1.253086 -0.395079 -0.836856
v 1.484350 -0.395079 -0.474395
v 1.465820 -0.395079 1.008062
v -1.457301 -0.395079 0.776905
v 1.085929 -0.395079 1.369793
v 0.365645 -0.395079 1.253420
v -0.111790 -0.395079 1.332266
v -0.868204 -0.395079 1.167162
v -0.817490 -0.701016 -0.297522
v 0.848371 -0.701016 -0.277857
v 0.984717 -0.701016 -0.064161
v 0.973792 -0.701016 0.809851
v -0.749591 -0.701016 0.673568
v 0.749819 -0.701016 1.023117
v 0.325163 -0.701016 0.954507
v 0.043680 -0.701016 1.000992
v -0.402278 -0.701016 0.903652
v -0.223414 -1.016084 0.202218
v 0.430474 -1.016084 0.209937
v 0.483993 -1.016084 0.293818
v 0.479704 -1.016084 0.636888
v -0.196763 -1.016084 0.583394
v 0.391790 -1.016084 0.720600
v 0.225102 -1.016084 0.693669
v 0.114614 -1.016084 0.711915
v -0.060435 -1.016084 0.673707
v 0.158608 -1.386275 0.479975
vn -0.6487 -0.4747 -0.5948
vn 0.4617 -0.3821 -0.8005
vn 0.8955 -0.3479 -0.2774
vn 0.8718 -0.3136 0.3764
vn -0.8238 -0.3528 0.4438
vn 0.3195 -0.2555 0.9125
vn -0.0028 -0.1729 0.9849
vn -0.0325 -0.1932 0.9806
vn -0.3950 -0.2375 0.8874
vn -0.5516 -0.6376 -0.5378
vn 0.3922 -0.5775 -0.7160
vn 0.7993 -0.5567 -0.2265
vn 0.7863 -0.5138 0.3431
vn -0.7181 -0.5493 0.4273
vn 0.2673 -0.4407 0.8569
vn -0.0025 -0.3454 0.9385
vn -0.0277 -0.3661 0.9302
vn -0.3569 -0.4319 0.8283
vn -0.3046 -0.8940 -0.3286
vn 0.2413 -0.8467 -0.4742
vn 0.5515 -0.8221 -0.1417
vn 0.5590 -0.7911 0.2484
vn -0.4692 -0.8240 0.3177
vn 0.1652 -0.7071 0.6875
vn 0.0021 -0.6094 0.7929
vn -0.0192 -0.6379 0.7699
vn -0.2651 -0.7129 0.6492
vn -0.2170 -0.9436 -0.2500
vn 0.1978 -0.9063 -0.3734
vn 0.4583 -0.8814 -0.1148
vn 0.4640 -0.8623 0.2026
vn -0.3868 -0.8843 0.2617
vn 0.1419 -0.7932 0.5921
vn -0.0070 -0.6651 0.7468
vn -0.0074 -0.7085 0.7057
vn -0.2366 -0.7737 0.5878
vn -0.3143 -0.8948 -0.3171
vn 0.2563 -0.8330 -0.4903
vn 0.5690 -0.8087 -0.1493
vn 0.5492 -0.7976 0.2492
vn -0.5081 -0.7926 0.3371
vn 0.1566 -0.7009 0.6958
vn 0.0017 -0.5677 0.8233
vn -0.0160 -0.6127 0.7902
vn -0.2807 -0.6633 0.6937
vn 0.0173 -0.9983 0.0564
vt 1.263306 1.264162
vt 1.257089 1.222237
vt 0.077534 1.199839
vt 0.046347 1.236544
vt 0.292980 0.136442
vt 0.391160 0.183835
vt 0.483719 0.065202
vt 0.391516 0.014499
vt 0.078660 0.319084
vt 0.115894 0.337836
vt 0.259806 0.113274
vt 0.382018 -0.257081
vt 0.419411 -0.238811
vt 0.542272 -0.387945
vt 0.519171 -0.422687
vt 1.092488 -0.583817
vt 1.083281 -0.624353
vt -0.070434 0.562307
vt -0.026717 0.563052
vt 0.354092 -0.000722
vt 1.263306 -0.618592
vt 1.255767 -0.661012
vt 0.123432 0.551600
vt 0.405138 0.502907
vt 0.467837 0.370420
vt 0.240619 0.366272
vt 0.207786 1.072784
vt 1.193441 1.085628
vt 0.512748 -0.159379
vt 0.618874 -0.279945
vt 1.087564 -0.440976
vt 1.244661 -0.454558
vt 0.666906 0.368127
vt 0.702174 0.295662
vt 0.555333 0.230677
vt 0.615786 0.145081
vt 0.650380 -0.010375
vt 1.028794 -0.178638
vt 1.122690 -0.170663
vt 0.473044 0.833828
vt 1.064554 0.843935
vt 0.729357 -0.087692
vt 0.760985 0.179238
vt 0.800824 0.143921
vt 0.932366 0.109756
vt 0.645183 0.437119
vt 0.729643 0.253390
vt 0.968499 0.115659
vt 0.685527 0.592044
vt 0.926081 0.609343
vt 0.846315 0.383964
s 1
f 20/2/20 29/3/29 28/4/28 19/5/19
f 35/6/35 44/7/44 43/8/43 34/9/34
f 27/10/27 36/11/36 35/6/35 26/12/26
f 24/13/24 33/14/33 31/15/31 22/16/22
f 22/16/22 31/15/31 30/17/30 21/18/21
f 23/19/23 32/20/32 36/11/36 27/10/27
f 25/21/25 34/9/34 33/14/33 24/13/24
f 21/18/21 30/17/30 29/22/29 20/23/20
f 26/12/26 35/6/35 34/9/34 25/21/25
f 19/5/19 28/4/28 32/20/32 23/19/23
f 41/24/41 50/25/50 54/26/54 45/27/45
f 28/4/28 37/28/37 41/24/41 32/20/32
f 29/3/29 38/29/38 37/28/37 28/4/28
f 36/11/36 45/27/45 44/7/44 35/6/35
f 33/14/33 42/30/42 40/31/40 31/15/31
f 31/15/31 40/31/40 39/32/39 30/17/30
f 32/20/32 41/24/41 45/27/45 36/11/36
f 34/9/34 43/8/43 42/30/42 33/14/33
f 30/17/30 39/32/39 38/33/38 29/22/29
f 54/26/54 63/34/63 62/35/62 53/36/53
f 43/8/43 52/37/52 51/38/51 42/30/42
f 39/32/39 48/39/48 47/40/47 38/33/38
f 44/7/44 53/36/53 52/37/52 43/8/43
f 37/28/37 46/41/46 50/25/50 41/24/41
f 38/29/38 47/42/47 46/41/46 37/28/37
f 45/27/45 54/26/54 53/36/53 44/7/44
f 42/30/42 51/38/51 49/43/49 40/31/40
f 40/31/40 49/43/49 48/39/48 39/32/39
f 51/38/51 60/44/60 58/45/58 49/43/49
f 49/43/49 58/45/58 57/46/57 48/39/48
f 50/25/50 59/47/59 63/34/63 54/26/54
f 52/37/52 61/48/61 60/44/60 51/38/51
f 48/39/48 57/46/57 56/49/56 47/40/47
f 53/36/53 62/35/62 61/48/61 52/37/52
f 46/41/46 55/50/55 59/47/59 50/25/50
f 47/42/47 56/51/56 55/50/55 46/41/46
f 55/50/55 64/52/64 59/47/59
f 59/47/59 64/52/64 63/34/63
f 63/34/63 64/52/64 62/35/62
f 62/35/62 64/52/64 61/48/61
f 61/48/61 64/52/64 60/44/60
f 60/44/60 64/52/64 58/45/58
f 58/45/58 64/52/64 57/46/57
f 57/46/57 64/52/64 56/49/56
f 56/51/56 64/52/64 55/50/55
