# Blender 5.0.0
# www.blender.org
o Island_16
v 2.051486 0.000000 0.104017
v 0.986108 0.000000 1.650956
v -1.783175 0.000000 0.109421
v -0.895505 0.000000 1.643434
v -0.896661 0.000000 -1.472567
v 0.982591 0.000000 -1.469090
v -1.901178 -0.148544 0.110378
v -0.958340 -0.148544 -1.572121
v 2.177114 -0.148544 0.104630
v 1.044049 -0.148544 1.749853
v -0.957111 -0.148544 1.741853
v 1.040308 -0.148544 -1.568422
vn 0.5339 0.8455 0.0013
vn 0.2434 0.8432 0.4793
vn -0.5357 0.8444 0.0035
vn -0.2664 0.8415 0.4700
vn -0.2691 0.8418 -0.4679
vn 0.2472 0.8436 -0.4767
vn -0.7830 0.6220 0.0055
vn -0.3991 0.6190 -0.6764
vn 0.7635 0.6458 0.0026
vn 0.3719 0.6106 0.6992
vn -0.3986 0.6157 0.6798
vn 0.3748 0.6116 -0.6968
vt 0.000000 0.000000
s 1
f 3/1/3 4/1/4 2/1/2 1/1/1 6/1/6 5/1/5
f 5/1/5 8/1/8 7/1/7 3/1/3
f 1/1/1 9/1/9 12/1/12 6/1/6
f 3/1/3 7/1/7 11/1/11 4/1/4
f 2/1/2 10/1/10 9/1/9 1/1/1
f 6/1/6 12/1/12 8/1/8 5/1/5
f 4/1/4 11/1/11 10/1/10 2/1/2
o Island_16.001
v -1.901178 -0.148544 0.110378
v -0.958340 -0.148544 -1.572121
v 2.177114 -0.148544 0.104630
v 1.044049 -0.148544 1.749853
v -0.957111 -0.148544 1.741853
v 1.040308 -0.148544 -1.568422
v -1.854011 -0.402328 0.109995
v -0.933687 -0.402328 -1.532329
v 2.126900 -0.402328 0.104385
v 1.020890 -0.402328 1.710324
v -0.932487 -0.402328 1.702515
v 1.017239 -0.402328 -1.528719
v -1.405100 -0.688091 0.106356
v -0.699044 -0.688091 -1.153604
v 1.648980 -0.688091 0.102052
v 0.800470 -0.688091 1.334098
v -0.698124 -0.688091 1.328107
v 0.797669 -0.688091 -1.150834
v -0.793030 -1.004174 0.101396
v -0.379119 -1.004174 -0.637231
v 0.997364 -1.004174 0.098872
v 0.499942 -1.004174 0.821134
v -0.378579 -1.004174 0.817623
v 0.498300 -1.004174 -0.635607
v -0.361346 -1.326493 0.097897
v -0.153480 -1.326493 -0.273041
v 0.537791 -1.326493 0.096630
v 0.287985 -1.326493 0.459351
v -0.153209 -1.326493 0.457587
v 0.287160 -1.326493 -0.272226
v 0.085643 -2.015043 0.092394
vn -0.9831 -0.1827 0.0068
vn -0.4975 -0.1813 -0.8483
vn 0.9810 -0.1941 0.0032
vn 0.4581 -0.1775 0.8710
vn -0.4947 -0.1798 0.8503
vn 0.4629 -0.1779 -0.8683
vn -0.8616 -0.5076 0.0060
vn -0.4360 -0.5047 -0.7451
vn 0.8570 -0.5153 0.0027
vn 0.4010 -0.5032 0.7655
vn -0.4334 -0.5035 0.7474
vn 0.4054 -0.5038 -0.7628
vn -0.5093 -0.8606 0.0034
vn -0.2560 -0.8586 -0.4441
vn 0.4878 -0.8730 0.0012
vn 0.2366 -0.8541 0.4632
vn -0.2550 -0.8567 0.4483
vn 0.2398 -0.8547 -0.4604
vn -0.5106 -0.8598 0.0034
vn -0.2566 -0.8583 -0.4444
vn 0.4839 -0.8751 0.0013
vn 0.2388 -0.8521 0.4658
vn -0.2560 -0.8560 0.4490
vn 0.2419 -0.8527 -0.4630
vn -0.7011 -0.7130 0.0049
vn -0.3545 -0.7089 -0.6098
vn 0.6805 -0.7327 0.0021
vn 0.3278 -0.6960 0.6389
vn -0.3525 -0.7062 0.6140
vn 0.3326 -0.6959 -0.6364
vn 0.0073 -1.0000 -0.0012
vt -0.177259 0.499219
vt -0.080917 0.502732
vt 0.085849 -0.036451
vt -0.001401 -0.078932
vt 0.248245 0.051847
vt 0.560828 -0.321041
vt 0.448770 -0.487753
vt 0.407771 1.502792
vt 0.460568 1.421940
vt 0.039110 1.029518
vt -0.045370 1.073113
vt 0.391968 -0.565052
vt 1.112150 -0.600666
vt 1.092052 -0.696221
vt 1.090867 1.645824
vt 1.112150 1.551599
vt 0.560206 1.259681
vt 0.674568 1.028666
vt 0.445596 0.803914
vt 0.213847 0.937781
vt 1.077708 1.357003
vt 0.110287 0.504501
vt 1.084231 -0.400753
vt 0.995718 1.088717
vt 0.920761 0.857176
vt 0.753351 0.819875
vt 0.685493 -0.075433
vt 1.009271 -0.122891
vt 0.366604 0.501195
vt 0.456966 0.178722
vt 0.576710 0.495581
vt 0.627407 0.295491
vt 0.626620 0.682576
vt 0.762527 0.146503
vt 0.933246 0.115582
vt 0.886457 0.486536
s 1
f 17/2/17 23/3/23 22/4/22 16/5/16
f 22/4/22 28/6/28 27/7/27 21/8/21
f 14/9/14 20/10/20 19/11/19 13/12/13
f 15/13/15 21/8/21 24/14/24 18/15/18
f 13/12/13 19/11/19 23/3/23 17/2/17
f 16/5/16 22/4/22 21/8/21 15/13/15
f 18/16/18 24/17/24 20/10/20 14/9/14
f 26/18/26 32/19/32 31/20/31 25/21/25
f 24/17/24 30/22/30 26/18/26 20/10/20
f 23/3/23 29/23/29 28/6/28 22/4/22
f 20/10/20 26/18/26 25/21/25 19/11/19
f 21/8/21 27/7/27 30/24/30 24/14/24
f 19/11/19 25/21/25 29/23/29 23/3/23
f 36/25/36 42/26/42 38/27/38 32/19/32
f 27/7/27 33/28/33 36/29/36 30/24/30
f 25/21/25 31/20/31 35/30/35 29/23/29
f 28/6/28 34/31/34 33/28/33 27/7/27
f 30/22/30 36/25/36 32/19/32 26/18/26
f 29/23/29 35/30/35 34/31/34 28/6/28
f 35/30/35 41/32/41 40/33/40 34/31/34
f 32/19/32 38/27/38 37/34/37 31/20/31
f 33/28/33 39/35/39 42/36/42 36/29/36
f 31/20/31 37/34/37 41/32/41 35/30/35
f 34/31/34 40/33/40 39/35/39 33/28/33
f 37/34/37 43/37/43 41/32/41
f 41/32/41 43/37/43 40/33/40
f 40/33/40 43/37/43 39/35/39
f 39/35/39 43/37/43 42/36/42
f 42/26/42 43/37/43 38/27/38
f 38/27/38 43/37/43 37/34/37
