# Blender 5.0.0
# www.blender.org
o Island_6
v -2.684759 -0.002509 -0.649984
v -2.479983 -0.002509 -1.082776
v -2.739075 -0.002509 -0.325834
v -2.599515 -0.002509 -0.004600
v -2.600363 -0.002509 0.604972
v -2.371699 -0.002509 0.887308
v -1.194807 -0.002509 1.283816
v 2.198907 -0.002509 1.330685
v 2.432840 -0.002509 0.900968
v 2.300699 -0.002509 -0.997071
v 1.656589 -0.002509 -1.176444
v -0.629038 -0.002509 -1.206823
v -1.289212 -0.002509 -1.038452
v -2.732131 -0.039815 -0.666222
v -2.788764 -0.039815 -0.317207
v -2.514622 -0.039815 -1.130724
v -2.648891 -0.039815 0.002207
v -2.650790 -0.039815 0.623158
v -2.415498 -0.039815 0.924839
v -1.214070 -0.039815 1.328395
v 2.247194 -0.039815 1.387685
v 2.498150 -0.039815 0.921657
v 2.348466 -0.039815 -1.042911
v 1.656013 -0.039815 -1.228777
v -0.636854 -0.039815 -1.260531
v -1.301594 -0.039815 -1.091776
vn -0.3242 0.9407 -0.0995
vn -0.1808 0.9324 -0.3131
vn -0.3597 0.9321 0.0425
vn -0.3111 0.9483 0.0626
vn -0.3309 0.9371 0.1111
vn -0.1872 0.9375 0.2935
vn -0.0523 0.9403 0.3362
vn 0.1341 0.9448 0.2990
vn 0.2958 0.9537 0.0537
vn 0.2593 0.9425 -0.2107
vn 0.0477 0.9471 -0.3173
vn -0.0367 0.9476 -0.3175
vn -0.0344 0.9523 -0.3034
vn -0.5701 0.8022 -0.1776
vn -0.5885 0.8047 0.0782
vn -0.2888 0.8501 -0.4404
vn -0.5829 0.8027 0.1260
vn -0.5307 0.8281 0.1809
vn -0.3424 0.8232 0.4528
vn -0.1135 0.8028 0.5853
vn 0.2452 0.8822 0.4020
vn 0.4839 0.8689 0.1038
vn 0.3551 0.8756 -0.3276
vn 0.0735 0.8211 -0.5660
vn -0.0672 0.8234 -0.5635
vn -0.0549 0.8146 -0.5774
vt 0.000000 0.000000
s 1
f 1/1/1 3/1/3 4/1/4 5/1/5 6/1/6 7/1/7 8/1/8 9/1/9 10/1/10 11/1/11 12/1/12 13/1/13 2/1/2
f 13/1/13 26/1/26 16/1/16 2/1/2
f 6/1/6 19/1/19 20/1/20 7/1/7
f 7/1/7 20/1/20 21/1/21 8/1/8
f 8/1/8 21/1/21 22/1/22 9/1/9
f 1/1/1 14/1/14 15/1/15 3/1/3
f 9/1/9 22/1/22 23/1/23 10/1/10
f 2/1/2 16/1/16 14/1/14 1/1/1
f 10/1/10 23/1/23 24/1/24 11/1/11
f 3/1/3 15/1/15 17/1/17 4/1/4
f 11/1/11 24/1/24 25/1/25 12/1/12
f 4/1/4 17/1/17 18/1/18 5/1/5
f 12/1/12 25/1/25 26/1/26 13/1/13
f 5/1/5 18/1/18 19/1/19 6/1/6
o Island_6.001
v -2.732131 -0.039815 -0.666222
v -2.788764 -0.039815 -0.317207
v -2.514622 -0.039815 -1.130724
v -2.648891 -0.039815 0.002207
v -2.650790 -0.039815 0.623158
v -2.415498 -0.039815 0.924839
v -1.214070 -0.039815 1.328395
v 2.247194 -0.039815 1.387685
v 2.498150 -0.039815 0.921657
v 2.348466 -0.039815 -1.042911
v 1.656013 -0.039815 -1.228777
v -0.636854 -0.039815 -1.260531
v -1.301594 -0.039815 -1.091776
v -2.676120 -0.168444 -0.650519
v -2.731127 -0.168444 -0.311524
v -2.464854 -0.168444 -1.101687
v -2.595269 -0.168444 -0.001280
v -2.597113 -0.168444 0.601846
v -2.368576 -0.168444 0.894866
v -1.201638 -0.168444 1.286836
v 2.160261 -0.168444 1.344424
v 2.404012 -0.168444 0.891775
v 2.258625 -0.168444 -1.016395
v 1.586051 -0.168444 -1.196925
v -0.640992 -0.168444 -1.227768
v -1.286650 -0.168444 -1.063856
v -2.394742 -0.400433 -0.571637
v -2.441582 -0.400433 -0.282975
v -2.214845 -0.400433 -0.955817
v -2.325896 -0.400433 -0.018795
v -2.327466 -0.400433 0.494780
v -2.132862 -0.400433 0.744293
v -1.139188 -0.400433 1.078065
v 1.723546 -0.400433 1.127102
v 1.931106 -0.400433 0.741661
v 1.807306 -0.400433 -0.883188
v 1.234593 -0.400433 -1.036914
v -0.661785 -0.400433 -1.063177
v -1.211577 -0.400433 -0.923603
v -1.919235 -0.609894 -0.438333
v -1.952273 -0.609894 -0.234730
v -1.792348 -0.609894 -0.709308
v -1.870676 -0.609894 -0.048395
v -1.871783 -0.609894 0.313847
v -1.734522 -0.609894 0.489837
v -1.033650 -0.609894 0.725258
v 0.985532 -0.609894 0.759845
v 1.131931 -0.609894 0.487981
v 1.044610 -0.609894 -0.658081
v 0.640657 -0.609894 -0.766509
v -0.696922 -0.609894 -0.785033
v -1.084709 -0.609894 -0.686587
v -1.525855 -0.769494 -0.328053
v -1.547474 -0.769494 -0.194818
v -1.442822 -0.769494 -0.505375
v -1.494078 -0.769494 -0.072883
v -1.494803 -0.769494 0.164163
v -1.404981 -0.769494 0.279328
v -0.946341 -0.769494 0.433384
v 0.374982 -0.769494 0.456018
v 0.470784 -0.769494 0.278113
v 0.413642 -0.769494 -0.471852
v 0.149301 -0.769494 -0.542806
v -0.725991 -0.769494 -0.554928
v -0.979753 -0.769494 -0.490506
v -1.082518 -1.009902 -0.203767
v -1.091269 -1.009902 -0.149836
v -1.048908 -1.009902 -0.275543
v -1.069655 -1.009902 -0.100480
v -1.069949 -1.009902 -0.004529
v -1.033591 -1.009902 0.042087
v -0.847944 -1.009902 0.104446
v -0.313102 -1.009902 0.113607
v -0.274324 -1.009902 0.041596
v -0.297453 -1.009902 -0.261974
v -0.404453 -1.009902 -0.290694
v -0.758751 -1.009902 -0.295601
v -0.861468 -1.009902 -0.269524
v -0.702569 -1.346994 -0.111928
vn -0.8709 -0.4120 -0.2680
vn -0.9095 -0.4031 0.1014
vn -0.5290 -0.3764 -0.7606
vn -0.9034 -0.3819 0.1949
vn -0.8622 -0.4093 0.2985
vn -0.5545 -0.3753 0.7428
vn -0.1643 -0.3176 0.9339
vn 0.4824 -0.5542 0.6783
vn 0.7755 -0.6075 0.1720
vn 0.6680 -0.5661 -0.4829
vn 0.1623 -0.3195 -0.9336
vn -0.1090 -0.2421 -0.9641
vn -0.0974 -0.2219 -0.9702
vn -0.7608 -0.6049 -0.2349
vn -0.8040 -0.5856 0.1037
vn -0.4241 -0.5345 -0.7311
vn -0.7835 -0.5988 0.1659
vn -0.7646 -0.5893 0.2609
vn -0.4785 -0.5561 0.6795
vn -0.1474 -0.5026 0.8519
vn 0.3222 -0.6737 0.6651
vn 0.6391 -0.7578 0.1320
vn 0.5232 -0.6906 -0.4993
vn 0.1215 -0.5000 -0.8574
vn -0.1052 -0.4076 -0.9071
vn -0.0942 -0.3892 -0.9163
vn -0.4963 -0.8544 -0.1536
vn -0.5349 -0.8413 0.0773
vn -0.2528 -0.7844 -0.5664
vn -0.5190 -0.8478 0.1091
vn -0.5063 -0.8453 0.1704
vn -0.3191 -0.8173 0.4799
vn -0.1056 -0.7766 0.6211
vn 0.1546 -0.8771 0.4547
vn 0.3447 -0.9362 0.0692
vn 0.2843 -0.8968 -0.3392
vn 0.0762 -0.7586 -0.6471
vn -0.0868 -0.6832 -0.7251
vn -0.0776 -0.6644 -0.7433
vn -0.3615 -0.9256 -0.1118
vn -0.3865 -0.9206 0.0559
vn -0.1722 -0.8838 -0.4350
vn -0.3964 -0.9142 0.0843
vn -0.3626 -0.9239 0.1220
vn -0.2342 -0.9055 0.3538
vn -0.0809 -0.8754 0.4766
vn 0.1029 -0.9431 0.3163
vn 0.2315 -0.9717 0.0470
vn 0.1878 -0.9549 -0.2298
vn 0.0602 -0.8594 -0.5078
vn -0.0715 -0.8033 -0.5913
vn -0.0649 -0.7787 -0.6240
vn -0.3918 -0.9120 -0.1210
vn -0.4129 -0.9089 0.0576
vn -0.1858 -0.8761 -0.4449
vn -0.4413 -0.8924 0.0946
vn -0.3858 -0.9133 0.1304
vn -0.2522 -0.8924 0.3741
vn -0.0872 -0.8553 0.5107
vn 0.1144 -0.9403 0.3205
vn 0.2492 -0.9671 0.0514
vn 0.1982 -0.9526 -0.2307
vn 0.0687 -0.8385 -0.5405
vn -0.0753 -0.7754 -0.6269
vn -0.0693 -0.7413 -0.6675
vn -0.5305 -0.8318 -0.1632
vn -0.5536 -0.8293 0.0759
vn -0.2634 -0.7824 -0.5643
vn -0.5894 -0.7978 0.1269
vn -0.5222 -0.8350 0.1734
vn -0.3468 -0.7932 0.5005
vn -0.1236 -0.7169 0.6861
vn 0.1942 -0.8615 0.4692
vn 0.4191 -0.9036 0.0890
vn 0.3174 -0.8854 -0.3396
vn 0.0923 -0.6762 -0.7310
vn -0.1007 -0.6199 -0.7782
vn -0.0802 -0.5738 -0.8150
vn -0.0415 -0.9983 -0.0410
vt -1.902427 -0.461922
vt -1.800923 -0.386677
vt -0.902363 -0.950489
vt -0.962553 -1.061575
vt 1.959708 2.885922
vt 1.695205 2.548026
vt 1.210104 2.427776
vt 1.387145 2.778986
vt 1.895221 -2.010824
vt 1.938313 -2.153843
vt 2.318485 -1.832546
vt 2.391958 -1.964079
vt -2.161206 1.011427
vt -2.045988 0.976870
vt -2.088948 0.691881
vt -2.214276 0.699773
vt 3.249681 1.789341
vt 3.128729 1.714316
vt 2.027380 3.012494
vt -1.968568 1.411246
vt -1.870968 1.335823
vt 1.406693 2.913444
vt -2.017623 0.400471
vt -2.146837 0.386692
vt -0.428417 1.988334
vt -0.475278 2.099158
vt -1.972976 -0.127310
vt -2.089295 -0.170683
vt -0.958282 1.691885
vt -1.019621 1.795879
vt -1.534522 -0.236989
vt -1.139465 -0.035093
vt -0.561480 -0.373264
vt -0.757442 -0.701934
vt -1.778634 0.655853
vt -1.693917 0.423099
vt -0.347272 1.743610
vt -1.682010 -0.017360
vt -0.800663 1.481574
vt -1.617747 1.207855
vt 1.656663 -1.620817
vt 1.999275 -1.411401
vt -1.744722 0.897521
vt 2.656684 1.498651
vt -1.215352 1.052951
vt -0.840208 0.909207
vt -0.897642 0.729506
vt -1.296470 0.803819
vt 1.187128 -1.033735
vt 1.411968 -0.861286
vt -1.316249 0.621940
vt 1.894055 1.216353
vt 1.235595 2.021426
vt 0.876060 1.934147
vt -1.245190 0.454468
vt -0.261590 1.430693
vt -1.246658 0.131932
vt -0.585683 1.235247
vt -0.409292 1.037757
vt -0.178113 0.779678
vt -0.358268 0.699719
vt 0.828686 1.572370
vt 0.582378 1.512511
vt -0.911387 0.600690
vt -0.863030 0.482489
vt -0.190540 1.171238
vt -0.863931 0.256931
vt -0.790299 0.138827
vt -0.396797 -0.100133
vt 0.775294 -0.544675
vt 0.923455 -0.432902
vt 1.260528 1.022102
vt -0.341806 0.366956
vt -0.176983 0.249010
vt 0.320698 0.051729
vt 0.386465 0.089552
vt -0.384867 0.623186
vt -0.391468 0.568222
vt 0.547746 0.794027
vt 0.347434 0.999425
vt 0.242129 0.972681
vt -0.373219 0.516610
vt -0.089424 0.836126
vt -0.372212 0.418320
vt 0.116125 0.532465
s 1
f 32/2/32 45/3/45 46/4/46 33/5/33
f 49/6/49 62/7/62 63/8/63 50/9/50
f 33/5/33 46/4/46 47/10/47 34/11/34
f 34/11/34 47/10/47 48/12/48 35/13/35
f 27/14/27 40/15/40 41/16/41 28/17/28
f 35/18/35 48/19/48 49/6/49 36/20/36
f 29/21/29 42/22/42 40/15/40 27/14/27
f 36/20/36 49/6/49 50/9/50 37/23/37
f 28/17/28 41/16/41 43/24/43 30/25/30
f 37/23/37 50/9/50 51/26/51 38/27/38
f 30/25/30 43/24/43 44/28/44 31/29/31
f 38/27/38 51/26/51 52/30/52 39/31/39
f 31/29/31 44/28/44 45/3/45 32/2/32
f 39/31/39 52/30/52 42/22/42 29/21/29
f 58/32/58 71/33/71 72/34/72 59/35/59
f 41/16/41 54/36/54 56/37/56 43/24/43
f 50/9/50 63/8/63 64/38/64 51/26/51
f 43/24/43 56/37/56 57/39/57 44/28/44
f 51/26/51 64/38/64 65/40/65 52/30/52
f 44/28/44 57/39/57 58/32/58 45/3/45
f 52/30/52 65/40/65 55/41/55 42/22/42
f 45/3/45 58/32/58 59/35/59 46/4/46
f 46/4/46 59/35/59 60/42/60 47/10/47
f 47/10/47 60/42/60 61/43/61 48/12/48
f 40/15/40 53/44/53 54/36/54 41/16/41
f 48/19/48 61/45/61 62/7/62 49/6/49
f 42/22/42 55/41/55 53/44/53 40/15/40
f 68/46/68 81/47/81 79/48/79 66/49/66
f 59/35/59 72/34/72 73/50/73 60/42/60
f 60/42/60 73/50/73 74/51/74 61/43/61
f 53/44/53 66/49/66 67/52/67 54/36/54
f 61/45/61 74/53/74 75/54/75 62/7/62
f 55/41/55 68/46/68 66/49/66 53/44/53
f 62/7/62 75/54/75 76/55/76 63/8/63
f 54/36/54 67/52/67 69/56/69 56/37/56
f 63/8/63 76/55/76 77/57/77 64/38/64
f 56/37/56 69/56/69 70/58/70 57/39/57
f 64/38/64 77/57/77 78/59/78 65/40/65
f 57/39/57 70/58/70 71/33/71 58/32/58
f 65/40/65 78/59/78 68/46/68 55/41/55
f 91/60/91 104/61/104 94/62/94 81/47/81
f 75/54/75 88/63/88 89/64/89 76/55/76
f 67/52/67 80/65/80 82/66/82 69/56/69
f 76/55/76 89/64/89 90/67/90 77/57/77
f 69/56/69 82/66/82 83/68/83 70/58/70
f 77/57/77 90/67/90 91/60/91 78/59/78
f 70/58/70 83/68/83 84/69/84 71/33/71
f 78/59/78 91/60/91 81/47/81 68/46/68
f 71/33/71 84/69/84 85/70/85 72/34/72
f 72/34/72 85/70/85 86/71/86 73/50/73
f 73/50/73 86/71/86 87/72/87 74/51/74
f 66/49/66 79/48/79 80/65/80 67/52/67
f 74/53/74 87/73/87 88/63/88 75/54/75
f 84/69/84 97/74/97 98/75/98 85/70/85
f 85/70/85 98/75/98 99/76/99 86/71/86
f 86/71/86 99/76/99 100/77/100 87/72/87
f 79/48/79 92/78/92 93/79/93 80/65/80
f 87/73/87 100/80/100 101/81/101 88/63/88
f 81/47/81 94/62/94 92/78/92 79/48/79
f 88/63/88 101/81/101 102/82/102 89/64/89
f 80/65/80 93/79/93 95/83/95 82/66/82
f 89/64/89 102/82/102 103/84/103 90/67/90
f 82/66/82 95/83/95 96/85/96 83/68/83
f 90/67/90 103/84/103 104/61/104 91/60/91
f 83/68/83 96/85/96 97/74/97 84/69/84
f 92/78/92 105/86/105 93/79/93
f 93/79/93 105/86/105 95/83/95
f 95/83/95 105/86/105 96/85/96
f 96/85/96 105/86/105 97/74/97
f 97/74/97 105/86/105 98/75/98
f 98/75/98 105/86/105 99/76/99
f 99/76/99 105/86/105 100/77/100
f 100/80/100 105/86/105 101/81/101
f 101/81/101 105/86/105 102/82/102
f 102/82/102 105/86/105 103/84/103
f 103/84/103 105/86/105 104/61/104
f 104/61/104 105/86/105 94/62/94
f 94/62/94 105/86/105 92/78/92
