# Blender 5.1.1
# www.blender.org
mtllib Bricks_2.mtl
o Cube.134
v 0.013539 -0.931206 1.478114
v 0.013539 -0.185924 1.478114
v -0.684084 -0.931206 1.215881
v -0.684084 -0.185924 1.215881
v 0.567126 -0.931206 0.005401
v 0.567126 -0.185924 0.005401
v -0.130498 -0.931206 -0.256833
v -0.130498 -0.185924 -0.256833
v -0.833007 -0.750659 1.987885
v -1.248175 -0.180803 2.229431
v -1.307489 -0.856932 1.423068
v -1.722656 -0.287076 1.664614
v 0.005978 0.238190 1.097028
v -0.409190 0.808047 1.338574
v -0.468504 0.131917 0.532211
v -0.883671 0.701774 0.773757
v -0.266463 0.571043 0.199746
v -0.266463 1.316325 0.199746
v -0.774493 0.571043 -0.345553
v -0.774493 1.316325 -0.345553
v 0.884686 0.571043 -0.872729
v 0.884686 1.316325 -0.872729
v 0.376656 0.571043 -1.418027
v 0.376656 1.316325 -1.418027
v -0.010291 -0.931206 -0.534255
v -0.010291 -0.185924 -0.534255
v -0.262577 -0.931206 -1.235537
v -0.262577 -0.185924 -1.235537
v 1.470146 -0.931206 -1.066844
v 1.470146 -0.185924 -1.066844
v 1.217860 -0.931206 -1.768126
v 1.217860 -0.185924 -1.768126
v 0.754558 -0.174752 0.483758
v 0.754558 0.570530 0.483758
v 0.019369 -0.174752 0.605997
v 0.019369 0.570530 0.605997
v 0.496505 -0.174752 -1.068258
v 0.496505 0.570530 -1.068258
v -0.238683 -0.174752 -0.946019
v -0.238683 0.570530 -0.946019
vn -0.3519 -0.0000 0.9361
vn -0.9361 -0.0000 -0.3519
vn 0.3519 -0.0000 -0.9361
vn 0.9361 -0.0000 0.3519
vn -0.0000 -1.0000 -0.0000
vn -0.0000 1.0000 -0.0000
vn -0.5333 -0.6285 0.5662
vn -0.6366 -0.1426 -0.7579
vn 0.5333 0.6285 -0.5662
vn 0.6366 0.1426 0.7579
vn 0.5571 -0.7646 -0.3241
vn -0.5571 0.7646 0.3241
vn -0.7317 -0.0000 0.6817
vn -0.6817 -0.0000 -0.7317
vn 0.7317 -0.0000 -0.6817
vn 0.6817 -0.0000 0.7317
vn -0.9410 -0.0000 0.3385
vn -0.3385 -0.0000 -0.9410
vn 0.9410 -0.0000 -0.3385
vn 0.3385 -0.0000 0.9410
vn 0.1640 -0.0000 0.9865
vn -0.9865 -0.0000 0.1640
vn -0.1640 -0.0000 -0.9865
vn 0.9865 -0.0000 -0.1640
vt 0.884746 0.016966
vt 0.884746 0.032646
vt 0.884559 0.032646
vt 0.884559 0.016966
s 0
usemtl Material
f 1/1/1 2/2/1 4/2/1 3/1/1
f 3/1/2 4/2/2 8/3/2 7/4/2
f 7/4/3 8/3/3 6/3/3 5/4/3
f 5/4/4 6/3/4 2/2/4 1/1/4
f 3/1/5 7/4/5 5/4/5 1/1/5
f 8/3/6 4/2/6 2/2/6 6/3/6
f 9/1/7 10/2/7 12/2/7 11/1/7
f 11/1/8 12/2/8 16/3/8 15/4/8
f 15/4/9 16/3/9 14/3/9 13/4/9
f 13/4/10 14/3/10 10/2/10 9/1/10
f 11/1/11 15/4/11 13/4/11 9/1/11
f 16/3/12 12/2/12 10/2/12 14/3/12
f 17/1/13 18/2/13 20/2/13 19/1/13
f 19/1/14 20/2/14 24/3/14 23/4/14
f 23/4/15 24/3/15 22/3/15 21/4/15
f 21/4/16 22/3/16 18/2/16 17/1/16
f 19/1/5 23/4/5 21/4/5 17/1/5
f 24/3/6 20/2/6 18/2/6 22/3/6
f 25/1/17 26/2/17 28/2/17 27/1/17
f 27/1/18 28/2/18 32/3/18 31/4/18
f 31/4/19 32/3/19 30/3/19 29/4/19
f 29/4/20 30/3/20 26/2/20 25/1/20
f 27/1/5 31/4/5 29/4/5 25/1/5
f 32/3/6 28/2/6 26/2/6 30/3/6
f 33/1/21 34/2/21 36/2/21 35/1/21
f 35/1/22 36/2/22 40/3/22 39/4/22
f 39/4/23 40/3/23 38/3/23 37/4/23
f 37/4/24 38/3/24 34/2/24 33/1/24
f 35/1/5 39/4/5 37/4/5 33/1/5
f 40/3/6 36/2/6 34/2/6 38/3/6
