# Blender 5.1.1
# www.blender.org
mtllib Bricks.mtl
o Cube.109
v -1.348736 -0.100610 0.652808
v -1.348736 0.644672 0.652808
v -1.721841 -0.100610 0.007643
v -1.721841 0.644672 0.007643
v 0.013236 -0.100610 -0.134833
v 0.013236 0.644672 -0.134833
v -0.359869 -0.100610 -0.779998
v -0.359869 0.644672 -0.779998
v 2.835516 -0.676517 -0.311341
v 3.315837 -0.106660 -0.311341
v 2.961599 -0.782790 0.415470
v 3.441921 -0.212933 0.415470
v 1.662339 0.312332 0.036763
v 2.142660 0.882189 0.036763
v 1.788422 0.206059 0.763574
v 2.268743 0.775916 0.763574
v -1.490881 0.650277 -0.508718
v -1.490881 1.395559 -0.508718
v -1.159207 0.650277 -1.176129
v -1.159207 1.395559 -1.176129
v -0.081947 0.650277 0.191460
v -0.081947 1.395559 0.191460
v 0.249727 0.650277 -0.475951
v 0.249727 1.395559 -0.475951
v 1.446594 0.645186 0.949338
v 1.446594 1.390468 0.949338
v 1.611490 0.645186 1.676149
v 1.611490 1.390468 1.676149
v -0.087736 0.645186 1.297441
v -0.087736 1.390468 1.297441
v 0.077160 0.645186 2.024252
v 0.077160 1.390468 2.024252
v 1.847445 -0.857064 -0.296433
v 1.847445 -0.111782 -0.296433
v 2.318566 -0.857064 0.281053
v 2.318566 -0.111782 0.281053
v 0.628346 -0.857064 0.698123
v 0.628346 -0.111782 0.698123
v 1.099466 -0.857064 1.275609
v 1.099466 -0.111782 1.275609
v 0.856053 -0.857064 1.454950
v 0.856053 -0.111782 1.454950
v 0.721454 -0.857064 2.187977
v 0.721454 -0.111782 2.187977
v -0.691399 -0.857064 1.170807
v -0.691399 -0.111782 1.170807
v -0.825997 -0.857064 1.903834
v -0.825997 -0.111782 1.903834
v 0.706897 -0.100610 0.190395
v 0.706897 0.644672 0.190395
v 1.403833 -0.100610 0.454452
v 1.403833 0.644672 0.454452
v 0.149462 -0.100610 1.661657
v 0.149462 0.644672 1.661657
v 0.846398 -0.100610 1.925713
v 0.846398 0.644672 1.925713
v -2.291657 -0.857064 -0.455021
v -2.291657 -0.111782 -0.455021
v -2.559621 -0.857064 -1.150464
v -2.559621 -0.111782 -1.150464
v -0.823547 -0.857064 -1.020705
v -0.823547 -0.111782 -1.020705
v -1.091511 -0.857064 -1.716148
v -1.091511 -0.111782 -1.716148
v -0.804365 -0.857064 -1.810813
v -0.804365 -0.111782 -1.810813
v -0.448286 -0.857064 -2.465529
v -0.448286 -0.111782 -2.465529
v 0.577769 -0.857064 -1.059114
v 0.577769 -0.111782 -1.059114
v 0.933847 -0.857064 -1.713830
v 0.933847 -0.111782 -1.713830
v -1.056230 -0.100610 -0.562651
v -1.056230 0.644672 -0.562651
v -1.636352 -0.100610 -1.030524
v -1.636352 0.644672 -1.030524
v -0.068532 -0.100610 -1.787313
v -0.068532 0.644672 -1.787313
v -0.648653 -0.100610 -2.255185
v -0.648653 0.644672 -2.255185
v -0.664945 -0.857064 -0.421328
v -0.664945 -0.111782 -0.421328
v -0.097277 -0.857064 -0.904234
v -0.097277 -0.111782 -0.904234
v 0.354490 -0.857064 0.777044
v 0.354490 -0.111782 0.777044
v 0.922158 -0.857064 0.294138
v 0.922158 -0.111782 0.294138
v -2.540242 -0.857064 0.309046
v -2.540242 -0.111782 0.309046
v -2.540242 -0.857064 -0.436236
v -2.540242 -0.111782 -0.436236
v -0.966919 -0.857064 0.309046
v -0.966919 -0.111782 0.309046
v -0.966919 -0.857064 -0.436236
v -0.966919 -0.111782 -0.436236
vn -0.8657 -0.0000 0.5006
vn -0.5006 -0.0000 -0.8657
vn 0.8657 -0.0000 -0.5006
vn 0.5006 -0.0000 0.8657
vn -0.0000 -1.0000 -0.0000
vn -0.0000 1.0000 -0.0000
vn 0.7457 -0.6285 -0.2213
vn 0.1692 -0.1426 0.9752
vn -0.7457 0.6285 0.2213
vn -0.1692 0.1426 -0.9752
vn -0.6445 -0.7646 -0.0000
vn 0.6445 0.7646 -0.0000
vn -0.8955 -0.0000 -0.4450
vn 0.4450 -0.0000 -0.8955
vn 0.8955 -0.0000 0.4450
vn -0.4450 -0.0000 0.8955
vn 0.9752 -0.0000 -0.2213
vn 0.2213 -0.0000 0.9752
vn -0.9752 -0.0000 0.2213
vn -0.2213 -0.0000 -0.9752
vn 0.7749 -0.0000 -0.6321
vn 0.6321 -0.0000 0.7749
vn -0.7749 -0.0000 0.6321
vn -0.6321 -0.0000 -0.7749
vn 0.9836 -0.0000 0.1806
vn -0.1806 -0.0000 0.9836
vn -0.9836 -0.0000 -0.1806
vn 0.1806 -0.0000 -0.9836
vn 0.3543 -0.0000 -0.9351
vn 0.9351 -0.0000 0.3543
vn -0.3543 -0.0000 0.9351
vn -0.9351 -0.0000 -0.3543
vn -0.9331 -0.0000 0.3595
vn -0.3595 -0.0000 -0.9331
vn 0.9331 -0.0000 -0.3595
vn 0.3595 -0.0000 0.9331
vn -0.8785 -0.0000 -0.4778
vn 0.4778 -0.0000 -0.8785
vn 0.8785 -0.0000 0.4778
vn -0.4778 -0.0000 0.8785
vn -0.6278 -0.0000 0.7784
vn -0.7784 -0.0000 -0.6278
vn 0.6278 -0.0000 -0.7784
vn 0.7784 -0.0000 0.6278
vn -0.6480 -0.0000 -0.7617
vn 0.7617 -0.0000 -0.6480
vn 0.6480 -0.0000 0.7617
vn -0.7617 -0.0000 0.6480
vn -1.0000 -0.0000 -0.0000
vn -0.0000 -0.0000 -1.0000
vn 1.0000 -0.0000 -0.0000
vn -0.0000 -0.0000 1.0000
vt 0.884746 0.016966
vt 0.884746 0.032646
vt 0.884559 0.032646
vt 0.884559 0.016966
s 0
usemtl Material
f 1/1/1 2/2/1 4/2/1 3/1/1
f 3/1/2 4/2/2 8/3/2 7/4/2
f 7/4/3 8/3/3 6/3/3 5/4/3
f 5/4/4 6/3/4 2/2/4 1/1/4
f 3/1/5 7/4/5 5/4/5 1/1/5
f 8/3/6 4/2/6 2/2/6 6/3/6
f 9/1/7 10/2/7 12/2/7 11/1/7
f 11/1/8 12/2/8 16/3/8 15/4/8
f 15/4/9 16/3/9 14/3/9 13/4/9
f 13/4/10 14/3/10 10/2/10 9/1/10
f 11/1/11 15/4/11 13/4/11 9/1/11
f 16/3/12 12/2/12 10/2/12 14/3/12
f 17/1/13 18/2/13 20/2/13 19/1/13
f 19/1/14 20/2/14 24/3/14 23/4/14
f 23/4/15 24/3/15 22/3/15 21/4/15
f 21/4/16 22/3/16 18/2/16 17/1/16
f 19/1/5 23/4/5 21/4/5 17/1/5
f 24/3/6 20/2/6 18/2/6 22/3/6
f 25/1/17 26/2/17 28/2/17 27/1/17
f 27/1/18 28/2/18 32/3/18 31/4/18
f 31/4/19 32/3/19 30/3/19 29/4/19
f 29/4/20 30/3/20 26/2/20 25/1/20
f 27/1/5 31/4/5 29/4/5 25/1/5
f 32/3/6 28/2/6 26/2/6 30/3/6
f 33/1/21 34/2/21 36/2/21 35/1/21
f 35/1/22 36/2/22 40/3/22 39/4/22
f 39/4/23 40/3/23 38/3/23 37/4/23
f 37/4/24 38/3/24 34/2/24 33/1/24
f 35/1/5 39/4/5 37/4/5 33/1/5
f 40/3/6 36/2/6 34/2/6 38/3/6
f 41/1/25 42/2/25 44/2/25 43/1/25
f 43/1/26 44/2/26 48/3/26 47/4/26
f 47/4/27 48/3/27 46/3/27 45/4/27
f 45/4/28 46/3/28 42/2/28 41/1/28
f 43/1/5 47/4/5 45/4/5 41/1/5
f 48/3/6 44/2/6 42/2/6 46/3/6
f 49/1/29 50/2/29 52/2/29 51/1/29
f 51/1/30 52/2/30 56/3/30 55/4/30
f 55/4/31 56/3/31 54/3/31 53/4/31
f 53/4/32 54/3/32 50/2/32 49/1/32
f 51/1/5 55/4/5 53/4/5 49/1/5
f 56/3/6 52/2/6 50/2/6 54/3/6
f 57/1/33 58/2/33 60/2/33 59/1/33
f 59/1/34 60/2/34 64/3/34 63/4/34
f 63/4/35 64/3/35 62/3/35 61/4/35
f 61/4/36 62/3/36 58/2/36 57/1/36
f 59/1/5 63/4/5 61/4/5 57/1/5
f 64/3/6 60/2/6 58/2/6 62/3/6
f 65/1/37 66/2/37 68/2/37 67/1/37
f 67/1/38 68/2/38 72/3/38 71/4/38
f 71/4/39 72/3/39 70/3/39 69/4/39
f 69/4/40 70/3/40 66/2/40 65/1/40
f 67/1/5 71/4/5 69/4/5 65/1/5
f 72/3/6 68/2/6 66/2/6 70/3/6
f 73/1/41 74/2/41 76/2/41 75/1/41
f 75/1/42 76/2/42 80/3/42 79/4/42
f 79/4/43 80/3/43 78/3/43 77/4/43
f 77/4/44 78/3/44 74/2/44 73/1/44
f 75/1/5 79/4/5 77/4/5 73/1/5
f 80/3/6 76/2/6 74/2/6 78/3/6
f 81/1/45 82/2/45 84/2/45 83/1/45
f 83/1/46 84/2/46 88/3/46 87/4/46
f 87/4/47 88/3/47 86/3/47 85/4/47
f 85/4/48 86/3/48 82/2/48 81/1/48
f 83/1/5 87/4/5 85/4/5 81/1/5
f 88/3/6 84/2/6 82/2/6 86/3/6
f 89/1/49 90/2/49 92/2/49 91/1/49
f 91/1/50 92/2/50 96/3/50 95/4/50
f 95/4/51 96/3/51 94/3/51 93/4/51
f 93/4/52 94/3/52 90/2/52 89/1/52
f 91/1/5 95/4/5 93/4/5 89/1/5
f 96/3/6 92/2/6 90/2/6 94/3/6
