# Blender 5.1.1
# www.blender.org
mtllib BuildingConstruction.mtl
o Cube.047
v 13.956371 0.001872 13.320135
v 13.956371 26.840097 13.320135
v 13.956371 0.001872 10.491906
v 13.956371 26.840097 10.491906
v 16.784599 0.001872 13.320135
v 16.784599 26.840097 13.320135
v 16.784599 0.001872 10.491906
v 16.784599 26.840097 10.491906
v -14.910747 22.091190 14.887198
v -14.910747 22.511036 14.887198
v -14.910747 22.091190 -14.935992
v -14.910747 22.511036 -14.935992
v 14.912462 22.091190 14.887198
v 14.912462 22.511036 14.887198
v 14.912462 22.091190 -14.935992
v 14.912462 22.511036 -14.935992
v -15.190059 22.878984 15.166511
v -15.190059 22.878984 -15.215304
v 15.191774 22.878984 -15.215304
v 15.191774 22.878984 15.166511
v -14.910747 15.825624 14.887198
v -14.910747 16.245468 14.887198
v -14.910747 15.825624 -14.935992
v -14.910747 16.245468 -14.935992
v 14.912462 15.825624 14.887198
v 14.912462 16.245468 14.887198
v 14.912462 15.825624 -14.935992
v 14.912462 16.245468 -14.935992
v -15.190059 16.613417 15.166511
v -15.190059 16.613417 -15.215304
v 15.191774 16.613417 -15.215304
v 15.191774 16.613417 15.166511
v -16.786518 0.001872 13.320135
v -16.786518 26.840097 13.320135
v -16.786518 0.001872 10.491906
v -16.786518 26.840097 10.491906
v -13.958289 0.001872 13.320135
v -13.958289 26.840097 13.320135
v -13.958289 0.001872 10.491906
v -13.958289 26.840097 10.491906
v -16.786518 0.001872 -10.437010
v -16.786518 26.840097 -10.437010
v -16.786518 0.001872 -13.265239
v -16.786518 26.840097 -13.265239
v -13.958289 0.001872 -10.437010
v -13.958289 26.840097 -10.437010
v -13.958289 0.001872 -13.265239
v -13.958289 26.840097 -13.265239
v 13.956371 0.001872 -10.437010
v 13.956371 26.840097 -10.437010
v 13.956371 0.001872 -13.265239
v 13.956371 26.840097 -13.265239
v 16.784599 0.001872 -10.437010
v 16.784599 26.840097 -10.437010
v 16.784599 0.001872 -13.265239
v 16.784599 26.840097 -13.265239
v -14.910747 10.086268 14.887198
v -14.910747 10.506113 14.887198
v -14.910747 10.086268 -14.935992
v -14.910747 10.506113 -14.935992
v 14.912462 10.086268 14.887198
v 14.912462 10.506113 14.887198
v 14.912462 10.086268 -14.935992
v 14.912462 10.506113 -14.935992
v -15.190059 10.874063 15.166511
v -15.190059 10.874063 -15.215304
v 15.191774 10.874063 -15.215304
v 15.191774 10.874063 15.166511
vn -1.0000 -0.0000 -0.0000
vn -0.0000 -0.0000 -1.0000
vn 1.0000 -0.0000 -0.0000
vn -0.0000 -0.0000 1.0000
vn -0.0000 -1.0000 -0.0000
vn -0.0000 1.0000 -0.0000
vn -0.0000 -0.6046 -0.7965
vn 0.7965 -0.6046 -0.0000
vn -0.7965 -0.6046 -0.0000
vn -0.0000 -0.6046 0.7965
vt 0.017356 0.430215
vt 0.017356 0.507337
vt 0.017893 0.507337
vt 0.017893 0.430215
vt 0.015279 0.479748
vt 0.015279 0.490971
vt 0.015279 0.490970
vt 0.015279 0.479748
vt 0.016005 0.490970
vt 0.016005 0.479748
vt 0.016005 0.490971
vt 0.016005 0.479748
vt 0.015272 0.500806
vt 0.016012 0.500806
vt 0.017146 0.280725
vt 0.017256 0.278573
vt 0.017320 0.227967
vt 0.017006 0.246981
vt 0.016012 0.500806
vt 0.015272 0.500806
s 0
usemtl Material
f 1/1/1 2/2/1 4/2/1 3/1/1
f 3/1/2 4/2/2 8/3/2 7/4/2
f 7/4/3 8/3/3 6/3/3 5/4/3
f 5/4/4 6/3/4 2/2/4 1/1/4
f 3/1/5 7/4/5 5/4/5 1/1/5
f 8/3/6 4/2/6 2/2/6 6/3/6
f 9/5/1 10/6/1 12/7/1 11/8/1
f 11/8/2 12/7/2 16/9/2 15/10/2
f 15/10/3 16/9/3 14/11/3 13/12/3
f 13/12/4 14/11/4 10/6/4 9/5/4
f 11/8/5 15/10/5 13/12/5 9/5/5
f 16/9/7 12/7/7 18/13/7 19/14/7
f 19/15/6 18/16/6 17/17/6 20/18/6
f 14/11/8 16/9/8 19/14/8 20/19/8
f 12/7/9 10/6/9 17/20/9 18/13/9
f 10/6/10 14/11/10 20/19/10 17/20/10
f 21/5/1 22/6/1 24/7/1 23/8/1
f 23/8/2 24/7/2 28/9/2 27/10/2
f 27/10/3 28/9/3 26/11/3 25/12/3
f 25/12/4 26/11/4 22/6/4 21/5/4
f 23/8/5 27/10/5 25/12/5 21/5/5
f 28/9/7 24/7/7 30/13/7 31/14/7
f 31/15/6 30/16/6 29/17/6 32/18/6
f 26/11/8 28/9/8 31/14/8 32/19/8
f 24/7/9 22/6/9 29/20/9 30/13/9
f 22/6/10 26/11/10 32/19/10 29/20/10
f 33/1/1 34/2/1 36/2/1 35/1/1
f 35/1/2 36/2/2 40/3/2 39/4/2
f 39/4/3 40/3/3 38/3/3 37/4/3
f 37/4/4 38/3/4 34/2/4 33/1/4
f 35/1/5 39/4/5 37/4/5 33/1/5
f 40/3/6 36/2/6 34/2/6 38/3/6
f 41/1/1 42/2/1 44/2/1 43/1/1
f 43/1/2 44/2/2 48/3/2 47/4/2
f 47/4/3 48/3/3 46/3/3 45/4/3
f 45/4/4 46/3/4 42/2/4 41/1/4
f 43/1/5 47/4/5 45/4/5 41/1/5
f 48/3/6 44/2/6 42/2/6 46/3/6
f 49/1/1 50/2/1 52/2/1 51/1/1
f 51/1/2 52/2/2 56/3/2 55/4/2
f 55/4/3 56/3/3 54/3/3 53/4/3
f 53/4/4 54/3/4 50/2/4 49/1/4
f 51/1/5 55/4/5 53/4/5 49/1/5
f 56/3/6 52/2/6 50/2/6 54/3/6
f 57/5/1 58/6/1 60/7/1 59/8/1
f 59/8/2 60/7/2 64/9/2 63/10/2
f 63/10/3 64/9/3 62/11/3 61/12/3
f 61/12/4 62/11/4 58/6/4 57/5/4
f 59/8/5 63/10/5 61/12/5 57/5/5
f 64/9/7 60/7/7 66/13/7 67/14/7
f 67/15/6 66/16/6 65/17/6 68/18/6
f 62/11/8 64/9/8 67/14/8 68/19/8
f 60/7/9 58/6/9 65/20/9 66/13/9
f 58/6/10 62/11/10 68/19/10 65/20/10
