# Blender 5.1.1
# www.blender.org
mtllib BuildingConstruction_2.mtl
o Cube.041
v -11.168615 0.175232 8.862320
v -11.168615 40.358246 8.862320
v -11.168615 0.175232 6.980608
v -11.168615 40.358246 6.980608
v -9.286902 0.175232 8.862320
v -9.286902 40.358246 8.862320
v -9.286902 0.175232 6.980608
v -9.286902 40.358246 6.980608
v -9.920607 10.304435 9.904933
v -9.920607 10.933039 9.904933
v -9.920607 10.304435 -9.937402
v -9.920607 10.933039 -9.937402
v 9.921740 10.304435 9.904933
v 9.921740 10.933039 9.904933
v 9.921740 10.304435 -9.937402
v 9.921740 10.933039 -9.937402
v -10.106441 11.483944 10.090768
v -10.106441 11.483944 -10.123238
v 10.107574 11.483944 -10.123238
v 10.107574 11.483944 10.090768
v 9.285624 0.175232 -6.944073
v 9.285624 40.358246 -6.944073
v 9.285624 0.175232 -8.825785
v 9.285624 40.358246 -8.825785
v 11.167336 0.175232 -6.944073
v 11.167336 40.358246 -6.944073
v 11.167336 0.175232 -8.825785
v 11.167336 40.358246 -8.825785
v -11.168615 0.175232 -6.944073
v -11.168615 40.358246 -6.944073
v -11.168615 0.175232 -8.825785
v -11.168615 40.358246 -8.825785
v -9.286902 0.175232 -6.944073
v -9.286902 40.358246 -6.944073
v -9.286902 0.175232 -8.825785
v -9.286902 40.358246 -8.825785
v 9.285624 0.175232 8.862320
v 9.285624 40.358246 8.862320
v 9.285624 0.175232 6.980608
v 9.285624 40.358246 6.980608
v 11.167336 0.175232 8.862320
v 11.167336 40.358246 8.862320
v 11.167336 0.175232 6.980608
v 11.167336 40.358246 6.980608
v -9.920607 18.897573 9.904933
v -9.920607 19.526176 9.904933
v -9.920607 18.897573 -9.937402
v -9.920607 19.526176 -9.937402
v 9.921740 18.897573 9.904933
v 9.921740 19.526176 9.904933
v 9.921740 18.897573 -9.937402
v 9.921740 19.526176 -9.937402
v -10.106441 20.077082 10.090768
v -10.106441 20.077082 -10.123238
v 10.107574 20.077082 -10.123238
v 10.107574 20.077082 10.090768
v -9.920607 28.278576 9.904933
v -9.920607 28.907181 9.904933
v -9.920607 28.278576 -9.937402
v -9.920607 28.907181 -9.937402
v 9.921740 28.278576 9.904933
v 9.921740 28.907181 9.904933
v 9.921740 28.278576 -9.937402
v 9.921740 28.907181 -9.937402
v -10.106441 29.458084 10.090768
v -10.106441 29.458084 -10.123238
v 10.107574 29.458084 -10.123238
v 10.107574 29.458084 10.090768
vn -1.0000 -0.0000 -0.0000
vn -0.0000 -0.0000 -1.0000
vn 1.0000 -0.0000 -0.0000
vn -0.0000 -0.0000 1.0000
vn -0.0000 -1.0000 -0.0000
vn -0.0000 1.0000 -0.0000
vn -0.0000 -0.3196 -0.9475
vn 0.9475 -0.3196 -0.0000
vn -0.9475 -0.3196 -0.0000
vn -0.0000 -0.3196 0.9475
vt 0.017356 0.430215
vt 0.017356 0.507337
vt 0.017893 0.507337
vt 0.017893 0.430215
vt 0.015279 0.479748
vt 0.015279 0.490971
vt 0.015279 0.490970
vt 0.015279 0.479748
vt 0.016005 0.490970
vt 0.016005 0.479748
vt 0.016005 0.490971
vt 0.016005 0.479748
vt 0.015272 0.500806
vt 0.016012 0.500806
vt 0.017146 0.280725
vt 0.017256 0.278573
vt 0.017320 0.227967
vt 0.017006 0.246981
vt 0.016012 0.500806
vt 0.015272 0.500806
s 0
usemtl Material
f 1/1/1 2/2/1 4/2/1 3/1/1
f 3/1/2 4/2/2 8/3/2 7/4/2
f 7/4/3 8/3/3 6/3/3 5/4/3
f 5/4/4 6/3/4 2/2/4 1/1/4
f 3/1/5 7/4/5 5/4/5 1/1/5
f 8/3/6 4/2/6 2/2/6 6/3/6
f 9/5/1 10/6/1 12/7/1 11/8/1
f 11/8/2 12/7/2 16/9/2 15/10/2
f 15/10/3 16/9/3 14/11/3 13/12/3
f 13/12/4 14/11/4 10/6/4 9/5/4
f 11/8/5 15/10/5 13/12/5 9/5/5
f 16/9/7 12/7/7 18/13/7 19/14/7
f 19/15/6 18/16/6 17/17/6 20/18/6
f 14/11/8 16/9/8 19/14/8 20/19/8
f 12/7/9 10/6/9 17/20/9 18/13/9
f 10/6/10 14/11/10 20/19/10 17/20/10
f 21/1/1 22/2/1 24/2/1 23/1/1
f 23/1/2 24/2/2 28/3/2 27/4/2
f 27/4/3 28/3/3 26/3/3 25/4/3
f 25/4/4 26/3/4 22/2/4 21/1/4
f 23/1/5 27/4/5 25/4/5 21/1/5
f 28/3/6 24/2/6 22/2/6 26/3/6
f 29/1/1 30/2/1 32/2/1 31/1/1
f 31/1/2 32/2/2 36/3/2 35/4/2
f 35/4/3 36/3/3 34/3/3 33/4/3
f 33/4/4 34/3/4 30/2/4 29/1/4
f 31/1/5 35/4/5 33/4/5 29/1/5
f 36/3/6 32/2/6 30/2/6 34/3/6
f 37/1/1 38/2/1 40/2/1 39/1/1
f 39/1/2 40/2/2 44/3/2 43/4/2
f 43/4/3 44/3/3 42/3/3 41/4/3
f 41/4/4 42/3/4 38/2/4 37/1/4
f 39/1/5 43/4/5 41/4/5 37/1/5
f 44/3/6 40/2/6 38/2/6 42/3/6
f 45/5/1 46/6/1 48/7/1 47/8/1
f 47/8/2 48/7/2 52/9/2 51/10/2
f 51/10/3 52/9/3 50/11/3 49/12/3
f 49/12/4 50/11/4 46/6/4 45/5/4
f 47/8/5 51/10/5 49/12/5 45/5/5
f 52/9/7 48/7/7 54/13/7 55/14/7
f 55/15/6 54/16/6 53/17/6 56/18/6
f 50/11/8 52/9/8 55/14/8 56/19/8
f 48/7/9 46/6/9 53/20/9 54/13/9
f 46/6/10 50/11/10 56/19/10 53/20/10
f 57/5/1 58/6/1 60/7/1 59/8/1
f 59/8/2 60/7/2 64/9/2 63/10/2
f 63/10/3 64/9/3 62/11/3 61/12/3
f 61/12/4 62/11/4 58/6/4 57/5/4
f 59/8/5 63/10/5 61/12/5 57/5/5
f 64/9/7 60/7/7 66/13/7 67/14/7
f 67/15/6 66/16/6 65/17/6 68/18/6
f 62/11/8 64/9/8 67/14/8 68/19/8
f 60/7/9 58/6/9 65/20/9 66/13/9
f 58/6/10 62/11/10 68/19/10 65/20/10
