# Blender 5.1.1
# www.blender.org
mtllib MetalPipe.mtl
o Cylinder.022
v -5.719389 -0.000000 -0.647264
v 5.719389 0.000000 -0.647264
v -5.719389 -0.126275 -0.634827
v 5.719389 -0.126274 -0.634827
v -5.719389 -0.247698 -0.597994
v 5.719389 -0.247697 -0.597994
v -5.719389 -0.359601 -0.538180
v 5.719389 -0.359600 -0.538180
v -5.719389 -0.457685 -0.457685
v 5.719389 -0.457684 -0.457685
v -5.719389 -0.538181 -0.359601
v 5.719389 -0.538180 -0.359601
v -5.719389 -0.597994 -0.247697
v 5.719389 -0.597993 -0.247697
v -5.719389 -0.634827 -0.126275
v 5.719389 -0.634826 -0.126275
v -5.719389 -0.647264 0.000000
v 5.719389 -0.647263 0.000000
v -5.719389 -0.634827 0.126275
v 5.719389 -0.634826 0.126275
v -5.719389 -0.597994 0.247697
v 5.719389 -0.597993 0.247697
v -5.719389 -0.538181 0.359601
v 5.719389 -0.538180 0.359601
v -5.719389 -0.457685 0.457685
v 5.719389 -0.457684 0.457685
v -5.719389 -0.359601 0.538180
v 5.719389 -0.359600 0.538180
v -5.719389 -0.247698 0.597994
v 5.719389 -0.247697 0.597994
v -5.719389 -0.126275 0.634827
v 5.719389 -0.126274 0.634827
v -5.719389 -0.000000 0.647264
v 5.719389 0.000000 0.647264
v -5.719389 0.126274 0.634827
v 5.719389 0.126275 0.634827
v -5.719389 0.247697 0.597994
v 5.719389 0.247698 0.597994
v -5.719389 0.359600 0.538180
v 5.719389 0.359601 0.538180
v -5.719389 0.457684 0.457685
v 5.719389 0.457685 0.457685
v -5.719389 0.538180 0.359601
v 5.719389 0.538181 0.359601
v -5.719389 0.597993 0.247697
v 5.719389 0.597994 0.247697
v -5.719389 0.634826 0.126275
v 5.719389 0.634827 0.126275
v -5.719389 0.647263 0.000000
v 5.719389 0.647264 0.000000
v -5.719389 0.634826 -0.126275
v 5.719389 0.634827 -0.126275
v -5.719389 0.597993 -0.247697
v 5.719389 0.597994 -0.247697
v -5.719389 0.538180 -0.359601
v 5.719389 0.538181 -0.359601
v -5.719389 0.457684 -0.457685
v 5.719389 0.457685 -0.457685
v -5.719389 0.359600 -0.538180
v 5.719389 0.359601 -0.538180
v -5.719389 0.247697 -0.597994
v 5.719389 0.247698 -0.597994
v -5.719389 0.126274 -0.634827
v 5.719389 0.126275 -0.634827
v -5.719389 -0.000000 -0.752180
v -5.719389 -0.146744 -0.737728
v 5.719389 -0.146743 -0.737728
v 5.719389 0.000000 -0.752180
v -5.719389 -0.287847 -0.694924
v 5.719389 -0.287847 -0.694924
v -5.719389 -0.417890 -0.625415
v 5.719389 -0.417889 -0.625415
v -5.719389 -0.531872 -0.531872
v 5.719389 -0.531871 -0.531872
v -5.719389 -0.625416 -0.417889
v 5.719389 -0.625415 -0.417889
v -5.719389 -0.694925 -0.287847
v 5.719389 -0.694924 -0.287847
v -5.719389 -0.737728 -0.146743
v 5.719389 -0.737727 -0.146743
v -5.719389 -0.752181 0.000000
v 5.719389 -0.752180 0.000000
v -5.719389 -0.737728 0.146743
v 5.719389 -0.737727 0.146743
v -5.719389 -0.694925 0.287847
v 5.719389 -0.694924 0.287847
v -5.719389 -0.625416 0.417889
v 5.719389 -0.625415 0.417889
v -5.719389 -0.531872 0.531872
v 5.719389 -0.531871 0.531872
v -5.719389 -0.417890 0.625415
v 5.719389 -0.417889 0.625415
v -5.719389 -0.287847 0.694924
v 5.719389 -0.287847 0.694924
v -5.719389 -0.146744 0.737728
v 5.719389 -0.146743 0.737728
v -5.719389 -0.000000 0.752180
v 5.719389 0.000000 0.752180
v -5.719389 0.146743 0.737728
v 5.719389 0.146744 0.737728
v -5.719389 0.287847 0.694924
v 5.719389 0.287847 0.694924
v -5.719389 0.417889 0.625415
v 5.719389 0.417890 0.625415
v -5.719389 0.531871 0.531872
v 5.719389 0.531872 0.531872
v -5.719389 0.625415 0.417889
v 5.719389 0.625416 0.417889
v -5.719389 0.694924 0.287847
v 5.719389 0.694925 0.287847
v -5.719389 0.737727 0.146743
v 5.719389 0.737728 0.146743
v -5.719389 0.752180 0.000000
v 5.719389 0.752181 0.000000
v -5.719389 0.737727 -0.146743
v 5.719389 0.737728 -0.146743
v -5.719389 0.694924 -0.287847
v 5.719389 0.694925 -0.287847
v -5.719389 0.625415 -0.417889
v 5.719389 0.625416 -0.417889
v -5.719389 0.531871 -0.531872
v 5.719389 0.531872 -0.531872
v -5.719389 0.417889 -0.625415
v 5.719389 0.417890 -0.625415
v -5.719389 0.287847 -0.694924
v 5.719389 0.287847 -0.694924
v -5.719389 0.146743 -0.737728
v 5.719389 0.146744 -0.737728
vn -0.0000 -0.0000 -1.0000
vn -0.0000 -0.1951 -0.9808
vn -0.0000 -0.3827 -0.9239
vn -0.0000 -0.5556 -0.8315
vn -0.0000 -0.7071 -0.7071
vn -0.0000 -0.8315 -0.5556
vn -0.0000 -0.9239 -0.3827
vn -0.0000 -0.9808 -0.1951
vn -0.0000 -1.0000 -0.0000
vn -0.0000 -0.9808 0.1951
vn -0.0000 -0.9239 0.3827
vn -0.0000 -0.8315 0.5556
vn -0.0000 -0.7071 0.7071
vn -0.0000 -0.5556 0.8315
vn -0.0000 -0.3827 0.9239
vn -0.0000 -0.1951 0.9808
vn -0.0000 -0.0000 1.0000
vn -0.0000 0.1951 0.9808
vn -0.0000 0.3827 0.9239
vn -0.0000 0.5556 0.8315
vn -0.0000 0.7071 0.7071
vn -0.0000 0.8315 0.5556
vn -0.0000 0.9239 0.3827
vn -0.0000 0.9808 0.1951
vn -0.0000 1.0000 -0.0000
vn -0.0000 0.9808 -0.1951
vn -0.0000 0.9239 -0.3827
vn -0.0000 0.8315 -0.5556
vn -0.0000 0.7071 -0.7071
vn -0.0000 0.5556 -0.8315
vn -0.0000 0.3827 -0.9239
vn -0.0000 0.1951 -0.9808
vn -1.0000 -0.0000 -0.0000
vn 1.0000 -0.0000 -0.0000
vt 0.013784 0.534538
vt 0.013798 0.534539
vt 0.013798 0.528497
vt 0.013784 0.528497
vt 0.013798 0.522688
vt 0.013784 0.522688
vt 0.013798 0.517334
vt 0.013784 0.517334
vt 0.013798 0.512642
vt 0.013784 0.512641
vt 0.013798 0.508790
vt 0.013784 0.508790
vt 0.013798 0.505929
vt 0.013784 0.505929
vt 0.013798 0.504166
vt 0.013784 0.504166
vt 0.013798 0.503571
vt 0.013784 0.503571
vt 0.013798 0.534539
vt 0.013798 0.540580
vt 0.013784 0.540580
vt 0.013798 0.546389
vt 0.013784 0.546389
vt 0.013798 0.551743
vt 0.013784 0.551743
vt 0.013798 0.556436
vt 0.013784 0.556436
vt 0.013798 0.560287
vt 0.013784 0.560287
vt 0.013798 0.563149
vt 0.013784 0.563149
vt 0.013798 0.564911
vt 0.013784 0.564911
vt 0.013798 0.565506
vt 0.013784 0.565506
vt 0.013784 0.529340
vt 0.013798 0.529340
vt 0.013784 0.524341
vt 0.013798 0.524341
vt 0.013784 0.519734
vt 0.013798 0.519734
vt 0.013784 0.515696
vt 0.013798 0.515696
vt 0.013784 0.512382
vt 0.013798 0.512382
vt 0.013784 0.509919
vt 0.013798 0.509919
vt 0.013784 0.508403
vt 0.013798 0.508403
vt 0.013784 0.507891
vt 0.013798 0.507891
vt 0.013784 0.539737
vt 0.013798 0.539737
vt 0.013784 0.544736
vt 0.013798 0.544737
vt 0.013784 0.549343
vt 0.013798 0.549343
vt 0.013784 0.553382
vt 0.013798 0.553382
vt 0.013784 0.556696
vt 0.013798 0.556696
vt 0.013784 0.559158
vt 0.013798 0.559158
vt 0.013784 0.560674
vt 0.013798 0.560675
vt 0.013784 0.561186
vt 0.013798 0.561187
s 1
usemtl Material
f 65/1/1 68/2/1 67/3/2 66/4/2
f 66/4/2 67/3/2 70/5/3 69/6/3
f 69/6/3 70/5/3 72/7/4 71/8/4
f 71/8/4 72/7/4 74/9/5 73/10/5
f 73/10/5 74/9/5 76/11/6 75/12/6
f 75/12/6 76/11/6 78/13/7 77/14/7
f 77/14/7 78/13/7 80/15/8 79/16/8
f 79/16/8 80/15/8 82/17/9 81/18/9
f 81/18/9 82/17/9 84/15/10 83/16/10
f 83/16/10 84/15/10 86/13/11 85/14/11
f 85/14/11 86/13/11 88/11/12 87/12/12
f 87/12/12 88/11/12 90/9/13 89/10/13
f 89/10/13 90/9/13 92/7/14 91/8/14
f 91/8/14 92/7/14 94/5/15 93/6/15
f 93/6/15 94/5/15 96/3/16 95/4/16
f 95/4/16 96/3/16 98/19/17 97/1/17
f 97/1/17 98/19/17 100/20/18 99/21/18
f 99/21/18 100/20/18 102/22/19 101/23/19
f 101/23/19 102/22/19 104/24/20 103/25/20
f 103/25/20 104/24/20 106/26/21 105/27/21
f 105/27/21 106/26/21 108/28/22 107/29/22
f 107/29/22 108/28/22 110/30/23 109/31/23
f 109/31/23 110/30/23 112/32/24 111/33/24
f 111/33/24 112/32/24 114/34/25 113/35/25
f 113/35/25 114/34/25 116/32/26 115/33/26
f 115/33/26 116/32/26 118/30/27 117/31/27
f 117/31/27 118/30/27 120/28/28 119/29/28
f 119/29/28 120/28/28 122/26/29 121/27/29
f 121/27/29 122/26/29 124/24/30 123/25/30
f 123/25/30 124/24/30 126/22/31 125/23/31
f 125/23/31 126/22/31 128/20/32 127/21/32
f 127/21/32 128/20/32 68/2/1 65/1/1
f 3/36/33 1/1/33 65/1/33 66/4/33
f 2/2/34 4/37/34 67/3/34 68/2/34
f 5/38/33 3/36/33 66/4/33 69/6/33
f 4/37/34 6/39/34 70/5/34 67/3/34
f 7/40/33 5/38/33 69/6/33 71/8/33
f 6/39/34 8/41/34 72/7/34 70/5/34
f 9/42/33 7/40/33 71/8/33 73/10/33
f 8/41/34 10/43/34 74/9/34 72/7/34
f 11/44/33 9/42/33 73/10/33 75/12/33
f 10/43/34 12/45/34 76/11/34 74/9/34
f 13/46/33 11/44/33 75/12/33 77/14/33
f 12/45/34 14/47/34 78/13/34 76/11/34
f 15/48/33 13/46/33 77/14/33 79/16/33
f 14/47/34 16/49/34 80/15/34 78/13/34
f 17/50/33 15/48/33 79/16/33 81/18/33
f 16/49/34 18/51/34 82/17/34 80/15/34
f 19/48/33 17/50/33 81/18/33 83/16/33
f 18/51/34 20/49/34 84/15/34 82/17/34
f 21/46/33 19/48/33 83/16/33 85/14/33
f 20/49/34 22/47/34 86/13/34 84/15/34
f 23/44/33 21/46/33 85/14/33 87/12/33
f 22/47/34 24/45/34 88/11/34 86/13/34
f 25/42/33 23/44/33 87/12/33 89/10/33
f 24/45/34 26/43/34 90/9/34 88/11/34
f 27/40/33 25/42/33 89/10/33 91/8/33
f 26/43/34 28/41/34 92/7/34 90/9/34
f 29/38/33 27/40/33 91/8/33 93/6/33
f 28/41/34 30/39/34 94/5/34 92/7/34
f 31/36/33 29/38/33 93/6/33 95/4/33
f 30/39/34 32/37/34 96/3/34 94/5/34
f 33/1/33 31/36/33 95/4/33 97/1/33
f 32/37/34 34/19/34 98/19/34 96/3/34
f 35/52/33 33/1/33 97/1/33 99/21/33
f 34/19/34 36/53/34 100/20/34 98/19/34
f 37/54/33 35/52/33 99/21/33 101/23/33
f 36/53/34 38/55/34 102/22/34 100/20/34
f 39/56/33 37/54/33 101/23/33 103/25/33
f 38/55/34 40/57/34 104/24/34 102/22/34
f 41/58/33 39/56/33 103/25/33 105/27/33
f 40/57/34 42/59/34 106/26/34 104/24/34
f 43/60/33 41/58/33 105/27/33 107/29/33
f 42/59/34 44/61/34 108/28/34 106/26/34
f 45/62/33 43/60/33 107/29/33 109/31/33
f 44/61/34 46/63/34 110/30/34 108/28/34
f 47/64/33 45/62/33 109/31/33 111/33/33
f 46/63/34 48/65/34 112/32/34 110/30/34
f 49/66/33 47/64/33 111/33/33 113/35/33
f 48/65/34 50/67/34 114/34/34 112/32/34
f 51/64/33 49/66/33 113/35/33 115/33/33
f 50/67/34 52/65/34 116/32/34 114/34/34
f 53/62/33 51/64/33 115/33/33 117/31/33
f 52/65/34 54/63/34 118/30/34 116/32/34
f 55/60/33 53/62/33 117/31/33 119/29/33
f 54/63/34 56/61/34 120/28/34 118/30/34
f 57/58/33 55/60/33 119/29/33 121/27/33
f 56/61/34 58/59/34 122/26/34 120/28/34
f 59/56/33 57/58/33 121/27/33 123/25/33
f 58/59/34 60/57/34 124/24/34 122/26/34
f 61/54/33 59/56/33 123/25/33 125/23/33
f 60/57/34 62/55/34 126/22/34 124/24/34
f 63/52/33 61/54/33 125/23/33 127/21/33
f 62/55/34 64/53/34 128/20/34 126/22/34
f 1/1/33 63/52/33 127/21/33 65/1/33
f 64/53/34 2/2/34 68/2/34 128/20/34
