# Blender 5.1.1
# www.blender.org
mtllib MetalBeam_1.mtl
o Cube.071
v -10.520595 -0.689095 1.000000
v -10.520595 0.689095 1.000000
v -10.520595 -0.689095 -1.000000
v -10.520595 0.689095 -1.000000
v 10.520595 -0.689095 1.000000
v 10.520595 0.689095 1.000000
v 10.520595 -0.689095 -1.000000
v 10.520595 0.689095 -1.000000
v -10.520595 -1.019962 -1.000000
v -10.520595 -1.019962 1.000000
v -10.520595 1.019962 1.000000
v -10.520595 1.019962 -1.000000
v 10.520595 -1.019962 -1.000000
v 10.520595 1.019962 -1.000000
v 10.520595 -1.019962 1.000000
v 10.520595 1.019962 1.000000
v 10.520595 -0.689095 -1.970495
v -10.520595 -0.689095 -1.970495
v -10.520595 0.689095 -1.970495
v 10.520595 0.689095 -1.970495
v -10.520595 -0.689095 1.970495
v 10.520595 -0.689095 1.970495
v 10.520595 0.689095 1.970495
v -10.520595 0.689095 1.970495
v 10.520595 -1.019962 -1.970495
v -10.520595 -1.019962 -1.970495
v -10.520595 1.019962 -1.970495
v 10.520595 1.019962 -1.970495
v -10.520595 -1.019962 1.970495
v 10.520595 -1.019962 1.970495
v 10.520595 1.019962 1.970495
v -10.520595 1.019962 1.970495
vn -1.0000 -0.0000 -0.0000
vn -0.0000 -0.0000 -1.0000
vn 1.0000 -0.0000 -0.0000
vn -0.0000 -0.0000 1.0000
vn -0.0000 1.0000 -0.0000
vn -0.0000 -1.0000 -0.0000
vt 0.016431 0.576433
vt 0.016431 0.625368
vt 0.016271 0.625368
vt 0.016271 0.576433
vt 0.016431 0.564685
vt 0.016271 0.564685
vt 0.016271 0.637115
vt 0.016431 0.637115
s 0
usemtl Material
f 1/1/1 2/2/1 4/2/1 3/1/1
f 3/1/2 4/2/2 8/3/2 7/4/2
f 7/4/3 8/3/3 6/3/3 5/4/3
f 5/4/4 6/3/4 2/2/4 1/1/4
f 1/1/1 3/1/1 9/5/1 10/5/1
f 3/1/5 7/4/5 17/4/5 18/1/5
f 9/5/6 13/6/6 15/6/6 10/5/6
f 14/7/5 12/8/5 11/8/5 16/7/5
f 7/4/3 5/4/3 15/6/3 13/6/3
f 4/2/1 12/8/1 27/8/1 19/2/1
f 2/2/6 6/3/6 23/3/6 24/2/6
f 6/3/3 8/3/3 14/7/3 16/7/3
f 10/5/6 15/6/6 30/6/6 29/5/6
f 4/2/1 2/2/1 11/8/1 12/8/1
f 24/2/4 23/3/4 31/7/4 32/8/4
f 20/3/2 19/2/2 27/8/2 28/7/2
f 22/4/4 21/1/4 29/5/4 30/6/4
f 18/1/2 17/4/2 25/6/2 26/5/2
f 16/7/5 11/8/5 32/8/5 31/7/5
f 14/7/3 8/3/3 20/3/3 28/7/3
f 8/3/6 4/2/6 19/2/6 20/3/6
f 6/3/3 16/7/3 31/7/3 23/3/3
f 11/8/1 2/2/1 24/2/1 32/8/1
f 13/6/6 9/5/6 26/5/6 25/6/6
f 9/5/1 3/1/1 18/1/1 26/5/1
f 12/8/5 14/7/5 28/7/5 27/8/5
f 1/1/1 10/5/1 29/5/1 21/1/1
f 15/6/3 5/4/3 22/4/3 30/6/3
f 5/4/5 1/1/5 21/1/5 22/4/5
f 7/4/3 13/6/3 25/6/3 17/4/3
