# Blender 5.1.1
# www.blender.org
mtllib MetalBeam_Bent.mtl
o Cube.076
v -7.722653 -0.505831 0.734051
v -7.722653 0.505831 0.734051
v -7.722653 -0.505831 -0.734051
v -7.722653 0.505831 -0.734051
v 7.722653 -0.505831 0.734051
v 7.722653 0.505831 0.734051
v 7.722653 -0.505831 -0.734051
v 7.722653 0.505831 -0.734051
v -7.722653 -0.748704 -0.734051
v -7.722653 -0.748704 0.734051
v -7.722653 0.748704 0.734051
v -7.722653 0.748704 -0.734051
v 7.722653 -0.748704 -0.734051
v 7.722653 0.748704 -0.734051
v 7.722653 -0.748704 0.734051
v 7.722653 0.748704 0.734051
v 7.722653 -0.505831 -1.446444
v -7.722653 -0.505831 -1.446444
v -7.722653 0.505831 -1.446444
v 7.722653 0.505831 -1.446444
v -7.722653 -0.505831 1.446444
v 7.722653 -0.505831 1.446444
v 7.722653 0.505831 1.446444
v -7.722653 0.505831 1.446444
v 7.722653 -0.748704 -1.446444
v -7.722653 -0.748704 -1.446444
v -7.722653 0.748704 -1.446444
v 7.722653 0.748704 -1.446444
v -7.722653 -0.748704 1.446444
v 7.722653 -0.748704 1.446444
v 7.722653 0.748704 1.446444
v -7.722653 0.748704 1.446444
v 0.826454 0.586118 -0.505525
v 0.826454 1.597780 -0.505525
v 0.826454 0.586118 0.962577
v 0.826454 1.597780 0.962577
v 0.826454 0.343245 -0.505525
v 0.826454 1.840652 -0.505525
v 0.826454 0.343245 0.962577
v 0.826454 1.840652 0.962577
v 0.826454 0.586118 -1.217918
v 0.826454 1.597780 -1.217918
v 0.826454 0.586118 1.674969
v 0.826454 1.597780 1.674969
v 0.826454 0.343245 -1.217918
v 0.826454 1.840652 -1.217918
v 0.826454 0.343245 1.674969
v 0.826454 1.840652 1.674969
vn -1.0000 -0.0000 -0.0000
vn -0.0331 -0.0000 -0.9995
vn 1.0000 -0.0000 -0.0000
vn -0.0267 -0.0000 0.9996
vn 0.1564 0.9877 -0.0000
vn -0.1564 -0.9877 -0.0000
vn -0.1267 0.9919 -0.0000
vn 0.0331 -0.0000 0.9995
vn 0.0267 -0.0000 -0.9996
vn 0.1267 -0.9919 -0.0000
vt 0.013932 0.515033
vt 0.013931 0.516388
vt 0.013937 0.514337
vt 0.013937 0.513025
vt 0.013947 0.547099
vt 0.013947 0.549122
vt 0.013955 0.566630
vt 0.013955 0.564479
vt 0.013950 0.567742
vt 0.013950 0.565586
vt 0.013942 0.548533
vt 0.013942 0.550572
vt 0.013938 0.512721
vt 0.013932 0.514719
vt 0.013957 0.563936
vt 0.013950 0.546393
vt 0.013947 0.546629
vt 0.013955 0.563977
vt 0.013950 0.565082
vt 0.013942 0.548059
vt 0.013947 0.549623
vt 0.013937 0.514664
vt 0.013931 0.516726
vt 0.013942 0.551077
vt 0.013940 0.513646
vt 0.013940 0.513325
vt 0.013948 0.568275
vt 0.013939 0.551265
vt 0.013955 0.567161
vt 0.013950 0.568274
vt 0.013948 0.565612
vt 0.013940 0.548743
vt 0.013948 0.568808
vt 0.013939 0.551772
vt 0.013950 0.548408
vt 0.013950 0.548907
vt 0.013940 0.549219
vt 0.013929 0.515991
vt 0.013929 0.515672
vt 0.013957 0.563434
vt 0.013950 0.545925
vt 0.013928 0.517709
vt 0.013957 0.566083
vt 0.013957 0.566613
vt 0.013929 0.517367
vt 0.013940 0.511735
vt 0.013940 0.512034
vt 0.013948 0.566116
s 0
usemtl Material
f 1/1/1 2/2/1 4/3/1 3/4/1
f 33/5/2 34/6/2 8/7/2 7/8/2
f 7/8/3 8/7/3 6/9/3 5/10/3
f 35/11/4 36/12/4 2/2/4 1/1/4
f 1/1/1 3/4/1 9/13/1 10/14/1
f 33/5/5 7/8/5 17/15/5 41/16/5
f 37/17/6 13/18/6 15/19/6 39/20/6
f 38/21/7 12/22/7 11/23/7 40/24/7
f 7/8/3 5/10/3 15/19/3 13/18/3
f 4/3/1 12/22/1 27/25/1 19/26/1
f 36/12/6 6/9/6 23/27/6 44/28/6
f 6/9/3 8/7/3 14/29/3 16/30/3
f 39/20/6 15/19/6 30/31/6 47/32/6
f 4/3/1 2/2/1 11/23/1 12/22/1
f 44/28/8 23/27/8 31/33/8 48/34/8
f 42/35/9 19/26/9 27/25/9 46/36/9
f 43/37/4 21/38/4 29/39/4 47/32/4
f 41/16/2 17/15/2 25/40/2 45/41/2
f 40/24/7 11/23/7 32/42/7 48/34/7
f 14/29/3 8/7/3 20/43/3 28/44/3
f 34/6/10 4/3/10 19/26/10 42/35/10
f 6/9/3 16/30/3 31/33/3 23/27/3
f 11/23/1 2/2/1 24/45/1 32/42/1
f 37/17/10 9/13/10 26/46/10 45/41/10
f 9/13/1 3/4/1 18/47/1 26/46/1
f 38/21/5 14/29/5 28/44/5 46/36/5
f 1/1/1 10/14/1 29/39/1 21/38/1
f 15/19/3 5/10/3 22/48/3 30/31/3
f 35/11/7 1/1/7 21/38/7 43/37/7
f 7/8/3 13/18/3 25/40/3 17/15/3
f 5/10/5 35/11/5 43/37/5 22/48/5
f 12/22/7 38/21/7 46/36/7 27/25/7
f 13/18/6 37/17/6 45/41/6 25/40/6
f 8/7/6 34/6/6 42/35/6 20/43/6
f 16/30/5 40/24/5 48/34/5 31/33/5
f 18/47/9 41/16/9 45/41/9 26/46/9
f 22/48/8 43/37/8 47/32/8 30/31/8
f 20/43/2 42/35/2 46/36/2 28/44/2
f 24/45/4 44/28/4 48/34/4 32/42/4
f 10/14/10 39/20/10 47/32/10 29/39/10
f 2/2/10 36/12/10 44/28/10 24/45/10
f 14/29/5 38/21/5 40/24/5 16/30/5
f 9/13/10 37/17/10 39/20/10 10/14/10
f 3/4/7 33/5/7 41/16/7 18/47/7
f 5/10/8 6/9/8 36/12/8 35/11/8
f 3/4/9 4/3/9 34/6/9 33/5/9
