# Blender 5.1.1
# www.blender.org
mtllib ParkingBarrier.mtl
o Cube.077
v -5.731933 -1.000000 1.000000
v -4.848521 0.200400 0.443209
v -5.731933 -1.000000 -1.000000
v -4.848521 0.200400 -0.443209
v 5.731933 -1.000000 1.000000
v 4.848521 0.200400 0.443209
v 5.731933 -1.000000 -1.000000
v 4.848521 0.200400 -0.443209
vn -0.8054 0.5927 -0.0000
vn -0.0000 0.4208 -0.9072
vn 0.8054 0.5927 -0.0000
vn -0.0000 0.4208 0.9072
vn -0.0000 -1.0000 -0.0000
vn -0.0000 1.0000 -0.0000
vt 0.011774 0.496138
vt 0.011917 0.589911
vt 0.013477 0.589911
vt 0.013619 0.496138
s 0
usemtl Material
f 1/1/1 2/2/1 4/2/1 3/1/1
f 3/1/2 4/2/2 8/3/2 7/4/2
f 7/4/3 8/3/3 6/3/3 5/4/3
f 5/4/4 6/3/4 2/2/4 1/1/4
f 3/1/5 7/4/5 5/4/5 1/1/5
f 8/3/6 4/2/6 2/2/6 6/3/6
