# Blender 5.1.1
# www.blender.org
mtllib Railing.mtl
o Cube.036
v 11.579076 -0.998429 0.080085
v 11.579076 0.995226 0.080085
v 11.579076 -0.998429 -0.080085
v 11.579076 0.995226 -0.080085
v 11.950401 -0.998429 0.080085
v 11.950401 0.995226 0.080085
v 11.950401 -0.998429 -0.080085
v 11.950401 0.995226 -0.080085
v 11.579076 -0.330555 0.080085
v 11.579076 -0.330555 -0.080085
v 11.950401 -0.330555 -0.080085
v 11.950401 -0.330555 0.080085
v 11.579076 0.329485 0.080085
v 11.579076 0.329485 -0.080085
v 11.950401 0.329485 -0.080085
v 11.950401 0.329485 0.080085
v 11.579076 0.662355 0.080085
v 11.579076 0.662355 -0.080085
v 11.950401 0.662355 -0.080085
v 11.950401 0.662355 0.080085
v 11.579076 -0.658081 -0.080085
v 11.950401 -0.658081 -0.080085
v 11.950401 -0.658081 0.080085
v 11.579076 -0.658081 0.080085
v -11.768344 -0.998429 0.080085
v -11.768344 0.995226 0.080085
v -11.768344 -0.998429 -0.080085
v -11.768344 0.995226 -0.080085
v -11.397019 -0.998429 0.080085
v -11.397019 0.995226 0.080085
v -11.397019 -0.998429 -0.080085
v -11.397019 0.995226 -0.080085
v -11.768344 -0.330555 0.080085
v -11.768344 -0.330555 -0.080085
v -11.397019 -0.330555 -0.080085
v -11.397019 -0.330555 0.080085
v -11.768344 0.329485 0.080085
v -11.768344 0.329485 -0.080085
v -11.397019 0.329485 -0.080085
v -11.397019 0.329485 0.080085
v -11.768344 0.662355 0.080085
v -11.768344 0.662355 -0.080085
v -11.397019 0.662355 -0.080085
v -11.397019 0.662355 0.080085
v -11.768344 -0.658081 -0.080085
v -11.397019 -0.658081 -0.080085
v -11.397019 -0.658081 0.080085
v -11.768344 -0.658081 0.080085
v 4.389108 -0.998429 0.080085
v 4.389108 0.995226 0.080085
v 4.389108 -0.998429 -0.080085
v 4.389108 0.995226 -0.080085
v 4.760432 -0.998429 0.080085
v 4.760432 0.995226 0.080085
v 4.760432 -0.998429 -0.080085
v 4.760432 0.995226 -0.080085
v 4.389108 -0.330555 0.080085
v 4.389108 -0.330555 -0.080085
v 4.760432 -0.330555 -0.080085
v 4.760432 -0.330555 0.080085
v 4.389108 0.329485 0.080085
v 4.389108 0.329485 -0.080085
v 4.760432 0.329485 -0.080085
v 4.760432 0.329485 0.080085
v 4.389108 0.662355 0.080085
v 4.389108 0.662355 -0.080085
v 4.760432 0.662355 -0.080085
v 4.760432 0.662355 0.080085
v 4.389108 -0.658081 -0.080085
v 4.760432 -0.658081 -0.080085
v 4.760432 -0.658081 0.080085
v 4.389108 -0.658081 0.080085
v -4.942451 -0.998429 0.080085
v -4.942451 0.995226 0.080085
v -4.942451 -0.998429 -0.080085
v -4.942451 0.995226 -0.080085
v -4.571126 -0.998429 0.080085
v -4.571126 0.995226 0.080085
v -4.571126 -0.998429 -0.080085
v -4.571126 0.995226 -0.080085
v -4.942451 -0.330555 0.080085
v -4.942451 -0.330555 -0.080085
v -4.571126 -0.330555 -0.080085
v -4.571126 -0.330555 0.080085
v -4.942451 0.329485 0.080085
v -4.942451 0.329485 -0.080085
v -4.571126 0.329485 -0.080085
v -4.571126 0.329485 0.080085
v -4.942451 0.662355 0.080085
v -4.942451 0.662355 -0.080085
v -4.571126 0.662355 -0.080085
v -4.571126 0.662355 0.080085
v -4.942451 -0.658081 -0.080085
v -4.571126 -0.658081 -0.080085
v -4.571126 -0.658081 0.080085
v -4.942451 -0.658081 0.080085
vn -1.0000 -0.0000 -0.0000
vn -0.0000 -0.0000 -1.0000
vn 1.0000 -0.0000 -0.0000
vn -0.0000 -0.0000 1.0000
vn -0.0000 -1.0000 -0.0000
vn -0.0000 1.0000 -0.0000
vt 0.016617 0.653137
vt 0.016618 0.653487
vt 0.016618 0.651816
vt 0.016617 0.651465
vt 0.016616 0.652732
vt 0.016615 0.652382
vt 0.016616 0.654404
vt 0.016615 0.654053
vt 0.016611 0.649717
vt 0.016610 0.650633
vt 0.016610 0.652305
vt 0.016611 0.651388
vt 0.016611 0.652663
vt 0.016612 0.653008
vt 0.016614 0.652091
vt 0.016612 0.651746
vt 0.016611 0.650991
vt 0.016612 0.651336
vt 0.016612 0.650075
vt 0.016613 0.650420
vt 0.016640 0.633245
vt 0.016641 0.633590
vt 0.016614 0.653703
vt 0.016616 0.652786
vt 0.016614 0.652031
vt 0.016616 0.651115
vt 0.016644 0.636307
vt 0.016643 0.635956
vt 0.016712 0.595510
vt 0.016713 0.595860
vt 0.016713 0.594189
vt 0.016712 0.593838
vt 0.016711 0.595106
vt 0.016710 0.594755
vt 0.016711 0.596777
vt 0.016710 0.596426
vt 0.016707 0.592090
vt 0.016705 0.593006
vt 0.016705 0.594678
vt 0.016707 0.593761
vt 0.016706 0.595036
vt 0.016707 0.595381
vt 0.016709 0.594465
vt 0.016708 0.594120
vt 0.016680 0.609296
vt 0.016680 0.610968
vt 0.016706 0.593365
vt 0.016708 0.592448
vt 0.016709 0.592793
vt 0.016707 0.593710
vt 0.016709 0.596076
vt 0.016711 0.595160
vt 0.016709 0.594405
vt 0.016711 0.593488
vt 0.016683 0.612007
vt 0.016684 0.612358
vt 0.016646 0.635390
vt 0.016647 0.635741
vt 0.016647 0.634069
vt 0.016646 0.633719
vt 0.016645 0.634986
vt 0.016644 0.634635
vt 0.016645 0.636657
vt 0.016641 0.631970
vt 0.016639 0.632887
vt 0.016639 0.634558
vt 0.016641 0.633642
vt 0.016640 0.634916
vt 0.016641 0.635261
vt 0.016643 0.634345
vt 0.016642 0.634000
vt 0.016642 0.632329
vt 0.016643 0.632673
vt 0.016678 0.610213
vt 0.016679 0.610557
vt 0.016645 0.635040
vt 0.016643 0.634285
vt 0.016645 0.633368
vt 0.016682 0.613274
vt 0.016681 0.612924
vt 0.016685 0.612708
vt 0.016685 0.611037
vt 0.016684 0.610686
vt 0.016683 0.611953
vt 0.016682 0.611603
vt 0.016684 0.613625
vt 0.016679 0.608938
vt 0.016677 0.609854
vt 0.016677 0.611526
vt 0.016679 0.610609
vt 0.016678 0.611884
vt 0.016679 0.612229
vt 0.016681 0.611312
vt 0.016681 0.609641
vt 0.016681 0.611252
vt 0.016683 0.610336
s 0
usemtl Material
f 17/1/1 2/2/1 4/3/1 18/4/1
f 18/4/2 4/3/2 8/5/2 19/6/2
f 19/6/3 8/5/3 6/7/3 20/8/3
f 20/8/4 6/7/4 2/2/4 17/1/4
f 3/9/5 7/10/5 5/11/5 1/12/5
f 8/5/6 4/3/6 2/2/6 6/7/6
f 23/13/4 12/14/4 9/15/4 24/16/4
f 22/17/3 11/18/3 12/14/3 23/13/3
f 21/19/2 10/20/2 11/18/2 22/17/2
f 70/21/2 59/22/2 10/20/2 21/19/2
f 12/14/4 16/23/4 13/24/4 9/15/4
f 11/18/3 15/25/3 16/23/3 12/14/3
f 10/20/2 14/26/2 15/25/2 11/18/2
f 9/15/1 13/24/1 14/26/1 10/20/1
f 16/23/4 20/8/4 17/1/4 13/24/4
f 15/25/3 19/6/3 20/8/3 16/23/3
f 14/26/2 18/4/2 19/6/2 15/25/2
f 68/27/4 64/28/4 13/24/4 17/1/4
f 1/12/1 24/16/1 21/19/1 3/9/1
f 3/9/2 21/19/2 22/17/2 7/10/2
f 7/10/3 22/17/3 23/13/3 5/11/3
f 5/11/4 23/13/4 24/16/4 1/12/4
f 41/29/1 26/30/1 28/31/1 42/32/1
f 42/32/2 28/31/2 32/33/2 43/34/2
f 43/34/3 32/33/3 30/35/3 44/36/3
f 44/36/4 30/35/4 26/30/4 41/29/4
f 27/37/5 31/38/5 29/39/5 25/40/5
f 32/33/6 28/31/6 26/30/6 30/35/6
f 47/41/4 36/42/4 33/43/4 48/44/4
f 93/45/5 96/46/5 47/41/5 46/47/5
f 45/48/2 34/49/2 35/50/2 46/47/2
f 48/44/1 33/43/1 34/49/1 45/48/1
f 36/42/4 40/51/4 37/52/4 33/43/4
f 35/50/3 39/53/3 40/51/3 36/42/3
f 34/49/2 38/54/2 39/53/2 35/50/2
f 33/43/1 37/52/1 38/54/1 34/49/1
f 40/51/4 44/36/4 41/29/4 37/52/4
f 85/55/4 89/56/4 44/36/4 40/51/4
f 38/54/2 42/32/2 43/34/2 39/53/2
f 37/52/1 41/29/1 42/32/1 38/54/1
f 25/40/1 48/44/1 45/48/1 27/37/1
f 27/37/2 45/48/2 46/47/2 31/38/2
f 31/38/3 46/47/3 47/41/3 29/39/3
f 29/39/4 47/41/4 48/44/4 25/40/4
f 65/57/1 50/58/1 52/59/1 66/60/1
f 66/60/2 52/59/2 56/61/2 67/62/2
f 67/62/3 56/61/3 54/63/3 68/27/3
f 68/27/4 54/63/4 50/58/4 65/57/4
f 51/64/5 55/65/5 53/66/5 49/67/5
f 56/61/6 52/59/6 50/58/6 54/63/6
f 71/68/4 60/69/4 57/70/4 72/71/4
f 71/68/5 70/21/5 21/19/5 24/16/5
f 69/72/2 58/73/2 59/22/2 70/21/2
f 94/74/2 83/75/2 58/73/2 69/72/2
f 60/69/4 64/28/4 61/76/4 57/70/4
f 59/22/3 63/77/3 64/28/3 60/69/3
f 58/73/2 62/78/2 63/77/2 59/22/2
f 57/70/1 61/76/1 62/78/1 58/73/1
f 64/28/4 68/27/4 65/57/4 61/76/4
f 67/62/6 68/27/6 17/1/6 18/4/6
f 62/78/2 66/60/2 67/62/2 63/77/2
f 92/79/4 88/80/4 61/76/4 65/57/4
f 49/67/1 72/71/1 69/72/1 51/64/1
f 51/64/2 69/72/2 70/21/2 55/65/2
f 55/65/3 70/21/3 71/68/3 53/66/3
f 53/66/4 71/68/4 72/71/4 49/67/4
f 89/56/1 74/81/1 76/82/1 90/83/1
f 90/83/2 76/82/2 80/84/2 91/85/2
f 91/85/3 80/84/3 78/86/3 92/79/3
f 92/79/4 78/86/4 74/81/4 89/56/4
f 75/87/5 79/88/5 77/89/5 73/90/5
f 80/84/6 76/82/6 74/81/6 78/86/6
f 95/91/4 84/92/4 81/93/4 96/46/4
f 95/91/5 94/74/5 69/72/5 72/71/5
f 93/45/2 82/94/2 83/75/2 94/74/2
f 82/94/2 93/45/2 46/47/2 35/50/2
f 84/92/4 88/80/4 85/55/4 81/93/4
f 83/75/3 87/95/3 88/80/3 84/92/3
f 82/94/2 86/96/2 87/95/2 83/75/2
f 81/93/1 85/55/1 86/96/1 82/94/1
f 88/80/4 92/79/4 89/56/4 85/55/4
f 91/85/6 92/79/6 65/57/6 66/60/6
f 86/96/2 90/83/2 91/85/2 87/95/2
f 86/96/5 85/55/5 40/51/5 39/53/5
f 73/90/1 96/46/1 93/45/1 75/87/1
f 75/87/2 93/45/2 94/74/2 79/88/2
f 79/88/3 94/74/3 95/91/3 77/89/3
f 77/89/4 95/91/4 96/46/4 73/90/4
f 89/56/6 90/83/6 43/34/6 44/36/6
f 90/83/2 86/96/2 39/53/2 43/34/2
f 96/46/4 81/93/4 36/42/4 47/41/4
f 81/93/6 82/94/6 35/50/6 36/42/6
f 88/80/5 87/95/5 62/78/5 61/76/5
f 87/95/2 91/85/2 66/60/2 62/78/2
f 83/75/6 84/92/6 57/70/6 58/73/6
f 84/92/4 95/91/4 72/71/4 57/70/4
f 64/28/5 63/77/5 14/26/5 13/24/5
f 63/77/2 67/62/2 18/4/2 14/26/2
f 59/22/6 60/69/6 9/15/6 10/20/6
f 60/69/4 71/68/4 24/16/4 9/15/4
