# Blender 5.1.1
# www.blender.org
mtllib WoodPlanks_2.mtl
o Cube.097
v -2.958838 -0.729160 7.200656
v -2.958838 -0.562240 7.200656
v -4.011426 -0.729160 8.207289
v -4.011426 -0.562240 8.207289
v -7.334123 -0.729160 2.625626
v -7.334123 -0.562240 2.625626
v -8.386710 -0.729160 3.632259
v -8.386710 -0.562240 3.632259
v -7.568680 -0.557566 4.846602
v -7.568680 0.043439 4.846602
v -8.575312 -0.557566 3.794014
v -8.575312 0.043439 3.794014
v 5.221147 -0.557566 -7.384821
v 5.221147 0.043439 -7.384821
v 4.214514 -0.557566 -8.437409
v 4.214514 0.043439 -8.437409
v -6.438020 -0.557566 6.028880
v -6.438020 0.043439 6.028880
v -7.444652 -0.557566 4.976293
v -7.444652 0.043439 4.976293
v 6.351807 -0.557566 -6.202543
v 6.351807 0.043439 -6.202543
v 5.345175 -0.557566 -7.255131
v 5.345175 0.043439 -7.255131
v -4.168481 -0.557566 8.402030
v -4.168481 0.043439 8.402030
v -5.175113 -0.557566 7.349442
v -5.175113 0.043439 7.349442
v 8.621346 -0.557566 -3.829393
v 8.621346 0.043439 -3.829393
v 7.614714 -0.557566 -4.881981
v 7.614714 0.043439 -4.881981
v -5.299141 -0.557566 7.219752
v -5.299141 0.043439 7.219752
v -6.305773 -0.557566 6.167164
v -6.305773 0.043439 6.167164
v 7.490685 -0.557566 -5.011672
v 7.490685 0.043439 -5.011672
v 6.484053 -0.557566 -6.064260
v 6.484053 0.043439 -6.064260
v -2.958837 0.062406 7.200656
v -2.958837 0.229326 7.200656
v -4.011425 0.062406 8.207289
v -4.011425 0.229326 8.207289
v -7.334122 0.062406 2.625627
v -7.334122 0.229326 2.625627
v -8.386710 0.062406 3.632259
v -8.386710 0.229326 3.632259
v 8.294646 0.062406 -3.561502
v 8.294646 0.229326 -3.561502
v 7.242058 0.062406 -2.554869
v 7.242058 0.229326 -2.554869
v 3.919362 0.062406 -8.136531
v 3.919362 0.229326 -8.136531
v 2.866774 0.062406 -7.129899
v 2.866774 0.229326 -7.129899
v -5.299141 0.206478 7.219752
v -5.299141 0.807483 7.219752
v -6.305773 0.206478 6.167164
v -6.305773 0.807483 6.167164
v 7.490685 0.206478 -5.011672
v 7.490685 0.807483 -5.011672
v 6.484053 0.206478 -6.064260
v 6.484053 0.807483 -6.064260
v -4.168481 0.206478 8.402030
v -4.168481 0.807483 8.402030
v -5.175113 0.206478 7.349442
v -5.175113 0.807483 7.349442
v 8.621346 0.206478 -3.829393
v 8.621346 0.807483 -3.829393
v 7.614714 0.206478 -4.881981
v 7.614714 0.807483 -4.881981
v -6.438020 0.206478 6.028880
v -6.438020 0.807483 6.028880
v -7.444652 0.206478 4.976293
v -7.444652 0.807483 4.976293
v 6.351807 0.206478 -6.202543
v 6.351807 0.807483 -6.202543
v 5.345175 0.206478 -7.255131
v 5.345175 0.807483 -7.255131
v -7.568680 0.206478 4.846602
v -7.568680 0.807483 4.846602
v -8.575312 0.206478 3.794014
v -8.575312 0.807483 3.794014
v 5.221147 0.206478 -7.384821
v 5.221147 0.807483 -7.384821
v 4.214514 0.206478 -8.437409
v 4.214514 0.807483 -8.437409
v 8.294646 -0.729160 -3.561502
v 8.294646 -0.562240 -3.561502
v 7.242058 -0.729160 -2.554869
v 7.242058 -0.562240 -2.554869
v 3.919362 -0.729160 -8.136531
v 3.919362 -0.562240 -8.136531
v 2.866774 -0.729160 -7.129899
v 2.866774 -0.562240 -7.129899
v -8.071830 -1.963910 -1.838329
v -8.071830 -1.796990 -1.838329
v -9.276281 -1.963910 -2.657199
v -9.276281 -1.796990 -2.657199
v -4.512647 -1.963910 -7.073426
v -4.512647 -1.796990 -7.073426
v -5.717099 -1.963910 -7.892296
v -5.717099 -1.796990 -7.892296
v -6.733581 -1.792317 -6.838459
v -6.733581 -1.191312 -6.838459
v -5.914711 -1.792317 -8.042912
v -5.914711 -1.191312 -8.042912
v 7.901512 -1.792317 3.111492
v 7.901512 -1.191312 3.111492
v 8.720381 -1.792317 1.907041
v 8.720381 -1.191312 1.907041
v -7.653344 -1.792317 -5.485607
v -7.653344 -1.191312 -5.485607
v -6.834474 -1.792317 -6.690058
v -6.834474 -1.191312 -6.690058
v 6.981749 -1.792317 4.464345
v 6.981749 -1.191312 4.464345
v 7.800618 -1.792317 3.259893
v 7.800618 -1.191312 3.259893
v -9.499556 -1.792317 -2.770068
v -9.499556 -1.191312 -2.770068
v -8.680686 -1.792317 -3.974519
v -8.680686 -1.191312 -3.974519
v 5.135537 -1.792317 7.179884
v 5.135537 -1.191312 7.179884
v 5.954407 -1.792317 5.975433
v 5.954407 -1.191312 5.975433
v -8.579793 -1.792317 -4.122921
v -8.579793 -1.191312 -4.122921
v -7.760923 -1.792317 -5.327373
v -7.760923 -1.191312 -5.327373
v 6.055301 -1.792317 5.827031
v 6.055301 -1.191312 5.827031
v 6.874170 -1.792317 4.622580
v 6.874170 -1.191312 4.622580
v -8.071831 -1.172344 -1.838329
v -8.071831 -1.005424 -1.838329
v -9.276281 -1.172344 -2.657199
v -9.276281 -1.005424 -2.657199
v -4.512648 -1.172344 -7.073425
v -4.512648 -1.005424 -7.073425
v -5.717100 -1.172344 -7.892295
v -5.717100 -1.005424 -7.892295
v 4.805263 -1.172344 6.916412
v 4.805263 -1.005424 6.916412
v 3.600811 -1.172344 6.097543
v 3.600811 -1.005424 6.097543
v 8.364445 -1.172344 1.681316
v 8.364445 -1.005424 1.681316
v 7.159993 -1.172344 0.862446
v 7.159993 -1.005424 0.862446
v -8.579793 -1.028272 -4.122921
v -8.579793 -0.427267 -4.122921
v -7.760923 -1.028272 -5.327373
v -7.760923 -0.427267 -5.327373
v 6.055301 -1.028272 5.827031
v 6.055301 -0.427267 5.827031
v 6.874170 -1.028272 4.622580
v 6.874170 -0.427267 4.622580
v -9.499556 -1.028272 -2.770068
v -9.499556 -0.427267 -2.770068
v -8.680686 -1.028272 -3.974519
v -8.680686 -0.427267 -3.974519
v 5.135537 -1.028272 7.179884
v 5.135537 -0.427267 7.179884
v 5.954407 -1.028272 5.975433
v 5.954407 -0.427267 5.975433
v -7.653344 -1.028272 -5.485607
v -7.653344 -0.427267 -5.485607
v -6.834474 -1.028272 -6.690058
v -6.834474 -0.427267 -6.690058
v 6.981749 -1.028272 4.464345
v 6.981749 -0.427267 4.464345
v 7.800618 -1.028272 3.259893
v 7.800618 -0.427267 3.259893
v -6.733581 -1.028272 -6.838459
v -6.733581 -0.427267 -6.838459
v -5.914711 -1.028272 -8.042912
v -5.914711 -0.427267 -8.042912
v 7.901512 -1.028272 3.111492
v 7.901512 -0.427267 3.111492
v 8.720381 -1.028272 1.907041
v 8.720381 -0.427267 1.907041
v 4.805263 -1.963910 6.916412
v 4.805263 -1.796990 6.916412
v 3.600811 -1.963910 6.097543
v 3.600811 -1.796990 6.097543
v 8.364445 -1.963910 1.681316
v 8.364445 -1.796990 1.681316
v 7.159993 -1.963910 0.862446
v 7.159993 -1.796990 0.862446
vn 0.6912 -0.0000 0.7227
vn -0.7227 -0.0000 0.6912
vn -0.6912 -0.0000 -0.7227
vn 0.7227 -0.0000 -0.6912
vn -0.0000 -1.0000 -0.0000
vn -0.0000 1.0000 -0.0000
vn -0.5622 -0.0000 0.8270
vn -0.8270 -0.0000 -0.5622
vn 0.5622 -0.0000 -0.8270
vn 0.8270 -0.0000 0.5622
vt 0.889998 0.811151
vt 0.889998 0.827485
vt 0.889989 0.827485
vt 0.889989 0.811151
vt 0.889989 0.827485
vt 0.889989 0.811150
vt 0.889998 0.827485
vt 0.889998 0.811150
vt 0.889988 0.827942
vt 0.889988 0.886754
vt 0.890095 0.886754
vt 0.890095 0.827942
vt 0.889988 0.886754
vt 0.890095 0.886754
vt 0.889998 0.888610
vt 0.889998 0.904944
vt 0.889989 0.904944
vt 0.889989 0.888610
vt 0.889989 0.904944
vt 0.889998 0.904944
vt 0.890093 0.888610
vt 0.890093 0.904944
vt 0.890084 0.904944
vt 0.890084 0.888610
vt 0.890084 0.904944
vt 0.890093 0.904944
vt 0.889988 0.902709
vt 0.889988 0.961521
vt 0.890095 0.961521
vt 0.890095 0.902709
vt 0.890093 0.811151
vt 0.890093 0.827485
vt 0.890084 0.827485
vt 0.890084 0.811151
vt 0.890084 0.827485
vt 0.890084 0.811150
vt 0.890093 0.827485
vt 0.890093 0.811150
s 0
usemtl Material
f 1/1/1 2/2/1 4/3/1 3/4/1
f 3/4/2 4/3/2 8/5/2 7/6/2
f 7/6/3 8/5/3 6/7/3 5/8/3
f 5/8/4 6/7/4 2/2/4 1/1/4
f 3/4/5 7/6/5 5/8/5 1/1/5
f 8/5/6 4/3/6 2/2/6 6/7/6
f 9/9/2 10/10/2 12/10/2 11/9/2
f 11/9/3 12/10/3 16/11/3 15/12/3
f 15/12/4 16/11/4 14/11/4 13/12/4
f 13/12/1 14/11/1 10/10/1 9/9/1
f 11/9/5 15/12/5 13/12/5 9/9/5
f 16/11/6 12/10/6 10/10/6 14/11/6
f 17/9/2 18/10/2 20/10/2 19/9/2
f 19/9/3 20/10/3 24/11/3 23/12/3
f 23/12/4 24/11/4 22/11/4 21/12/4
f 21/12/1 22/11/1 18/10/1 17/9/1
f 19/9/5 23/12/5 21/12/5 17/9/5
f 24/11/6 20/10/6 18/10/6 22/11/6
f 25/9/2 26/13/2 28/13/2 27/9/2
f 27/9/3 28/13/3 32/14/3 31/12/3
f 31/12/4 32/14/4 30/14/4 29/12/4
f 29/12/1 30/14/1 26/13/1 25/9/1
f 27/9/5 31/12/5 29/12/5 25/9/5
f 32/14/6 28/13/6 26/13/6 30/14/6
f 33/9/2 34/13/2 36/10/2 35/9/2
f 35/9/3 36/10/3 40/11/3 39/12/3
f 39/12/4 40/11/4 38/14/4 37/12/4
f 37/12/1 38/14/1 34/13/1 33/9/1
f 35/9/5 39/12/5 37/12/5 33/9/5
f 40/11/6 36/10/6 34/13/6 38/14/6
f 41/15/1 42/16/1 44/17/1 43/18/1
f 43/18/2 44/17/2 48/19/2 47/18/2
f 47/18/3 48/19/3 46/20/3 45/15/3
f 45/15/4 46/20/4 42/16/4 41/15/4
f 43/18/5 47/18/5 45/15/5 41/15/5
f 48/19/6 44/17/6 42/16/6 46/20/6
f 49/21/1 50/22/1 52/23/1 51/24/1
f 51/24/2 52/23/2 56/25/2 55/24/2
f 55/24/3 56/25/3 54/26/3 53/21/3
f 53/21/4 54/26/4 50/22/4 49/21/4
f 51/24/5 55/24/5 53/21/5 49/21/5
f 56/25/6 52/23/6 50/22/6 54/26/6
f 57/27/2 58/28/2 60/28/2 59/27/2
f 59/27/3 60/28/3 64/29/3 63/30/3
f 63/30/4 64/29/4 62/29/4 61/30/4
f 61/30/1 62/29/1 58/28/1 57/27/1
f 59/27/5 63/30/5 61/30/5 57/27/5
f 64/29/6 60/28/6 58/28/6 62/29/6
f 65/27/2 66/28/2 68/28/2 67/27/2
f 67/27/3 68/28/3 72/29/3 71/30/3
f 71/30/4 72/29/4 70/29/4 69/30/4
f 69/30/1 70/29/1 66/28/1 65/27/1
f 67/27/5 71/30/5 69/30/5 65/27/5
f 72/29/6 68/28/6 66/28/6 70/29/6
f 73/27/2 74/28/2 76/28/2 75/27/2
f 75/27/3 76/28/3 80/29/3 79/30/3
f 79/30/4 80/29/4 78/29/4 77/30/4
f 77/30/1 78/29/1 74/28/1 73/27/1
f 75/27/5 79/30/5 77/30/5 73/27/5
f 80/29/6 76/28/6 74/28/6 78/29/6
f 81/27/2 82/28/2 84/28/2 83/27/2
f 83/27/3 84/28/3 88/29/3 87/30/3
f 87/30/4 88/29/4 86/29/4 85/30/4
f 85/30/1 86/29/1 82/28/1 81/27/1
f 83/27/5 87/30/5 85/30/5 81/27/5
f 88/29/6 84/28/6 82/28/6 86/29/6
f 89/31/1 90/32/1 92/33/1 91/34/1
f 91/34/2 92/33/2 96/35/2 95/36/2
f 95/36/3 96/35/3 94/37/3 93/38/3
f 93/38/4 94/37/4 90/32/4 89/31/4
f 91/34/5 95/36/5 93/38/5 89/31/5
f 96/35/6 92/33/6 90/32/6 94/37/6
f 97/1/7 98/2/7 100/3/7 99/4/7
f 99/4/8 100/3/8 104/5/8 103/6/8
f 103/6/9 104/5/9 102/7/9 101/8/9
f 101/8/10 102/7/10 98/2/10 97/1/10
f 99/4/5 103/6/5 101/8/5 97/1/5
f 104/5/6 100/3/6 98/2/6 102/7/6
f 105/9/8 106/10/8 108/10/8 107/9/8
f 107/9/9 108/10/9 112/11/9 111/12/9
f 111/12/10 112/11/10 110/11/10 109/12/10
f 109/12/7 110/11/7 106/10/7 105/9/7
f 107/9/5 111/12/5 109/12/5 105/9/5
f 112/11/6 108/10/6 106/10/6 110/11/6
f 113/9/8 114/10/8 116/10/8 115/9/8
f 115/9/9 116/10/9 120/11/9 119/12/9
f 119/12/10 120/11/10 118/11/10 117/12/10
f 117/12/7 118/11/7 114/10/7 113/9/7
f 115/9/5 119/12/5 117/12/5 113/9/5
f 120/11/6 116/10/6 114/10/6 118/11/6
f 121/9/8 122/13/8 124/13/8 123/9/8
f 123/9/9 124/13/9 128/14/9 127/12/9
f 127/12/10 128/14/10 126/14/10 125/12/10
f 125/12/7 126/14/7 122/13/7 121/9/7
f 123/9/5 127/12/5 125/12/5 121/9/5
f 128/14/6 124/13/6 122/13/6 126/14/6
f 129/9/8 130/13/8 132/10/8 131/9/8
f 131/9/9 132/10/9 136/11/9 135/12/9
f 135/12/10 136/11/10 134/14/10 133/12/10
f 133/12/7 134/14/7 130/13/7 129/9/7
f 131/9/5 135/12/5 133/12/5 129/9/5
f 136/11/6 132/10/6 130/13/6 134/14/6
f 137/15/7 138/16/7 140/17/7 139/18/7
f 139/18/8 140/17/8 144/19/8 143/18/8
f 143/18/9 144/19/9 142/20/9 141/15/9
f 141/15/10 142/20/10 138/16/10 137/15/10
f 139/18/5 143/18/5 141/15/5 137/15/5
f 144/19/6 140/17/6 138/16/6 142/20/6
f 145/21/7 146/22/7 148/23/7 147/24/7
f 147/24/8 148/23/8 152/25/8 151/24/8
f 151/24/9 152/25/9 150/26/9 149/21/9
f 149/21/10 150/26/10 146/22/10 145/21/10
f 147/24/5 151/24/5 149/21/5 145/21/5
f 152/25/6 148/23/6 146/22/6 150/26/6
f 153/27/8 154/28/8 156/28/8 155/27/8
f 155/27/9 156/28/9 160/29/9 159/30/9
f 159/30/10 160/29/10 158/29/10 157/30/10
f 157/30/7 158/29/7 154/28/7 153/27/7
f 155/27/5 159/30/5 157/30/5 153/27/5
f 160/29/6 156/28/6 154/28/6 158/29/6
f 161/27/8 162/28/8 164/28/8 163/27/8
f 163/27/9 164/28/9 168/29/9 167/30/9
f 167/30/10 168/29/10 166/29/10 165/30/10
f 165/30/7 166/29/7 162/28/7 161/27/7
f 163/27/5 167/30/5 165/30/5 161/27/5
f 168/29/6 164/28/6 162/28/6 166/29/6
f 169/27/8 170/28/8 172/28/8 171/27/8
f 171/27/9 172/28/9 176/29/9 175/30/9
f 175/30/10 176/29/10 174/29/10 173/30/10
f 173/30/7 174/29/7 170/28/7 169/27/7
f 171/27/5 175/30/5 173/30/5 169/27/5
f 176/29/6 172/28/6 170/28/6 174/29/6
f 177/27/8 178/28/8 180/28/8 179/27/8
f 179/27/9 180/28/9 184/29/9 183/30/9
f 183/30/10 184/29/10 182/29/10 181/30/10
f 181/30/7 182/29/7 178/28/7 177/27/7
f 179/27/5 183/30/5 181/30/5 177/27/5
f 184/29/6 180/28/6 178/28/6 182/29/6
f 185/31/7 186/32/7 188/33/7 187/34/7
f 187/34/8 188/33/8 192/35/8 191/36/8
f 191/36/9 192/35/9 190/37/9 189/38/9
f 189/38/10 190/37/10 186/32/10 185/31/10
f 187/34/5 191/36/5 189/38/5 185/31/5
f 192/35/6 188/33/6 186/32/6 190/37/6
