# Blender 5.1.0
# www.blender.org
o 3
v -0.694768 0.000000 1.525397
v 1.857649 0.000000 2.384668
v -1.130132 0.000000 -0.585927
v 1.250430 0.000000 -2.441953
v -0.752053 0.000000 2.075330
v -1.324900 0.000000 -0.935364
v -0.694768 0.042652 1.525397
v 1.857649 0.042652 2.384668
v -1.130132 0.042652 -0.585927
v 1.250430 0.042652 -2.441953
v -0.752053 0.042652 2.075330
v -1.324900 0.042652 -0.935364
vn -0.0000 -1.0000 -0.0000
vn -0.0000 1.0000 -0.0000
vn -0.5049 -0.0000 -0.8631
vn -0.1177 -0.0000 0.9930
vn -0.8735 -0.0000 0.4869
vn -0.9946 -0.0000 -0.1036
vn 0.9922 -0.0000 -0.1248
vn -0.9794 -0.0000 0.2020
vt 0.000000 0.000000
vt 0.000000 1.000000
vt 1.000000 1.000000
vt 1.000000 0.000000
s 0
f 1/1/1 3/2/1 4/3/1 2/4/1
f 2/4/1 5/1/1 1/1/1
f 3/2/1 6/1/1 4/3/1
f 7/1/2 8/4/2 10/3/2 9/2/2
f 8/4/2 7/1/2 11/1/2
f 9/2/2 10/3/2 12/1/2
f 4/3/3 6/1/3 12/1/3 10/3/3
f 5/1/4 2/4/4 8/4/4 11/1/4
f 6/1/5 3/2/5 9/2/5 12/1/5
f 1/1/6 5/1/6 11/1/6 7/1/6
f 2/4/7 4/3/7 10/3/7 8/4/7
f 3/2/8 1/1/8 7/1/8 9/2/8
