# Blender 5.1.0
# www.blender.org
o 6
v -1.705384 0.000000 1.304874
v 1.791220 0.000000 1.133324
v 0.042987 0.000000 -2.323836
v 1.644102 0.000000 -2.234308
v -1.456358 0.000000 1.436408
v -0.801099 0.000000 2.093497
v -0.650553 0.000000 2.407911
v -1.705384 0.068352 1.304874
v 1.791220 0.068352 1.133324
v 0.042987 0.068352 -2.323836
v 1.644102 0.068352 -2.234308
v -1.456358 0.068352 1.436408
v -0.801099 0.068352 2.093497
v -0.650553 0.068352 2.407911
vn -0.0000 -1.0000 -0.0000
vn -0.0000 1.0000 -0.0000
vn -0.9009 -0.0000 -0.4341
vn -0.9019 -0.0000 0.4319
vn 0.0558 -0.0000 -0.9984
vn 0.4627 -0.0000 0.8865
vn -0.4670 -0.0000 0.8842
vn -0.7081 -0.0000 0.7061
vn 0.9990 -0.0000 -0.0436
vt 0.000000 0.000000
vt 0.000000 1.000000
vt 1.000000 1.000000
vt 1.000000 0.000000
s 0
f 1/1/1 3/2/1 4/3/1 2/4/1
f 2/4/1 5/1/1 1/1/1
f 2/4/1 7/1/1 6/4/1
f 5/1/1 2/4/1 6/4/1
f 8/1/2 9/4/2 11/3/2 10/2/2
f 9/4/2 8/1/2 12/1/2
f 9/4/2 13/4/2 14/1/2
f 12/1/2 13/4/2 9/4/2
f 3/2/3 1/1/3 8/1/3 10/2/3
f 6/4/4 7/1/4 14/1/4 13/4/4
f 4/3/5 3/2/5 10/2/5 11/3/5
f 7/1/6 2/4/6 9/4/6 14/1/6
f 1/1/7 5/1/7 12/1/7 8/1/7
f 5/1/8 6/4/8 13/4/8 12/1/8
f 2/4/9 4/3/9 11/3/9 9/4/9
