# Blender 5.1.0
# www.blender.org
o 8
v -2.058961 0.000000 -0.267530
v 1.971074 0.000000 1.702981
v -1.613617 0.000000 -2.307909
v 1.366146 0.000000 -2.136055
v 1.747316 0.000000 1.725149
v 0.832115 0.000000 2.197609
v 0.632276 0.000000 2.395849
v -2.058961 0.039862 -0.267530
v 1.971074 0.039862 1.702981
v -1.613617 0.039862 -2.307909
v 1.366146 0.039862 -2.136055
v 1.747316 0.039862 1.725149
v 0.832115 0.039862 2.197609
v 0.632276 0.039862 2.395849
vn -0.0000 -1.0000 -0.0000
vn -0.0000 1.0000 -0.0000
vn 0.0576 -0.0000 -0.9983
vn 0.7043 -0.0000 0.7099
vn 0.0986 -0.0000 0.9951
vn 0.9878 -0.0000 -0.1557
vn -0.9770 -0.0000 -0.2132
vn -0.7034 -0.0000 0.7108
vn 0.4587 -0.0000 0.8886
vt 0.000000 0.000000
vt 0.000000 1.000000
vt 1.000000 1.000000
vt 1.000000 0.000000
s 0
f 1/1/1 3/2/1 4/3/1 2/4/1
f 2/4/1 5/1/1 1/1/1
f 5/1/1 6/1/1 1/1/1
f 1/1/1 6/1/1 7/1/1
f 8/1/2 9/4/2 11/3/2 10/2/2
f 9/4/2 8/1/2 12/1/2
f 12/1/2 8/1/2 13/1/2
f 8/1/2 14/1/2 13/1/2
f 4/3/3 3/2/3 10/2/3 11/3/3
f 7/1/4 6/1/4 13/1/4 14/1/4
f 5/1/5 2/4/5 9/4/5 12/1/5
f 2/4/6 4/3/6 11/3/6 9/4/6
f 3/2/7 1/1/7 8/1/7 10/2/7
f 1/1/8 7/1/8 14/1/8 8/1/8
f 6/1/9 5/1/9 12/1/9 13/1/9
