# Blender 5.1.0
# www.blender.org
o 1
v -2.488009 0.000000 1.976571
v 2.273535 0.000000 1.951824
v -2.488009 0.000000 -1.786844
v 2.207543 0.000000 0.184667
v 0.829960 0.000000 -1.630113
v -2.488009 0.049840 1.976571
v 2.273535 0.049840 1.951824
v -2.488009 0.049840 -1.786844
v 2.207543 0.049840 0.184667
v 0.829960 0.049840 -1.630113
vn -0.0000 -1.0000 -0.0000
vn -0.0000 1.0000 -0.0000
vn 0.7965 -0.0000 -0.6046
vn 0.9993 -0.0000 -0.0373
vn -1.0000 -0.0000 -0.0000
vn 0.0472 -0.0000 -0.9989
vn 0.0052 -0.0000 1.0000
vt 0.000000 0.000000
vt 0.000000 1.000000
vt 1.000000 1.000000
vt 1.000000 0.000000
s 0
f 1/1/1 3/2/1 4/3/1 2/4/1
f 3/2/1 5/1/1 4/3/1
f 6/1/2 7/4/2 9/3/2 8/2/2
f 8/2/2 9/3/2 10/1/2
f 4/3/3 5/1/3 10/1/3 9/3/3
f 2/4/4 4/3/4 9/3/4 7/4/4
f 3/2/5 1/1/5 6/1/5 8/2/5
f 5/1/6 3/2/6 8/2/6 10/1/6
f 1/1/7 2/4/7 7/4/7 6/1/7
