# Blender 5.1.0
# www.blender.org
o 4
v -1.480714 0.000000 0.701668
v 0.563539 0.000000 1.190643
v -0.864875 0.000000 -0.510934
v 0.563539 0.000000 -0.574589
v -0.806861 0.000000 -0.930845
v 0.972400 0.000000 -0.566302
v 0.975163 0.000000 -0.651942
v 0.564266 0.000000 -0.716251
v -1.745921 0.000000 0.966875
v -1.522204 0.000000 1.190643
v -0.864875 0.041509 -0.510934
v -1.480714 0.041509 0.701668
v 0.563539 0.041509 1.190643
v 0.563539 0.041509 -0.574589
v -0.806861 0.041509 -0.930845
v 0.972400 0.041509 -0.566302
v 0.975163 0.041509 -0.651942
v 0.564266 0.041509 -0.716251
v -1.745921 0.041509 0.966875
v -1.522204 0.041509 1.190643
vn -0.0000 -1.0000 -0.0000
vn -0.0000 1.0000 -0.0000
vn 0.9995 -0.0000 0.0322
vn -0.7071 -0.0000 -0.7071
vn -0.8916 -0.0000 -0.4528
vn 0.1546 -0.0000 -0.9880
vn -0.9906 -0.0000 -0.1369
vn -0.0000 -0.0000 1.0000
vn -0.0203 -0.0000 0.9998
vn -0.7072 -0.0000 0.7070
vn 1.0000 -0.0000 -0.0000
vt 0.000000 0.000000
vt 0.000000 1.000000
vt 1.000000 1.000000
vt 1.000000 0.000000
s 0
f 1/1/1 3/2/1 4/3/1 2/4/1
f 6/1/1 4/1/1 8/1/1 7/1/1
f 5/1/1 8/1/1 4/3/1 3/2/1
f 2/4/1 10/1/1 9/1/1 1/1/1
f 12/1/2 13/4/2 14/3/2 11/2/2
f 16/1/2 17/1/2 18/1/2 14/1/2
f 15/1/2 11/2/2 14/3/2 18/1/2
f 13/4/2 12/1/2 19/1/2 20/1/2
f 6/1/3 7/1/3 17/1/3 16/1/3
f 1/1/4 9/1/4 19/1/4 12/1/4
f 3/2/5 1/1/5 12/1/5 11/2/5
f 7/1/6 8/1/6 18/1/6 17/1/6
f 5/1/7 3/2/7 11/2/7 15/1/7
f 10/1/8 2/4/8 13/4/8 20/1/8
f 8/1/6 5/1/6 15/1/6 18/1/6
f 4/1/9 6/1/9 16/1/9 14/1/9
f 9/1/10 10/1/10 20/1/10 19/1/10
f 2/4/11 4/3/11 14/3/11 13/4/11
