# Blender 4.5.3 LTS
# www.blender.org
mtllib VendingMachine.mtl
o VendingMachine
v -0.730997 -1.750000 1.250000
v -0.730997 1.750000 1.250000
v -0.730997 -1.750000 -1.250000
v -0.730997 1.750000 -1.250000
v 0.769003 -1.750000 1.250000
v 0.769003 -1.750000 -1.250000
v -0.730997 -1.750000 -0.697853
v -0.730997 1.750000 -0.697853
v 0.769003 -1.750000 -0.697853
v -0.730997 -0.750208 1.250000
v -0.730997 -0.750208 -1.250000
v 0.769003 -0.750208 -1.250000
v 0.769003 -0.750208 1.250000
v 0.769003 -0.750208 -0.697853
v -0.730997 -0.750208 -0.697853
v -0.730997 -1.750000 1.045793
v -0.730997 1.750000 1.045793
v 0.769003 -1.750000 1.045793
v -0.730997 -0.750208 1.045793
v 0.769003 -0.750208 1.045793
v -0.730997 1.456701 1.250000
v -0.730997 1.456701 -1.250000
v 0.769003 1.456701 -1.250000
v 0.769003 1.456701 1.250000
v 0.769003 1.456701 -0.697853
v -0.730997 1.456701 -0.697853
v -0.730997 1.456701 1.045793
v 0.769003 1.456701 1.045793
v 0.656842 1.456701 -0.697853
v 0.656842 -0.750208 -0.697853
v 0.656842 -0.750208 1.045793
v 0.656842 1.456701 1.045793
v 0.693905 1.604061 1.250000
v 0.520062 1.750000 1.250000
v 0.520062 1.750000 -1.250000
v 0.693905 1.604061 -1.250000
v 0.520062 1.750000 -0.697853
v 0.693905 1.604061 -0.697853
v 0.693905 1.604061 1.045793
v 0.520062 1.750000 1.045793
v 0.777414 -0.506929 -0.757198
v 0.777414 -0.482289 -0.739598
v 0.766854 -0.482289 -0.757198
v 0.777414 1.188789 -0.739598
v 0.777414 1.213430 -0.757198
v 0.766854 1.188789 -0.757198
v 0.777414 -0.506929 -1.191232
v 0.766854 -0.482289 -1.191232
v 0.777414 -0.482289 -1.208832
v 0.777414 1.213430 -1.191232
v 0.777414 1.188789 -1.208832
v 0.766854 1.188789 -1.191232
v 0.819232 -0.506929 -0.757198
v 0.829792 -0.482289 -0.757198
v 0.819232 -0.482289 -0.739598
v 0.819232 1.213430 -0.757198
v 0.819232 1.188789 -0.739598
v 0.829792 1.188789 -0.757198
v 0.819232 -0.506929 -1.191232
v 0.819232 -0.482289 -1.208832
v 0.829792 -0.482289 -1.191232
v 0.819232 1.213430 -1.191232
v 0.829792 1.188789 -1.191232
v 0.819232 1.188789 -1.208832
v 0.792979 1.188789 -1.191232
v 0.792979 -0.482289 -1.191232
v 0.792979 -0.482289 -0.757198
v 0.792979 1.188789 -0.757198
v 0.777414 0.353250 -0.739598
v 0.766854 0.353250 -0.757198
v 0.777414 0.353250 -1.208832
v 0.766854 0.353250 -1.191232
v 0.829792 0.353250 -1.191232
v 0.819232 0.353250 -1.208832
v 0.819232 0.353250 -0.739598
v 0.829792 0.353250 -0.757198
v 0.792979 0.353250 -1.191232
v 0.792979 0.353250 -0.757198
v 0.766854 -0.064519 -0.757198
v 0.777414 -0.064519 -1.208832
v 0.829792 -0.064519 -1.191232
v 0.819232 -0.064519 -0.739598
v 0.792979 -0.064519 -1.191232
v 0.777414 -0.064519 -0.739598
v 0.766854 -0.064519 -1.191232
v 0.819232 -0.064519 -1.208832
v 0.829792 -0.064519 -0.757198
v 0.792979 -0.064519 -0.757198
v 0.749141 -1.747389 1.067553
v 0.719898 -1.929463 1.096796
v 0.749141 -1.747389 1.225089
v 0.719898 -1.929463 1.195845
v 0.591605 -1.747389 1.067553
v 0.620849 -1.929463 1.096796
v 0.591605 -1.747389 1.225089
v 0.620849 -1.929463 1.195845
v -0.550812 -1.747390 -1.226657
v -0.580056 -1.929463 -1.197413
v -0.550812 -1.747390 -1.069121
v -0.580056 -1.929463 -1.098364
v -0.708348 -1.747390 -1.226657
v -0.679105 -1.929463 -1.197413
v -0.708348 -1.747390 -1.069121
v -0.679105 -1.929463 -1.098364
v 0.752621 -1.747390 -1.237058
v 0.723377 -1.929463 -1.207815
v 0.752621 -1.747390 -1.079522
v 0.723377 -1.929463 -1.108766
v 0.595085 -1.747390 -1.237058
v 0.624328 -1.929463 -1.207815
v 0.595085 -1.747390 -1.079522
v 0.624328 -1.929463 -1.108766
v -0.547127 -1.747390 1.074447
v -0.576370 -1.929463 1.103691
v -0.547127 -1.747390 1.231983
v -0.576370 -1.929463 1.202740
v -0.704663 -1.747390 1.074447
v -0.675419 -1.929463 1.103691
v -0.704663 -1.747390 1.231983
v -0.675419 -1.929463 1.202740
v 0.792757 -0.980716 -0.416222
v 0.792757 -1.400602 -0.416222
v 0.792757 -0.980716 0.753531
v 0.792757 -1.400602 0.753531
v 0.768982 -0.980716 -0.416222
v 0.768982 -1.400602 -0.416222
v 0.768982 -0.980716 0.753531
v 0.768982 -1.400602 0.753531
v 0.792757 -1.012207 -0.416222
v 0.792757 -1.012207 0.753531
v 0.768982 -1.012207 0.753531
v 0.768982 -1.012207 -0.416222
v 0.792757 -0.980716 0.724287
v 0.792757 -1.400602 0.724287
v 0.768982 -0.980716 0.724287
v 0.768982 -1.400602 0.724287
v 0.768982 -1.012207 0.724287
v 0.792757 -1.012207 0.724287
v 0.792757 -0.980716 -0.387709
v 0.768982 -1.400602 -0.387709
v 0.768982 -1.012207 -0.387709
v 0.792757 -1.400602 -0.387709
v 0.768982 -0.980716 -0.387709
v 0.792757 -1.012207 -0.387709
v 0.792757 -1.371472 -0.416222
v 0.792757 -1.371472 0.753531
v 0.768982 -1.371472 0.753531
v 0.768982 -1.371472 -0.416222
v 0.768982 -1.371472 0.724287
v 0.792757 -1.371472 0.724287
v 0.792757 -1.371472 -0.387709
v 0.768982 -1.371472 -0.387709
v 0.773457 -1.012207 -0.387709
v 0.773457 -1.012207 0.724287
v 0.773457 -1.371472 0.724287
v 0.773457 -1.371472 -0.387709
v 0.777414 0.770984 -0.739598
v 0.766854 0.770984 -1.191232
v 0.819232 0.770984 -1.208832
v 0.829792 0.770984 -0.757198
v 0.792979 0.770984 -0.757198
v 0.766854 0.770984 -0.757198
v 0.777414 0.770984 -1.208832
v 0.829792 0.770984 -1.191232
v 0.819232 0.770984 -0.739598
v 0.792979 0.770984 -1.191232
v 0.770091 -0.886093 -1.087581
v 0.770091 -0.618667 -1.087581
v 0.770091 -0.886093 -1.177711
v 0.770091 -0.618667 -1.177711
v 0.770091 -0.886093 -1.105607
v 0.770091 -0.618667 -1.105607
v 0.770091 -0.618667 -1.159685
v 0.770091 -0.886093 -1.159685
v 0.770091 -0.645709 -1.087581
v 0.770091 -0.645709 -1.177711
v 0.839185 -0.645709 -1.177711
v 0.839185 -0.645709 -1.087581
v 0.839185 -0.645709 -1.105607
v 0.770091 -0.645709 -1.105607
v 0.839185 -0.645709 -1.159685
v 0.770091 -0.645709 -1.159685
v 0.770091 -0.853217 -1.177711
v 0.839185 -0.853217 -1.177711
v 0.839185 -0.853217 -1.087581
v 0.839185 -0.853217 -1.105607
v 0.770091 -0.853217 -1.105607
v 0.839185 -0.853217 -1.159685
v 0.770091 -0.853217 -1.159685
v 0.770091 -0.853217 -1.087581
v 0.813511 -0.647082 -1.159685
v 0.813511 -0.647082 -1.105607
v 0.829682 -0.851845 -1.105607
v 0.829682 -0.851845 -1.159685
v 0.820023 -0.880949 -1.087581
v 0.835120 -0.864036 -1.087581
v 0.834554 -0.638398 -1.087581
v 0.817925 -0.625242 -1.087581
v 0.835120 -0.864036 -1.177711
v 0.820023 -0.880949 -1.177711
v 0.817925 -0.625242 -1.177711
v 0.834554 -0.638398 -1.177711
v 0.820023 -0.880949 -1.105607
v 0.835120 -0.864036 -1.105607
v 0.834554 -0.638398 -1.105607
v 0.817925 -0.625242 -1.105607
v 0.835120 -0.864036 -1.159685
v 0.820023 -0.880949 -1.159685
v 0.834554 -0.638398 -1.159685
v 0.817925 -0.625242 -1.159685
vn -1.0000 -0.0000 -0.0000
vn -0.0000 -1.0000 -0.0000
vn 1.0000 -0.0000 -0.0000
vn -0.0000 -0.0000 1.0000
vn -0.0000 -0.0000 -1.0000
vn -0.0000 1.0000 -0.0000
vn 0.6430 0.7659 -0.0000
vn 0.8910 0.4541 -0.0000
vn -0.8049 -0.3449 0.4829
vn -0.8049 0.3449 0.4829
vn -0.8049 -0.3449 -0.4829
vn -0.8049 0.3449 -0.4829
vn 0.8049 -0.3449 0.4829
vn 0.8049 0.3449 0.4829
vn 0.8049 -0.3449 -0.4829
vn 0.8049 0.3449 -0.4829
vn -0.9191 -0.3939 -0.0000
vn -0.8575 -0.0000 0.5145
vn -0.9191 0.3939 -0.0000
vn -0.8575 -0.0000 -0.5145
vn -0.0000 -0.5812 -0.8137
vn -0.0000 0.5812 -0.8137
vn 0.8575 -0.0000 -0.5145
vn 0.9191 -0.3939 -0.0000
vn 0.9191 0.3939 -0.0000
vn 0.8575 -0.0000 0.5145
vn -0.0000 -0.5812 0.8137
vn -0.0000 0.5812 0.8137
vn -0.9873 0.1586 -0.0000
vn -0.0000 0.1586 -0.9873
vn 0.9873 0.1586 -0.0000
vn -0.0000 0.1586 0.9873
vn 0.9969 0.0787 -0.0000
vn 0.1429 0.9897 -0.0000
vn 0.0534 -0.9986 -0.0000
vn 0.7460 -0.6659 -0.0000
vn 0.6204 0.7842 -0.0000
vn 0.1025 -0.9947 -0.0000
vn 0.9361 -0.3517 -0.0000
vn 0.1362 0.9907 -0.0000
vn 0.8448 0.5350 -0.0000
vt 0.422760 0.345397
vt 0.422760 0.369161
vt 0.422916 0.369161
vt 0.422916 0.345397
vt 0.422267 0.085571
vt 0.422209 0.085571
vt 0.422916 0.085571
vt 0.422760 0.085571
vt 0.422267 0.345397
vt 0.422267 0.369161
vt 0.422267 0.166580
vt 0.422760 0.166580
vt 0.422916 0.166580
vt 0.422209 0.166580
vt 0.422209 0.345397
vt 0.422209 0.369161
vt 0.735811 0.029054
vt 0.736022 0.029054
vt 0.920691 0.380427
vt 0.920691 0.780479
vt 0.919883 0.780479
vt 0.919883 0.380427
vt 0.736022 0.469688
vt 0.735811 0.469688
vt 0.422209 0.357337
vt 0.422267 0.357337
vt 0.422760 0.357337
vt 0.422916 0.357337
vt 0.422777 0.186292
vt 0.422772 0.188288
vt 0.422777 0.188288
vt 0.422772 0.323689
vt 0.422777 0.325685
vt 0.422777 0.323689
vt 0.422899 0.186292
vt 0.422899 0.188288
vt 0.422904 0.188288
vt 0.422899 0.325685
vt 0.422904 0.323689
vt 0.422899 0.323689
vt 0.735967 0.028132
vt 0.735967 0.034093
vt 0.735965 0.034093
vt 0.735967 0.444358
vt 0.735965 0.438397
vt 0.735967 0.438397
vt 0.736004 0.028132
vt 0.736006 0.034093
vt 0.736004 0.034093
vt 0.736004 0.444358
vt 0.736004 0.438397
vt 0.736006 0.438397
vt 0.422772 0.289836
vt 0.422777 0.289836
vt 0.422904 0.222138
vt 0.422899 0.222138
vt 0.736004 0.135169
vt 0.736006 0.135169
vt 0.735965 0.135169
vt 0.735967 0.135169
vt 0.422899 0.289836
vt 0.735965 0.337312
vt 0.736006 0.337312
vt 0.140394 0.606837
vt 0.140394 0.665335
vt 0.137528 0.665335
vt 0.137528 0.606837
vt 0.736004 0.337312
vt 0.736004 0.236245
vt 0.074056 0.608190
vt 0.074056 0.648810
vt 0.073937 0.648810
vt 0.073937 0.608190
vt 0.735967 0.337312
vt 0.735967 0.236245
vt 0.736006 0.236245
vt 0.735965 0.236245
vt 0.422777 0.222138
vt 0.422777 0.255989
vt 0.422899 0.255989
vt 0.422904 0.289836
vt 0.422904 0.255989
vt 0.422772 0.222138
vt 0.422772 0.255989
vt 0.048253 0.431363
vt 0.048253 0.489856
vt 0.047641 0.489856
vt 0.047641 0.431363
vt 0.734478 0.302240
vt 0.734477 0.276747
vt 0.734473 0.276747
vt 0.734472 0.302240
vt 0.422216 0.085782
vt 0.422261 0.085782
vt 0.734566 0.302240
vt 0.734565 0.276747
vt 0.734561 0.276747
vt 0.734560 0.302240
vt 0.422865 0.085782
vt 0.422873 0.071030
vt 0.422909 0.085782
vt 0.734567 0.302240
vt 0.734565 0.276747
vt 0.734562 0.276747
vt 0.734561 0.302240
vt 0.422868 0.085782
vt 0.422912 0.085782
vt 0.422876 0.071030
vt 0.422904 0.071030
vt 0.734478 0.302240
vt 0.734477 0.276747
vt 0.734473 0.276747
vt 0.734472 0.302240
vt 0.422215 0.085782
vt 0.422259 0.085782
vt 0.737776 0.067945
vt 0.737776 0.039878
vt 0.737768 0.039878
vt 0.737768 0.067945
vt 0.422672 0.116241
vt 0.422672 0.113881
vt 0.422680 0.113881
vt 0.422680 0.116241
vt 0.738080 0.067945
vt 0.738080 0.039878
vt 0.738072 0.444440
vt 0.738080 0.444440
vt 0.738072 0.039878
vt 0.738080 0.414098
vt 0.422672 0.147903
vt 0.422672 0.145351
vt 0.422680 0.145351
vt 0.422680 0.147903
vt 0.737768 0.444440
vt 0.737768 0.414098
vt 0.737776 0.444440
vt 0.737776 0.414098
vt 0.738072 0.414098
vt 0.422350 0.147903
vt 0.422350 0.145351
vt 0.422358 0.145351
vt 0.422358 0.147903
vt 0.422350 0.116241
vt 0.422350 0.113881
vt 0.422358 0.113881
vt 0.422358 0.116241
vt 0.738072 0.067945
vt 0.425558 0.084528
vt 0.425558 0.012094
vt 0.424916 0.012094
vt 0.424916 0.084528
vt 0.110063 0.603036
vt 0.110063 0.661524
vt 0.108359 0.661524
vt 0.108359 0.603036
vt 0.422890 0.175047
vt 0.422890 0.177238
vt 0.422895 0.177238
vt 0.422895 0.175047
vt 0.422870 0.175047
vt 0.422870 0.177238
vt 0.422875 0.177238
vt 0.422875 0.175047
vt 0.422875 0.158234
vt 0.422890 0.158234
vt 0.016196 0.540161
vt 0.016196 0.581998
vt 0.016178 0.581998
vt 0.016178 0.540161
vt 0.422870 0.158234
vt 0.018239 0.330800
vt 0.018239 0.381005
vt 0.018239 0.380673
vt 0.018239 0.331132
vt 0.016105 0.540161
vt 0.016105 0.581998
vt 0.016123 0.540161
vt 0.016123 0.581998
vt 0.422895 0.158234
vt 0.422890 0.155570
vt 0.422895 0.155570
vt 0.422870 0.155570
vt 0.422875 0.155570
vt 0.016478 0.380673
vt 0.016478 0.331132
vt 0.016478 0.381005
vt 0.016478 0.330800
vt 0.016178 0.540438
vt 0.016123 0.540438
vt 0.422875 0.174936
vt 0.422890 0.174936
vt 0.016178 0.534570
vt 0.016196 0.534570
vt 0.016196 0.537979
vt 0.016178 0.537979
vt 0.016123 0.586125
vt 0.016105 0.586125
vt 0.016105 0.583472
vt 0.016123 0.583472
vt 0.016105 0.534570
vt 0.016123 0.534570
vt 0.016123 0.537979
vt 0.016105 0.537979
vt 0.016178 0.586125
vt 0.016178 0.583472
vt 0.016196 0.586125
vt 0.016196 0.583472
vt 0.016105 0.533533
vt 0.016123 0.533533
vt 0.016123 0.587451
vt 0.016105 0.587451
vt 0.016196 0.533533
vt 0.016178 0.533533
vt 0.016196 0.587451
vt 0.016178 0.587451
s 0
usemtl Material
f 26/1/1 8/2/1 4/3/1 22/4/1
f 16/5/2 18/5/2 5/6/2 1/6/2
f 3/7/2 6/7/2 9/8/2 7/8/2
f 27/9/1 17/10/1 8/2/1 26/1/1
f 16/5/1 19/11/1 15/12/1 7/8/1
f 6/7/3 12/13/3 14/12/3 9/8/3
f 5/6/4 13/14/4 10/14/4 1/6/4
f 18/5/3 20/11/3 13/14/3 5/6/3
f 3/7/5 11/13/5 12/13/5 6/7/5
f 7/8/1 15/12/1 11/13/1 3/7/1
f 9/8/3 14/12/3 20/11/3 18/5/3
f 1/6/1 10/14/1 19/11/1 16/5/1
f 21/15/1 2/16/1 17/10/1 27/9/1
f 7/8/2 9/8/2 18/5/2 16/5/2
f 20/17/6 14/18/6 30/18/6 31/17/6
f 10/14/1 21/15/1 27/9/1 19/11/1
f 19/11/1 27/9/1 26/1/1 15/12/1
f 12/13/3 23/4/3 25/1/3 14/12/3
f 13/14/4 24/15/4 21/15/4 10/14/4
f 20/11/3 28/9/3 24/15/3 13/14/3
f 11/13/5 22/4/5 23/4/5 12/13/5
f 15/12/1 26/1/1 22/4/1 11/13/1
f 30/19/3 29/20/3 32/21/3 31/22/3
f 14/18/4 25/23/4 29/23/4 30/18/4
f 28/24/5 20/17/5 31/17/5 32/24/5
f 25/23/2 28/24/2 32/24/2 29/23/2
f 40/10/7 34/16/7 33/25/7 39/26/7
f 35/3/7 37/2/7 38/27/7 36/28/7
f 37/2/7 40/10/7 39/26/7 38/27/7
f 40/10/6 17/10/6 2/16/6 34/16/6
f 24/15/4 33/25/4 34/16/4 2/16/4 21/15/4
f 28/9/8 39/26/8 33/25/8 24/15/8
f 35/3/6 4/3/6 8/2/6 37/2/6
f 23/4/8 36/28/8 38/27/8 25/1/8
f 22/4/5 4/3/5 35/3/5 36/28/5 23/4/5
f 37/2/6 8/2/6 17/10/6 40/10/6
f 25/1/8 38/27/8 39/26/8 28/9/8
f 41/29/9 42/30/9 43/31/9
f 44/32/10 45/33/10 46/34/10
f 47/35/11 48/36/11 49/37/11
f 50/38/12 51/39/12 52/40/12
f 53/41/13 54/42/13 55/43/13
f 56/44/14 57/45/14 58/46/14
f 59/47/15 60/48/15 61/49/15
f 62/50/16 63/51/16 64/52/16
f 47/35/17 41/29/17 43/31/17 48/36/17
f 157/53/18 44/32/18 46/34/18 162/54/18
f 45/33/19 50/38/19 52/40/19 46/34/19
f 80/55/20 49/37/20 48/36/20 85/56/20
f 59/47/21 47/47/21 49/48/21 60/48/21
f 50/50/22 62/50/22 64/52/22 51/52/22
f 81/57/23 61/49/23 60/48/23 86/58/23
f 53/41/24 59/47/24 61/49/24 54/42/24
f 62/50/25 56/44/25 58/46/25 63/51/25
f 82/59/26 55/43/26 54/42/26 87/60/26
f 41/41/27 53/41/27 55/43/27 42/43/27
f 56/44/28 45/44/28 44/45/28 57/45/28
f 47/47/2 59/47/2 53/41/2 41/41/2
f 162/54/1 46/34/1 52/40/1 158/61/1
f 165/62/4 57/45/4 44/45/4 157/62/4
f 62/50/6 50/50/6 45/44/6 56/44/6
f 163/63/5 51/52/5 64/52/5 159/63/5
f 87/60/5 54/42/5 67/42/5 88/60/5
f 166/64/3 65/65/3 68/66/3 161/67/3
f 63/51/2 58/46/2 68/46/2 65/51/2
f 54/42/6 61/49/6 66/49/6 67/42/6
f 164/68/4 63/51/4 65/51/4 166/68/4
f 81/57/4 73/69/4 77/69/4 83/57/4
f 83/70/3 77/71/3 78/72/3 88/73/3
f 160/74/5 76/75/5 78/75/5 161/74/5
f 80/58/5 71/76/5 74/76/5 86/58/5
f 82/59/4 75/77/4 69/77/4 84/59/4
f 79/78/1 70/79/1 72/80/1 85/56/1
f 165/62/26 75/77/26 76/75/26 160/74/26
f 164/68/23 73/69/23 74/76/23 159/63/23
f 163/81/20 71/82/20 72/80/20 158/61/20
f 84/83/18 69/84/18 70/79/18 79/78/18
f 42/30/18 84/83/18 79/78/18 43/31/18
f 43/31/1 79/78/1 85/56/1 48/36/1
f 55/43/4 82/59/4 84/59/4 42/43/4
f 49/48/5 80/58/5 86/58/5 60/48/5
f 66/85/3 83/86/3 88/87/3 67/88/3
f 61/49/4 81/57/4 83/57/4 66/49/4
f 76/75/5 87/60/5 88/60/5 78/75/5
f 75/77/26 82/59/26 87/60/26 76/75/26
f 73/69/23 81/57/23 86/58/23 74/76/23
f 71/82/20 80/55/20 85/56/20 72/80/20
f 89/89/29 90/90/29 92/91/29 91/92/29
f 91/92/30 92/91/30 96/91/30 95/92/30
f 95/92/31 96/91/31 94/90/31 93/89/31
f 93/89/32 94/90/32 90/90/32 89/89/32
f 91/93/2 95/93/2 93/94/2 89/94/2
f 96/91/6 92/91/6 90/90/6 94/90/6
f 97/95/29 98/96/29 100/97/29 99/98/29
f 99/99/30 100/100/30 104/100/30 103/99/30
f 103/98/31 104/97/31 102/96/31 101/95/31
f 101/95/32 102/96/32 98/96/32 97/95/32
f 99/99/2 103/99/2 101/101/2 97/101/2
f 104/97/6 100/97/6 98/96/6 102/96/6
f 105/102/29 106/103/29 108/104/29 107/105/29
f 107/105/30 108/104/30 112/104/30 111/105/30
f 111/105/31 112/104/31 110/103/31 109/102/31
f 109/102/32 110/103/32 106/103/32 105/102/32
f 107/106/2 111/106/2 109/107/2 105/107/2
f 112/108/6 108/108/6 106/109/6 110/109/6
f 113/110/29 114/111/29 116/112/29 115/113/29
f 115/113/30 116/112/30 120/112/30 119/113/30
f 119/113/31 120/112/31 118/111/31 117/110/31
f 117/110/32 118/111/32 114/111/32 113/110/32
f 115/114/2 119/114/2 117/115/2 113/115/2
f 120/112/6 116/112/6 114/111/6 118/111/6
f 150/116/1 134/117/1 124/118/1 146/119/1
f 146/119/5 124/118/5 128/118/5 147/119/5
f 152/120/3 140/121/3 126/122/3 148/123/3
f 148/124/4 126/125/4 122/125/4 145/124/4
f 139/126/2 143/126/2 125/127/2 121/127/2
f 140/128/6 142/128/6 122/125/6 126/125/6
f 125/127/4 132/129/4 129/129/4 121/127/4
f 143/130/3 141/131/3 132/132/3 125/133/3
f 123/134/5 130/135/5 131/135/5 127/134/5
f 133/136/1 138/137/1 130/135/1 123/134/1
f 139/126/1 144/138/1 138/137/1 133/136/1
f 127/139/3 131/140/3 137/141/3 135/142/3
f 128/118/6 124/118/6 134/117/6 136/117/6
f 123/134/2 127/134/2 135/136/2 133/136/2
f 147/143/3 128/144/3 136/145/3 149/146/3
f 151/147/1 142/128/1 134/117/1 150/116/1
f 145/124/1 122/125/1 142/128/1 151/147/1
f 121/127/1 129/129/1 144/138/1 139/126/1
f 135/142/3 137/141/3 141/131/3 143/130/3
f 136/117/6 134/117/6 142/128/6 140/128/6
f 133/136/2 135/136/2 143/126/2 139/126/2
f 149/146/3 136/145/3 140/121/3 152/120/3
f 137/141/3 149/146/3 152/120/3 141/131/3
f 129/129/1 145/124/1 151/147/1 144/138/1
f 150/116/4 138/137/4 154/137/4 155/116/4
f 131/140/3 147/143/3 149/146/3 137/141/3
f 132/129/4 148/124/4 145/124/4 129/129/4
f 141/131/3 152/120/3 148/123/3 132/132/3
f 130/135/5 146/119/5 147/119/5 131/135/5
f 138/137/1 150/116/1 146/119/1 130/135/1
f 153/148/1 156/149/1 155/150/1 154/151/1
f 144/138/5 151/147/5 156/147/5 153/138/5
f 138/137/6 144/138/6 153/138/6 154/137/6
f 151/147/2 150/116/2 155/116/2 156/147/2
f 51/39/20 163/81/20 158/61/20 52/40/20
f 63/51/23 164/68/23 159/63/23 64/52/23
f 57/45/26 165/62/26 160/74/26 58/46/26
f 58/46/5 160/74/5 161/74/5 68/46/5
f 73/69/4 164/68/4 166/68/4 77/69/4
f 77/152/3 166/153/3 161/154/3 78/155/3
f 71/76/5 163/63/5 159/63/5 74/76/5
f 75/77/4 165/62/4 157/62/4 69/77/4
f 70/79/1 162/54/1 158/61/1 72/80/1
f 69/84/18 157/53/18 162/54/18 70/79/18
f 182/156/1 173/157/1 170/158/1 176/159/1
f 175/160/1 168/161/1 172/162/1 180/163/1
f 180/163/1 172/162/1 173/157/1 182/156/1
f 187/164/1 180/163/1 182/156/1 189/165/1
f 184/166/3 177/167/3 181/168/3 188/169/3
f 190/170/1 175/160/1 180/163/1 187/164/1
f 188/171/4 181/172/4 191/173/4 194/174/4
f 185/175/4 178/176/4 175/176/4 190/175/4
f 186/177/3 179/178/3 178/176/3 185/175/3
f 183/166/5 176/167/5 177/167/5 184/166/5
f 189/165/1 182/156/1 176/159/1 183/179/1
f 174/180/1 189/165/1 183/179/1 169/181/1
f 167/182/1 190/170/1 187/164/1 171/183/1
f 171/183/1 187/164/1 189/165/1 174/180/1
f 194/174/33 191/173/33 192/184/33 193/185/33
f 179/186/5 186/187/5 193/185/5 192/184/5
f 186/177/34 188/169/34 194/188/34 193/189/34
f 181/156/35 179/163/35 192/190/35 191/191/35
f 208/192/36 200/193/36 199/194/36 207/195/36
f 206/196/37 198/197/37 197/198/37 205/199/37
f 195/200/36 203/201/36 204/202/36 196/203/36
f 210/204/37 206/196/37 205/199/37 209/205/37
f 203/201/36 208/192/36 207/195/36 204/202/36
f 201/206/37 210/204/37 209/205/37 202/207/37
f 195/200/4 196/203/4 185/175/4 190/175/4 167/208/4
f 171/209/38 203/201/38 195/200/38 167/208/38
f 204/202/39 186/177/39 185/175/39 196/203/39
f 206/196/40 172/210/40 168/211/40 198/197/40
f 178/176/4 197/198/4 198/197/4 168/211/4 175/176/4
f 179/178/41 205/199/41 197/198/41 178/176/41
f 169/212/5 183/166/5 184/166/5 199/194/5 200/193/5
f 199/194/39 184/166/39 188/169/39 207/195/39
f 169/212/38 200/193/38 208/192/38 174/213/38
f 201/206/40 170/214/40 173/215/40 210/204/40
f 177/167/41 202/207/41 209/205/41 181/168/41
f 176/167/5 170/214/5 201/206/5 202/207/5 177/167/5
f 207/195/39 188/169/39 186/177/39 204/202/39
f 174/213/38 208/192/38 203/201/38 171/209/38
f 181/168/41 209/205/41 205/199/41 179/178/41
f 210/204/40 173/215/40 172/210/40 206/196/40
